<?xml version="1.0" encoding="UTF-8"?>
<svg xmlns:xodm="http://www.corel.com/coreldraw/odm/2003" xmlns="http://www.w3.org/2000/svg" xmlns:xlink="http://www.w3.org/1999/xlink" version="1.1" id="Layer_1" x="0px" y="0px" viewBox="0 0 2500 776" style="enable-background:new 0 0 2500 776;" xml:space="preserve">
<style type="text/css">
	.st0{fill:#2B61D1;}
	.st1{fill:#FFFFFF;}
	.st2{fill:#36395A;}
</style>
<g id="Layer_x0020_1">
	<g id="_2495421313408">
		<path id="Path_81" class="st0" d="M391.2,0c213.3,1.4,385.4,174.7,385.4,388c0,214.3-173.8,388-388,388S0.6,602.3,0.6,388    C1.3,173.5,175.5,0,389.9,0C390.3,0,390.8,0,391.2,0L391.2,0L391.2,0z"></path>
		<g id="Group_179">
			<polygon id="Path_73" class="st1" points="437.5,613.3 393,639 297.4,583.9 340.8,558.8 341.9,558.2 343.6,559.2    "></polygon>
			<polygon id="Path_74" class="st1" points="608.3,266.2 608.3,317.9 514.2,263.6 488.7,248.8 463.2,263.6 343.6,332.6      318.1,347.4 318.1,377.9 272,351.3 246.5,336.6 221,351.3 177.7,376.3 177.7,266.2 393,141.9    "></polygon>
			<polygon id="Path_75" class="st1" points="608.3,376.7 608.3,514.9 488.7,583.9 488.5,583.9 369.1,514.9 369.1,376.7      488.7,307.6    "></polygon>
			<polygon id="Path_76" class="st1" points="315.3,435.1 315.3,514.5 246.5,554.3 177.7,514.6 177.7,435.2 246.5,395.4    "></polygon>
		</g>
		<g id="Group_178">
			<polygon id="Path_77" class="st2" points="1083.3,235.6 1083.3,368.8 1326.8,368.8 1326.8,462.3 1083.3,462.3 1083.3,645.9      961.6,645.9 961.6,141.9 1359.1,141.9 1359.1,235.6    "></polygon>
			<polygon id="Path_78" class="st2" points="1412.4,141.9 1529.6,141.9 1529.6,645.9 1412.4,645.9    "></polygon>
			<path id="Path_79" class="st2" d="M2028.2,241.6v404.2H1917v-48.1c-31,34.4-75.2,54.1-121.6,54.1c-1.3,0-2.6,0-3.9,0     c-101.4,0-172.8-57.1-172.8-181.9l0-228.3h117.2v211.2c0,67.6,30,97.7,81.9,97.7c54.1,0,93.2-34.6,93.2-109V241.6L2028.2,241.6     L2028.2,241.6z"></path>
			<polygon id="Path_80" class="st2" points="2366.4,645.9 2277.7,521.8 2186.2,645.9 2058.3,645.9 2213.8,442.2 2063.6,241.6      2195,241.6 2280.9,359.6 2368.8,241.6 2493.6,241.6 2343.3,439.2 2499.4,645.9    "></polygon>
		</g>
	</g>
</g>
</svg>
