<svg width="98" height="98" viewBox="0 0 98 98" fill="none" xmlns="http://www.w3.org/2000/svg">
<path fill-rule="evenodd" clip-rule="evenodd" d="M47.1206 91.2668C47.244 91.3382 47.3409 91.3934 47.4096 91.432L47.5236 91.4956C48.4336 91.9952 49.5625 91.9914 50.4734 91.4972L50.5904 91.432C50.6591 91.3934 50.756 91.3382 50.8794 91.2668C51.126 91.1239 51.4785 90.9154 51.9216 90.6426C52.8076 90.0971 54.0582 89.2926 55.5522 88.2372C58.5349 86.1301 62.5148 83.0037 66.5034 78.92C74.4419 70.792 82.6875 58.5802 82.6875 42.875C82.6875 24.2699 67.6051 9.1875 49 9.1875C30.3949 9.1875 15.3125 24.2699 15.3125 42.875C15.3125 58.5802 23.5581 70.792 31.4966 78.92C35.4852 83.0037 39.4651 86.1301 42.4478 88.2372C43.9418 89.2926 45.1924 90.0971 46.0784 90.6426C46.5215 90.9154 46.874 91.1239 47.1206 91.2668ZM49 55.125C55.7655 55.125 61.25 49.6405 61.25 42.875C61.25 36.1095 55.7655 30.625 49 30.625C42.2345 30.625 36.75 36.1095 36.75 42.875C36.75 49.6405 42.2345 55.125 49 55.125Z" fill="#0095FF"/>
</svg>
