<svg width="469" height="124" viewBox="0 0 469 124" fill="none" xmlns="http://www.w3.org/2000/svg">
<g clip-path="url(#clip0_1177_20)">
<path d="M166.703 0.0187988H182.105V22.4809L203.454 0.0187988H221.726L197.901 24.8936L223.133 61.9627H205.199L187.283 35.2176L182.068 40.6975V61.9627H166.703V0.0187988Z" fill="white"/>
<path d="M252.437 46.14V40.8097C250.111 41.857 247.635 42.6426 245.14 43.1475C239.662 44.3632 237.392 45.7472 237.392 49.1886C237.392 52.6299 239.999 54.1261 243.451 54.1261C248.76 54.1261 252.4 50.9279 252.4 46.14H252.437ZM223.734 44.2884C223.734 34.4881 231.557 31.5331 240.787 30.3361C249.135 29.2887 252.1 28.4284 252.1 25.3985C252.1 22.3686 250.261 20.6293 246.04 20.6293C241.5 20.6293 239.268 22.6305 238.836 26.3524H225.836C226.192 18.1231 232.533 11.0908 246.003 11.0908C252.7 11.0908 257.24 12.3065 260.448 14.7379C264.275 17.5059 266.094 21.845 266.094 27.3997V49.7683C266.094 53.3406 266.451 55.3231 267.614 56.0899V61.9813H253.882C253.038 60.4664 252.512 58.7644 252.362 57.0438H252.193C249.567 60.7656 245.665 63.0848 238.968 63.0848C230.094 63.0848 223.809 58.3156 223.809 49.4878L223.734 44.2884Z" fill="white"/>
<path d="M304.608 39.8185C304.608 32.3748 301.569 26.9883 295.397 26.9883C289.75 26.9883 286.43 32.1877 286.43 39.6502C286.43 47.3745 289.75 52.2185 295.228 52.2185C301.175 52.2185 304.608 47.0939 304.608 39.8185ZM272.078 39.8185C272.078 25.941 280.089 16.3277 291.57 16.3277C291.832 16.309 292.095 16.309 292.358 16.309C297.085 16.309 301.513 18.7217 304.045 22.6867H304.308V0.0187988H318.472V61.9627H304.852V55.9217H304.683C302.094 60.5787 297.179 63.4776 291.832 63.4776C291.757 63.4776 291.682 63.4776 291.607 63.4776C280.201 63.4776 272.116 54.7247 272.116 39.8933L272.078 39.8185Z" fill="white"/>
<path d="M356.011 35.0492C355.485 29.7563 352.184 26.3711 347.569 26.3711C342.166 26.3711 339.408 29.7563 338.47 35.0492H356.011ZM324.438 39.7436C324.438 26.4646 333.742 16.3276 347.306 16.3276C347.494 16.3276 347.681 16.3276 347.869 16.3276C353.253 16.3276 358.449 18.3101 362.464 21.8824C367.773 26.7451 370.381 34.4694 370.306 43.4655H338.357C339.22 49.5065 342.522 53.1723 348.357 53.1723C348.563 53.191 348.75 53.191 348.957 53.191C351.902 53.191 354.566 51.4516 355.748 48.7584H369.574C368.448 53.0414 365.785 56.7819 362.108 59.2507C358.187 61.9065 353.553 63.3466 348.807 63.3466C348.6 63.3466 348.375 63.3466 348.169 63.3279C333.461 63.3279 324.438 53.1723 324.438 39.7436Z" fill="white"/>
<path d="M376.438 17.6181H390.076V23.6591H390.339C393.171 19.0769 398.199 16.2715 403.621 16.2715C403.771 16.2715 403.94 16.2715 404.09 16.2715C413.826 16.2715 419.586 23.2102 419.586 33.0854V61.9439H405.403V36.003C405.403 31.3273 403.058 28.1104 398.443 28.1104C393.828 28.1104 390.62 32.0006 390.62 37.4618V61.9439H376.438C376.437 61.9626 376.438 17.6181 376.438 17.6181Z" fill="white"/>
<path d="M453.918 46.14V40.8097C451.592 41.857 449.116 42.6426 446.621 43.1475C441.143 44.3632 438.873 45.7472 438.873 49.1886C438.873 52.6299 441.481 54.1261 444.932 54.1261C450.279 54.1261 453.918 50.9092 453.918 46.14ZM425.216 44.2884C425.216 34.4881 433.057 31.5331 442.269 30.3361C450.617 29.2887 453.581 28.4284 453.581 25.3985C453.581 22.3686 451.761 20.6293 447.521 20.6293C442.981 20.6293 440.749 22.6305 440.317 26.3524H427.242C427.598 18.1231 433.939 11.0908 447.428 11.0908C454.106 11.0908 458.646 12.3065 461.854 14.7379C465.681 17.5059 467.501 21.845 467.501 27.3997V49.7683C467.501 53.3406 467.857 55.3231 469.02 56.0899V61.9813H455.269C454.425 60.4664 453.9 58.7644 453.75 57.0438H453.581C450.973 60.7656 447.052 63.0848 440.374 63.0848C431.5 63.0848 425.141 58.3156 425.141 49.4878L425.216 44.2884Z" fill="white"/>
<path d="M59.1729 45.5977L62.3996 49.7684C62.3996 49.7684 81.7787 78.1406 91.4776 92.3174C98.1749 102.136 104.872 111.974 111.57 121.793L112.995 123.981L77.2012 124C65.3261 106.419 41.7448 71.1645 41.7448 71.1645L39.7188 67.4613" fill="url(#paint0_linear_1177_20)"/>
<path d="M31.2892 81.956C30.8577 82.3113 30.8765 82.8911 30.8765 83.3961L30.3887 85.0045L28.0625 47.7858L30.8953 44.756L73.4617 0.355354L73.7994 0C85.6182 0.0374057 110.306 0 110.306 0C110.306 0 34.7411 78.3276 31.2892 81.956Z" fill="url(#paint1_linear_1177_20)"/>
<path d="M0 0.0373535H30.9352V123.963H0V0.0373535Z" fill="white"/>
</g>
<defs>
<linearGradient id="paint0_linear_1177_20" x1="33.8173" y1="71.7825" x2="90.6981" y2="93.456" gradientUnits="userSpaceOnUse">
<stop stop-color="#EC058E"/>
<stop offset="0.0705882" stop-color="#EC058E"/>
<stop offset="1" stop-color="white"/>
</linearGradient>
<linearGradient id="paint1_linear_1177_20" x1="40.2597" y1="44.332" x2="107.256" y2="33.9099" gradientUnits="userSpaceOnUse">
<stop stop-color="#EC058E"/>
<stop offset="0.0705882" stop-color="#EC058E"/>
<stop offset="1" stop-color="white"/>
</linearGradient>
<clipPath id="clip0_1177_20">
<rect width="469" height="124" fill="white"/>
</clipPath>
</defs>
</svg>
