<svg width="590" height="81" viewBox="0 0 590 81" fill="none" xmlns="http://www.w3.org/2000/svg">
<path d="M437.997 7.09837C437.997 3.2623 435.633 1 431.103 1H366.894C362.364 1 360 3.2623 360 7.09837V13L431.3 12.9016C435.732 12.9016 438.096 10.8361 437.997 7.09837Z" fill="#0C9ED9"/>
<path d="M0 5.91544V73.029C0 77.0637 2.35999 78.9334 6.88331 78.9334H70.3081C74.7331 78.9334 77.1915 77.0637 77.1915 73.029C77.1915 69.1912 74.6348 67.1246 70.3081 67.1246H15.8316C13.6683 67.1246 12.7833 66.1405 12.7833 64.074V5.91544C12.7833 2.66801 10.1283 0.0110258 6.88331 0.0110258C6.68665 0.0110258 6.48998 0.0110258 6.39165 0.0110258C3.04832 -0.185788 0.196666 2.2744 0 5.62024C0 5.71864 0 5.81704 0 5.91544ZM108.953 49.6082V6.01386C108.658 2.47121 105.61 -0.185782 102.07 0.109439C98.9231 0.40466 96.4647 2.86483 96.1697 6.01386V50.789C96.1697 77.9494 112.985 81 142.19 81C171.395 81 188.209 77.9494 188.209 50.789V6.01386C187.914 2.47121 184.866 -0.185782 181.326 0.109439C178.18 0.40466 175.721 2.86483 175.426 6.01386V49.6082C175.426 71.7497 163.626 68.6991 142.19 68.6991C120.753 68.6991 108.953 71.3561 108.953 49.6082ZM313.092 19.7908V74.1115C313.092 77.3589 315.747 80.0159 318.992 80.0159C319.189 80.0159 319.386 80.0159 319.484 80.0159C322.631 80.3111 325.581 78.0478 325.876 74.8003C325.876 74.6035 325.876 74.3083 325.876 74.1115V8.86765C326.171 4.24253 322.631 0.40466 318.009 0.109439C317.911 0.109439 317.812 0.109439 317.714 0.109439C313.289 0.109439 311.322 2.56961 307.094 6.50589L274.349 38.7834L241.604 6.70272C237.376 2.37281 234.229 0.109439 230.493 0.109439C225.871 0.503067 222.331 4.24253 222.233 8.86765V74.1115C222.233 77.3589 224.888 80.0159 228.133 80.0159C228.329 80.0159 228.526 80.0159 228.624 80.0159C231.771 80.3111 234.721 78.0478 235.016 74.8003C235.016 74.6035 235.016 74.3083 235.016 74.1115V19.594H235.704L266.876 49.2145C269.728 51.9699 271.891 54.1349 274.153 54.1349C277.004 54.1349 278.479 51.8715 281.528 49.2145L312.601 19.7908H313.092ZM360.292 34.3551V73.029C360.292 77.0637 362.652 78.9334 367.176 78.9334H431.879C436.304 78.9334 438.664 77.0637 438.664 73.029C438.664 69.1912 436.304 67.1246 431.879 67.1246H376.124C373.961 67.1246 373.076 66.1405 373.076 64.074V46.2623H415.26C419.784 46.2623 422.144 44.1958 422.144 40.3579C422.144 36.6184 419.784 34.4535 415.26 34.4535L360.292 34.3551ZM560.793 72.4386V6.01386C560.793 2.66802 558.04 0.0110318 554.697 0.109439C554.598 0.109439 554.5 0.109439 554.402 0.109439C551.157 -0.185782 548.305 2.27439 548.01 5.52182C548.01 5.71864 548.01 5.91545 548.01 6.01386V59.8425L484.585 6.60431C480.259 2.96325 477.8 0.207852 473.67 0.207852C469.147 0.207852 466.099 3.25846 466.099 8.96607V74.2099C466.099 77.5558 468.852 80.2127 472.195 80.1143C472.294 80.1143 472.392 80.1143 472.49 80.1143C475.735 80.4096 478.587 77.9494 478.882 74.702C478.882 74.5051 478.882 74.3083 478.882 74.2099V19.2004L541.618 73.1274C545.847 76.6701 548.698 80.0159 553.123 80.0159C557.253 80.1143 560.695 76.9653 560.892 72.7338C560.793 72.6354 560.793 72.537 560.793 72.4386ZM569.742 10.8358C569.643 5.2266 574.068 0.503085 579.673 0.404678C585.278 0.306271 589.9 4.73456 589.998 10.3438C589.998 10.4422 589.998 10.639 589.998 10.7374V10.8358C590.097 16.445 585.672 21.0701 580.067 21.1685C574.462 21.2669 569.84 16.8386 569.742 11.2294C569.742 11.0326 569.742 10.9342 569.742 10.8358ZM588.818 10.7374C588.917 5.71866 584.983 1.68395 579.968 1.58554C575.052 1.48714 570.922 5.42342 570.823 10.4422C570.823 10.5406 570.823 10.639 570.823 10.8358V10.9342C570.725 15.8546 574.658 19.9877 579.673 20.0861C584.59 20.1845 588.72 16.2482 588.818 11.2294C588.818 11.0326 588.818 10.8358 588.818 10.7374ZM575.937 5.42341H580.558C582.82 5.42341 584.492 6.50591 584.492 8.67086C584.59 10.147 583.508 11.4262 582.132 11.8199L584.885 15.7561H582.525L580.067 12.2135H577.903V15.7561H575.937V5.42341ZM580.362 10.5406C581.738 10.5406 582.427 9.85172 582.427 8.86765C582.427 7.78518 581.64 7.19475 580.362 7.19475H577.805V10.5406H580.362Z" fill="white"/>
</svg>
