<svg width="689" height="109" viewBox="0 0 689 109" fill="none" xmlns="http://www.w3.org/2000/svg">
<g clip-path="url(#clip0_1178_156)">
<path fill-rule="evenodd" clip-rule="evenodd" d="M169.085 6.21472C178.001 22.2743 181.94 40.6199 180.4 58.9211C178.861 77.2223 171.913 94.6533 160.439 109H110.873L126.131 82.0388H105.948L129.737 40.153H150.035L169.085 6.26092V6.21472ZM71.2013 109H20.6644C8.97638 94.7159 1.88482 77.233 0.321082 58.8477C-1.24266 40.4623 2.79455 22.0342 11.9025 5.98368L44.6845 62.8864L80.8186 0H133.991L71.2245 108.954L71.2013 109Z" fill="white"/>
<path d="M210.867 58.4044C210.867 29.3177 225.362 15.3403 249.175 15.3403C272.987 15.3403 287.459 29.3177 287.459 58.4044C287.459 87.491 272.871 101.307 249.175 101.307C225.478 101.307 210.867 87.2138 210.867 58.4044ZM219.467 58.4044C219.467 82.316 230.379 93.7057 249.175 93.7057C267.97 93.7057 278.859 82.316 278.859 58.4044C278.859 34.4927 267.947 22.9412 249.175 22.9412C230.402 22.9412 219.467 34.3541 219.467 58.4044Z" fill="white"/>
<path d="M350.037 18.7827C350.341 17.9875 350.88 17.3034 351.582 16.8207C352.283 16.338 353.115 16.0796 353.967 16.0797C354.516 16.0766 355.061 16.1828 355.569 16.3921C356.076 16.6014 356.537 16.9097 356.925 17.2989C357.312 17.6882 357.618 18.1506 357.825 18.6592C358.031 19.1678 358.135 19.7124 358.129 20.2613C358.108 20.8861 357.983 21.503 357.759 22.0864L329.045 97.7488C328.779 98.5783 328.256 99.302 327.552 99.8154C326.848 100.329 325.999 100.606 325.127 100.606C324.255 100.606 323.406 100.329 322.702 99.8154C321.997 99.302 321.474 98.5783 321.208 97.7488L292.495 22.0864C292.271 21.503 292.146 20.8861 292.125 20.2613C292.119 19.7124 292.222 19.1678 292.429 18.6592C292.636 18.1506 292.942 17.6882 293.329 17.2989C293.716 16.9097 294.177 16.6014 294.685 16.3921C295.193 16.1828 295.737 16.0766 296.287 16.0797C297.138 16.0796 297.97 16.338 298.672 16.8207C299.374 17.3034 299.912 17.9875 300.217 18.7827L325.115 84.7649L350.037 18.7827Z" fill="white"/>
<path d="M375.56 61.0844V96.4089C375.603 96.9827 375.527 97.559 375.337 98.102C375.146 98.645 374.846 99.1428 374.454 99.5645C374.063 99.9861 373.588 100.322 373.06 100.552C372.533 100.782 371.963 100.901 371.388 100.901C370.812 100.901 370.242 100.782 369.715 100.552C369.187 100.322 368.712 99.9861 368.321 99.5645C367.929 99.1428 367.629 98.645 367.438 98.102C367.248 97.559 367.172 96.9827 367.215 96.4089V20.169C367.172 19.5953 367.248 19.0189 367.438 18.476C367.629 17.933 367.929 17.4351 368.321 17.0135C368.712 16.5918 369.187 16.2555 369.715 16.0255C370.242 15.7955 370.812 15.6768 371.388 15.6768C371.963 15.6768 372.533 15.7955 373.06 16.0255C373.588 16.2555 374.063 16.5918 374.454 17.0135C374.846 17.4351 375.146 17.933 375.337 18.476C375.527 19.0189 375.603 19.5953 375.56 20.169V53.4835H418.283V20.2614C418.241 19.6877 418.317 19.1113 418.507 18.5684C418.697 18.0254 418.998 17.5275 419.39 17.1059C419.781 16.6842 420.256 16.3479 420.783 16.1179C421.311 15.8879 421.881 15.7692 422.456 15.7692C423.032 15.7692 423.602 15.8879 424.129 16.1179C424.657 16.3479 425.131 16.6842 425.523 17.1059C425.915 17.5275 426.215 18.0254 426.405 18.5684C426.596 19.1113 426.672 19.6877 426.629 20.2614V96.5014C426.672 97.0751 426.596 97.6514 426.405 98.1944C426.215 98.7374 425.915 99.2353 425.523 99.6569C425.131 100.079 424.657 100.415 424.129 100.645C423.602 100.875 423.032 100.994 422.456 100.994C421.881 100.994 421.311 100.875 420.783 100.645C420.256 100.415 419.781 100.079 419.39 99.6569C418.998 99.2353 418.697 98.7374 418.507 98.1944C418.317 97.6514 418.241 97.0751 418.283 96.5014V61.0844H375.56Z" fill="white"/>
<path d="M466.026 42.2093C469.615 42.0552 473.191 42.7392 476.47 44.207C479.748 45.6747 482.639 47.8859 484.914 50.665C485.462 51.3108 485.764 52.1287 485.769 52.9753C485.779 53.4451 485.693 53.912 485.517 54.3479C485.342 54.7838 485.08 55.1798 484.747 55.5121C484.415 55.8443 484.019 56.1061 483.582 56.2815C483.146 56.457 482.679 56.5426 482.209 56.5331C481.637 56.5368 481.073 56.4047 480.562 56.1476C480.052 55.8906 479.61 55.5159 479.273 55.0545C477.676 53.1242 475.641 51.6033 473.336 50.6187C471.032 49.6341 468.526 49.2143 466.026 49.3943C454.721 49.3943 448.71 56.6256 448.71 71.7118C448.71 86.7981 454.721 94.1448 466.026 94.1448C471.234 94.096 476.262 92.2331 480.244 88.8773C480.89 88.3299 481.709 88.0273 482.556 88.0225C483.5 88.0225 484.405 88.3974 485.073 89.0646C485.741 89.7318 486.116 90.6368 486.116 91.5804C486.112 92.1788 485.965 92.7676 485.687 93.2979C485.41 93.8283 485.01 94.2849 484.521 94.63C479.365 99.0098 472.792 101.366 466.026 101.261C450.19 101.261 440.734 91.8114 440.734 71.7118C440.734 51.6122 450.19 42.2093 466.026 42.2093Z" fill="white"/>
<path d="M505.165 16.1952V86.359C505.165 91.2569 506.76 93.2899 510.066 93.2899C510.575 93.2496 511.087 93.315 511.569 93.4819C512.051 93.6488 512.494 93.9137 512.868 94.2598C513.243 94.6059 513.542 95.0258 513.747 95.493C513.952 95.9603 514.057 96.4648 514.057 96.9749C514.057 97.4849 513.952 97.9894 513.747 98.4567C513.542 98.9239 513.243 99.3438 512.868 99.6899C512.494 100.036 512.051 100.301 511.569 100.468C511.087 100.635 510.575 100.7 510.066 100.66C501.859 100.66 497.305 95.7388 497.305 86.3128V16.1952C497.334 15.165 497.758 14.1854 498.49 13.4588C499.221 12.7322 500.204 12.314 501.235 12.2908C502.273 12.2908 503.269 12.7014 504.006 13.4329C504.742 14.1645 505.159 15.1576 505.165 16.1952Z" fill="white"/>
<path d="M572.047 71.6425C572.047 91.7421 562.221 101.191 546.27 101.191C530.318 101.191 520.516 91.7421 520.516 71.6425C520.516 51.5428 530.457 42.2092 546.27 42.2092C562.083 42.2092 572.047 51.5197 572.047 71.6425ZM564.071 71.6425C564.071 56.1865 557.575 49.325 546.27 49.325C534.965 49.325 528.492 56.2559 528.492 71.6425C528.492 87.0291 534.988 94.0755 546.27 94.0755C557.551 94.0755 564.163 87.3294 564.163 71.6425H564.071Z" fill="white"/>
<path d="M590.955 46.8759V78.8736C590.955 86.8441 593.521 93.7057 605.912 93.7057C618.304 93.7057 620.893 86.7748 620.893 78.8736V46.8759C620.899 46.3521 621.009 45.8346 621.216 45.3533C621.422 44.872 621.722 44.4362 622.098 44.0712C622.474 43.7062 622.919 43.4191 623.406 43.2264C623.894 43.0337 624.415 42.9392 624.939 42.9484C625.448 42.9544 625.951 43.0609 626.418 43.2619C626.886 43.4628 627.309 43.7542 627.664 44.1192C628.018 44.4842 628.297 44.9157 628.484 45.3888C628.671 45.8619 628.763 46.3673 628.753 46.8759V78.8736C628.753 90.4251 624.939 101.191 605.912 101.191C586.886 101.191 583.094 90.5175 583.094 78.8736V46.8759C583.085 46.3575 583.18 45.8426 583.374 45.3619C583.569 44.8811 583.858 44.4444 584.225 44.0778C584.591 43.7112 585.028 43.4223 585.509 43.2282C585.991 43.0342 586.506 42.939 587.025 42.9484C588.065 42.9545 589.061 43.3702 589.797 44.1054C590.533 44.8407 590.949 45.8361 590.955 46.8759Z" fill="white"/>
<path d="M681.14 50.1796V16.1951C681.14 15.1535 681.554 14.1545 682.291 13.4179C683.028 12.6814 684.028 12.2676 685.07 12.2676C686.113 12.2676 687.112 12.6814 687.849 13.4179C688.586 14.1545 689.001 15.1535 689.001 16.1951V77.1177C689.001 93.2898 678.944 101.283 664.957 101.283C649.121 101.283 639.781 91.8343 639.781 71.7347C639.781 51.6351 648.636 42.3015 664.449 42.3015C667.65 42.2427 670.821 42.923 673.717 44.2895C676.612 45.6559 679.152 47.6716 681.14 50.1796ZM681.14 60.1139C681.14 60.1139 676.517 49.3248 664.957 49.3248C653.398 49.3248 647.642 56.556 647.642 71.6423C647.642 86.7286 653.652 94.0753 664.957 94.0753C674.39 94.0753 681.14 88.6923 681.14 77.0253V60.1139Z" fill="white"/>
</g>
<defs>
<clipPath id="clip0_1178_156">
<rect width="689" height="109" fill="white"/>
</clipPath>
</defs>
</svg>
