<svg width="580" height="124" viewBox="0 0 580 124" fill="none" xmlns="http://www.w3.org/2000/svg">
<path d="M43.8006 76.8798H55.8782C59.309 76.876 62.6965 76.1138 65.7982 74.6478C68.7442 73.1817 71.3766 71.1558 73.5482 68.6834C75.714 66.1147 77.3947 63.1735 78.5082 60.0034C79.6937 56.8264 80.2986 53.4621 80.2938 50.071C80.3126 46.7451 79.6545 43.4501 78.3594 40.3867C77.1047 37.2842 75.3402 34.4134 73.139 31.8927C70.9184 29.3715 68.2377 27.2968 65.2402 25.7795C62.1733 24.1993 58.7703 23.3825 55.3202 23.3987H23.5391V100.44H43.8006V76.8798ZM43.8006 41.9987H54.0926C55.5177 42.0974 56.8499 42.7413 57.8126 43.7967C59.0526 45.0367 59.747 47.0702 59.747 50.3438C59.747 53.6174 59.003 55.5642 57.9614 56.5438C57.5544 57.0727 57.0378 57.5072 56.4471 57.8176C55.8563 58.1279 55.2054 58.3068 54.539 58.3418H43.8006V41.9987Z" fill="#2D8EFF"/>
<path d="M1.31156e-10 7.11764V116.882C-5.68641e-06 117.819 0.184922 118.747 0.544165 119.612C0.903407 120.477 1.4299 121.263 2.09345 121.924C2.75701 122.585 3.54459 123.109 4.411 123.465C5.27741 123.822 6.20562 124.003 7.1424 124H116.895C118.784 124 120.595 123.25 121.932 121.916C123.269 120.582 124.021 118.771 124.025 116.882V7.11764C124.023 6.18027 123.837 5.25242 123.476 4.38718C123.115 3.52194 122.588 2.7363 121.923 2.07521C121.259 1.41411 120.47 0.890543 119.603 0.534464C118.736 0.178384 117.807 -0.00321862 116.87 4.32091e-05H7.1424C6.20562 -0.00322085 5.27741 0.178474 4.411 0.534705C3.54459 0.890936 2.75701 1.41469 2.09345 2.07595C1.4299 2.7372 0.903407 3.52295 0.544165 4.38811C0.184922 5.25328 -5.68641e-06 6.18085 1.31156e-10 7.11764ZM102.263 109.393H21.576C19.6871 109.393 17.8755 108.643 16.5387 107.309C15.2019 105.974 14.4493 104.164 14.446 102.275V21.576C14.4493 19.6872 15.2019 17.8768 16.5387 16.5424C17.8755 15.2079 19.6871 14.4584 21.576 14.4584H102.263C103.198 14.4568 104.125 14.6397 104.99 14.9967C105.855 15.3536 106.641 15.8776 107.304 16.5387C107.966 17.1998 108.491 17.985 108.85 18.8494C109.208 19.7137 109.393 20.6403 109.393 21.576V102.275C109.393 103.211 109.208 104.137 108.85 105.002C108.491 105.866 107.966 106.651 107.304 107.312C106.641 107.974 105.855 108.498 104.99 108.855C104.125 109.211 103.198 109.394 102.263 109.393Z" fill="#2D8EFF"/>
<path d="M100.44 85.9939H52.8984V100.601H100.44V85.9939Z" fill="#2D8EFF"/>
<path d="M579.023 58.2803C578.583 56.0323 577.77 53.8737 576.617 51.8943C575.454 50.0871 573.838 48.6163 571.93 47.6288C569.69 46.483 567.189 45.9443 564.676 46.0664C560.898 46.0251 557.187 47.0711 553.987 49.0796C550.701 51.0852 548.005 53.9263 546.175 57.3131V27.7764H538.227V95.0959H546.324V65.9807C546.893 64.1718 547.707 62.4489 548.742 60.8595C549.79 59.3697 551.043 58.0341 552.462 56.8915C553.84 55.7749 555.373 54.8643 557.013 54.1883C558.549 53.5732 560.182 53.2373 561.836 53.1963C563.307 53.0999 564.777 53.3929 566.099 54.0461C567.42 54.6992 568.546 55.6892 569.363 56.9163C571.074 59.3219 571.93 63.013 571.93 67.9895V94.8355H579.729V66.3155C579.72 63.622 579.484 60.9341 579.023 58.2803Z" fill="#2D8EFF"/>
<path d="M335.02 72.5149C333.207 71.3571 331.247 70.4479 329.192 69.8117C326.712 69.1049 324.083 68.2493 320.809 67.5425C318.825 67.1085 317.089 66.5505 315.552 66.1165C314.317 65.7881 313.127 65.3136 312.005 64.7029C311.146 64.2681 310.451 63.568 310.021 62.7065C309.373 61.1686 309.273 59.4547 309.738 57.8519C310.203 56.2491 311.205 54.8548 312.576 53.9025C314.86 52.591 317.471 51.9586 320.102 52.0797C322.756 52.0681 325.395 52.4869 327.914 53.3197C330.421 54.1985 332.736 55.5497 334.734 57.3001L338.454 52.4765C336.131 50.444 333.424 48.8967 330.494 47.9257C327.271 46.7255 323.85 46.149 320.412 46.2269C317.963 46.2081 315.525 46.5422 313.171 47.219C311.066 47.7883 309.088 48.7519 307.343 50.0585C305.616 51.3307 304.223 53.0027 303.283 54.9313C302.344 56.8599 301.886 58.9875 301.949 61.1317C301.942 62.7819 302.232 64.4199 302.804 65.9677C303.444 67.3309 304.481 68.468 305.78 69.2289C307.369 70.2805 309.092 71.1146 310.902 71.7089C313.022 72.4157 315.44 73.1225 318.428 73.8417C320.698 74.4121 322.682 74.9701 324.393 75.4041C325.857 75.8463 327.28 76.4147 328.646 77.1029C329.619 77.6538 330.485 78.3764 331.2 79.2357C331.761 80.1269 332.058 81.1588 332.056 82.2117C332.109 83.3746 331.846 84.53 331.296 85.5558C330.746 86.5817 329.929 87.4399 328.931 88.0397C326.418 89.5835 323.495 90.3272 320.549 90.1725C317.503 90.1481 314.482 89.6202 311.608 88.6101C308.533 87.4541 305.659 85.8222 303.09 83.7741L299.68 89.1805C302.518 91.5555 305.802 93.3389 309.339 94.4257C313.012 95.6056 316.84 96.2284 320.698 96.2733C326.513 96.2733 331.2 95.0333 334.61 92.3053C336.246 90.9978 337.559 89.3312 338.447 87.4346C339.335 85.538 339.775 83.4623 339.732 81.3685C339.796 79.592 339.403 77.8287 338.591 76.2473C337.756 74.7061 336.523 73.4171 335.02 72.5149Z" fill="#2D8EFF"/>
<path d="M477.617 46.3758C474.455 46.6516 471.441 47.8358 468.937 49.7858C466.155 51.937 463.917 54.7103 462.402 57.883V46.661H454.875V94.8101H463.109V65.261C464.256 61.8755 466.516 58.978 469.519 57.0398C472.765 55.028 476.501 53.947 480.32 53.915V46.475C479.898 46.475 479.613 46.3262 479.179 46.3262L477.617 46.3758Z" fill="#2D8EFF"/>
<path d="M441.822 85.0143V65.4099C441.822 59.2967 440.111 54.4731 436.565 51.0631C433.018 47.6531 428.182 45.9543 421.796 45.9543C415.063 46.0759 408.526 48.2378 403.048 52.1543L405.751 57.3995C411.145 53.5679 416.117 51.7203 421.09 51.7203C424.146 51.4 427.205 52.3009 429.6 54.2265C431.994 56.152 433.531 58.9462 433.874 61.9999C434.018 62.8203 434.018 63.6595 433.874 64.4799V68.1999C431.832 67.3361 429.678 66.7642 427.476 66.5011C425.124 66.1205 422.751 65.8803 420.37 65.7819C417.632 65.7309 414.903 66.116 412.286 66.9227C410.017 67.5917 407.861 68.5947 405.887 69.8987C404.12 71.1039 402.662 72.71 401.634 74.5859C400.672 76.4424 400.186 78.5091 400.22 80.5999C400.205 82.6576 400.628 84.6949 401.46 86.5767C403.157 90.2009 406.22 93.0054 409.979 94.3763C411.966 95.1082 414.063 95.4941 416.179 95.5171C419.81 95.5603 423.404 94.7847 426.694 93.2479C429.938 91.8473 432.738 89.5879 434.792 86.7131L434.928 90.1231C435.053 91.4336 435.663 92.6501 436.639 93.5331C437.679 94.493 439.057 95.0013 440.471 94.9467C440.709 95.1296 440.989 95.2513 441.285 95.301C441.581 95.3507 441.885 95.327 442.17 95.2319L444.302 94.9467V88.0399C442.678 88.0399 441.822 86.9983 441.822 85.0143ZM433.7 80.3271C433.612 81.6838 433.003 82.9541 432.002 83.8735C430.533 85.7914 428.563 87.2673 426.31 88.1391C423.776 89.2889 421.006 89.8242 418.225 89.7015C416.819 89.6855 415.425 89.4426 414.096 88.9823C412.844 88.5514 411.689 87.8772 410.698 86.9983C409.74 86.1701 408.963 85.1527 408.417 84.0099C407.818 82.8272 407.572 81.4969 407.71 80.1783C407.714 78.8293 408.069 77.5045 408.741 76.3347C409.413 75.1648 410.378 74.1903 411.542 73.5071C414.516 71.6773 417.973 70.787 421.462 70.9527C425.642 70.9076 429.791 71.6784 433.676 73.2219L433.7 80.3271Z" fill="#2D8EFF"/>
<path d="M519.37 84.1586C518.501 85.0693 517.493 85.8353 516.382 86.4277C515.209 87.1751 513.911 87.7044 512.55 87.9901C511.164 88.386 509.727 88.5781 508.285 88.5605C506.135 88.5764 504.012 88.088 502.085 87.1345C500.126 86.2391 498.384 84.9322 496.976 83.3029C495.489 81.5919 494.333 79.6201 493.566 77.4873V77.909C491.863 73.3253 491.863 68.2822 493.566 63.6986C494.274 61.5874 495.424 59.6514 496.939 58.0194C498.35 56.4211 500.093 55.1514 502.048 54.2994C504.01 53.4738 506.119 53.052 508.248 53.0594C510.846 53.0217 513.409 53.6583 515.688 54.907C517.832 56.1688 519.597 57.985 520.796 60.1646L528.757 57.6102C527.016 54.0855 524.306 51.1303 520.945 49.0914C517.18 46.9229 512.888 45.8412 508.545 45.9666C505.253 45.9075 501.986 46.5391 498.953 47.8206C495.92 49.1021 493.189 51.005 490.937 53.4066C488.819 55.6843 487.137 58.3324 485.977 61.2186C483.56 67.3843 483.56 74.2356 485.977 80.4013C487.711 84.9774 490.804 88.9131 494.841 91.6795C498.877 94.4459 503.664 95.9105 508.558 95.8765C513.048 95.9094 517.464 94.7314 521.342 92.4665C523.09 91.4346 524.67 90.1426 526.029 88.6349C527.28 87.1681 528.331 85.5419 529.154 83.7989L521.206 81.3933C520.797 82.435 520.172 83.3777 519.37 84.1586Z" fill="#2D8EFF"/>
<path d="M388.127 53.481C385.898 51.0896 383.193 49.1919 380.186 47.9104C377.179 46.6289 373.936 45.9921 370.668 46.041C367.257 45.9896 363.874 46.6703 360.748 48.0374C357.821 49.3156 355.168 51.1472 352.936 53.4314C350.733 55.724 348.998 58.4237 347.827 61.3798C346.557 64.4393 345.928 67.7271 345.98 71.0394C346.027 74.3425 346.652 77.6118 347.827 80.699C348.949 83.6452 350.634 86.3449 352.787 88.6474C354.992 90.9672 357.651 92.8076 360.599 94.0538C363.747 95.3473 367.116 96.0209 370.519 96.0378C372.864 96.0346 375.2 95.7473 377.475 95.1822C379.578 94.628 381.588 93.7673 383.44 92.6278C385.236 91.6027 386.867 90.3108 388.276 88.7962C389.618 87.3716 390.719 85.7383 391.537 83.9602L384.581 81.9762C384.075 83.1847 383.352 84.29 382.448 85.2374C381.49 86.2459 380.392 87.1105 379.187 87.8042C377.95 88.5297 376.607 89.0569 375.206 89.3666C373.819 89.7596 372.382 89.9476 370.941 89.9246C368.901 89.9051 366.882 89.523 364.976 88.7962C363.169 87.9578 361.498 86.8544 360.016 85.5226C358.472 84.0989 357.258 82.3554 356.457 80.4138C355.479 78.364 354.902 76.1458 354.759 73.879H394.662V70.469C394.665 67.3157 394.09 64.1886 392.963 61.2434C391.846 58.3785 390.206 55.7463 388.127 53.481ZM354.473 67.679C354.641 65.5391 355.17 63.443 356.036 61.479C356.874 59.6047 358.08 57.9179 359.582 56.519C361.032 55.1499 362.711 54.0461 364.542 53.2578C367.408 52.0905 370.546 51.7645 373.59 52.318C376.634 52.8715 379.458 54.2815 381.729 56.3826C383.196 57.8123 384.397 59.4918 385.275 61.3426C386.219 63.3623 386.843 65.5169 387.123 67.7286L354.473 67.679Z" fill="#2D8EFF"/>
<path d="M202.372 36.1458C200.626 34.1637 198.522 32.5274 196.172 31.3222C193.675 30.1371 190.95 29.5068 188.186 29.4746H160.906V94.9466H169.152V71.5106H188.744C191.442 71.5269 194.109 70.9468 196.556 69.8118C198.883 68.6679 200.961 67.0749 202.669 65.1246C204.403 63.1394 205.707 60.8175 206.501 58.3046C207.465 55.814 207.949 53.1633 207.927 50.4926C207.935 47.8715 207.452 45.2721 206.501 42.8294C205.484 40.3987 204.09 38.1432 202.372 36.1458ZM198.652 55.7502C198.125 57.3247 197.359 58.8093 196.383 60.1522C195.441 61.4028 194.228 62.4243 192.836 63.1406C191.395 63.8964 189.773 64.2396 188.149 64.1326H169.14V37.0014H187.603C189.173 36.9747 190.727 37.3144 192.142 37.9934C194.466 39.1235 196.409 40.9091 197.732 43.1301C199.054 45.3511 199.697 47.9105 199.582 50.4926C199.578 52.2997 199.272 54.0935 198.677 55.7998L198.652 55.7502Z" fill="#2D8EFF"/>
<path d="M239.867 46.5252C236.705 46.7932 233.69 47.9736 231.187 49.9228C228.409 52.0773 226.171 54.8497 224.652 58.02V46.798H217.125V94.9471H225.222V65.2616C226.385 61.8835 228.698 59.0217 231.757 57.1768C234.995 55.1583 238.729 54.0767 242.545 54.052V46.612C242.123 46.612 241.838 46.4756 241.417 46.4756L239.867 46.5252Z" fill="#2D8EFF"/>
<path d="M294.69 72.3662V70.5186C294.689 67.3646 294.109 64.2375 292.978 61.293C291.876 58.409 290.239 55.7587 288.155 53.481C285.924 51.0893 283.216 49.1915 280.207 47.91C277.198 46.6286 273.954 45.9919 270.683 46.041C267.272 45.9896 263.889 46.6703 260.763 48.0374C257.845 49.2864 255.21 51.1121 253.015 53.4049C250.82 55.6977 249.112 58.4103 247.991 61.3798C246.721 64.4393 246.092 67.7271 246.144 71.0394C246.118 74.3495 246.746 77.6321 247.991 80.699C249.113 83.6452 250.798 86.3449 252.951 88.6474C255.156 90.9672 257.815 92.8076 260.763 94.0538C263.911 95.3473 267.28 96.0209 270.683 96.0378C273.028 96.0346 275.364 95.7473 277.64 95.1822C279.743 94.6303 281.753 93.7694 283.604 92.6278C285.401 91.6027 287.031 90.3108 288.44 88.7962C289.782 87.3716 290.883 85.7383 291.701 83.9602L284.745 81.9762C284.295 83.2133 283.565 84.3294 282.612 85.2374C281.624 86.2116 280.53 87.0725 279.351 87.8042C278.114 88.5297 276.771 89.0569 275.37 89.3666C273.983 89.7596 272.546 89.9476 271.105 89.9246C269.065 89.9051 267.046 89.523 265.14 88.7962C263.335 87.9547 261.664 86.8517 260.18 85.5226C258.637 84.0989 257.422 82.3554 256.622 80.4138C255.643 78.364 255.066 76.1458 254.923 73.879H294.826C294.717 73.3825 294.671 72.8742 294.69 72.3662ZM254.489 67.679C254.669 65.5411 255.196 63.4469 256.051 61.479C256.893 59.6041 258.104 57.9175 259.61 56.519C261.057 55.1473 262.737 54.0431 264.57 53.2578C267.436 52.0921 270.574 51.7668 273.618 52.3202C276.661 52.8736 279.485 54.2828 281.756 56.3826C283.216 57.8188 284.416 59.4969 285.303 61.3426C286.241 63.3644 286.864 65.5181 287.15 67.7286L254.489 67.679Z" fill="#2D8EFF"/>
</svg>
