<svg width="751" height="124" viewBox="0 0 751 124" fill="none" xmlns="http://www.w3.org/2000/svg">
<path fill-rule="evenodd" clip-rule="evenodd" d="M54.7672 8.39233e-05C20.2473 29.9794 26.8967 83.1747 63.1075 107.341C42.2283 70.7688 40.5755 35.147 54.7672 8.39233e-05Z" fill="#90C320"/>
<path fill-rule="evenodd" clip-rule="evenodd" d="M82.8759 8.39233e-05C117.377 29.9794 110.746 83.1747 74.5547 107.341C95.4148 70.7688 97.0867 35.147 82.8759 8.39233e-05Z" fill="#90C320"/>
<path fill-rule="evenodd" clip-rule="evenodd" d="M3.13876 27.7526C-10.3121 69.9858 21.1302 115.411 65.7382 117.558C35.3789 101.314 9.35121 69.4349 3.13876 27.7526Z" fill="#90C320"/>
<path fill-rule="evenodd" clip-rule="evenodd" d="M134.525 27.7525C147.976 69.9668 116.514 115.411 71.9062 117.539C102.285 101.314 128.312 69.4348 134.525 27.7525Z" fill="#90C320"/>
<path d="M427.057 23.9749C426.525 23.9369 425.955 23.9179 425.385 23.9179C417.672 23.9179 411.25 26.7296 406.083 32.3531C400.991 37.7866 398.445 44.2841 398.445 51.8264C398.445 59.3687 400.991 65.8282 406.083 71.2047C411.25 76.8282 417.672 79.6589 425.385 79.6589C425.936 79.6589 426.506 79.6399 427.057 79.6019V69.2859C422.003 69.2859 417.767 67.576 414.309 64.1943C410.87 60.8696 409.141 56.747 409.141 51.8264C409.141 46.9628 410.87 42.8402 414.309 39.4585C417.748 36.0768 421.984 34.3859 427.057 34.3669V23.9749ZM455.649 78.0441V8.87121H444.972V32.7521C440.09 27.2996 434.124 24.3738 427.057 23.9749V34.3859H427.114C432.034 34.3859 436.233 36.0768 439.653 39.4775C443.186 42.9352 444.953 47.0578 444.953 51.8454C444.953 56.633 443.186 60.7556 439.653 64.2133C436.214 67.595 432.034 69.3049 427.114 69.3049H427.057V79.6209C434.2 79.222 440.166 76.3152 444.972 70.8437V78.0441H455.649Z" fill="#90C320"/>
<path d="M364.526 23.934C356.679 23.953 349.973 26.6887 344.406 32.1792C338.745 37.7458 335.914 44.3002 335.914 51.8425C335.914 59.4608 338.745 65.9773 344.406 71.4108C349.973 76.9013 356.679 79.656 364.526 79.656V69.302C360.365 69.302 356.66 68.0101 353.393 65.4643C350.448 63.2225 348.472 60.4107 347.484 57.01H364.526V46.561H347.484C348.453 43.2363 350.429 40.4245 353.393 38.1257C356.66 35.6369 360.384 34.4021 364.526 34.3831V23.934ZM364.526 79.675H364.583C369.009 79.675 373.284 78.6301 377.387 76.5593C381.491 74.4885 385.025 71.5818 387.969 67.8771L378.869 62.2156C376.988 64.5904 374.804 66.3572 372.334 67.5351C369.883 68.732 367.299 69.321 364.583 69.321H364.526C364.526 69.302 364.526 79.675 364.526 79.675ZM393.118 51.8425C393.118 44.1672 390.287 37.6128 384.626 32.1792C379.059 26.6887 372.372 23.934 364.564 23.934H364.507V34.3831H364.564C368.743 34.3831 372.448 35.6369 375.64 38.1257C378.432 40.2345 380.408 43.0463 381.548 46.561H364.507V57.01H392.624C392.795 55.9271 392.909 54.9772 393.004 54.1413C393.08 53.3244 393.118 52.5455 393.118 51.8425Z" fill="#90C320"/>
<path d="M301.963 23.9342C294.098 23.9532 287.391 26.689 281.844 32.1795C276.182 37.746 273.352 44.3004 273.352 51.8428C273.352 59.4611 276.182 65.9775 281.844 71.411C287.41 76.9015 294.117 79.6563 301.963 79.6563V69.3022C297.783 69.3022 294.098 68.0103 290.83 65.4645C287.885 63.2227 285.909 60.411 284.922 57.0103H301.963V46.5612H284.922C285.909 43.2365 287.885 40.4248 290.83 38.126C294.098 35.6372 297.802 34.4023 301.963 34.3833V23.9342ZM301.963 79.6753H302.02C306.447 79.6753 310.702 78.6304 314.806 76.5596C318.91 74.4887 322.443 71.582 325.388 67.8773L316.288 62.2158C314.407 64.5906 312.222 66.3575 309.771 67.5354C307.321 68.7323 304.737 69.3212 302.02 69.3212H301.963C301.963 69.3022 301.963 79.6753 301.963 79.6753ZM330.556 51.8428C330.556 44.1674 327.725 37.613 322.063 32.1795C316.497 26.689 309.809 23.9342 302.02 23.9342H301.963V34.3833H302.02C306.2 34.3833 309.885 35.6372 313.096 38.126C315.889 40.2348 317.865 43.0465 319.005 46.5612H301.982V57.0103H330.081C330.233 55.9274 330.366 54.9775 330.442 54.1416C330.518 53.3246 330.556 52.5457 330.556 51.8428Z" fill="#90C320"/>
<path d="M239.401 23.934C231.554 23.953 224.848 26.6887 219.281 32.1792C213.62 37.7458 210.789 44.3002 210.789 51.8425C210.789 59.4608 213.62 65.9773 219.281 71.4108C224.829 76.9013 231.554 79.656 239.401 79.656V69.302C235.24 69.302 231.535 68.0101 228.268 65.4643C225.323 63.2225 223.347 60.4107 222.359 57.01H239.401V46.561H222.359C223.347 43.2363 225.304 40.4245 228.268 38.1257C231.535 35.6369 235.24 34.4021 239.401 34.3831V23.934ZM239.401 79.675H239.458C243.884 79.675 248.159 78.6301 252.243 76.5593C256.347 74.4885 259.881 71.5818 262.825 67.8771L253.725 62.2156C251.844 64.5904 249.66 66.3572 247.209 67.5351C244.739 68.732 242.155 69.321 239.458 69.321H239.401C239.401 69.302 239.401 79.675 239.401 79.675ZM268.012 51.8425C268.012 44.1672 265.181 37.6128 259.52 32.1792C253.953 26.6887 247.266 23.934 239.458 23.934H239.401V34.3831H239.458C243.637 34.3831 247.323 35.6369 250.534 38.1257C253.326 40.2345 255.283 43.0463 256.442 46.561H239.401V57.01H267.518C267.67 55.9271 267.803 54.9772 267.879 54.1413C267.955 53.3244 268.012 52.5455 268.012 51.8425Z" fill="#90C320"/>
<path d="M204.097 63.1613C204.097 56.4359 200.982 51.9143 194.75 49.5395H194.883C194.389 49.2925 188.899 48.1716 178.393 46.1768C173.149 45.0939 170.508 43.1751 170.508 40.4203C170.508 38.3685 171.781 36.8106 174.327 35.7087C176.379 34.8158 178.792 34.3599 181.584 34.3599C184.377 34.3599 186.828 34.7968 188.975 35.7087C191.445 36.7916 192.66 38.7105 192.66 41.4652H203.242C203.242 35.5188 200.83 31.0162 195.985 27.9384C191.805 25.2597 187.018 23.9108 181.584 23.9108C176.17 23.9108 171.363 25.2407 167.203 27.9384C162.358 31.0162 159.945 35.1768 159.945 40.4203C159.945 47.1267 163.061 51.7053 169.292 54.1371C169.786 54.3271 171.382 54.6881 174.099 55.22C176.797 55.771 180.653 56.5119 185.669 57.4808C190.913 58.5637 193.553 60.4635 193.553 63.1423C193.553 67.2459 189.564 69.2788 181.622 69.2788C179.989 69.2788 178.526 69.1648 177.253 68.9558C175.98 68.7278 174.821 68.4239 173.738 68.0439H173.871C171.078 66.961 169.691 64.9851 169.691 62.0974H159.109C159.109 68.1009 161.693 72.6795 166.861 75.8142C171.287 78.379 176.208 79.6519 181.622 79.6519C184.491 79.6519 187.132 79.3289 189.564 78.6829C191.976 78.056 194.275 77.0871 196.403 75.8142C201.514 72.6985 204.097 68.4808 204.097 63.1613Z" fill="#90C320"/>
<path d="M721.389 23.9339C713.543 23.9529 706.837 26.6887 701.289 32.1792C695.628 37.7457 692.797 44.3001 692.797 51.8425C692.797 59.4608 695.628 65.9772 701.289 71.4107C706.837 76.9013 713.543 79.656 721.389 79.656V69.3019C716.336 69.3019 712.08 67.5921 708.642 64.2104C705.203 60.8857 703.474 56.763 703.474 51.8425C703.474 46.9789 705.203 42.8563 708.642 39.4746C712.08 36.0929 716.317 34.402 721.389 34.383V23.9339ZM750.001 51.8425C750.001 44.1672 747.17 37.6127 741.509 32.1792C735.923 26.6887 729.255 23.9339 721.465 23.9339H721.408V34.383H721.465C726.386 34.383 730.585 36.0739 734.004 39.4746C737.538 42.9323 739.305 47.0549 739.305 51.8425C739.305 56.6301 737.538 60.7527 734.004 64.2104C730.585 67.5921 726.386 69.3019 721.465 69.3019H721.408V79.656H721.465C729.255 79.656 735.942 76.9013 741.509 71.4107C747.17 66.0342 750.001 59.5178 750.001 51.8425Z" fill="white" stroke="white" stroke-width="1.14979" stroke-miterlimit="10"/>
<path d="M686.958 14.0475C686.958 12.1286 686.293 10.4948 685.001 9.16489C683.691 7.81601 682 7.15107 679.948 7.15107C677.991 7.15107 676.319 7.81601 674.97 9.16489C673.602 10.4948 672.938 12.1286 672.938 14.0475C672.938 15.9663 673.621 17.6001 674.97 18.93C676.319 20.2789 677.972 20.9438 679.948 20.9438C682 20.9438 683.691 20.2599 685.001 18.93C686.293 17.6001 686.958 15.9663 686.958 14.0475Z" fill="white" stroke="white" stroke-width="1.14979" stroke-miterlimit="10"/>
<path d="M685.23 25.6707H674.672V78.0691H685.23V25.6707Z" fill="white" stroke="white" stroke-width="3.3989" stroke-miterlimit="10"/>
<path d="M636.397 23.9749C635.846 23.9369 635.295 23.9179 634.725 23.9179C627.012 23.9179 620.572 26.7296 615.423 32.3531C610.331 37.7866 607.805 44.2841 607.805 51.8264C607.805 59.3687 610.331 65.8282 615.423 71.2047C620.591 76.8282 627.012 79.6589 634.725 79.6589C635.295 79.6589 635.846 79.6399 636.397 79.6019V69.2859C631.344 69.2859 627.088 67.576 623.668 64.1943C620.211 60.8696 618.482 56.747 618.482 51.8264C618.482 46.9628 620.211 42.8402 623.668 39.4585C627.088 36.0768 631.344 34.3859 636.397 34.3669V23.9749ZM664.99 78.0441V8.87121H654.275V32.7521C649.392 27.2996 643.427 24.3738 636.378 23.9749V34.3859H636.435C641.356 34.3859 645.554 36.0768 648.993 39.4775C652.527 42.9352 654.294 47.0578 654.294 51.8454C654.294 56.633 652.527 60.7556 648.993 64.2133C645.554 67.595 641.356 69.3049 636.435 69.3049H636.378V79.6209C643.522 79.222 649.487 76.3152 654.275 70.8437V78.0441H664.99Z" fill="white" stroke="white" stroke-width="1.14979" stroke-miterlimit="10"/>
<path d="M600.224 78.0329V25.6545H589.642V56.8308C589.642 60.2125 588.407 63.1572 585.937 65.665C584.721 66.8239 583.334 67.7168 581.833 68.3627C580.313 69.0087 578.642 69.3127 576.837 69.3127C573.303 69.3127 570.32 68.0968 567.851 65.665C565.305 63.1762 564.051 60.2315 564.051 56.8308V25.6545H553.469V56.8308C553.469 62.9102 555.464 68.1918 559.491 72.6564C563.671 77.33 568.876 79.6667 575.108 79.6667C580.693 79.6667 585.519 77.7479 589.623 73.9103V78.0329H600.224Z" fill="white" stroke="white" stroke-width="1.14979" stroke-miterlimit="10"/>
<path d="M547.643 36.0313V25.6582H537.308V13.8602H526.612V25.6582H516.258V36.0313H526.612V79.5564H537.308V36.0313H547.643Z" fill="white" stroke="white" stroke-width="1.14979" stroke-miterlimit="10"/>
<path d="M510.42 63.1613C510.42 56.4359 507.304 51.9143 501.073 49.5395H501.206C500.712 49.2925 495.221 48.1716 484.715 46.1768C479.472 45.0939 476.85 43.1751 476.85 40.4203C476.85 38.3685 478.123 36.8106 480.669 35.7087C482.72 34.8158 485.133 34.3599 487.926 34.3599C490.719 34.3599 493.17 34.7968 495.297 35.7087C497.748 36.7916 498.983 38.7105 498.983 41.4652H509.565C509.565 35.5188 507.152 31.0162 502.308 27.9384C498.109 25.2597 493.341 23.9108 487.907 23.9108C482.493 23.9108 477.705 25.2407 473.506 27.9384C468.662 31.0162 466.249 35.1768 466.249 40.4203C466.249 47.1267 469.365 51.7053 475.596 54.1371C476.09 54.3271 477.686 54.6881 480.384 55.22C483.1 55.771 486.957 56.5119 491.954 57.4808C497.197 58.5637 499.838 60.4635 499.838 63.1423C499.838 67.2459 495.867 69.2788 487.907 69.2788C486.273 69.2788 484.81 69.1648 483.537 68.9558C482.265 68.7278 481.106 68.4239 480.042 68.0439H480.156C477.363 66.961 475.976 64.9851 475.976 62.0974H465.375C465.375 68.1009 467.959 72.6795 473.126 75.8142C477.572 78.379 482.492 79.6519 487.888 79.6519C490.757 79.6519 493.417 79.3289 495.829 78.6829C498.242 78.056 500.522 77.0871 502.65 75.8142C507.855 72.6985 510.42 68.4808 510.42 63.1613Z" fill="white" stroke="white" stroke-width="1.14979" stroke-miterlimit="10"/>
<path d="M197.306 99.8757C195.862 99.8757 194.609 100.199 193.545 100.864C192.481 101.529 191.664 102.44 191.132 103.599C190.581 104.758 190.315 105.993 190.315 107.342C190.315 108.596 190.581 109.736 191.094 110.781C191.607 111.826 192.424 112.643 193.507 113.194C194.59 113.744 195.748 114.01 197.002 114.01C197.952 114.01 198.864 113.858 199.719 113.535C200.574 113.213 201.334 112.719 201.961 112.035C202.588 111.37 203.044 110.572 203.386 109.622C203.709 108.691 203.861 107.703 203.861 106.696C203.861 105.746 203.709 104.853 203.424 103.96C203.139 103.086 202.702 102.345 202.113 101.719C201.524 101.092 200.802 100.636 199.966 100.332C199.111 100.009 198.237 99.8757 197.306 99.8757ZM197.534 96.817C198.959 96.817 200.327 97.007 201.638 97.4059C202.949 97.8049 204.108 98.4508 205.134 99.3248C206.141 100.218 206.919 101.244 207.432 102.421C207.945 103.599 208.211 104.967 208.211 106.544C208.211 108.026 207.964 109.432 207.489 110.762C206.995 112.111 206.236 113.27 205.229 114.238C204.203 115.207 202.968 115.929 201.486 116.404C200.023 116.879 198.484 117.107 196.85 117.107C195.311 117.107 193.849 116.879 192.443 116.461C191.018 116.024 189.802 115.359 188.795 114.428C187.769 113.517 187.047 112.453 186.61 111.275C186.173 110.078 185.945 108.786 185.945 107.399C185.945 105.879 186.211 104.416 186.762 103.048C187.313 101.662 188.111 100.522 189.194 99.6097C190.258 98.6978 191.512 98.0139 192.937 97.5389C194.362 97.045 195.9 96.817 197.534 96.817Z" fill="white"/>
<path d="M218.808 105.242C218.732 105.755 218.694 106.211 218.656 106.572L218.58 108.167C218.542 108.851 218.523 109.364 218.523 109.687C218.523 110.276 218.58 110.827 218.713 111.359C218.827 111.891 219.074 112.385 219.435 112.822C219.796 113.278 220.233 113.62 220.727 113.848C221.221 114.095 221.734 114.209 222.266 114.209C222.987 114.209 223.652 114 224.26 113.582C224.849 113.164 225.324 112.556 225.647 111.758C225.97 110.96 226.141 110.086 226.141 109.193C226.141 108.186 225.951 107.332 225.59 106.648C225.229 105.964 224.754 105.451 224.146 105.147C223.538 104.843 222.854 104.672 222.095 104.672C221.05 104.672 219.967 104.881 218.808 105.242ZM213.906 123.328C214.153 120.668 214.362 117.192 214.552 112.955C214.742 108.699 214.837 105.261 214.837 102.601C216.661 102.278 218.067 102.05 219.055 101.955C220.062 101.86 221.05 101.784 222.019 101.784C223.31 101.784 224.488 101.936 225.571 102.259C226.654 102.563 227.509 103.076 228.155 103.779C228.801 104.501 229.276 105.337 229.599 106.287C229.903 107.218 230.074 108.224 230.074 109.25C230.074 110.295 229.922 111.302 229.618 112.252C229.333 113.221 228.877 114.095 228.269 114.855C227.661 115.634 226.939 116.185 226.141 116.527C225.324 116.869 224.45 117.059 223.5 117.059C222.93 117.059 222.38 116.983 221.829 116.869C221.278 116.736 220.803 116.546 220.385 116.337C219.967 116.109 219.625 115.9 219.359 115.672C219.093 115.444 218.751 115.102 218.333 114.665L218.105 120.915L218.086 121.884C218.067 122.017 218.067 122.492 218.067 123.309C217.193 123.309 216.509 123.309 216.034 123.309L213.906 123.328Z" fill="white"/>
<path d="M241.156 107.694L247.882 107.713C247.882 107.257 247.863 106.915 247.844 106.706C247.825 106.497 247.749 106.231 247.654 105.965C247.559 105.68 247.426 105.433 247.255 105.224C247.084 105.015 246.875 104.825 246.647 104.692C246.419 104.54 246.153 104.426 245.849 104.35C245.545 104.274 245.222 104.236 244.88 104.236C244.481 104.236 244.101 104.293 243.721 104.426C243.341 104.559 242.999 104.73 242.676 104.977C242.353 105.224 242.106 105.471 241.916 105.775C241.707 106.079 241.574 106.364 241.479 106.63C241.346 106.877 241.251 107.238 241.156 107.694ZM250.427 113.488C250.294 114.058 250.123 115.065 249.895 116.528C248.87 116.737 247.996 116.889 247.274 116.965C246.571 117.041 245.849 117.079 245.127 117.079C243.873 117.079 242.752 116.946 241.764 116.699C240.776 116.452 239.902 115.996 239.161 115.331C238.42 114.666 237.869 113.849 237.509 112.88C237.167 111.911 236.977 110.885 236.977 109.84C236.977 108.663 237.186 107.523 237.585 106.421C238.002 105.319 238.572 104.407 239.313 103.704C240.054 103.001 240.909 102.507 241.84 102.203C242.79 101.899 243.778 101.766 244.804 101.766C245.773 101.766 246.704 101.899 247.597 102.146C248.471 102.393 249.211 102.792 249.819 103.343C250.427 103.894 250.883 104.559 251.206 105.338C251.529 106.117 251.681 106.991 251.681 107.941C251.681 108.378 251.624 108.834 251.529 109.328L241.004 109.347C240.985 109.689 240.966 109.992 240.966 110.182C240.966 110.828 241.08 111.417 241.308 111.968C241.517 112.5 241.84 112.956 242.277 113.317C242.695 113.697 243.208 113.963 243.778 114.153C244.367 114.343 244.937 114.419 245.507 114.419C246.153 114.419 246.875 114.343 247.654 114.21C248.452 114.077 249.363 113.83 250.427 113.488Z" fill="white"/>
<path d="M258.031 116.757C258.259 114.591 258.43 112.14 258.582 109.423C258.734 106.725 258.81 104.294 258.829 102.147C259.722 102.166 260.425 102.185 260.938 102.185C261.565 102.185 262.23 102.166 262.933 102.147L262.762 104.579C263.066 104.161 263.332 103.819 263.541 103.572C263.769 103.325 264.054 103.078 264.415 102.831C264.757 102.603 265.137 102.413 265.536 102.261C265.935 102.128 266.391 102.014 266.884 101.919C267.378 101.824 267.891 101.786 268.423 101.786C269.278 101.786 270.095 101.881 270.874 102.109C271.653 102.318 272.28 102.66 272.755 103.135C273.23 103.61 273.553 104.123 273.705 104.674C273.857 105.225 273.933 105.814 273.933 106.44C273.933 106.706 273.914 107.105 273.895 107.675L273.591 113.945C273.553 114.819 273.534 115.75 273.515 116.738C272.755 116.719 272.109 116.7 271.577 116.7C270.855 116.7 270.114 116.719 269.373 116.738C269.449 115.902 269.544 114.458 269.658 112.368C269.772 110.297 269.829 108.929 269.829 108.245C269.829 107.485 269.715 106.877 269.468 106.422C269.221 105.966 268.86 105.624 268.347 105.377C267.853 105.13 267.302 105.016 266.713 105.016C266.144 105.016 265.612 105.13 265.099 105.339C264.605 105.548 264.168 105.89 263.807 106.308C263.408 106.744 263.123 107.257 262.914 107.903C262.686 108.568 262.534 109.67 262.42 111.209C262.325 112.577 262.249 114.42 262.192 116.719C261.451 116.7 260.786 116.681 260.197 116.681C259.608 116.719 258.886 116.738 258.031 116.757Z" fill="white"/>
<path d="M299.43 116.757L299.772 111.589C299.962 108.777 300.076 106.175 300.152 103.762C300.228 101.349 300.285 99.6771 300.285 98.7272L300.266 97.1503C301.387 97.1693 302.184 97.1883 302.64 97.1883C303.001 97.1883 303.723 97.1693 304.806 97.1503L304.426 103.629L304.369 105.13H314.134L314.305 101.254C314.343 99.9241 314.362 99.0502 314.362 98.6132V97.1503L316.756 97.1883C316.965 97.1883 317.687 97.1693 318.903 97.1503L318.428 104.978L318.219 110.772L318.181 114.173C318.162 115.579 318.162 116.434 318.162 116.757L315.92 116.719C315.654 116.719 314.856 116.738 313.545 116.757C313.811 114.04 313.944 111.19 314.02 108.207H304.217L304.008 113.489L303.951 116.757L301.596 116.719C301.387 116.719 300.646 116.738 299.43 116.757Z" fill="white"/>
<path d="M326.504 105.362C326.637 104.678 326.713 104.184 326.751 103.899C326.789 103.633 326.846 103.196 326.941 102.626C328.233 102.322 329.391 102.113 330.398 101.98C331.386 101.847 332.355 101.79 333.267 101.79C334.331 101.79 335.281 101.923 336.174 102.151C337.067 102.398 337.751 102.797 338.245 103.329C338.739 103.861 338.986 104.621 338.986 105.628C338.986 106.179 338.91 107.566 338.758 109.808C338.606 112.031 338.511 114.348 338.473 116.723C337.751 116.704 337.086 116.685 336.478 116.685C335.889 116.685 335.205 116.704 334.407 116.723C334.54 115.564 334.654 114.215 334.711 112.695L334.901 109.124C334.54 109.371 334.255 109.523 334.065 109.618C333.875 109.713 333.666 109.808 333.419 109.884C333.191 109.96 332.773 110.093 332.165 110.245C331.557 110.416 331.082 110.549 330.721 110.682C330.341 110.815 330.037 110.948 329.733 111.1C329.448 111.252 329.201 111.442 328.992 111.632C328.784 111.822 328.651 112.031 328.556 112.24C328.461 112.468 328.404 112.695 328.404 112.942C328.404 113.341 328.537 113.683 328.765 113.987C328.992 114.272 329.296 114.481 329.657 114.576C330.018 114.69 330.436 114.766 330.911 114.766C331.215 114.766 331.538 114.747 331.88 114.69C332.222 114.633 332.678 114.519 333.248 114.329C333.058 114.88 332.811 115.697 332.545 116.761C331.861 116.875 331.329 116.951 330.911 116.97C330.512 117.008 330.132 117.027 329.79 117.027C328.594 117.027 327.587 116.856 326.827 116.533C326.048 116.21 325.478 115.697 325.117 114.975C324.737 114.272 324.547 113.55 324.547 112.828C324.547 112.43 324.623 112.012 324.756 111.613C324.908 111.214 325.117 110.834 325.383 110.511C325.649 110.169 326.029 109.865 326.466 109.542C326.903 109.219 327.549 108.934 328.385 108.63C329.22 108.345 330.322 108.041 331.69 107.737C332.07 107.661 332.45 107.566 332.83 107.471C333.229 107.357 333.533 107.243 333.761 107.148C333.989 107.053 334.198 106.901 334.388 106.749C334.559 106.578 334.692 106.407 334.768 106.217C334.844 106.027 334.882 105.856 334.882 105.647C334.882 105.286 334.768 104.963 334.54 104.697C334.293 104.45 333.989 104.26 333.571 104.165C333.191 104.07 332.754 104.013 332.298 104.013C330.531 104.089 328.594 104.526 326.504 105.362Z" fill="white"/>
<path d="M347.539 116.757L347.957 109.936L348.071 105.985C348.09 105.168 348.109 104.351 348.109 103.534C348.109 103.382 348.09 102.926 348.071 102.166C348.964 102.185 349.629 102.204 350.047 102.204C350.541 102.204 351.187 102.185 351.985 102.166L351.909 104.18C352.27 103.667 352.593 103.287 352.84 103.021C353.106 102.774 353.391 102.546 353.695 102.375C354.017 102.185 354.378 102.052 354.758 101.957C355.157 101.862 355.556 101.805 355.974 101.805C356.354 101.805 356.734 101.862 357.152 101.957C357.152 102.85 357.209 103.971 357.285 105.339C356.715 105.187 356.202 105.111 355.746 105.111C355.195 105.111 354.701 105.206 354.264 105.377C353.828 105.548 353.467 105.795 353.125 106.137C352.783 106.478 352.517 106.896 352.289 107.39C352.099 107.789 351.985 108.302 351.89 108.948C351.814 109.442 351.757 110.297 351.7 111.494C351.643 112.71 351.624 113.888 351.624 115.047C351.624 115.503 351.643 116.054 351.662 116.738C350.94 116.719 350.275 116.7 349.667 116.7C349.059 116.7 348.356 116.738 347.539 116.757Z" fill="white"/>
<path d="M375.456 104.78C374.734 104.59 374.05 104.495 373.386 104.495C372.626 104.495 371.904 104.59 371.22 104.818C370.536 105.027 369.909 105.388 369.377 105.901C368.864 106.414 368.446 107.059 368.161 107.857C367.876 108.655 367.724 109.415 367.724 110.156C367.724 110.897 367.857 111.562 368.123 112.189C368.389 112.797 368.807 113.272 369.358 113.633C369.909 113.994 370.536 114.165 371.239 114.165C371.752 114.165 372.246 114.07 372.664 113.88C373.101 113.69 373.481 113.405 373.841 113.025C374.183 112.626 374.487 112.132 374.734 111.524C374.981 110.916 375.152 110.099 375.247 109.092C375.323 108.313 375.38 106.888 375.456 104.78ZM379.009 116.749C378.211 116.73 377.603 116.711 377.147 116.711C376.672 116.711 376.007 116.73 375.152 116.749L375.285 114.241C374.848 114.792 374.506 115.21 374.202 115.514C373.898 115.818 373.518 116.084 373.082 116.331C372.645 116.578 372.151 116.768 371.638 116.901C371.125 117.034 370.593 117.091 370.023 117.091C369.111 117.091 368.256 116.92 367.439 116.597C366.641 116.255 365.938 115.799 365.387 115.172C364.817 114.583 364.399 113.842 364.133 113.006C363.867 112.17 363.734 111.296 363.734 110.384C363.734 109.13 363.981 107.914 364.456 106.717C364.931 105.521 365.596 104.552 366.413 103.83C367.249 103.089 368.18 102.576 369.244 102.272C370.289 101.968 371.429 101.797 372.626 101.797C373.499 101.797 374.487 101.873 375.589 102.044C375.646 100.79 375.684 99.4981 375.684 98.1303V97.1423C376.577 97.1613 377.28 97.1803 377.755 97.1803C378.382 97.1803 379.085 97.1613 379.864 97.1423C379.655 99.5741 379.446 102.88 379.275 107.078C379.104 111.277 379.009 114.488 379.009 116.749Z" fill="white"/>
<path d="M393.754 116.757L392.083 111.646L389.651 104.655L388.758 102.166C389.48 102.185 390.164 102.204 390.772 102.204C391.361 102.204 391.969 102.185 392.595 102.166L395.92 112.919L399.739 102.166C400.461 102.185 401.145 102.204 401.791 102.204C402.475 102.204 403.121 102.185 403.747 102.166L406.217 111.646C406.236 111.798 406.35 112.216 406.521 112.919L406.863 111.95C406.863 111.931 406.958 111.722 407.129 111.266L409.371 105.624L410.682 102.147C411.404 102.166 412.031 102.185 412.563 102.185C413 102.185 413.646 102.166 414.52 102.147L410.568 111.152C409.732 113.09 408.934 114.952 408.212 116.738C407.395 116.719 406.768 116.7 406.312 116.7C405.818 116.7 405.096 116.719 404.127 116.738L401.487 106.289C401.354 106.668 401.05 107.447 400.632 108.663L397.725 116.738C396.908 116.719 396.3 116.7 395.863 116.7C395.388 116.719 394.704 116.738 393.754 116.757Z" fill="white"/>
<path d="M423.328 105.362C423.461 104.678 423.556 104.184 423.575 103.899C423.613 103.633 423.67 103.196 423.746 102.626C425.038 102.322 426.197 102.113 427.185 101.98C428.192 101.847 429.161 101.79 430.073 101.79C431.137 101.79 432.106 101.923 432.98 102.151C433.873 102.398 434.556 102.797 435.05 103.329C435.544 103.861 435.791 104.621 435.791 105.628C435.791 106.179 435.715 107.566 435.563 109.808C435.411 112.031 435.316 114.348 435.297 116.723C434.556 116.704 433.892 116.685 433.284 116.685C432.695 116.685 432.03 116.704 431.251 116.723C431.365 115.564 431.479 114.215 431.536 112.695L431.726 109.124C431.365 109.371 431.08 109.523 430.909 109.618C430.7 109.713 430.491 109.808 430.244 109.884C430.016 109.96 429.598 110.093 428.99 110.245C428.382 110.416 427.907 110.549 427.546 110.682C427.185 110.815 426.862 110.948 426.577 111.1C426.273 111.252 426.026 111.442 425.817 111.632C425.627 111.822 425.494 112.031 425.38 112.24C425.285 112.468 425.247 112.695 425.247 112.942C425.247 113.341 425.361 113.683 425.589 113.987C425.817 114.272 426.121 114.481 426.463 114.576C426.824 114.69 427.242 114.766 427.717 114.766C428.021 114.766 428.363 114.747 428.686 114.69C429.028 114.633 429.484 114.519 430.054 114.329C429.845 114.88 429.617 115.697 429.351 116.761C428.667 116.875 428.135 116.951 427.736 116.97C427.337 117.008 426.957 117.027 426.615 117.027C425.418 117.027 424.411 116.856 423.651 116.533C422.872 116.21 422.303 115.697 421.942 114.975C421.581 114.272 421.391 113.55 421.391 112.828C421.391 112.43 421.467 112.012 421.6 111.613C421.752 111.214 421.961 110.834 422.227 110.511C422.512 110.169 422.854 109.865 423.309 109.542C423.746 109.219 424.392 108.934 425.228 108.63C426.045 108.345 427.166 108.041 428.534 107.737C428.895 107.661 429.275 107.566 429.674 107.471C430.073 107.357 430.396 107.243 430.624 107.148C430.871 107.053 431.061 106.901 431.232 106.749C431.403 106.578 431.536 106.407 431.593 106.217C431.688 106.027 431.726 105.856 431.726 105.647C431.726 105.286 431.593 104.963 431.365 104.697C431.118 104.45 430.814 104.26 430.415 104.165C430.016 104.07 429.598 104.013 429.123 104.013C427.356 104.089 425.437 104.526 423.328 105.362Z" fill="white"/>
<path d="M445.773 116.757L446.191 109.936L446.305 105.985C446.324 105.168 446.343 104.351 446.343 103.534C446.343 103.382 446.324 102.926 446.305 102.166C447.198 102.185 447.863 102.204 448.281 102.204C448.756 102.204 449.402 102.185 450.219 102.166L450.143 104.18C450.504 103.667 450.827 103.287 451.074 103.021C451.34 102.774 451.625 102.546 451.948 102.375C452.271 102.185 452.632 102.052 453.012 101.957C453.411 101.862 453.81 101.805 454.228 101.805C454.608 101.805 455.007 101.862 455.406 101.957C455.406 102.85 455.444 103.971 455.539 105.339C454.969 105.187 454.456 105.111 454 105.111C453.449 105.111 452.955 105.206 452.537 105.377C452.1 105.548 451.72 105.795 451.378 106.137C451.036 106.478 450.77 106.896 450.542 107.39C450.352 107.789 450.219 108.302 450.143 108.948C450.067 109.442 450.01 110.297 449.953 111.494C449.896 112.71 449.877 113.888 449.877 115.047C449.877 115.503 449.896 116.054 449.915 116.738C449.174 116.719 448.528 116.7 447.92 116.7C447.293 116.719 446.59 116.738 445.773 116.757Z" fill="white"/>
<path d="M687.641 116.757L688.059 109.936L688.173 105.985C688.192 105.168 688.192 104.351 688.192 103.534C688.192 103.382 688.173 102.926 688.173 102.166C689.066 102.185 689.73 102.204 690.148 102.204C690.623 102.204 691.288 102.185 692.086 102.166L692.01 104.18C692.371 103.667 692.694 103.287 692.941 103.021C693.207 102.774 693.492 102.546 693.815 102.375C694.138 102.185 694.499 102.052 694.879 101.957C695.278 101.862 695.677 101.805 696.095 101.805C696.475 101.805 696.874 101.862 697.273 101.957C697.273 102.85 697.311 103.971 697.406 105.339C696.836 105.187 696.323 105.111 695.867 105.111C695.316 105.111 694.822 105.206 694.404 105.377C693.967 105.548 693.587 105.795 693.245 106.137C692.903 106.478 692.637 106.896 692.409 107.39C692.219 107.789 692.086 108.302 692.01 108.948C691.934 109.442 691.877 110.297 691.82 111.494C691.763 112.71 691.744 113.888 691.744 115.047C691.744 115.503 691.763 116.054 691.782 116.738C691.06 116.719 690.395 116.7 689.787 116.7C689.16 116.719 688.458 116.738 687.641 116.757Z" fill="white"/>
<path d="M467.414 107.694L474.12 107.713C474.12 107.257 474.101 106.915 474.063 106.706C474.044 106.497 473.968 106.231 473.873 105.965C473.778 105.68 473.645 105.433 473.474 105.224C473.303 105.015 473.094 104.825 472.867 104.692C472.639 104.54 472.373 104.426 472.069 104.35C471.765 104.274 471.442 104.236 471.1 104.236C470.701 104.236 470.302 104.293 469.941 104.426C469.561 104.559 469.219 104.73 468.896 104.977C468.573 105.224 468.326 105.471 468.117 105.775C467.927 106.079 467.775 106.364 467.68 106.63C467.604 106.877 467.509 107.238 467.414 107.694ZM476.666 113.488C476.552 114.058 476.362 115.065 476.153 116.528C475.108 116.737 474.234 116.889 473.531 116.965C472.829 117.041 472.107 117.079 471.385 117.079C470.131 117.079 469.01 116.946 468.022 116.699C467.034 116.452 466.16 115.996 465.419 115.331C464.659 114.666 464.127 113.849 463.766 112.88C463.405 111.911 463.234 110.885 463.234 109.84C463.234 108.663 463.443 107.523 463.842 106.421C464.241 105.319 464.83 104.407 465.571 103.704C466.312 103.001 467.148 102.507 468.098 102.203C469.048 101.899 470.036 101.766 471.081 101.766C472.05 101.766 472.98 101.899 473.854 102.146C474.747 102.393 475.488 102.792 476.077 103.343C476.685 103.894 477.141 104.559 477.464 105.338C477.787 106.117 477.939 106.991 477.939 107.941C477.939 108.378 477.901 108.834 477.787 109.328L467.262 109.347C467.243 109.689 467.224 109.992 467.224 110.182C467.224 110.828 467.338 111.417 467.566 111.968C467.794 112.5 468.098 112.956 468.516 113.317C468.934 113.697 469.447 113.963 470.036 114.153C470.625 114.343 471.195 114.419 471.765 114.419C472.411 114.419 473.132 114.343 473.911 114.21C474.709 114.077 475.621 113.83 476.666 113.488Z" fill="white"/>
<path d="M504.461 116.756C504.632 114.875 504.746 113.374 504.803 112.235C504.917 110.316 505.031 107.599 505.126 104.046C505.221 101.425 505.278 99.5627 505.278 98.4988V97.1689C508.014 97.1879 510.407 97.2069 512.478 97.2069L516.487 97.1879L518.881 97.1689C518.786 98.5938 518.729 99.6387 518.729 100.266L516.658 100.209L515.822 100.19H514.701H512.535L509.552 100.209L509.381 105.357L511.813 105.414C513.675 105.414 514.872 105.414 515.385 105.395L517.342 105.357C517.285 106.478 517.247 107.485 517.228 108.397C515.556 108.359 514.226 108.34 513.238 108.34C512.003 108.34 510.654 108.359 509.211 108.397L509.04 114.742L509.021 116.034V116.775L506.836 116.737C506.741 116.718 505.924 116.737 504.461 116.756Z" fill="white"/>
<path d="M526.455 105.362C526.588 104.678 526.683 104.184 526.721 103.899C526.759 103.633 526.816 103.196 526.911 102.626C528.202 102.322 529.361 102.113 530.349 101.98C531.356 101.847 532.306 101.79 533.237 101.79C534.282 101.79 535.251 101.923 536.125 102.151C536.999 102.398 537.683 102.797 538.195 103.329C538.689 103.861 538.936 104.621 538.936 105.628C538.936 106.179 538.86 107.566 538.708 109.808C538.556 112.031 538.461 114.348 538.442 116.723C537.721 116.704 537.037 116.685 536.429 116.685C535.859 116.685 535.175 116.704 534.377 116.723C534.491 115.564 534.605 114.215 534.681 112.695L534.871 109.124C534.51 109.371 534.225 109.523 534.054 109.618C533.864 109.713 533.655 109.808 533.408 109.884C533.161 109.96 532.743 110.093 532.135 110.245C531.527 110.416 531.052 110.549 530.691 110.682C530.311 110.815 530.007 110.948 529.722 111.1C529.418 111.252 529.171 111.442 528.962 111.632C528.772 111.822 528.62 112.031 528.525 112.24C528.43 112.468 528.392 112.695 528.392 112.942C528.392 113.341 528.506 113.683 528.734 113.987C528.962 114.272 529.266 114.481 529.627 114.576C529.988 114.69 530.387 114.766 530.881 114.766C531.185 114.766 531.508 114.747 531.85 114.69C532.192 114.633 532.648 114.519 533.218 114.329C533.028 114.88 532.781 115.697 532.515 116.761C531.831 116.875 531.299 116.951 530.9 116.97C530.501 117.008 530.121 117.027 529.779 117.027C528.582 117.027 527.594 116.856 526.816 116.533C526.037 116.21 525.467 115.697 525.106 114.975C524.726 114.272 524.555 113.55 524.555 112.828C524.555 112.43 524.631 112.012 524.783 111.613C524.935 111.214 525.144 110.834 525.41 110.511C525.676 110.188 526.037 109.865 526.493 109.542C526.93 109.219 527.556 108.934 528.392 108.63C529.228 108.345 530.33 108.041 531.698 107.737C532.059 107.661 532.439 107.566 532.838 107.471C533.237 107.357 533.541 107.243 533.788 107.148C534.016 107.053 534.225 106.901 534.396 106.749C534.567 106.578 534.7 106.407 534.776 106.217C534.871 106.027 534.909 105.856 534.909 105.647C534.909 105.286 534.776 104.963 534.548 104.697C534.301 104.45 533.997 104.26 533.598 104.165C533.199 104.07 532.781 104.013 532.306 104.013C530.501 104.089 528.563 104.526 526.455 105.362Z" fill="white"/>
<path d="M558.367 113.441C558.31 113.839 558.253 114.276 558.158 114.77C558.063 115.264 557.968 115.891 557.854 116.632C556.486 116.955 555.118 117.107 553.808 117.107C553.029 117.107 552.288 117.031 551.566 116.879C550.863 116.746 550.179 116.48 549.552 116.119C548.944 115.758 548.393 115.264 547.918 114.656C547.443 114.067 547.101 113.327 546.873 112.472C546.645 111.617 546.531 110.743 546.531 109.812C546.531 108.615 546.721 107.456 547.101 106.335C547.481 105.214 548.051 104.321 548.811 103.618C549.552 102.915 550.388 102.421 551.3 102.174C552.212 101.928 553.238 101.795 554.359 101.795C554.967 101.795 555.612 101.833 556.277 101.909C556.942 101.985 557.721 102.137 558.614 102.345L558.842 105.499C557.417 105.005 556.182 104.777 555.119 104.777C554.473 104.777 553.846 104.891 553.276 105.119C552.706 105.347 552.212 105.689 551.794 106.145C551.376 106.62 551.072 107.171 550.901 107.798C550.73 108.425 550.635 109.052 550.635 109.717C550.635 110.629 550.787 111.408 551.072 112.073C551.338 112.738 551.832 113.251 552.516 113.611C553.2 113.972 553.979 114.162 554.872 114.162C555.309 114.162 555.821 114.105 556.448 113.991C557.018 113.858 557.683 113.687 558.367 113.441Z" fill="white"/>
<path d="M569.279 99.6544C569.317 98.6665 569.336 97.9066 569.336 97.3937V96.9377C570.21 96.9567 570.913 96.9757 571.464 96.9757C572.224 96.9757 572.908 96.9757 573.535 96.9377C573.497 97.1847 573.478 97.4506 573.478 97.7546L573.402 99.6734C572.68 99.6545 572.015 99.6544 571.407 99.6544C570.799 99.6164 570.096 99.6354 569.279 99.6544ZM568.5 116.753C568.652 115.328 568.747 114.112 568.804 113.143C568.899 111.604 568.994 109.838 569.07 107.843C569.127 105.848 569.203 103.948 569.222 102.143C570.172 102.162 570.856 102.181 571.312 102.181C571.749 102.181 572.433 102.162 573.402 102.143C573.269 103.815 573.174 105.392 573.098 106.912C573.022 108.432 572.965 110.161 572.927 112.117C572.889 114.074 572.87 115.613 572.87 116.753C571.996 116.734 571.293 116.715 570.761 116.715C570.248 116.715 569.507 116.734 568.5 116.753Z" fill="white"/>
<path d="M581.656 116.756C581.808 115.141 581.979 112.235 582.188 108.036C582.397 103.837 582.511 100.209 582.568 97.1689C583.556 97.1879 584.278 97.2069 584.696 97.2069C585.266 97.2069 585.95 97.1879 586.767 97.1689L586.425 102.412L585.931 114.096L585.874 116.775C585.076 116.756 584.43 116.737 583.879 116.737C583.689 116.718 582.948 116.737 581.656 116.756Z" fill="white"/>
<path d="M595.806 99.6544C595.844 98.6665 595.863 97.9066 595.863 97.3937V96.9377C596.737 96.9567 597.44 96.9757 597.991 96.9757C598.75 96.9757 599.434 96.9757 600.08 96.9377C600.042 97.1847 600.023 97.4506 600.023 97.7546L599.947 99.6734C599.206 99.6545 598.541 99.6544 597.934 99.6544C597.326 99.6164 596.604 99.6354 595.806 99.6544ZM595.008 116.753C595.16 115.328 595.255 114.112 595.312 113.143C595.407 111.604 595.483 109.838 595.559 107.843C595.635 105.848 595.692 103.948 595.711 102.143C596.642 102.162 597.345 102.181 597.801 102.181C598.238 102.181 598.921 102.162 599.89 102.143C599.757 103.815 599.662 105.392 599.586 106.912C599.51 108.432 599.453 110.161 599.415 112.117C599.377 114.074 599.358 115.613 599.358 116.753C598.484 116.734 597.782 116.715 597.25 116.715C596.775 116.715 596.015 116.734 595.008 116.753Z" fill="white"/>
<path d="M617.833 113.743C617.738 114.275 617.548 115.244 617.282 116.669C616.484 116.859 615.838 116.973 615.401 117.011C614.945 117.068 614.508 117.087 614.09 117.087C613.387 117.087 612.76 117.011 612.19 116.897C611.621 116.764 611.165 116.517 610.804 116.175C610.443 115.833 610.196 115.434 610.063 114.997C609.949 114.541 609.873 114.066 609.873 113.572C609.873 113.458 609.892 113.287 609.892 113.059C609.892 112.85 609.949 112.166 610.006 111.026L610.329 105.061H608.258C608.315 104.491 608.353 103.56 608.391 102.287H610.557C610.614 101.736 610.671 100.786 610.728 99.4565L612.418 99.1335C612.76 99.0575 613.463 98.9055 614.47 98.6585C614.413 99.9504 614.356 101.166 614.337 102.306H618.004C617.947 103.598 617.909 104.51 617.909 105.08H614.242C614.033 108.975 613.938 111.235 613.938 111.843C613.938 112.432 614.014 112.888 614.128 113.23C614.261 113.553 614.47 113.781 614.755 113.933C615.04 114.085 615.363 114.142 615.686 114.142C615.914 114.142 616.161 114.123 616.446 114.085C616.712 114.028 617.168 113.914 617.833 113.743Z" fill="white"/>
<path d="M626.43 105.362C626.563 104.678 626.658 104.184 626.677 103.899C626.715 103.633 626.772 103.196 626.867 102.626C628.159 102.322 629.318 102.113 630.306 101.98C631.294 101.847 632.282 101.79 633.193 101.79C634.238 101.79 635.207 101.923 636.081 102.151C636.974 102.398 637.658 102.797 638.152 103.329C638.646 103.861 638.893 104.621 638.893 105.628C638.893 106.179 638.817 107.566 638.665 109.808C638.513 112.031 638.418 114.348 638.399 116.723C637.677 116.704 637.012 116.685 636.385 116.685C635.796 116.685 635.112 116.704 634.333 116.723C634.447 115.564 634.561 114.215 634.637 112.695L634.827 109.124C634.466 109.371 634.181 109.523 634.01 109.618C633.82 109.713 633.611 109.808 633.364 109.884C633.117 109.96 632.699 110.093 632.111 110.245C631.503 110.416 631.028 110.549 630.667 110.682C630.306 110.815 629.964 110.948 629.679 111.1C629.394 111.252 629.147 111.442 628.919 111.632C628.729 111.822 628.577 112.031 628.482 112.24C628.406 112.468 628.368 112.695 628.368 112.942C628.368 113.341 628.482 113.683 628.71 113.987C628.938 114.272 629.242 114.481 629.603 114.576C629.945 114.69 630.363 114.766 630.857 114.766C631.161 114.766 631.484 114.747 631.826 114.69C632.168 114.633 632.623 114.519 633.193 114.329C632.984 114.88 632.756 115.697 632.471 116.761C631.807 116.875 631.256 116.951 630.857 116.97C630.458 117.008 630.097 117.027 629.736 117.027C628.52 117.027 627.551 116.856 626.772 116.533C625.993 116.21 625.423 115.697 625.062 114.975C624.682 114.272 624.492 113.55 624.492 112.828C624.492 112.43 624.568 112.012 624.72 111.613C624.872 111.214 625.081 110.834 625.347 110.511C625.613 110.188 625.993 109.865 626.43 109.542C626.867 109.219 627.513 108.934 628.349 108.63C629.185 108.345 630.287 108.041 631.655 107.737C632.016 107.661 632.377 107.566 632.775 107.471C633.174 107.357 633.478 107.243 633.706 107.148C633.953 107.053 634.143 106.901 634.314 106.749C634.485 106.578 634.599 106.407 634.694 106.217C634.77 106.027 634.808 105.856 634.808 105.647C634.808 105.286 634.694 104.963 634.447 104.697C634.2 104.45 633.896 104.26 633.497 104.165C633.098 104.07 632.68 104.013 632.206 104.013C630.458 104.089 628.539 104.526 626.43 105.362Z" fill="white"/>
<path d="M656.096 113.743C655.982 114.275 655.792 115.244 655.564 116.669C654.766 116.859 654.12 116.973 653.665 117.011C653.209 117.068 652.772 117.087 652.392 117.087C651.689 117.087 651.043 117.011 650.492 116.897C649.922 116.764 649.466 116.517 649.105 116.175C648.725 115.833 648.478 115.434 648.364 114.997C648.231 114.541 648.174 114.066 648.174 113.572C648.174 113.458 648.174 113.287 648.193 113.059C648.193 112.85 648.231 112.166 648.288 111.026L648.63 105.061H646.578C646.635 104.491 646.654 103.56 646.711 102.287H648.877C648.934 101.736 648.972 100.786 649.029 99.4565L650.72 99.1335C651.081 99.0575 651.746 98.9055 652.772 98.6585C652.715 99.9504 652.658 101.166 652.658 102.306H656.305C656.229 103.598 656.21 104.51 656.21 105.08H652.544C652.354 108.975 652.24 111.235 652.24 111.843C652.24 112.432 652.316 112.888 652.43 113.23C652.563 113.553 652.772 113.781 653.057 113.933C653.342 114.085 653.646 114.142 653.968 114.142C654.215 114.142 654.462 114.123 654.728 114.085C654.975 114.028 655.431 113.914 656.096 113.743Z" fill="white"/>
<path d="M672.058 104.76C671.222 104.76 670.481 104.95 669.835 105.368C669.189 105.767 668.695 106.375 668.372 107.191C668.068 107.989 667.897 108.882 667.897 109.813C667.897 110.649 668.049 111.39 668.296 112.036C668.562 112.682 668.999 113.214 669.588 113.613C670.177 114.012 670.899 114.221 671.716 114.221C672.552 114.221 673.293 114.012 673.92 113.594C674.566 113.176 675.04 112.549 675.344 111.751C675.648 110.934 675.819 110.041 675.819 109.072C675.819 108.274 675.705 107.552 675.458 106.906C675.212 106.261 674.794 105.729 674.205 105.349C673.597 104.969 672.894 104.76 672.058 104.76ZM672.058 101.796C673.16 101.796 674.205 101.967 675.211 102.29C676.218 102.632 677.092 103.107 677.776 103.753C678.479 104.399 679.011 105.178 679.353 106.128C679.695 107.058 679.885 108.046 679.885 109.072C679.885 110.155 679.695 111.219 679.334 112.226C678.973 113.233 678.422 114.107 677.719 114.848C676.997 115.589 676.123 116.14 675.079 116.52C674.015 116.881 672.894 117.071 671.697 117.071C670.576 117.071 669.531 116.9 668.524 116.577C667.517 116.254 666.681 115.76 665.978 115.095C665.275 114.43 664.724 113.632 664.363 112.682C664.002 111.732 663.812 110.744 663.812 109.699C663.812 108.654 663.984 107.647 664.306 106.697C664.648 105.729 665.161 104.893 665.883 104.133C666.605 103.392 667.498 102.822 668.619 102.404C669.721 102.005 670.88 101.796 672.058 101.796Z" fill="white"/>
</svg>
