<svg width="664" height="114" viewBox="0 0 664 114" fill="none" xmlns="http://www.w3.org/2000/svg">
<g clip-path="url(#clip0_1177_134)">
<path d="M184.055 82.6649L208.679 52.1644C212.495 47.585 219.427 40.6804 219.427 40.6804H185.514V23.2649H243.735V37.4078L218.978 67.4755C214.851 72.615 207.916 79.5535 207.916 79.5535H244.886V96.9436H184.055V82.6649Z" fill="#DA4DFC"/>
<path d="M253.183 60.1044C253.119 55.0686 254.062 50.0708 255.956 45.4042C257.85 40.7376 260.656 36.4962 264.211 32.9288C267.766 29.3614 271.997 26.54 276.657 24.6299C281.317 22.7198 286.311 21.7596 291.347 21.8055C311.393 21.8055 327.156 38.8986 327.156 59.8386C327.137 62.2017 326.993 64.5622 326.723 66.91H273.194C275.55 77.0646 283.942 81.9438 293.669 81.9438C300.711 81.9881 307.615 79.9939 313.548 76.2018L320.902 90.3447C312.754 95.6697 303.222 98.4855 293.488 98.4429C272.032 98.4373 253.183 84.4302 253.183 60.1044ZM308.573 53.7995C308.011 49.4871 305.886 45.5306 302.602 42.6799C299.318 39.8293 295.102 38.2826 290.753 38.3329C286.442 38.4171 282.298 40.0112 279.041 42.8376C275.785 45.6639 273.624 49.5432 272.934 53.7995H308.573Z" fill="#DA4DFC"/>
<path d="M340.102 0H359.847V96.9748H340.102V0Z" fill="#DA4DFC"/>
<path d="M372.656 60.1015C372.689 54.9915 373.737 49.939 375.74 45.2377C377.743 40.5364 380.66 36.2802 384.322 32.7165C387.984 29.1528 392.318 26.3527 397.073 24.4791C401.827 22.6055 406.906 21.6957 412.014 21.8026C421.647 21.7254 430.995 25.0646 438.398 31.2274L426.451 45.0676C422.587 41.6816 417.582 39.89 412.447 40.0554C407.158 40.1754 402.132 42.3808 398.462 46.1912C394.792 50.0015 392.777 55.1079 392.856 60.3976C392.934 65.6873 395.101 70.7315 398.882 74.4309C402.664 78.1303 407.754 80.1852 413.044 80.1476C418.964 80.2102 424.694 78.0561 429.107 74.1086L439.572 88.8455C431.806 95.1869 422.051 98.5836 412.026 98.4372C406.914 98.5419 401.832 97.6294 397.076 95.7528C392.32 93.8762 387.984 91.0729 384.321 87.5059C380.658 83.9389 377.741 79.6793 375.738 74.9748C373.736 70.2702 372.688 65.2145 372.656 60.1015Z" fill="#DA4DFC"/>
<path d="M445.165 60.1044C444.937 52.2548 447.057 44.5157 451.254 37.8783C455.451 31.2409 461.533 26.0074 468.722 22.8478C475.911 19.6883 483.88 18.7466 491.607 20.1434C499.335 21.5402 506.469 25.2118 512.097 30.6881C517.726 36.1645 521.591 43.1962 523.199 50.8828C524.807 58.5693 524.084 66.5609 521.122 73.8341C518.161 81.1072 513.096 87.3308 506.577 91.7079C500.057 96.085 492.379 98.4163 484.526 98.4033C479.417 98.5106 474.338 97.6011 469.583 95.7277C464.829 93.8542 460.494 91.0542 456.832 87.4905C453.169 83.9268 450.252 79.6704 448.249 74.9689C446.246 70.2674 445.198 65.2147 445.165 60.1044ZM503.805 60.1044C503.664 56.3151 502.412 52.6509 500.204 49.5682C497.995 46.4854 494.93 44.1203 491.387 42.7674C487.845 41.4144 483.983 41.1333 480.282 41.9592C476.582 42.785 473.205 44.6813 470.574 47.4118C467.943 50.1424 466.173 53.5866 465.485 57.3157C464.797 61.0447 465.221 64.8937 466.705 68.3835C468.188 71.8733 470.665 74.8496 473.827 76.942C476.99 79.0343 480.698 80.1501 484.489 80.1505C487.093 80.1684 489.673 79.6565 492.073 78.646C494.473 77.6355 496.642 76.1475 498.449 74.2724C500.255 72.3974 501.662 70.1745 502.583 67.7389C503.504 65.3032 503.919 62.7058 503.805 60.1044Z" fill="#DA4DFC"/>
<path d="M536.828 23.2649H556.277V37.4078C558.333 31.3688 565.868 21.7771 582.064 21.7771V43.2743C564.971 43.2743 556.576 51.0726 556.576 68.6296V96.9408H536.828V23.2649Z" fill="#DA4DFC"/>
<path d="M590.026 60.1044C589.963 55.0686 590.906 50.0708 592.8 45.4042C594.693 40.7376 597.5 36.4962 601.055 32.9288C604.61 29.3614 608.841 26.54 613.501 24.6299C618.161 22.7198 623.155 21.7596 628.191 21.8055C648.236 21.8055 664 38.8986 664 59.8386C663.982 62.2017 663.839 64.5622 663.57 66.91H610.038C612.394 77.0646 620.786 81.9438 630.513 81.9438C637.555 81.9881 644.458 79.9939 650.392 76.2018L657.746 90.3447C649.598 95.6692 640.068 98.485 630.335 98.4429C608.876 98.4373 590.026 84.4302 590.026 60.1044ZM645.416 53.7995C644.854 49.4871 642.73 45.5306 639.446 42.6799C636.162 39.8293 631.946 38.2826 627.597 38.3329C623.286 38.4171 619.142 40.0112 615.885 42.8376C612.629 45.6639 610.468 49.5432 609.778 53.7995H645.416Z" fill="#DA4DFC"/>
<path d="M118.673 80.1844V26.9167L72.5436 0.299805L26.4141 26.9167V80.1844L72.5436 106.835L118.673 80.1844Z" fill="url(#paint0_linear_1177_134)"/>
<path opacity="0.56" d="M72.5181 53.6664L26.4141 27.0496V80.1843L72.5181 106.801V53.6664Z" fill="url(#paint1_linear_1177_134)"/>
<path opacity="0.56" d="M72.5156 106.798L72.5495 106.832L118.679 80.1815V27.0496L118.645 27.0156L72.5156 53.6664V106.798Z" fill="url(#paint2_linear_1177_134)"/>
<path d="M112.839 39.3623L80.5156 58.0139V95.3172L112.839 114.003L145.163 95.3172V58.0139L112.839 39.3623Z" fill="white"/>
<path d="M32.3237 39.3623L0 58.0139V95.3172L32.3237 114.003L64.6475 95.3172V58.0139L32.3237 39.3623Z" fill="white"/>
<path d="M112.839 76.6628L80.5156 58.0112L112.839 39.3596L145.163 58.0112L112.839 76.6628Z" fill="white"/>
<path d="M112.839 114L80.5156 95.3145V58.0112L112.839 76.6628V114Z" fill="url(#paint3_linear_1177_134)"/>
<path d="M145.16 95.3145L112.836 114V76.6628L145.16 58.0112V95.3145Z" fill="url(#paint4_linear_1177_134)"/>
<path d="M32.3237 76.6628L0 58.0112L32.3237 39.3596L64.6475 58.0112L32.3237 76.6628Z" fill="white"/>
<path d="M32.3237 114L0 95.3145V58.0112L32.3237 76.6628V114Z" fill="url(#paint5_linear_1177_134)"/>
<path d="M64.6441 95.3145L32.3203 114V76.6628L64.6441 58.0112V95.3145Z" fill="url(#paint6_linear_1177_134)"/>
</g>
<defs>
<linearGradient id="paint0_linear_1177_134" x1="118.212" y1="195.047" x2="26.5063" y2="195.047" gradientUnits="userSpaceOnUse">
<stop stop-color="#4171F7"/>
<stop offset="1" stop-color="#F74BDA"/>
</linearGradient>
<linearGradient id="paint1_linear_1177_134" x1="32.3615" y1="218.772" x2="63.3537" y2="212.474" gradientUnits="userSpaceOnUse">
<stop stop-color="white" stop-opacity="0"/>
<stop offset="1" stop-color="white" stop-opacity="0.4"/>
</linearGradient>
<linearGradient id="paint2_linear_1177_134" x1="76.5318" y1="198.781" x2="115.123" y2="205.319" gradientUnits="userSpaceOnUse">
<stop stop-color="#231F20" stop-opacity="0.4"/>
<stop offset="1" stop-color="#231F20" stop-opacity="0"/>
</linearGradient>
<linearGradient id="paint3_linear_1177_134" x1="91.2148" y1="200.615" x2="113.449" y2="237.422" gradientUnits="userSpaceOnUse">
<stop stop-color="#EAE8FC"/>
<stop offset="0.52" stop-color="#F7F7FE"/>
<stop offset="1" stop-color="white"/>
</linearGradient>
<linearGradient id="paint4_linear_1177_134" x1="133.394" y1="208.845" x2="113.012" y2="237.181" gradientUnits="userSpaceOnUse">
<stop stop-color="#DAD4F4"/>
<stop offset="0.65" stop-color="#F1EFFB"/>
<stop offset="1" stop-color="white"/>
</linearGradient>
<linearGradient id="paint5_linear_1177_134" x1="10.6992" y1="200.615" x2="32.9337" y2="237.422" gradientUnits="userSpaceOnUse">
<stop stop-color="#EAE8FC"/>
<stop offset="0.52" stop-color="#F7F7FE"/>
<stop offset="1" stop-color="white"/>
</linearGradient>
<linearGradient id="paint6_linear_1177_134" x1="52.8782" y1="208.845" x2="32.4962" y2="237.181" gradientUnits="userSpaceOnUse">
<stop stop-color="#DAD4F4"/>
<stop offset="0.65" stop-color="#F1EFFB"/>
<stop offset="1" stop-color="white"/>
</linearGradient>
<clipPath id="clip0_1177_134">
<rect width="664" height="114" fill="white"/>
</clipPath>
</defs>
</svg>
