<svg version="1.2" xmlns="http://www.w3.org/2000/svg" viewBox="0 0 469 82" width="469" height="82">
	<title>POPULAR CHOICE - Copy-svg</title>
	<style>
		.s0 { fill: none;stroke: #a3a6aa;stroke-width: 4 } 
		.s1 { fill: #bdbdbd } 
	</style>
	<path id="Layer" class="s0" d="m3 41.1c0-21.2 17.2-38.4 38.4-38.4h386.4c21.2 0 38.4 17.2 38.4 38.4 0 21.2-17.2 38.4-38.4 38.4h-386.4c-21.2 0-38.4-17.2-38.4-38.4z"/>
	<path id="BEGINNERS CHOICE" class="s1" aria-label="BEGINNERS CHOICE"  d="m17.1 52.3c0 0.9 0.7 1.7 1.7 1.7h15.9c5.2 0 9.8-2.7 9.8-8 0-2.5-1-4.8-3.5-6.1 1.8-1.5 2.5-3 2.5-4.9 0-5.5-4.9-7.5-9.6-7.5h-15.1c-1 0-1.7 0.8-1.7 1.7zm16.8-19.8c1.6 0 2.6 1 2.6 2.7 0 1.7-1 2.6-2.6 2.6h-9.9v-5.3zm0.7 10.2c2 0 3 1.3 3 3.2 0 1.9-1 3.2-3 3.2h-10.5v-6.4zm36.8-15.2h-21.4c-0.9 0-1.7 0.8-1.7 1.7v23.1c0 1 0.7 1.8 1.7 1.8h21.3c1 0 1.7-0.8 1.7-1.8v-1.8c0-0.9-0.7-1.7-1.7-1.7h-16.1v-5.4h13.9c1 0 1.8-0.8 1.8-1.8v-1.7c0-1-0.8-1.8-1.8-1.8h-13.9v-5.3h16.2c0.9 0 1.7-0.8 1.7-1.8v-1.7c0-1-0.8-1.8-1.7-1.8zm25.8 17.1c0 2.6-1.4 4.4-5.5 4.4h-3.8c-4.5 0-5.9-2-5.9-8.2 0-6.2 1.4-8.2 6.9-8.2h3.3c2.3 0 4 0.6 4.7 1.9 0.6 1.2 1.4 1.7 2.5 1.7h2.2c0.5 0 1.9-0.3 1.9-2 0-4.1-5.5-6.8-10.7-6.8h-4.1c-9 0-13.7 4.2-13.7 13.4 0 9.2 4.7 13.4 12.7 13.4h4.2c8.1 0 12.2-3.9 12.2-10.8v-2c0-0.9-0.8-1.7-1.8-1.7h-9.2c-1 0-1.8 0.8-1.8 1.7v1.4c0 1 0.8 1.8 1.8 1.8zm10.6 7.8c0 0.9 0.8 1.7 1.8 1.7h3.4c1 0 1.8-0.8 1.8-1.8v-23c0-1-0.8-1.8-1.8-1.8h-3.4c-1 0-1.8 0.8-1.8 1.8zm17.3 1.7c0.9 0 1.7-0.8 1.7-1.8v-15.8l10.3 15.8c0.6 1 1.7 1.8 2.7 1.8h6.1c1 0 1.7-0.8 1.7-1.8v-23c0-1-0.7-1.7-1.7-1.7h-3.2c-0.9 0-1.7 0.7-1.7 1.7v17.2l-11.2-17.2c-0.6-0.9-1.6-1.7-2.5-1.7h-5.5c-1 0-1.7 0.8-1.7 1.7v23c0 1 0.8 1.8 1.7 1.8zm32.9 0c0.9 0 1.7-0.8 1.7-1.8v-15.8l10.3 15.8c0.6 1 1.7 1.8 2.7 1.8h6.1c1 0 1.7-0.8 1.7-1.8v-23c0-1-0.7-1.7-1.7-1.7h-3.2c-0.9 0-1.7 0.7-1.7 1.7v17.2l-11.2-17.2c-0.6-0.9-1.6-1.7-2.6-1.7h-5.4c-1 0-1.7 0.8-1.7 1.7v23c0 1 0.8 1.8 1.7 1.8zm51-26.5h-21.4c-0.9 0-1.7 0.7-1.7 1.7v23c0 1 0.7 1.8 1.7 1.8h21.3c1 0 1.7-0.8 1.7-1.8v-1.7c0-1-0.7-1.7-1.7-1.7h-16v-5.5h13.8c1 0 1.8-0.8 1.8-1.7v-1.8c0-0.9-0.8-1.7-1.8-1.7h-13.8v-5.4h16.1c0.9 0 1.7-0.8 1.7-1.8v-1.7c0-1-0.8-1.7-1.7-1.7zm16.6 16.8c2.4 0 3.7 1.5 4.7 3l3.1 4.9c0.6 1 1.9 1.8 2.9 1.8h4.4c1 0 1.3-0.8 0.7-1.8l-3.4-5.3c-1.5-2.4-2.7-3.7-4.2-4.3 3.8-0.7 7-2.6 7-6.7 0-5.3-4.2-8.4-9.7-8.4h-15.3c-0.9 0-1.7 0.7-1.7 1.7v23c0 1 0.8 1.8 1.8 1.8h3.4c1 0 1.8-0.8 1.8-1.8v-7.9zm3.4-11.6c2.1 0 4.8 0.7 4.8 3.2 0 2.4-2.7 3.2-4.8 3.2h-7.9v-6.4zm14.5 2.3c0 9.8 20 7.4 20 11.8 0 1.3-1 2.1-3.3 2.1h-6.4c-1.9 0-3.4-0.6-4-1.9-0.6-1.2-1.4-1.7-2.5-1.7h-2.2c-0.5 0-1.9 0.3-1.9 2 0 4.1 5.1 6.8 9.9 6.8h5.6c9.1 0 11.8-3.1 11.8-7.7 0-9.9-20.1-7.3-20.1-11.7 0-1.4 1-2.2 3.3-2.2h5.6c1.9 0 3.3 0.6 3.9 1.9 0.6 1.3 1.4 1.8 2.5 1.8h2.2c0.5 0 1.9-0.4 1.9-2.1 0-4-5.1-6.8-9.9-6.8h-4.7c-9.1 0-11.7 3.2-11.7 7.7zm42.5 5.7c0 9.2 4.7 13.4 13.7 13.4h4.5c5.2 0 10.7-2.7 10.7-8.1 0-1.7-1.4-2.1-1.9-2.1h-2.2c-1.1 0-1.9 0.5-2.7 2.1-0.8 1.8-2.2 2.9-4.5 2.9h-3.7c-5.4 0-6.9-2-6.9-8.2 0-6.2 1.5-8.2 6.9-8.2h3.3c2.3 0 3.7 1.2 4.6 3 0.7 1.5 1.6 2 2.6 2h2.2c0.5 0 1.9-0.3 1.9-2 0-5.4-5.5-8.2-10.6-8.2h-4.2c-9 0-13.7 4.2-13.7 13.4zm52.2 11.6c0 0.9 0.8 1.7 1.7 1.7h3.5c1 0 1.8-0.8 1.8-1.8v-23c0-1-0.8-1.7-1.8-1.7h-3.5c-0.9 0-1.7 0.7-1.7 1.7v8.3h-12.7v-8.3c0-1-0.8-1.7-1.8-1.7h-3.4c-1 0-1.8 0.7-1.8 1.7v23c0 1 0.8 1.8 1.8 1.8h3.4c1 0 1.8-0.8 1.8-1.7v-9.5h12.7zm25.6-20.4c5.7 0 8 3.1 8 8.8 0 5.7-2.3 8.8-8 8.8-5.6 0-7.9-3.1-7.9-8.8 0-5.7 2.3-8.8 7.9-8.8zm-14.8 8.8c0 9.9 5.4 13.8 14.8 13.8 9.5 0 14.9-3.9 14.9-13.8 0-9.8-5.4-13.8-14.9-13.8-9.4 0-14.8 4-14.8 13.8zm33.5 11.6c0 0.9 0.8 1.7 1.8 1.7h3.4c1 0 1.8-0.8 1.8-1.8v-23c0-1-0.8-1.8-1.8-1.8h-3.4c-1 0-1.8 0.8-1.8 1.8zm10.8-11.6c0 9.2 4.7 13.4 13.7 13.4h4.5c5.2 0 10.7-2.7 10.7-8.1 0-1.7-1.4-2-1.9-2h-2.2c-1.1 0-2 0.4-2.7 2-0.8 1.8-2.3 2.9-4.5 2.9h-3.7c-5.5 0-6.9-2-6.9-8.2 0-6.1 1.4-8.2 6.9-8.2h3.3c2.3 0 3.7 1.2 4.5 3 0.8 1.5 1.6 2 2.7 2h2.2c0.5 0 1.9-0.3 1.9-2 0-5.4-5.5-8.2-10.7-8.2h-4.1c-9 0-13.7 4.2-13.7 13.4zm55.5-13.2h-21.3c-0.9 0-1.7 0.7-1.7 1.7v23c0 1 0.7 1.8 1.7 1.8h21.3c1 0 1.7-0.8 1.7-1.8v-1.7c0-1-0.7-1.7-1.7-1.7h-16.1v-5.5h13.9c1 0 1.8-0.8 1.8-1.7v-1.8c0-0.9-0.8-1.7-1.8-1.7h-13.9v-5.4h16.1c1 0 1.8-0.8 1.8-1.7v-1.8c0-1-0.8-1.7-1.8-1.7z"/>
</svg>