<svg version="1.2" xmlns="http://www.w3.org/2000/svg" width="988" height="1722"><defs><linearGradient id="P" gradientUnits="userSpaceOnUse"/><linearGradient id="g1" x1="986.6" y1="0" x2="624.6" y2="328" href="#P"><stop stop-color="#001aff"/><stop offset="1" stop-color="#52ff00" stop-opacity="0"/></linearGradient></defs><style>.c{fill:#303b52}.d{fill:none;stroke:#303b52;stroke-linecap:round;stroke-linejoin:round;stroke-width:5}.f{fill:#a3a6aa}</style><path d="M.3 50c0-27.6 22.4-50 50-50h886.8c27.6 0 50 22.4 50 50v1621.5c0 27.6-22.4 50-50 50H50.3c-27.6 0-50-22.4-50-50z" style="fill:#fff"/><path fill-rule="evenodd" d="M987 331.9H678.2c-38.5 0-62.5-41.6-43.3-75L783.2 0H937c27.7 0 50 22.4 50 50z" style="fill:url(#g1)"/><path fill-rule="evenodd" class="c" d="M170.3 1356v4.4h-20.6v-3.5l11.1-10.6q1.9-1.7 2.5-3.1.7-1.3.7-2.7 0-1.9-1.3-3-1.4-1-3.9-1-4.3 0-6.6 2.9l-3.6-2.8q1.6-2.2 4.4-3.4 2.8-1.2 6.2-1.2 4.6 0 7.3 2.2 2.7 2.1 2.7 5.8 0 2.3-.9 4.3-1 2-3.7 4.6l-7.5 7.1zm27.4-2h-5v6.4h-5v-6.4h-15.4v-3.6l13.8-18h5.6l-13 17.2h9.1v-5.6h4.9v5.6h5zm13.4-27.3h4.5l-13.2 37.7h-4.5zm26.1 5.7v3.5l-10.8 24.5h-5.6l10.5-23.6h-11v4.7h-4.8v-9.1zm29.2 28.4q-4.2 0-7.7-1.9-3.4-1.8-5.3-5.1t-1.9-7.4q-.1-4.1 1.9-7.4 2-3.3 5.4-5.1 3.4-1.9 7.7-1.9 3.4 0 6.2 1.2 2.9 1.2 4.8 3.5l-3.3 3.1q-3.1-3.3-7.5-3.3-2.9 0-5.2 1.3-2.3 1.3-3.5 3.5-1.3 2.2-1.3 5.1 0 2.8 1.3 5.1 1.2 2.2 3.5 3.5 2.3 1.2 5.2 1.2 4.4 0 7.5-3.3l3.3 3.2q-1.9 2.3-4.8 3.5-2.8 1.2-6.3 1.2zm35.7-21.8v21.4h-4.7v-2.7q-1.2 1.4-3 2.2-1.8.8-3.9.8-4.3 0-6.8-2.4-2.4-2.4-2.4-7.1V1339h5v11.5q0 2.9 1.3 4.4 1.3 1.4 3.7 1.4 2.7 0 4.2-1.7 1.6-1.7 1.6-4.8V1339zm13.2 21.7q-2.6 0-5.1-.7-2.5-.7-4-1.7l2-3.8q1.4.9 3.4 1.5t4 .6q4.5 0 4.5-2.4 0-1.1-1.2-1.5-1.1-.5-3.6-.9-2.7-.4-4.3-.9-1.7-.5-2.9-1.8t-1.2-3.6q0-3.1 2.5-4.9 2.6-1.8 6.9-1.8 2.2 0 4.4.5t3.6 1.3l-1.9 3.8q-2.8-1.6-6.2-1.6-2.2 0-3.3.7-1.1.6-1.1 1.7 0 1.2 1.2 1.7t3.8 1q2.5.4 4.2.9 1.6.5 2.8 1.7 1.2 1.3 1.2 3.6 0 3-2.6 4.8-2.6 1.8-7.1 1.8zm26.8-1.5q-.9.7-2.2 1.1-1.2.4-2.6.4-3.5 0-5.4-1.9-2-1.8-2-5.3v-10.3h-3.5v-4h3.5v-4.9h5v4.9h5.8v4h-5.8v10.1q0 1.6.8 2.4.8.8 2.2.8 1.7 0 2.8-.8zm13 1.4q-3.2 0-5.8-1.4-2.6-1.4-4.1-3.9-1.5-2.5-1.5-5.7 0-3.1 1.5-5.6 1.5-2.5 4.1-3.9 2.6-1.4 5.8-1.4 3.3 0 5.9 1.4 2.6 1.4 4 3.9 1.5 2.5 1.5 5.6 0 3.2-1.5 5.7-1.4 2.5-4 3.9t-5.9 1.4zm0-4.3q2.8 0 4.6-1.8 1.8-1.9 1.8-4.9 0-3-1.8-4.8-1.8-1.8-4.6-1.8t-4.6 1.8q-1.7 1.8-1.7 4.8t1.7 4.9q1.8 1.8 4.6 1.8zm43.2-17.6q4 0 6.4 2.4 2.3 2.3 2.3 7v12.2h-5v-11.6q0-2.8-1.2-4.2-1.3-1.4-3.6-1.4-2.5 0-4 1.7-1.5 1.6-1.5 4.7v10.8h-5v-11.6q0-2.8-1.3-4.2-1.2-1.4-3.5-1.4-2.6 0-4.1 1.6-1.5 1.7-1.5 4.8v10.8h-5V1339h4.8v2.7q1.2-1.5 3-2.2 1.8-.8 4-.8 2.4 0 4.2.9 1.9.9 3 2.7 1.3-1.7 3.4-2.6 2-1 4.6-1zm35.4 11.1q0 .5-.1 1.4h-16.8q.5 2.4 2.3 3.8 1.9 1.4 4.7 1.4 3.5 0 5.8-2.4l2.6 3.1q-1.4 1.7-3.6 2.6-2.2.9-5 .9-3.5 0-6.2-1.4-2.6-1.4-4.1-3.9-1.5-2.5-1.5-5.7 0-3.1 1.4-5.6 1.5-2.5 4-3.9t5.7-1.4q3.1 0 5.5 1.4 2.5 1.4 3.9 3.9t1.4 5.8zm-10.8-7.1q-2.4 0-4.1 1.5-1.6 1.4-2 3.7h12.1q-.3-2.3-1.9-3.7-1.7-1.5-4.1-1.5zm20.3-.6q2.2-3.4 7.6-3.4v4.8q-.6-.1-1.1-.1-2.9 0-4.6 1.7-1.6 1.7-1.6 4.9v10.3h-5V1339h4.7zm32.3 18.6q-3.3 0-6.3-.9t-4.8-2.5l1.8-4q1.8 1.4 4.2 2.2 2.6.9 5.1.9 3.1 0 4.6-1 1.6-1 1.6-2.7 0-1.2-.9-1.9-.8-.8-2.2-1.3-1.3-.4-3.6-1-3.2-.7-5.2-1.5-1.9-.7-3.4-2.3-1.4-1.7-1.4-4.4 0-2.4 1.3-4.2 1.3-2 3.8-3.1t6.2-1.1q2.6 0 5.1.6 2.4.7 4.2 1.9l-1.6 4q-1.8-1.1-3.8-1.6-2-.6-3.9-.6-3.1 0-4.6 1.1-1.5 1-1.5 2.7 0 1.2.8 2 .9.7 2.2 1.2 1.4.4 3.6 1 3.2.7 5.2 1.5t3.4 2.4q1.4 1.6 1.4 4.3 0 2.3-1.3 4.2-1.2 1.9-3.8 3-2.5 1.1-6.2 1.1zm36.1-11q0 .6-.1 1.5h-16.8q.5 2.4 2.3 3.8 1.9 1.3 4.6 1.3 3.6 0 5.8-2.3l2.7 3.1q-1.4 1.7-3.6 2.6-2.2.9-5 .9-3.5 0-6.2-1.4t-4.1-3.9q-1.5-2.5-1.5-5.7 0-3.1 1.4-5.6 1.5-2.5 4-3.9t5.7-1.4q3.1 0 5.5 1.4 2.5 1.4 3.9 3.9t1.4 5.7zm-10.8-7q-2.4 0-4.1 1.4-1.7 1.4-2 3.8h12.1q-.3-2.3-2-3.8-1.6-1.4-4-1.4zm20.3-.6q2.2-3.4 7.6-3.4v4.8q-.6-.2-1.1-.2-3 0-4.6 1.8-1.6 1.6-1.6 4.8v10.4h-5v-21.4h4.7zm32.7-3.1-9.2 21.4h-5.2l-9.1-21.4h5.2l6.6 15.8 6.9-15.8zm3.1 0h5v21.4h-5zm2.5-3.5q-1.4 0-2.3-.9-.9-.9-.9-2.1 0-1.3.9-2.2.9-.8 2.3-.8 1.4-.1 2.3.8.9.8.9 2 0 1.4-.9 2.3-.9.9-2.3.9zm18.8 25.1q-3.3 0-5.9-1.4-2.7-1.4-4.1-3.9-1.5-2.5-1.5-5.6 0-3.2 1.5-5.7 1.4-2.5 4-3.9 2.7-1.4 6-1.4 3.2 0 5.6 1.3 2.4 1.3 3.6 3.7l-3.9 2.2q-.9-1.4-2.3-2.2-1.4-.7-3-.7-2.8 0-4.6 1.8-1.9 1.8-1.9 4.9 0 3 1.8 4.8 1.9 1.8 4.7 1.8 1.6 0 3-.7t2.3-2.2l3.9 2.2q-1.3 2.4-3.7 3.7-2.3 1.3-5.5 1.3zm33.2-10.8v1.5h-16.8q.4 2.3 2.3 3.7 1.9 1.4 4.6 1.4 3.5 0 5.8-2.3l2.7 3q-1.4 1.8-3.6 2.6-2.2.9-5 .9-3.5 0-6.2-1.4t-4.2-3.9q-1.4-2.5-1.4-5.6 0-3.2 1.4-5.6 1.4-2.6 4-4 2.5-1.4 5.6-1.4 3.2 0 5.6 1.4 2.5 1.4 3.8 3.9 1.4 2.5 1.4 5.8zm-10.8-7.1q-2.4 0-4 1.5-1.7 1.4-2 3.7h12.1q-.3-2.3-2-3.7-1.6-1.5-4.1-1.5z"/><path class="d" d="m101.2 1347.3 5.1 5 8.4-11.8"/><path class="d" d="M128.1 1345.6c0 11.1-9 20.2-20.2 20.2-11.1 0-20.1-9.1-20.1-20.2 0-11.2 9-20.2 20.1-20.2 11.2 0 20.2 9 20.2 20.2z"/><path fill-rule="evenodd" class="c" d="M164.1 1271.1q-5.8 0-9.1-3.3-3.2-3.2-3.2-9.3v-15.8h5.2v15.6q0 8.2 7.1 8.2t7.1-8.2v-15.6h5.1v15.8q0 6.1-3.2 9.4-3.2 3.2-9 3.2zm31.1-22q4.1 0 6.5 2.4 2.4 2.3 2.4 7v12.2h-5v-11.6q0-2.8-1.3-4.2-1.3-1.4-3.7-1.4-2.8 0-4.4 1.6-1.6 1.7-1.6 4.8v10.8h-5v-21.4h4.8v2.8q1.2-1.5 3.1-2.3 1.9-.7 4.2-.7zm15.3-8.1h5v29.7h-5zm11.6 8.3h5v21.4h-5zm2.5-3.5q-1.4 0-2.3-.9-.9-.9-.9-2.1 0-1.3.9-2.2.9-.9 2.3-.8 1.3 0 2.3.8.9.8.9 2 0 1.3-.9 2.3-.9.8-2.3.9zm36 3.2q4 0 6.4 2.4 2.3 2.3 2.3 7v12.2h-5V1259q0-2.8-1.2-4.2-1.2-1.4-3.6-1.4-2.5 0-4 1.7-1.5 1.6-1.5 4.7v10.8h-5V1259q0-2.8-1.3-4.2-1.2-1.4-3.5-1.4-2.6 0-4.1 1.6-1.5 1.7-1.5 4.8v10.8h-5v-21.3h4.8v2.7q1.2-1.5 3-2.2 1.8-.8 4-.8 2.4 0 4.2 1 1.9.8 3 2.6 1.3-1.7 3.4-2.6 2.1-1 4.6-1zm15.1.3h5v21.3h-5zm2.5-3.5q-1.3 0-2.2-.8-1-.9-1-2.2 0-1.3 1-2.1.9-.9 2.2-.9 1.4 0 2.3.9.9.7.9 2t-.9 2.2q-.9.9-2.3.9zm21.9 23.7q-.9.8-2.1 1.1-1.3.4-2.7.4-3.5 0-5.4-1.9-1.9-1.8-1.9-5.3v-10.3h-3.6v-4h3.6v-4.9h5v4.9h5.7v4H293v10.2q0 1.5.7 2.4.8.7 2.2.8 1.7-.1 2.8-.9zm23.5-9.4q0 .5-.1 1.5h-16.7q.4 2.3 2.3 3.7 1.8 1.4 4.6 1.4 3.5 0 5.8-2.3l2.7 3q-1.5 1.7-3.7 2.6-2.2.9-4.9.9-3.5 0-6.2-1.4t-4.2-3.9q-1.4-2.5-1.4-5.6 0-3.2 1.4-5.6 1.4-2.6 3.9-4 2.6-1.4 5.7-1.4t5.6 1.4q2.5 1.4 3.8 3.9 1.4 2.5 1.4 5.8zm-10.8-7.1q-2.4 0-4.1 1.5-1.6 1.4-2 3.7h12.2q-.4-2.3-2-3.7-1.6-1.5-4.1-1.5zm36.5-12v29.6h-4.8v-2.7q-1.2 1.5-3 2.3-1.8.7-4 .7-3.1 0-5.6-1.3-2.4-1.4-3.8-3.9t-1.4-5.7q0-3.3 1.4-5.8t3.8-3.8q2.5-1.4 5.6-1.4 2.1 0 3.8.8 1.8.7 3 2.1V1241zm-11.2 25.6q1.8 0 3.2-.8 1.4-.8 2.3-2.3.8-1.6.8-3.5 0-2.1-.8-3.6-.9-1.5-2.3-2.3-1.4-.8-3.2-.8-1.8 0-3.3.8-1.4.8-2.3 2.3-.8 1.5-.8 3.6 0 1.9.8 3.5.9 1.5 2.3 2.3 1.5.8 3.3.8zm49.2-10.5q2.3.7 3.6 2.5 1.4 1.8 1.4 4.4 0 3.7-2.8 5.7-2.8 1.9-8.2 1.9h-13.9v-28h13.1q5 0 7.7 2 2.7 1.9 2.7 5.3 0 2.1-1 3.7t-2.6 2.5zm-14.7-9.4v7.7h7.4q2.7 0 4.1-.9 1.5-1 1.5-2.9t-1.5-2.9q-1.4-1-4.1-1zm8.4 19.9q6-.1 6-4.1 0-4-6-4h-8.4v8.1zm24.5-17.6q4.7 0 7.2 2.3 2.5 2.2 2.5 6.8v12.5h-4.7v-2.6q-.9 1.4-2.7 2.2-1.6.7-4 .7t-4.2-.8q-1.8-.8-2.8-2.3-1-1.5-1-3.3 0-2.9 2.1-4.6 2.2-1.8 6.8-1.7h5.5v-.4q0-2.2-1.4-3.4-1.3-1.2-3.9-1.2-1.8 0-3.6.6-1.7.5-2.9 1.5l-2-3.6q1.7-1.3 4.1-2 2.3-.7 5-.7zm-.7 18.3q1.9 0 3.3-.9 1.5-.9 2.1-2.4v-2.5H405q-4.3 0-4.3 2.8 0 1.4 1.1 2.2 1.1.8 3 .8zm28.9-18.3q4.1 0 6.5 2.4 2.5 2.3 2.5 7v12.2h-5V1259q0-2.8-1.4-4.2-1.3-1.4-3.7-1.4-2.8 0-4.4 1.7-1.6 1.6-1.6 4.7v10.8h-5v-21.3h4.8v2.7q1.2-1.5 3.1-2.2 1.9-.8 4.2-.8zm36.4-8v29.6h-4.8v-2.7q-1.2 1.5-3.1 2.3-1.8.7-4 .7-3 0-5.5-1.3-2.5-1.4-3.9-3.9t-1.4-5.7q0-3.3 1.4-5.8t3.9-3.8q2.5-1.4 5.5-1.4 2.2 0 3.9.8 1.8.7 3 2.1V1241zm-11.3 25.6q1.8 0 3.3-.8 1.4-.8 2.3-2.3.8-1.6.8-3.5 0-2.1-.8-3.6-.9-1.5-2.3-2.3-1.5-.8-3.3-.8-1.8 0-3.2.8-1.4.8-2.3 2.3-.8 1.5-.8 3.6 0 1.9.8 3.5.9 1.5 2.3 2.3 1.4.8 3.2.8zm51.2-17.3-7.9 21.3h-4.8l-5.5-14.7-5.6 14.7h-4.8l-7.9-21.3h4.8l5.6 15.7 5.9-15.7h4.2l5.7 15.8 5.8-15.8zm3.5 0h5v21.3h-5zm2.5-3.5q-1.4 0-2.3-.8-.9-.9-.9-2.2 0-1.3.9-2.1.9-.9 2.3-.9t2.3.9q.9.7.9 2t-.9 2.2q-.9.9-2.3.9zm21.9 23.7q-.9.8-2.2 1.1-1.2.4-2.6.4-3.5 0-5.5-1.9-1.9-1.8-1.9-5.3v-10.3h-3.5v-4h3.5v-4.9h5v4.9h5.7v4h-5.7v10.2q0 1.5.8 2.4.7.7 2.2.8 1.7-.1 2.8-.9zm16.2-20.5q4.1 0 6.5 2.4 2.4 2.3 2.4 7v12.2h-5V1259q0-2.8-1.3-4.2-1.3-1.4-3.7-1.4-2.8 0-4.4 1.7-1.6 1.6-1.6 4.7v10.8h-5V1241h5v10.8q1.2-1.4 3-2 1.9-.8 4.1-.8z"/><path class="d" d="m101.2 1257.6 5.1 5 8.4-11.8"/><path class="d" d="M128.1 1255.9c0 11.1-9 20.2-20.2 20.2-11.1 0-20.1-9.1-20.1-20.2 0-11.2 9-20.2 20.1-20.2 11.2 0 20.2 9 20.2 20.2z"/><path fill-rule="evenodd" class="c" d="M171.1 1166.7h5v11.1q-2.2 1.7-5.1 2.7-2.9.9-5.9.9-4.3 0-7.7-1.9-3.5-1.8-5.4-5.1-2-3.3-2-7.4 0-4.1 2-7.4 1.9-3.3 5.4-5.1 3.5-1.9 7.8-1.9 3.5 0 6.4 1.1 2.9 1.2 4.8 3.4l-3.3 3.2q-3.2-3.2-7.7-3.2-2.9 0-5.3 1.3-2.2 1.2-3.6 3.5-1.2 2.2-1.2 5.1 0 2.8 1.2 5 1.4 2.3 3.6 3.5 2.4 1.3 5.3 1.3 3.3 0 5.7-1.4zm11.3-15.4h5v29.7h-5zm21.2 30q-3.2 0-5.8-1.4-2.6-1.4-4.1-3.9-1.5-2.5-1.5-5.7t1.5-5.6q1.5-2.5 4.1-3.9 2.6-1.4 5.8-1.4 3.3 0 5.9 1.4 2.6 1.4 4 3.9 1.5 2.4 1.5 5.6 0 3.2-1.5 5.7-1.4 2.5-4 3.9t-5.9 1.4zm0-4.3q2.8 0 4.6-1.9 1.8-1.8 1.8-4.8t-1.8-4.8q-1.8-1.9-4.6-1.9t-4.6 1.9q-1.7 1.8-1.7 4.8t1.7 4.8q1.8 1.9 4.6 1.9zm28-17.6q3.1 0 5.6 1.3 2.5 1.4 3.9 3.9t1.4 5.7q0 3.2-1.4 5.8-1.4 2.4-3.9 3.8t-5.6 1.4q-2.2 0-4-.8-1.8-.8-3.1-2.3v2.8h-4.7v-29.7h5v10.9q1.3-1.4 3-2.1 1.7-.7 3.8-.7zm-.5 17.6q2.7 0 4.5-1.9 1.8-1.8 1.8-4.8t-1.8-4.8q-1.8-1.9-4.5-1.9-1.8 0-3.3.9-1.4.8-2.3 2.3-.8 1.5-.8 3.5t.8 3.5q.9 1.5 2.3 2.4 1.5.8 3.3.8zm24-17.6q4.7 0 7.2 2.3 2.5 2.2 2.5 6.8v12.5h-4.7v-2.6q-.9 1.4-2.6 2.1-1.7.8-4.1.8-2.4 0-4.2-.8-1.8-.9-2.8-2.3-1-1.5-1-3.3 0-2.9 2.1-4.6 2.2-1.8 6.8-1.8h5.5v-.3q0-2.3-1.3-3.5-1.4-1.2-4-1.2-1.8 0-3.6.6-1.7.6-2.9 1.6l-1.9-3.7q1.6-1.3 4-1.9 2.4-.7 5-.7zm-.7 18.2q1.9 0 3.3-.8 1.5-.9 2.1-2.5v-2.5h-5.1q-4.4 0-4.4 2.9 0 1.3 1.1 2.1t3 .8zm16.8-26.3h5v29.7h-5zm23.1 1.7h12.3q4.5 0 7.9 1.7 3.5 1.7 5.4 4.9 2 3.2 2 7.4 0 4.1-2 7.3-1.9 3.2-5.4 4.9-3.4 1.8-7.9 1.8h-12.3zm12 23.6q3.1 0 5.4-1.2 2.4-1.2 3.6-3.4 1.3-2.2 1.3-5 0-2.9-1.3-5.1-1.2-2.2-3.6-3.3-2.3-1.2-5.4-1.2h-6.8v19.2zm20.6-17h5v21.4h-5zm2.5-3.6q-1.3 0-2.3-.8-.9-.9-.9-2.2 0-1.2.9-2.1 1-.9 2.3-.9 1.4 0 2.3.9.9.8.9 2 0 1.3-.9 2.3-.9.8-2.3.8zm15.7 25.2q-2.6 0-5.1-.7-2.5-.7-4-1.7l1.9-3.8q1.5 1 3.5 1.6 2 .5 4 .5 4.5 0 4.5-2.3 0-1.2-1.2-1.6-1.1-.4-3.6-.8-2.7-.4-4.4-1-1.6-.5-2.8-1.8-1.2-1.3-1.2-3.6 0-3 2.5-4.8 2.5-1.9 6.9-1.9 2.2 0 4.4.5t3.6 1.4l-2 3.8q-2.7-1.6-6.1-1.6-2.2 0-3.3.6-1.2.7-1.2 1.8 0 1.2 1.2 1.7 1.3.5 3.8.9 2.6.4 4.2.9 1.7.5 2.8 1.8 1.2 1.2 1.2 3.5 0 3-2.6 4.8-2.6 1.8-7 1.8zm26.8-1.4q-.9.7-2.2 1-1.2.4-2.6.4-3.5 0-5.5-1.8-1.9-1.9-1.9-5.4v-10.3h-3.5v-4h3.5v-4.9h5v4.9h5.7v4h-5.7v10.2q0 1.5.8 2.4.7.8 2.2.8 1.7 0 2.8-.9zm8.9-17.1q2.1-3.3 7.6-3.3v4.7q-.7-.1-1.2-.1-2.9 0-4.6 1.7-1.6 1.7-1.6 4.9v10.4h-5v-21.4h4.8zm11.8-3.1h5v21.3h-5zm2.5-3.5q-1.3 0-2.3-.8-.9-.9-.9-2.2 0-1.3.9-2.1 1-.9 2.3-.9 1.4 0 2.3.9.9.8.9 2 0 1.3-.9 2.2-.9.9-2.3.9zm20.9 3.3q3.1 0 5.6 1.4 2.4 1.3 3.8 3.8t1.4 5.7q0 3.3-1.4 5.8t-3.8 3.8q-2.5 1.4-5.6 1.4-2.2 0-4-.8-1.8-.7-3.1-2.3v2.8h-4.7v-29.7h5v10.9q1.2-1.4 3-2.1 1.7-.7 3.8-.7zm-.6 17.6q2.8 0 4.6-1.8 1.8-1.9 1.8-4.9 0-3-1.8-4.8-1.8-1.9-4.6-1.9-1.8 0-3.2.9-1.4.8-2.3 2.3-.8 1.5-.8 3.5t.8 3.5q.9 1.6 2.3 2.4 1.4.8 3.2.8zm36.9-17.4v21.4h-4.8v-2.7q-1.2 1.4-3 2.2-1.8.8-3.9.8-4.3 0-6.7-2.4-2.5-2.4-2.5-7.1v-12.2h5v11.6q0 2.8 1.3 4.3 1.3 1.4 3.7 1.4 2.7 0 4.3-1.7 1.6-1.6 1.6-4.8v-10.8zm19.4 20.2q-.9.8-2.2 1.1-1.2.4-2.6.4-3.6 0-5.5-1.9-1.9-1.8-1.9-5.3v-10.3H456v-4h3.5v-4.9h5v4.9h5.7v4h-5.7v10.2q0 1.5.8 2.4.7.8 2.2.8 1.6 0 2.8-.9zm4.1-20.2h5v21.3h-5zm2.5-3.5q-1.4 0-2.3-.8-.9-.9-.9-2.2 0-1.3.9-2.1.9-.9 2.3-.9 1.3 0 2.3.9.9.8.9 2 0 1.3-.9 2.2-.9.9-2.3.9zm18.6 25.2q-3.2 0-5.8-1.4-2.6-1.4-4.1-3.9-1.4-2.5-1.4-5.7 0-3.1 1.4-5.6 1.5-2.5 4.1-3.9 2.6-1.4 5.8-1.4 3.3 0 5.9 1.4 2.6 1.4 4 3.9 1.5 2.5 1.5 5.6 0 3.2-1.5 5.7-1.4 2.5-4 3.9t-5.9 1.4zm0-4.3q2.8 0 4.6-1.8 1.8-1.9 1.8-4.9 0-3-1.8-4.8-1.8-1.9-4.6-1.9-2.7 0-4.5 1.9-1.8 1.8-1.8 4.8t1.8 4.9q1.8 1.8 4.5 1.8zm28.3-17.6q4.1 0 6.5 2.4 2.4 2.3 2.4 7v12.2h-5v-11.6q0-2.8-1.3-4.2-1.3-1.4-3.7-1.4-2.8 0-4.4 1.6-1.6 1.7-1.6 4.8v10.8h-5v-21.4h4.8v2.8q1.2-1.5 3.1-2.2 1.9-.8 4.2-.8z"/><path class="d" d="m101.2 1167.8 5.1 5.1 8.4-11.8"/><path class="d" d="M128.1 1166.2c0 11.1-9 20.2-20.2 20.2-11.1 0-20.1-9.1-20.1-20.2 0-11.2 9-20.2 20.1-20.2 11.2 0 20.2 9 20.2 20.2z"/><path fill-rule="evenodd" class="c" d="M154.5 1091.3v-23.7h-5.9v-4.3h11.1v28zm0-23.7h2.3l-2.3-2.3zm36.7 24q-3.2 0-5.9-1-2.7-1.1-4.8-3-2-2-3.1-4.6-1.1-2.7-1.1-5.8 0-3.1 1.1-5.7 1.1-2.7 3.2-4.6 2-2 4.7-3 2.7-1.1 6-1.1 3.4 0 6.3 1.2 2.8 1.2 4.8 3.5l-3.4 3.2q-1.5-1.7-3.4-2.5t-4.1-.8q-2.2 0-4 .7-1.8.7-3.2 2-1.3 1.4-2.1 3.2-.7 1.8-.7 3.9 0 2.2.7 4 .8 1.8 2.1 3.1 1.4 1.3 3.2 2 1.8.8 4 .8t4.1-.8q1.9-.9 3.4-2.6l3.4 3.2q-2 2.3-4.8 3.5-2.9 1.2-6.4 1.2zm24.4-.1q-3.2 0-5.8-1.4-2.6-1.4-4-3.9-1.5-2.5-1.5-5.7t1.5-5.6q1.4-2.5 4-3.9t5.8-1.4q3.4 0 5.9 1.4 2.6 1.4 4.1 3.9 1.4 2.4 1.4 5.6 0 3.2-1.4 5.7-1.5 2.5-4.1 3.9-2.5 1.4-5.9 1.4zm0-4.3q1.9 0 3.3-.8 1.5-.8 2.3-2.3.8-1.5.8-3.6 0-2-.8-3.5t-2.3-2.3q-1.4-.8-3.2-.8-1.9 0-3.3.8t-2.2 2.3q-.9 1.5-.9 3.5 0 2.1.9 3.6.8 1.5 2.2 2.3 1.4.8 3.2.8zm16.2 4v-21.3h4.8v3.1q.9-1.4 2.4-2.3 2.1-1.1 5.2-1.1v4.8q-.3-.1-.6-.1h-.6q-2.8 0-4.5 1.6-1.7 1.7-1.7 5v10.3zm4.8-18.2-.6 1 .6 1.7zm21.7 18.6q-3.6 0-6.3-1.4-2.6-1.5-4.1-4-1.4-2.5-1.4-5.6 0-3.2 1.4-5.6 1.4-2.5 3.9-3.9t5.7-1.4q3.1 0 5.6 1.3 2.4 1.4 3.8 3.9t1.4 5.8v.7q0 .4-.1.8h-16.7q.2 1.1.7 2 .9 1.5 2.5 2.3 1.6.8 3.7.8 1.8 0 3.2-.5 1.5-.6 2.6-1.8l2.7 3.1q-1.5 1.7-3.7 2.6-2.1.9-4.9.9zm-6.8-9.4q-.1-.7-.1-1.4v-1.9h-1v3.3zm12.1-3.3q.1.5.1 1l2-1zm-.8-2.2q-.8-1.4-2.2-2.2-1.3-.8-3.1-.8-1.9 0-3.3.8-1.3.8-2.1 2.2-.5 1-.7 2.2h12.2q-.2-1.2-.8-2.2zm34.8 15q-3.2 0-6-1.1-2.7-1-4.7-3-2-1.9-3.2-4.6-1.1-2.6-1.1-5.7t1.1-5.8q1.2-2.6 3.2-4.5 2-2 4.8-3 2.7-1.1 5.9-1.1 3.5 0 6.3 1.2 2.8 1.1 4.8 3.5l-3.4 3.1q-1.5-1.6-3.4-2.4-1.8-.9-4-.9t-4.1.8q-1.8.7-3.1 2-1.4 1.3-2.1 3.1-.7 1.8-.7 4 0 2.1.7 3.9.7 1.8 2.1 3.2 1.3 1.3 3.1 2 1.9.7 4.1.7 2.2 0 4-.8 1.9-.8 3.4-2.5l3.4 3.2q-2 2.3-4.8 3.5-2.8 1.2-6.3 1.2zm16.1-.4v-28h11.5q3.7 0 6.4 1.2 2.6 1.2 4.1 3.4 1.4 2.2 1.4 5.3 0 3.1-1.4 5.4-1.5 2.2-4.1 3.4-2.7 1.2-6.4 1.2h-6.3v8.1zm5.2-8.1v-2.4l-.3.2.3.3v-2.5h-2.3l2 2.2-2 2.2zm6-4.4q3.5 0 5.2-1.4 1.8-1.5 1.8-4.2 0-2.6-1.8-4.1-1.7-1.4-5.2-1.4h-6v11.1zm-6.1-11.1v-2.6l-2.3 2.6zm35.4 24q-5.8 0-9-3.3-3.3-3.2-3.3-9.3v-15.8h5.2v15.6q0 4.3 1.9 6.3 1.8 1.9 5.2 1.9 3.4 0 5.3-1.9 1.8-2 1.8-6.3v-15.6h5.1v15.8q0 6.1-3.2 9.3-3.3 3.3-9 3.3zm17.4 5.6 1.6-6.1q-.5-.2-1-.6-.9-.9-.9-2.4t.9-2.4q1-.9 2.4-.9t2.3.9q.9 1 .9 2.4 0 .4-.1.9t-.3 1.1q-.1.6-.5 1.5l-2.1 5.6zm1.7-6.1q.6.2 1.3.2l-.6-2.9zm23.5.1v-23.7h-6v-4.3H402v28zm0-23.7h2.2l-2.2-2.3zm36.8 24q-3.2 0-6-1-2.7-1.1-4.8-3-2-2-3.1-4.6-1.1-2.7-1.1-5.8 0-3.1 1.1-5.8 1.1-2.6 3.1-4.5 2.1-2 4.9-3 2.7-1.1 6-1.1 3.6 0 6.4 1.2 2.9 1.1 4.9 3.4l-3.3 3.2q-1.7-1.7-3.6-2.4-1.9-.8-4.1-.8-2.2 0-4.1.7-1.9.7-3.3 2-1.3 1.3-2.1 3.1-.7 1.8-.7 4 0 2.1.7 3.9.8 1.8 2.1 3.2 1.4 1.3 3.2 2 1.9.7 4.1.7 2.1 0 4-.6.9-.3 1.8-.8v1.8l4.9.6q-2.2 1.8-5.1 2.7-2.9.9-5.9.9zm6.1-6v-8.7h4.9v11.1l-3-3.8q-.9.8-1.9 1.4zm11.8 5.6v-28h13.1q5 0 7.7 2 2.6 2 2.6 5.3 0 2.2-1 3.8-1 1.5-2.6 2.4.5.1 1 .3 1.8.9 2.9 2.5 1.1 1.7 1.1 4.1 0 3.6-2.7 5.6-2.8 2-8.2 2zm19.8-14.5q-1.5-.5-3.3-.5l-.7 1.4q2.1 0 3.8-.8.1-.1.2-.1zm-14.6 10.4h8.4q2.9 0 4.5-.9 1.5-1 1.5-3.1t-1.5-3.1q-1.6-1-4.5-1h-8.4v-4h-.4v4.1h.4zm7.3-12.1q2.8 0 4.2-.9 1.5-1 1.5-2.9 0-2-1.5-2.9-1.4-1-4.2-1h-7.3v7.7zm28.9 16.2v-28h11.5q3.7 0 6.4 1.2t4.1 3.5q1.4 2.2 1.4 5.3 0 3.1-1.4 5.3-1.4 2.2-4.1 3.4l-.4.2 6.4 9.1h-5.6l-5.7-8.2q-.5.1-1.1.1h-6.3v8.1zm5.2-8.1v-2.4l-.3.3.3.3v-2.5h-2.3l2 2.2-2 2.1zm6.1-4.3q3.4 0 5.1-1.5 1.8-1.5 1.8-4.1 0-2.7-1.8-4.1-1.7-1.5-5.1-1.5h-6.1v11.2zm-6.1-11.2v-2.5l-2.3 2.5zm20.1 23.6 12.6-28h5.1l12.6 28h-5.4l-2.8-6.5h-13.9l1.8-4.1h10.4v.1h.1l1.7 4h1.5l-1.4-4h-1.8v-.1h-.1l-5.3-12.2-5.2 12.3h-2.7l-1.4 4h2.3l-2.8 6.5zm15.2-22.8 1-2.4h-2.1zm18.8 22.8v-28h4.3l11.1 18.6 10.9-18.6h4.3l.1 28h-5v-18.5l1-1.7h-1v1.6l-9.2 15.4h-2.3l-9.2-15.1v18.3zm15.4-9.4-1.1 1.8h2.2zm-10.4-8.9v-1.9H556zm31.4 24.3 1.6-6.1q-.5-.2-.9-.6-1-.9-1-2.4t1-2.4q.9-.9 2.3-.9t2.3.9q.9 1 .9 2.4 0 .4-.1.9 0 .5-.2 1.1-.2.6-.6 1.5l-2 5.6zm1.6-6.1q.6.2 1.4.2l-.7-2.9zm18.6.1v-3.5l11.2-10.6q1.4-1.3 2-2.3.7-1 .9-1.8.3-.9.3-1.7 0-1.9-1.4-2.9-1.3-1.1-3.8-1.1-2.1 0-3.8.7-1.6.7-2.8 2.2l-3.6-2.8q1.6-2.2 4.4-3.4 2.8-1.2 6.2-1.2 3 0 5.3 1 2.3.9 3.5 2.7 1.2 1.8 1.2 4.3 0 1.4-.4 2.7-.3 1.3-1.3 2.8-1 1.5-2.9 3.4l-7.5 7.1h13.2v4.4zm7.4-4.4h-3.1l1 1.9zm27.9 4.8q-3.3 0-6-1.6-2.6-1.7-4.1-4.9-1.6-3.3-1.6-7.9 0-4.6 1.6-7.8 1.5-3.2 4.1-4.9 2.7-1.7 6-1.7 3.4 0 6 1.7 2.7 1.7 4.2 4.9t1.5 7.8q0 4.6-1.5 7.9-1.5 3.2-4.2 4.9-2.6 1.6-6 1.6zm0-4.5q2 0 3.4-1 1.5-1.1 2.3-3.3.8-2.2.8-5.6 0-3.4-.8-5.5-.8-2.2-2.3-3.3-1.4-1-3.4-1-1.9 0-3.3 1-1.5 1.1-2.3 3.3-.8 2.1-.8 5.5t.8 5.6q.8 2.2 2.3 3.3 1.4 1 3.3 1zm41.4 4.5q-3.3 0-6-1-2.8-1.1-4.8-3-2-2-3.2-4.6-1.1-2.6-1.1-5.8 0-3.1 1.1-5.7 1.2-2.7 3.2-4.6 2.1-2 4.8-3 2.8-1.1 6.1-1.1 3.5 0 6.4 1.2 2.9 1.1 4.8 3.4l-3.3 3.2q-1.6-1.7-3.5-2.4-1.9-.8-4.2-.8-2.2 0-4.1.7-1.8.7-3.2 2.1-1.4 1.3-2.1 3.1-.7 1.8-.7 3.9 0 2.1.7 4 .7 1.7 2.1 3.1 1.4 1.3 3.2 2.1 1.8.7 4.1.7 2.1 0 4-.7.9-.3 1.7-.8v1.8l5 .7q-2.2 1.7-5.2 2.7-2.8.8-5.8.8zm6-6v-8.7h5v11.2l-3-3.9q-1 .8-2 1.4zm11.8 5.6v-28h13.1q5.1 0 7.7 2 2.7 2 2.7 5.3 0 2.2-1.1 3.9-1 1.4-2.6 2.3.5.1 1 .4 1.9.8 3 2.5 1.1 1.6 1.1 4 0 3.6-2.8 5.6-2.7 2-8.2 2zm19.8-14.5q-1.4-.5-3.2-.5l-.7 1.4q2 0 3.7-.8.1-.1.2-.1zm-14.6 10.5h8.4q3 0 4.5-1 1.6-1 1.6-3.1t-1.6-3q-1.5-1-4.5-1h-8.4zm0-8.1v-4h-.4v4zm7.4-4q2.7 0 4.2-1 1.4-1 1.4-2.9 0-2-1.4-2.9-1.5-1-4.2-1h-7.4v7.8zm37.6 16.6q-3.2-.1-6.2-1t-4.8-2.4l1.8-4q1.7 1.3 4.2 2.2 2.4.8 5 .8 2.2 0 3.6-.4 1.4-.5 2-1.3.6-.9.6-1.9 0-1.3-.9-2-.9-.9-2.4-1.3-1.4-.5-3.2-.9-1.8-.4-3.6-.9-1.7-.6-3.2-1.4-1.5-.9-2.4-2.3-.9-1.5-.9-3.7 0-2.3 1.2-4.1 1.2-2 3.7-3.1 2.5-1.2 6.4-1.1 2.5-.1 5 .6 2.5.6 4.3 1.8l-1.6 4.1q-1.9-1.2-3.9-1.7t-3.9-.5q-2.1 0-3.5.5-1.3.5-1.9 1.4-.6.8-.6 1.9 0 1.2.8 2.1 1 .7 2.4 1.2 1.5.4 3.3.8 1.8.4 3.5 1 1.8.5 3.3 1.3 1.5.9 2.3 2.3 1 1.4 1 3.6 0 2.3-1.3 4.2-1.2 1.9-3.7 3t-6.4 1.2zm25.2 0q-3.3-.1-6.3-1t-4.7-2.4l1.8-4q1.6 1.3 4.1 2.2 2.5.8 5.1.8 2.2 0 3.6-.4 1.3-.5 2-1.3.6-.9.6-1.9 0-1.3-.9-2-.9-.9-2.4-1.3-1.5-.5-3.3-.9-1.7-.4-3.5-.9-1.8-.6-3.3-1.4-1.4-.9-2.3-2.3-.9-1.5-.9-3.7 0-2.3 1.2-4.1 1.2-2 3.7-3.1 2.5-1.2 6.3-1.1 2.6-.1 5 .6 2.5.6 4.4 1.8l-1.7 4.1q-1.9-1.2-3.9-1.7t-3.8-.5q-2.2 0-3.5.5-1.3.5-2 1.4-.6.8-.6 1.9 0 1.2.9 2.1.9.7 2.4 1.2 1.4.4 3.2.8 1.8.4 3.6 1 1.8.5 3.2 1.3 1.5.9 2.4 2.3.9 1.4.9 3.6 0 2.3-1.2 4.2-1.2 1.9-3.7 3-2.6 1.1-6.4 1.2zm16.5-.4v-28h12.2q4.6-.1 8 1.7 3.5 1.8 5.4 4.9 1.9 3.1 1.9 7.4 0 4.1-1.9 7.3-1.9 3.1-5.4 4.9-3.4 1.7-8 1.8zm5.2-4.4h6.8q3.2 0 5.5-1.2t3.5-3.4q1.3-2.2 1.3-5 0-3-1.3-5.1-1.2-2.1-3.5-3.3-2.3-1.2-5.5-1.2h-6.8z"/><path class="d" d="m101.2 1078.2 5 5 8.4-11.8"/><path class="d" d="M128.1 1076.5c0 11.1-9 20.2-20.2 20.2-11.1 0-20.2-9.1-20.2-20.2 0-11.2 9.1-20.2 20.2-20.2 11.2 0 20.2 9 20.2 20.2z"/><path fill-rule="evenodd" class="c" d="M84.6 983.2h7.2v30.8h-7.2zM113 990q4.4 0 7.1 2.6 2.7 2.6 2.7 7.8v13.6h-6.9v-12.5q0-2.8-1.2-4.2-1.2-1.4-3.6-1.4-2.6 0-4.1 1.6-1.5 1.6-1.5 4.8v11.7h-6.9v-23.7h6.6v2.8q1.3-1.5 3.3-2.3 2.1-.8 4.5-.8zm27.7 24.3q-3.8.1-6.8-1.5t-4.7-4.4q-1.7-2.7-1.7-6.2 0-3.6 1.7-6.3 1.7-2.8 4.7-4.3 3-1.6 6.8-1.6t6.5 1.6q2.8 1.5 4.1 4.4l-5.3 2.9q-1.9-3.3-5.3-3.3-2.7 0-4.5 1.8-1.7 1.7-1.7 4.8 0 3 1.7 4.8 1.8 1.7 4.5 1.7 3.5 0 5.3-3.2l5.3 2.9q-1.3 2.8-4.1 4.4-2.7 1.5-6.5 1.5zm14.4-33h6.9v32.7h-6.9zm37.1 9v23.6h-6.5v-2.8q-1.4 1.6-3.3 2.4-1.9.8-4.1.8-4.6 0-7.4-2.7-2.7-2.7-2.7-8v-13.3h6.9v12.3q0 5.8 4.8 5.8 2.4 0 3.9-1.6 1.5-1.7 1.5-4.8v-11.7zm30.5-9v32.6h-6.6v-2.7q-2.5 3.1-7.4 3.1-3.3 0-6-1.5t-4.3-4.3q-1.5-2.7-1.5-6.4 0-3.6 1.5-6.4 1.6-2.8 4.3-4.3 2.7-1.5 6-1.5 4.6 0 7.1 2.9v-11.5zm-12.7 27.4q2.6 0 4.3-1.8 1.7-1.8 1.7-4.8t-1.7-4.7q-1.7-1.8-4.3-1.9-2.7.1-4.4 1.9-1.7 1.7-1.7 4.7t1.7 4.8q1.7 1.8 4.4 1.8zm42.3-6.5q0 .1-.2 1.8h-17.9q.5 2.2 2.3 3.5 1.8 1.3 4.5 1.3 1.9 0 3.3-.5 1.4-.6 2.6-1.8l3.7 4q-3.3 3.8-9.8 3.8-4 0-7.1-1.5-3-1.6-4.7-4.4-1.7-2.8-1.7-6.3t1.6-6.2q1.7-2.9 4.6-4.4 2.9-1.6 6.4-1.6 3.5 0 6.3 1.5 2.9 1.5 4.4 4.3 1.7 2.8 1.7 6.5zm-12.3-7.1q-2.3 0-3.9 1.3-1.6 1.4-2 3.6h11.7q-.4-2.2-1.9-3.5-1.6-1.4-3.9-1.4zm24.8 19.2q-2.9 0-5.8-.7-2.8-.8-4.4-1.9l2.2-4.9q1.6 1 3.9 1.7 2.2.6 4.4.6 4.3 0 4.3-2.2 0-1-1.2-1.4-1.2-.4-3.6-.8-2.9-.4-4.8-1-1.9-.5-3.3-2-1.4-1.4-1.4-4.1 0-2.3 1.3-4 1.3-1.7 3.8-2.7 2.5-1 5.9-1 2.5 0 5 .6 2.5.5 4.1 1.5l-2.3 4.9q-3.1-1.8-6.8-1.8-2.2 0-3.3.6-1.1.6-1.1 1.6 0 1.1 1.2 1.5 1.2.5 3.8.9 2.9.5 4.7 1 1.8.6 3.2 2 1.4 1.5 1.4 4.1 0 2.2-1.3 3.9-1.4 1.7-3.9 2.7-2.5.9-6 .9zm18-15.8q-1.8 0-3-1.2-1.3-1.3-1.3-3.1 0-1.9 1.3-3.1 1.2-1.1 3-1.1t3 1.1q1.3 1.2 1.3 3.1 0 1.8-1.3 3.1-1.2 1.2-3 1.2zm0 15.8q-1.8 0-3-1.2-1.3-1.3-1.3-3.1 0-1.9 1.3-3.1 1.2-1.1 3-1.1t3 1.1q1.3 1.2 1.3 3.1 0 1.8-1.3 3.1-1.2 1.2-3 1.2z"/><path d="M.3 885.8h986.4" style="fill:none;stroke:#bdbdbd"/><path fill-rule="evenodd" class="c" d="M159.1 771.6q0 10.5-7.7 18.1-7.7 7.4-22.2 9.2v14.3h-12.8v-13.9q-9.4-.5-18-3.3-8.6-2.9-13.8-7l7-15.6q4.9 3.6 11.4 6 6.5 2.5 13.4 3.1v-21.4q-9-2.1-15.3-4.8-6.3-2.7-10.5-7.8-4.2-5.3-4.2-13.9 0-10.6 7.6-18.1 7.9-7.7 22.4-9.4v-14.2h12.8v14q15.8 1.3 26 7.8l-6.4 15.7q-9.6-5.5-19.6-6.6v21.7q9 2.1 15.2 4.8 6.2 2.5 10.4 7.8 4.3 5.1 4.3 13.5zm-52.1-38q0 3.2 2.4 5.3 2.4 2 7 3.4v-18.1q-4.8 1.1-7.1 3.7-2.3 2.4-2.3 5.7zm22.2 48.4q4.7-1 7-3.3t2.3-5.5q0-3.2-2.5-5.3-2.3-2-6.8-3.6zm121.7-2.9h-14.6v18.8h-20.2v-18.8h-48.3v-14l42.3-56.8h21.7l-39.1 53.9h24v-16.8h19.6v16.8h14.6zm20.5 19.8q-5.3 0-8.8-3.5-3.6-3.6-3.6-9 0-5.5 3.6-8.8 3.5-3.5 8.8-3.5 5.2 0 8.8 3.5 3.6 3.3 3.6 8.8 0 5.4-3.6 9-3.6 3.5-8.8 3.5zm53.2-92.1q18.8 0 29.4 11.5 10.7 11.4 10.7 32.9 0 15.2-5.8 26.1-5.6 10.9-16 16.5-10.4 5.7-23.9 5.7-7.2 0-13.7-1.6-6.6-1.6-11.2-4.6l7.7-15.2q6.5 4.5 16.8 4.5 11.4 0 18-6.7 6.7-6.8 7.2-19.5-8.1 8.1-22.3 8.1-8.6 0-15.6-3.4-7-3.5-11.1-9.8-4.1-6.4-4.1-14.7 0-9 4.5-15.7 4.4-6.8 12.1-10.4 7.8-3.7 17.3-3.7zm1.5 42.2q6.8 0 11-3.7 4.4-3.8 4.4-9.7 0-5.9-4.2-9.6-4.1-3.7-11.4-3.7-6.7 0-10.9 3.6-4.1 3.5-4.1 9.7 0 6.1 4.1 9.8 4.2 3.6 11.1 3.6zm80-42.2q18.8 0 29.4 11.5 10.7 11.4 10.7 32.9 0 15.2-5.8 26.1-5.6 10.9-16 16.5-10.4 5.7-23.9 5.7-7.2 0-13.7-1.6-6.6-1.6-11.2-4.6l7.7-15.2q6.5 4.5 16.8 4.5 11.4 0 18-6.7 6.7-6.8 7.2-19.5-8.1 8.1-22.3 8.1-8.6 0-15.6-3.4-7-3.5-11.1-9.8-4.1-6.4-4.1-14.7 0-9 4.5-15.7 4.4-6.8 12.1-10.4 7.8-3.7 17.3-3.7zm1.5 42.2q6.8 0 11-3.7 4.4-3.8 4.4-9.7 0-5.9-4.2-9.6-4.1-3.7-11.4-3.7-6.7 0-10.9 3.6-4.1 3.5-4.1 9.7 0 6.1 4.1 9.8 4.2 3.6 11.1 3.6z"/><path fill-rule="evenodd" class="f" d="M525.4 690.1h17.8l-42.3 120.6h-17.8zM671.2 728q12.9 0 20.5 7.6 7.7 7.6 7.7 22.8v39.5h-20v-36.4q0-8.2-3.5-12.2-3.3-4.1-9.6-4.1-7 0-11.1 4.7-4.1 4.4-4.1 13.4v34.6h-20v-36.4q0-16.3-13-16.3-6.9 0-11 4.7-4.1 4.4-4.1 13.4v34.6h-20V729h19.1v7.9q3.8-4.3 9.3-6.6 5.7-2.3 12.3-2.3 7.3 0 13.2 2.9 5.9 2.8 9.5 8.3 4.2-5.3 10.6-8.3 6.5-2.9 14.2-2.9zm79.6 70.9q-10.9 0-19.6-4.5-8.6-4.6-13.4-12.7-4.9-8-4.9-18.3 0-10.2 4.9-18.3 4.8-8 13.4-12.5 8.7-4.6 19.6-4.6 10.9 0 19.4 4.6 8.6 4.5 13.5 12.5 4.8 8.1 4.8 18.3 0 10.3-4.8 18.3-4.9 8.1-13.5 12.7-8.5 4.5-19.4 4.5zm0-16.4q7.7 0 12.5-5.1 5-5.3 5-14t-5-13.8q-4.8-5.2-12.5-5.2t-12.7 5.2q-5 5.1-5 13.8 0 8.7 5 14 5 5.1 12.7 5.1z"/><path fill-rule="evenodd" class="c" d="M121.1 494.4q-10.7 0-20.7-2.8-9.8-2.9-15.8-7.6l7-15.6q5.8 4.3 13.7 6.8 7.9 2.6 15.9 2.6 8.8 0 13-2.6 4.3-2.7 4.3-7 0-3.2-2.6-5.3-2.4-2.1-6.4-3.4-3.8-1.3-10.5-2.8-10.2-2.5-16.8-4.9-6.5-2.4-11.2-7.8-4.6-5.4-4.6-14.4 0-7.8 4.2-14 4.2-6.4 12.7-10.1 8.5-3.8 20.8-3.8 8.6 0 16.8 2.1 8.2 2 14.3 5.9l-6.4 15.7q-12.4-7-24.8-7-8.7 0-12.9 2.8-4.1 2.8-4.1 7.4 0 4.6 4.7 6.9 4.9 2.2 14.7 4.4 10.3 2.4 16.8 4.9 6.5 2.4 11.1 7.6 4.8 5.3 4.8 14.2 0 7.7-4.4 14.1-4.2 6.3-12.8 10-8.6 3.7-20.8 3.7zm95.1-4.8q-2.9 2.1-7.2 3.3-4.3 1-9 1-12.3 0-19.1-6.3-6.6-6.2-6.6-18.4v-28.3h-10.7v-15.3h10.7v-16.8h19.9v16.8h17.2v15.3h-17.2v28q0 4.4 2.2 6.8 2.3 2.3 6.4 2.3 4.7 0 8.1-2.5zm39-66.6q16 0 24.5 7.7 8.6 7.5 8.6 22.9v39.3h-18.7v-8.6q-5.6 9.6-21 9.6-7.9 0-13.8-2.7-5.8-2.7-8.8-7.4-3.1-4.7-3.1-10.7 0-9.6 7.2-15.1 7.3-5.5 22.4-5.5h15.8q0-6.6-3.9-10-4-3.6-11.9-3.6-5.5 0-10.9 1.8-5.3 1.6-9 4.6l-7.1-14q5.6-3.9 13.4-6.1 7.9-2.2 16.3-2.2zm-1.6 57.5q5.1 0 9.1-2.3 4-2.5 5.6-7.1v-7h-13.7q-12.2 0-12.2 8.1 0 3.8 2.9 6.1 3.1 2.2 8.3 2.2zm94.6-57.5q12.8 0 20.6 7.7 8 7.7 8 22.8v39.4h-20v-36.4q0-8.1-3.6-12.1-3.6-4.1-10.3-4.1-7.6 0-12.1 4.7-4.4 4.6-4.5 13.9v34h-19.9V424h19.1v8.1q3.9-4.4 9.8-6.7 5.9-2.4 12.9-2.4zm117.6-25.1v95h-19.1V485q-7.4 8.9-21.5 8.9-9.7 0-17.7-4.3-7.8-4.4-12.3-12.4-4.4-8.1-4.4-18.7 0-10.7 4.4-18.7 4.5-8.1 12.3-12.4 8-4.4 17.7-4.4 13.2 0 20.6 8.3v-33.4zm-37.1 79.6q7.5 0 12.5-5.1 5-5.2 5-13.9t-5-13.9q-5-5.2-12.5-5.2-7.7 0-12.7 5.2-5 5.2-5 13.9t5 13.9q5 5.1 12.7 5.1zm83.4-54.5q16 0 24.5 7.7 8.6 7.5 8.6 22.9v39.3h-18.7v-8.6q-5.6 9.6-21 9.6-7.9 0-13.8-2.7-5.7-2.7-8.8-7.4-3.1-4.7-3.1-10.7 0-9.6 7.2-15.1 7.3-5.5 22.4-5.5h15.8q0-6.6-3.9-10-4-3.6-11.9-3.6-5.5 0-10.9 1.8-5.3 1.6-9 4.6l-7.1-14q5.6-3.9 13.4-6.1 7.9-2.2 16.3-2.2zm-1.6 57.5q5.1 0 9.1-2.3 4-2.5 5.6-7.1v-7h-13.6q-12.3 0-12.3 8.1 0 3.8 2.9 6.1 3.1 2.2 8.3 2.2zm71.9-47.4q3.5-5 9.6-7.5 6.1-2.6 14-2.6v18.4q-3.3-.2-4.4-.2-8.6 0-13.5 4.9-4.8 4.7-4.8 14.3v32.5h-20V424h19.1zm105-35.2v95h-19V485q-7.5 8.9-21.5 8.9-9.8 0-17.7-4.3-7.8-4.4-12.3-12.4-4.5-8.1-4.5-18.7t4.5-18.7q4.5-8.1 12.3-12.4 7.9-4.4 17.7-4.4 13.1 0 20.6 8.3v-33.4zm-37.2 79.7q7.6 0 12.6-5.2t5-13.9q0-8.7-5-13.8-5-5.3-12.6-5.3t-12.6 5.3q-5 5.1-5 13.8 0 8.7 5 13.9 5 5.2 12.6 5.2z"/><path fill-rule="evenodd" class="f" d="M91.8 529v8.1H106v5.7H91.8V554h-7.2v-30.8h23.3v5.8zm31.2 25.4q-3.8 0-6.8-1.5-2.9-1.6-4.6-4.4-1.7-2.8-1.7-6.3t1.7-6.3q1.7-2.8 4.6-4.3 3-1.6 6.8-1.6 3.7 0 6.7 1.6 2.9 1.5 4.6 4.3 1.7 2.8 1.7 6.3t-1.7 6.3q-1.7 2.8-4.6 4.4-3 1.5-6.7 1.5zm0-5.6q2.6 0 4.3-1.8 1.7-1.8 1.7-4.8t-1.7-4.7q-1.7-1.8-4.3-1.9-2.7.1-4.4 1.9-1.7 1.7-1.7 4.7t1.7 4.8q1.7 1.8 4.4 1.8zm24.1-15.3q1.2-1.7 3.3-2.6 2.1-.9 4.8-.9v6.4q-1.1-.1-1.5-.1-3 0-4.6 1.6-1.7 1.7-1.7 5V554h-6.9v-23.6h6.6zm32.8 20.9q-2.9 0-5.8-.7-2.8-.8-4.4-1.9l2.2-4.9q1.6 1 3.9 1.7 2.2.6 4.4.6 4.3 0 4.3-2.2 0-1-1.2-1.4-1.1-.5-3.6-.8-2.9-.4-4.8-1t-3.3-2q-1.4-1.5-1.4-4.2 0-2.2 1.3-3.9 1.3-1.8 3.8-2.7 2.5-1 5.9-1 2.5 0 5 .6 2.5.5 4.1 1.5l-2.3 4.8q-3.1-1.7-6.8-1.7-2.2 0-3.3.6-1.1.6-1.1 1.6 0 1.1 1.2 1.5 1.2.5 3.8.9 2.9.4 4.7 1 1.9.5 3.2 2 1.4 1.5 1.4 4 0 2.2-1.3 4-1.3 1.7-3.9 2.6-2.5 1-6 1zm45.7-24.4q4.5 0 7.1 2.6 2.6 2.6 2.6 7.9V554h-6.8v-12.5q0-2.8-1.2-4.2-1.2-1.4-3.3-1.4-2.5 0-3.9 1.6t-1.4 4.6V554h-6.8v-12.5q0-5.6-4.5-5.6-2.4 0-3.8 1.6t-1.4 4.6V554h-6.9v-23.7h6.6v2.8q1.3-1.5 3.2-2.3 1.9-.8 4.2-.8 2.5 0 4.5 1 2.1 1 3.3 2.9 1.5-1.9 3.7-2.9t4.8-1zm25.4 0q5.5 0 8.5 2.6 2.9 2.6 2.9 7.9V554H256v-2.9q-1.9 3.3-7.2 3.3-2.8 0-4.8-1-2-.9-3-2.5-1.1-1.6-1.1-3.7 0-3.3 2.5-5.2 2.5-1.9 7.7-1.9h5.5q0-2.2-1.4-3.4-1.4-1.2-4.1-1.2-1.9 0-3.7.6-1.8.5-3.1 1.5l-2.5-4.7q1.9-1.4 4.6-2.2 2.8-.7 5.6-.7zm-.5 19.7q1.8.1 3.1-.7 1.4-.9 2-2.5v-2.4h-4.8q-4.2 0-4.2 2.8 0 1.3 1 2.1 1.1.8 2.9.7zm18.1-28.3h6.9V554h-6.9zm13.3 0h6.8v32.7h-6.8zm39.7 8.6q3.3 0 5.9 1.5 2.8 1.5 4.3 4.3 1.5 2.7 1.5 6.4 0 3.6-1.5 6.4-1.5 2.7-4.3 4.3-2.6 1.5-5.9 1.5-4.9 0-7.5-3.1v2.7h-6.5v-32.6h6.8v11.5q2.6-2.9 7.2-2.9zm-1.2 18.7q2.6 0 4.3-1.7 1.7-1.8 1.7-4.8t-1.7-4.8q-1.7-1.8-4.3-1.8-2.7 0-4.4 1.8-1.7 1.8-1.7 4.8t1.7 4.8q1.7 1.7 4.4 1.7zm41.4-18.4V554h-6.5v-2.8q-1.4 1.5-3.3 2.4-1.9.8-4.1.8-4.6 0-7.4-2.7-2.7-2.7-2.7-8v-13.4h6.9v12.4q0 5.7 4.8 5.7 2.4 0 3.9-1.6t1.5-4.8v-11.7zm14.3 24.1q-2.9 0-5.7-.7-2.8-.8-4.5-1.9l2.3-4.9q1.6 1 3.8 1.7 2.3.6 4.4.6 4.4 0 4.4-2.2 0-1-1.2-1.4-1.2-.5-3.7-.8-2.9-.4-4.8-1t-3.3-2q-1.3-1.5-1.3-4.2 0-2.2 1.2-3.9 1.4-1.8 3.8-2.7 2.5-1 5.9-1 2.5 0 5 .6 2.5.5 4.1 1.5l-2.3 4.8q-3.1-1.7-6.8-1.7-2.2 0-3.3.6-1.1.6-1.1 1.6 0 1.1 1.2 1.5 1.2.5 3.8.9 2.9.4 4.7 1 1.9.5 3.3 2 1.3 1.4 1.3 4 0 2.2-1.3 4-1.3 1.7-3.9 2.6-2.5 1-6 1zm15.5-24.1h6.8V554h-6.8zm3.4-3.3q-1.9 0-3.1-1.1-1.2-1.1-1.2-2.7t1.2-2.7q1.2-1.1 3.1-1.1 1.9 0 3.1 1 1.2 1.1 1.2 2.7 0 1.7-1.2 2.8-1.2 1.1-3.1 1.1zm24.2 3q4.4 0 7.1 2.6 2.7 2.6 2.7 7.8V554h-6.9v-12.5q0-2.8-1.2-4.2-1.2-1.4-3.6-1.4-2.6 0-4.1 1.6-1.5 1.6-1.5 4.8V554h-6.9v-23.7h6.5v2.8q1.4-1.5 3.4-2.3 2.1-.8 4.5-.8zm39.5 12.2q0 .2-.2 1.9h-17.9q.5 2.2 2.3 3.5 1.8 1.2 4.5 1.2 1.8 0 3.3-.5 1.4-.6 2.6-1.7l3.7 3.9q-3.4 3.8-9.8 3.8-4 0-7.1-1.5-3-1.6-4.7-4.4-1.7-2.7-1.7-6.2t1.6-6.3q1.7-2.8 4.6-4.4 2.9-1.5 6.4-1.5 3.5 0 6.3 1.5t4.4 4.3q1.7 2.7 1.7 6.4zm-12.3-7q-2.3 0-3.9 1.3t-2 3.6h11.7q-.4-2.3-1.9-3.6-1.6-1.3-3.9-1.3zm24.8 19.1q-3 0-5.8-.7t-4.5-1.8l2.3-4.9q1.6 1 3.9 1.6 2.2.6 4.4.6 4.3 0 4.3-2.1 0-1-1.2-1.5-1.2-.4-3.6-.7-2.9-.4-4.8-1t-3.3-2q-1.4-1.5-1.4-4.2 0-2.2 1.3-3.9 1.3-1.8 3.8-2.8 2.5-.9 5.9-.9 2.5 0 4.9.5 2.5.6 4.2 1.5l-2.3 4.9q-3.1-1.7-6.8-1.7-2.2 0-3.3.6-1.1.6-1.1 1.6 0 1.1 1.2 1.5 1.1.4 3.7.8 2.9.5 4.8 1.1 1.8.5 3.2 2 1.4 1.4 1.4 4 0 2.2-1.4 3.9-1.3 1.7-3.8 2.7-2.5.9-6 .9zm23.4 0q-3 0-5.8-.7t-4.5-1.8l2.3-4.9q1.6 1 3.8 1.6 2.3.6 4.4.6 4.4 0 4.4-2.1 0-1-1.2-1.5-1.2-.4-3.7-.7-2.9-.4-4.7-1-1.9-.6-3.3-2-1.4-1.5-1.4-4.2 0-2.2 1.3-3.9 1.3-1.8 3.7-2.8 2.6-.9 5.9-.9 2.6 0 5 .5 2.5.6 4.2 1.5l-2.3 4.9q-3.2-1.7-6.9-1.7-2.2 0-3.3.6-1.1.6-1.1 1.6 0 1.1 1.2 1.5 1.2.4 3.8.8 2.9.5 4.8 1.1 1.8.5 3.2 2 1.3 1.4 1.3 4 0 2.2-1.3 3.9-1.3 1.7-3.8 2.7-2.6.9-6 .9zm65.9-24-8.6 23.7h-6.6l-5.3-14.7-5.5 14.7h-6.6l-8.6-23.7h6.5l5.6 16 5.8-16h5.8l5.6 16 5.8-16zm25.7 11.9q0 .2-.1 1.9h-17.9q.5 2.2 2.3 3.5 1.8 1.2 4.5 1.2 1.8 0 3.2-.5 1.5-.6 2.7-1.7l3.6 3.9q-3.3 3.8-9.7 3.8-4 0-7.1-1.5-3.1-1.6-4.8-4.4-1.6-2.7-1.6-6.2t1.6-6.3q1.7-2.8 4.5-4.4 2.9-1.5 6.5-1.5 3.5 0 6.3 1.5t4.4 4.3q1.6 2.7 1.6 6.4zm-12.3-7q-2.3 0-3.9 1.3t-1.9 3.6h11.7q-.4-2.3-2-3.6-1.6-1.3-3.9-1.3zm30.9-5.2q3.3 0 6 1.5t4.2 4.3q1.6 2.7 1.6 6.4 0 3.6-1.6 6.4-1.5 2.7-4.2 4.2t-6 1.5q-4.9 0-7.5-3v2.7h-6.5v-32.7h6.9v11.5q2.5-2.8 7.1-2.8zm-1.2 18.7q2.6 0 4.3-1.8 1.7-1.8 1.7-4.7 0-3-1.7-4.8-1.7-1.8-4.3-1.8-2.6 0-4.4 1.8-1.6 1.8-1.6 4.8 0 2.9 1.6 4.7 1.8 1.8 4.4 1.8zm25.5 5.6q-2.9 0-5.7-.7-2.9-.7-4.5-1.8l2.3-4.9q1.6 1 3.8 1.6 2.2.6 4.4.6 4.4 0 4.4-2.1 0-1-1.2-1.5-1.2-.4-3.7-.7-2.9-.4-4.8-1t-3.3-2q-1.3-1.5-1.3-4.2 0-2.2 1.2-3.9 1.3-1.8 3.8-2.8 2.5-.9 5.9-.9 2.5 0 5 .5 2.5.6 4.1 1.5l-2.3 4.9q-3.1-1.7-6.8-1.7-2.2 0-3.3.6-1.1.6-1.1 1.6 0 1.1 1.2 1.5 1.2.4 3.8.8 2.9.5 4.7 1.1 1.9.5 3.2 2 1.4 1.4 1.4 4 0 2.2-1.3 3.9-1.3 1.7-3.9 2.7-2.5.9-6 .9zm15.4-24h6.9V554h-6.9zm3.5-3.3q-1.9 0-3.1-1.1-1.2-1.1-1.2-2.7 0-1.7 1.2-2.8 1.2-1.1 3.1-1.1 1.9 0 3.1 1.1 1.1 1 1.1 2.6 0 1.7-1.1 2.9-1.2 1.1-3.1 1.1zm25 25.8q-1 .8-2.5 1.2-1.4.3-3 .3-4.3 0-6.6-2.1-2.3-2.2-2.3-6.4v-9.7H655v-5.3h3.6v-5.7h6.9v5.7h5.9v5.3h-5.9v9.6q0 1.5.7 2.4.8.8 2.2.8 1.7 0 2.8-.9zm26.3-10.6q0 .1-.1 1.8h-17.9q.5 2.2 2.3 3.5 1.8 1.3 4.4 1.3 1.9 0 3.3-.6 1.5-.5 2.7-1.7l3.6 3.9q-3.3 3.9-9.7 3.9-4 0-7.1-1.6-3.1-1.6-4.8-4.3-1.6-2.8-1.6-6.3t1.6-6.3q1.7-2.8 4.5-4.3 2.9-1.6 6.5-1.6 3.5 0 6.3 1.5t4.4 4.3q1.6 2.8 1.6 6.5zm-12.3-7.1q-2.3 0-3.9 1.3t-1.9 3.6h11.6q-.3-2.2-1.9-3.5-1.6-1.4-3.9-1.4zm24.8 19.2q-2.9 0-5.7-.7-2.8-.8-4.5-1.9l2.3-4.9q1.6 1 3.8 1.7 2.2.6 4.4.6 4.4 0 4.4-2.2 0-1-1.2-1.4-1.2-.5-3.7-.8-2.9-.4-4.8-1t-3.3-2q-1.3-1.5-1.3-4.1 0-2.3 1.2-4 1.4-1.8 3.8-2.7 2.5-1 5.9-1 2.5 0 5 .6 2.5.5 4.1 1.5l-2.3 4.8q-3.1-1.7-6.8-1.7-2.2 0-3.3.6-1.1.6-1.1 1.6 0 1.1 1.2 1.5 1.2.5 3.8.9 2.9.4 4.7 1 1.9.5 3.3 2 1.3 1.5 1.3 4 0 2.2-1.3 4-1.3 1.7-3.9 2.6-2.5 1-6 1z"/><path d="M83 121.1c0-21.2 17.2-38.4 38.4-38.4h386.4c21.2 0 38.4 17.2 38.4 38.4s-17.2 38.4-38.4 38.4H121.4c-21.2 0-38.4-17.2-38.4-38.4z" style="fill:none;stroke:#a3a6aa;stroke-width:4"/><path fill-rule="evenodd" d="M120.5 106.1q4.1 0 7.1 1.4 3 1.3 4.6 3.8 1.7 2.6 1.7 6t-1.7 5.9q-1.6 2.5-4.6 3.9-3 1.3-7.1 1.3h-6.2v8.5h-7.1v-30.8zm-.4 16.5q3.2 0 4.8-1.4 1.7-1.4 1.7-3.9 0-2.6-1.7-4-1.6-1.4-4.8-1.4h-5.9v10.7zm34.3 14.8q-4.8 0-8.7-2-3.8-2.1-6-5.7-2.2-3.7-2.2-8.2 0-4.5 2.2-8.1 2.2-3.7 6-5.7 3.9-2.1 8.7-2.1 4.7 0 8.6 2.1 3.8 2 6 5.7 2.2 3.6 2.2 8.1t-2.2 8.2q-2.2 3.6-6 5.7-3.9 2-8.6 2zm0-6q2.7 0 4.9-1.3 2.2-1.2 3.4-3.5 1.3-2.2 1.3-5.1 0-2.8-1.3-5.1-1.2-2.2-3.4-3.5-2.2-1.2-4.9-1.2-2.8 0-5 1.2-2.2 1.3-3.5 3.5-1.2 2.3-1.2 5.1 0 2.9 1.2 5.1 1.3 2.3 3.5 3.5 2.2 1.3 5 1.3zm35.5-25.3q4.1 0 7.1 1.4 3 1.3 4.6 3.8 1.7 2.6 1.7 6t-1.7 5.9q-1.6 2.5-4.6 3.9-3 1.3-7.1 1.3h-6.2v8.5h-7.1v-30.8zm-.4 16.5q3.2 0 4.9-1.4 1.6-1.4 1.6-3.9 0-2.6-1.6-4-1.7-1.4-4.9-1.4h-5.8v10.7zm32.4 14.8q-6.6 0-10.3-3.6-3.7-3.7-3.7-10.4v-17.3h7.2v17q0 8.3 6.8 8.3 3.4 0 5.1-2 1.8-2 1.8-6.3v-17h7v17.3q0 6.7-3.7 10.4-3.6 3.6-10.2 3.6zm21-31.3h7.1v25h15.4v5.8h-22.5zm47.1 24.2h-14.3l-2.8 6.6h-7.3l13.8-30.8h7l13.8 30.8h-7.5zm-2.3-5.4-4.8-11.8-4.9 11.8zm35.3 12-6-8.6h-6.5v8.6h-7.2v-30.8h13.4q4 0 7 1.4 3.1 1.3 4.7 3.8 1.6 2.6 1.6 6t-1.6 5.9q-1.7 2.5-4.7 3.8l6.9 9.9zm-.1-19.6q0-2.6-1.7-4t-4.9-1.4h-5.8v10.8h5.8q3.2 0 4.9-1.5 1.7-1.4 1.7-3.9zm40 20.1q-4.7 0-8.5-2-3.8-2.1-6-5.7-2.1-3.6-2.1-8.2t2.1-8.2q2.2-3.6 6-5.6 3.8-2.1 8.6-2.1 4 0 7.2 1.4 3.3 1.4 5.5 4l-4.6 4.3q-3.1-3.6-7.8-3.6-2.8 0-5.1 1.2-2.2 1.3-3.5 3.5-1.2 2.3-1.2 5.1 0 2.9 1.2 5.1 1.3 2.3 3.5 3.5 2.3 1.3 5.1 1.3 4.7 0 7.8-3.7l4.6 4.2q-2.2 2.7-5.5 4.1-3.3 1.4-7.3 1.4zm45.8-31.3v30.8h-7.1v-12.6h-14v12.6h-7.1v-30.8h7.1v12.2h14v-12.2zm22.2 31.3q-4.8 0-8.7-2-3.8-2.1-6-5.7-2.2-3.7-2.2-8.2 0-4.5 2.2-8.1 2.2-3.7 6-5.7 3.9-2.1 8.7-2.1 4.8 0 8.6 2.1 3.8 2 6 5.7 2.2 3.6 2.2 8.1t-2.2 8.2q-2.2 3.6-6 5.7-3.8 2-8.6 2zm0-6q2.7 0 4.9-1.3 2.2-1.2 3.5-3.5 1.2-2.2 1.2-5.1 0-2.8-1.2-5.1-1.3-2.2-3.5-3.5-2.2-1.2-4.9-1.2t-4.9 1.2q-2.2 1.3-3.5 3.5-1.2 2.3-1.2 5.1 0 2.9 1.2 5.1 1.3 2.3 3.5 3.5 2.2 1.3 4.9 1.3zm22.2-25.3h7.1v30.8h-7.1zm29.2 31.3q-4.7 0-8.6-2-3.7-2.1-5.9-5.7t-2.2-8.2q0-4.6 2.2-8.2 2.2-3.6 5.9-5.6 3.9-2.1 8.6-2.1 4 0 7.2 1.4 3.3 1.4 5.5 4l-4.6 4.3q-3.1-3.6-7.7-3.6-2.9 0-5.1 1.2-2.3 1.3-3.5 3.5-1.3 2.3-1.3 5.1 0 2.9 1.3 5.1 1.2 2.3 3.5 3.5 2.2 1.3 5.1 1.3 4.6 0 7.7-3.7l4.6 4.2q-2.2 2.7-5.5 4.1-3.2 1.4-7.2 1.4zm41.4-6.2v5.7h-23.9v-30.8h23.3v5.7h-16.2v6.7h14.3v5.6h-14.3v7.1z" style="fill:#bdbdbd"/></svg>