<svg width="469" height="82" fill="none" xmlns="http://www.w3.org/2000/svg"><rect x="2.992" y="2.735" width="463.181" height="76.735" rx="38.367" stroke="#A3A6AA" stroke-width="4"/><path d="M40.483 26.112c2.728 0 5.089.454 7.084 1.364 2.024.909 3.578 2.2 4.664 3.872 1.085 1.672 1.628 3.652 1.628 5.94 0 2.258-.543 4.238-1.628 5.94-1.086 1.672-2.64 2.962-4.664 3.872-1.995.88-4.356 1.32-7.084 1.32h-6.204v8.492H27.15v-30.8h13.332Zm-.396 16.5c2.141 0 3.769-.455 4.884-1.364 1.114-.939 1.672-2.259 1.672-3.96 0-1.731-.558-3.051-1.672-3.96-1.115-.939-2.743-1.408-4.884-1.408h-5.808v10.692h5.808ZM74.293 57.44c-3.197 0-6.086-.69-8.668-2.068-2.552-1.379-4.561-3.271-6.028-5.676-1.437-2.435-2.156-5.163-2.156-8.184 0-3.022.719-5.735 2.156-8.14 1.467-2.435 3.476-4.342 6.028-5.72 2.582-1.379 5.47-2.068 8.668-2.068 3.198 0 6.072.689 8.624 2.068 2.552 1.378 4.562 3.285 6.028 5.72 1.467 2.405 2.2 5.118 2.2 8.14 0 3.021-.733 5.749-2.2 8.184-1.466 2.405-3.476 4.297-6.028 5.676-2.552 1.378-5.426 2.068-8.624 2.068Zm0-6.072c1.819 0 3.462-.411 4.928-1.232a8.998 8.998 0 0 0 3.432-3.52c.85-1.496 1.276-3.198 1.276-5.104 0-1.907-.425-3.608-1.276-5.104a8.698 8.698 0 0 0-3.432-3.476c-1.466-.851-3.11-1.276-4.928-1.276s-3.461.425-4.928 1.276c-1.466.821-2.625 1.98-3.476 3.476-.821 1.496-1.232 3.197-1.232 5.104 0 1.906.41 3.608 1.232 5.104a9.315 9.315 0 0 0 3.476 3.52c1.467.821 3.11 1.232 4.928 1.232Zm35.541-25.256c2.728 0 5.09.454 7.084 1.364 2.024.909 3.579 2.2 4.664 3.872 1.086 1.672 1.628 3.652 1.628 5.94 0 2.258-.542 4.238-1.628 5.94-1.085 1.672-2.64 2.962-4.664 3.872-1.994.88-4.356 1.32-7.084 1.32h-6.204v8.492h-7.128v-30.8h13.332Zm-.396 16.5c2.142 0 3.77-.455 4.884-1.364 1.115-.939 1.672-2.259 1.672-3.96 0-1.731-.557-3.051-1.672-3.96-1.114-.939-2.742-1.408-4.884-1.408h-5.808v10.692h5.808Zm32.416 14.828c-4.4 0-7.832-1.218-10.296-3.652-2.434-2.435-3.652-5.911-3.652-10.428V26.112h7.128v16.984c0 5.514 2.288 8.272 6.864 8.272 2.23 0 3.931-.66 5.104-1.98 1.174-1.35 1.76-3.447 1.76-6.292V26.112h7.04V43.36c0 4.517-1.232 7.993-3.696 10.428-2.434 2.434-5.852 3.652-10.252 3.652Zm20.992-31.328h7.128v24.992h15.444v5.808h-22.572v-30.8Zm47.096 24.2h-14.3l-2.728 6.6h-7.304l13.728-30.8h7.04l13.772 30.8h-7.48l-2.728-6.6Zm-2.244-5.412-4.884-11.792L197.93 44.9h9.768Zm35.272 12.012-5.94-8.58h-6.556v8.58h-7.128v-30.8h13.332c2.728 0 5.089.454 7.084 1.364 2.024.909 3.579 2.2 4.664 3.872 1.085 1.672 1.628 3.652 1.628 5.94 0 2.288-.557 4.268-1.672 5.94-1.085 1.642-2.64 2.904-4.664 3.784l6.908 9.9h-7.656Zm-.132-19.624c0-1.731-.557-3.051-1.672-3.96-1.115-.939-2.743-1.408-4.884-1.408h-5.808v10.736h5.808c2.141 0 3.769-.47 4.884-1.408 1.115-.939 1.672-2.259 1.672-3.96Zm40.064 20.152c-3.138 0-5.984-.675-8.536-2.024-2.522-1.379-4.517-3.271-5.984-5.676-1.437-2.435-2.156-5.178-2.156-8.228 0-3.051.719-5.779 2.156-8.184 1.467-2.435 3.462-4.327 5.984-5.676 2.552-1.379 5.412-2.068 8.58-2.068 2.67 0 5.075.469 7.216 1.408 2.171.938 3.99 2.288 5.456 4.048l-4.576 4.224c-2.082-2.406-4.664-3.608-7.744-3.608-1.906 0-3.608.425-5.104 1.276a8.916 8.916 0 0 0-3.52 3.476c-.821 1.496-1.232 3.197-1.232 5.104 0 1.906.411 3.608 1.232 5.104a9.224 9.224 0 0 0 3.52 3.52c1.496.821 3.198 1.232 5.104 1.232 3.08 0 5.662-1.218 7.744-3.652l4.576 4.224c-1.466 1.789-3.285 3.153-5.456 4.092-2.17.938-4.59 1.408-7.26 1.408Zm45.778-31.328v30.8h-7.128V44.284H307.56v12.628h-7.128v-30.8h7.128v12.144h13.992V26.112h7.128Zm22.203 31.328c-3.197 0-6.087-.69-8.668-2.068-2.552-1.379-4.561-3.271-6.028-5.676-1.437-2.435-2.156-5.163-2.156-8.184 0-3.022.719-5.735 2.156-8.14 1.467-2.435 3.476-4.342 6.028-5.72 2.581-1.379 5.471-2.068 8.668-2.068 3.197 0 6.072.689 8.624 2.068 2.552 1.378 4.561 3.285 6.028 5.72 1.467 2.405 2.2 5.118 2.2 8.14 0 3.021-.733 5.749-2.2 8.184-1.467 2.405-3.476 4.297-6.028 5.676-2.552 1.378-5.427 2.068-8.624 2.068Zm0-6.072c1.819 0 3.461-.411 4.928-1.232a8.994 8.994 0 0 0 3.432-3.52c.851-1.496 1.276-3.198 1.276-5.104 0-1.907-.425-3.608-1.276-5.104a8.694 8.694 0 0 0-3.432-3.476c-1.467-.851-3.109-1.276-4.928-1.276s-3.461.425-4.928 1.276c-1.467.821-2.625 1.98-3.476 3.476-.821 1.496-1.232 3.197-1.232 5.104 0 1.906.411 3.608 1.232 5.104a9.315 9.315 0 0 0 3.476 3.52c1.467.821 3.109 1.232 4.928 1.232Zm22.209-25.256h7.128v30.8h-7.128v-30.8ZM402.27 57.44c-3.139 0-5.984-.675-8.536-2.024-2.523-1.379-4.518-3.271-5.984-5.676-1.438-2.435-2.156-5.178-2.156-8.228 0-3.051.718-5.779 2.156-8.184 1.466-2.435 3.461-4.327 5.984-5.676 2.552-1.379 5.412-2.068 8.58-2.068 2.669 0 5.074.469 7.216 1.408 2.17.938 3.989 2.288 5.456 4.048l-4.576 4.224c-2.083-2.406-4.664-3.608-7.744-3.608-1.907 0-3.608.425-5.104 1.276a8.91 8.91 0 0 0-3.52 3.476c-.822 1.496-1.232 3.197-1.232 5.104 0 1.906.41 3.608 1.232 5.104a9.217 9.217 0 0 0 3.52 3.52c1.496.821 3.197 1.232 5.104 1.232 3.08 0 5.661-1.218 7.744-3.652l4.576 4.224c-1.467 1.789-3.286 3.153-5.456 4.092-2.171.938-4.591 1.408-7.26 1.408Zm41.377-6.248v5.72h-23.848v-30.8h23.276v5.72h-16.192v6.688h14.3v5.544h-14.3v7.128h16.764Z" fill="#BDBDBD"/></svg>