<svg width="428" height="82" fill="none" xmlns="http://www.w3.org/2000/svg"><rect x="2.961" y="2.426" width="422.999" height="76.735" rx="38.367" stroke="#BDBDBD" stroke-width="4"/><path d="M50.267 25.803c2.727 0 5.089.454 7.083 1.364 2.024.91 3.58 2.2 4.664 3.872 1.086 1.672 1.628 3.652 1.628 5.94 0 2.258-.542 4.238-1.628 5.94-1.085 1.672-2.64 2.962-4.664 3.872-1.994.88-4.355 1.32-7.084 1.32h-6.203v8.492h-7.129v-30.8h13.333Zm-.397 16.5c2.142 0 3.77-.455 4.885-1.364 1.114-.939 1.671-2.259 1.671-3.96 0-1.73-.557-3.05-1.672-3.96-1.114-.939-2.742-1.408-4.883-1.408h-5.809v10.692h5.809Zm38.485 14.3-5.94-8.58H75.86v8.58h-7.128v-30.8h13.332c2.728 0 5.09.454 7.084 1.364 2.024.91 3.58 2.2 4.664 3.872 1.086 1.672 1.628 3.652 1.628 5.94 0 2.288-.557 4.268-1.672 5.94-1.085 1.642-2.64 2.904-4.664 3.784l6.908 9.9h-7.656Zm-.132-19.624c0-1.73-.557-3.05-1.672-3.96-1.114-.939-2.742-1.408-4.884-1.408H75.86v10.736h5.808c2.142 0 3.77-.47 4.884-1.408 1.115-.939 1.672-2.259 1.672-3.96Zm27.78 20.152c-3.197 0-6.087-.69-8.668-2.068-2.552-1.379-4.561-3.27-6.028-5.676-1.437-2.435-2.156-5.163-2.156-8.184 0-3.022.719-5.735 2.156-8.14 1.467-2.435 3.476-4.342 6.028-5.72 2.581-1.379 5.471-2.068 8.668-2.068 3.197 0 6.072.69 8.624 2.068 2.552 1.378 4.561 3.285 6.028 5.72 1.467 2.405 2.2 5.118 2.2 8.14 0 3.021-.733 5.75-2.2 8.184-1.467 2.405-3.476 4.297-6.028 5.676-2.552 1.378-5.427 2.068-8.624 2.068Zm0-6.072c1.819 0 3.461-.41 4.928-1.232a8.995 8.995 0 0 0 3.432-3.52c.851-1.496 1.276-3.198 1.276-5.104 0-1.907-.425-3.608-1.276-5.104a8.693 8.693 0 0 0-3.432-3.476c-1.467-.85-3.109-1.276-4.928-1.276s-3.461.425-4.928 1.276c-1.467.821-2.625 1.98-3.476 3.476-.821 1.496-1.232 3.197-1.232 5.104 0 1.906.411 3.608 1.232 5.104a9.315 9.315 0 0 0 3.476 3.52c1.467.821 3.109 1.232 4.928 1.232Zm29.337-19.536v8.14h14.256v5.72H145.34v11.22h-7.128v-30.8h23.276v5.72H145.34Zm44.821 19.36v5.72h-23.848v-30.8h23.276v5.72h-16.192v6.688h14.3v5.544h-14.3v7.128h16.764Zm15.792 6.248a25.97 25.97 0 0 1-7.084-.968c-2.259-.675-4.077-1.54-5.456-2.596l2.42-5.368c1.32.968 2.889 1.745 4.708 2.332 1.819.586 3.637.88 5.456.88 2.024 0 3.52-.294 4.488-.88.968-.616 1.452-1.423 1.452-2.42 0-.734-.293-1.335-.88-1.804-.557-.499-1.291-.895-2.2-1.188-.88-.294-2.083-.616-3.608-.968-2.347-.558-4.268-1.115-5.764-1.672a9.53 9.53 0 0 1-3.872-2.684c-1.056-1.232-1.584-2.875-1.584-4.928 0-1.79.484-3.403 1.452-4.84.968-1.467 2.42-2.626 4.356-3.476 1.965-.85 4.356-1.276 7.172-1.276 1.965 0 3.887.234 5.764.704 1.877.47 3.52 1.144 4.928 2.024l-2.2 5.412c-2.845-1.614-5.691-2.42-8.536-2.42-1.995 0-3.476.322-4.444.968-.939.645-1.408 1.496-1.408 2.552s.543 1.848 1.628 2.376c1.115.498 2.801.997 5.06 1.496 2.347.557 4.268 1.114 5.764 1.672a9.374 9.374 0 0 1 3.828 2.64c1.085 1.202 1.628 2.83 1.628 4.884 0 1.76-.499 3.373-1.496 4.84-.968 1.437-2.435 2.581-4.4 3.432-1.965.85-4.356 1.276-7.172 1.276Zm28.059 0a25.97 25.97 0 0 1-7.084-.968c-2.259-.675-4.078-1.54-5.456-2.596l2.42-5.368c1.32.968 2.889 1.745 4.708 2.332a17.68 17.68 0 0 0 5.456.88c2.024 0 3.52-.294 4.488-.88.968-.616 1.452-1.423 1.452-2.42 0-.734-.294-1.335-.88-1.804-.558-.499-1.291-.895-2.2-1.188-.88-.294-2.083-.616-3.608-.968-2.347-.558-4.268-1.115-5.764-1.672a9.53 9.53 0 0 1-3.872-2.684c-1.056-1.232-1.584-2.875-1.584-4.928 0-1.79.484-3.403 1.452-4.84.968-1.467 2.42-2.626 4.356-3.476 1.965-.85 4.356-1.276 7.172-1.276 1.965 0 3.886.234 5.764.704 1.877.47 3.52 1.144 4.928 2.024l-2.2 5.412c-2.846-1.614-5.691-2.42-8.536-2.42-1.995 0-3.476.322-4.444.968-.939.645-1.408 1.496-1.408 2.552s.542 1.848 1.628 2.376c1.114.498 2.801.997 5.06 1.496 2.346.557 4.268 1.114 5.764 1.672a9.374 9.374 0 0 1 3.828 2.64c1.085 1.202 1.628 2.83 1.628 4.884 0 1.76-.499 3.373-1.496 4.84-.968 1.437-2.435 2.581-4.4 3.432-1.966.85-4.356 1.276-7.172 1.276Zm17.938-31.328h7.128v30.8h-7.128v-30.8Zm29.354 31.328c-3.198 0-6.087-.69-8.668-2.068-2.552-1.379-4.562-3.27-6.028-5.676-1.438-2.435-2.156-5.163-2.156-8.184 0-3.022.718-5.735 2.156-8.14 1.466-2.435 3.476-4.342 6.028-5.72 2.581-1.379 5.47-2.068 8.668-2.068 3.197 0 6.072.69 8.624 2.068 2.552 1.378 4.561 3.285 6.028 5.72 1.466 2.405 2.2 5.118 2.2 8.14 0 3.021-.734 5.75-2.2 8.184-1.467 2.405-3.476 4.297-6.028 5.676-2.552 1.378-5.427 2.068-8.624 2.068Zm0-6.072c1.818 0 3.461-.41 4.928-1.232a9.009 9.009 0 0 0 3.432-3.52c.85-1.496 1.276-3.198 1.276-5.104 0-1.907-.426-3.608-1.276-5.104a8.706 8.706 0 0 0-3.432-3.476c-1.467-.85-3.11-1.276-4.928-1.276-1.819 0-3.462.425-4.928 1.276-1.467.821-2.626 1.98-3.476 3.476-.822 1.496-1.232 3.197-1.232 5.104 0 1.906.41 3.608 1.232 5.104a9.308 9.308 0 0 0 3.476 3.52c1.466.821 3.109 1.232 4.928 1.232Zm50.457-25.256v30.8h-5.852l-15.356-18.7v18.7h-7.04v-30.8h5.896l15.312 18.7v-18.7h7.04Zm27.571 24.2h-14.3l-2.728 6.6H335l13.728-30.8h7.04l13.772 30.8h-7.48l-2.728-6.6Zm-2.244-5.412-4.884-11.792-4.884 11.792h9.768Zm15.647-18.788h7.128v24.992h15.444v5.808h-22.572v-30.8Z" fill="#BDBDBD"/></svg>