<svg width="428" height="82" fill="none" xmlns="http://www.w3.org/2000/svg"><rect x="2.484" y="2.53" width="422.999" height="76.735" rx="38.367" stroke="#BDBDBD" stroke-width="4"/><path d="M26.661 56.706v-30.8h13.332c2.757 0 5.133.455 7.128 1.364 1.995.88 3.535 2.156 4.62 3.828 1.085 1.672 1.628 3.667 1.628 5.984 0 2.288-.543 4.268-1.628 5.94-1.085 1.643-2.625 2.904-4.62 3.784-1.995.88-4.37 1.32-7.128 1.32h-9.372l3.168-3.124v11.704h-7.128Zm19.58 0-7.7-11.176h7.612l7.788 11.176h-7.7ZM33.79 45.794l-3.168-3.344h8.976c2.2 0 3.843-.469 4.928-1.408 1.085-.968 1.628-2.288 1.628-3.96 0-1.7-.543-3.02-1.628-3.96-1.085-.938-2.728-1.408-4.928-1.408h-8.976l3.168-3.388v17.468Zm31.784-7.48H80.4v5.544H65.573v-5.544Zm.528 12.672h16.764v5.72H59.017v-30.8h23.276v5.72H66.1v19.36Zm37.175 6.248c-2.376 0-4.59-.38-6.644-1.144-2.024-.792-3.784-1.906-5.28-3.344a15.701 15.701 0 0 1-3.52-5.06c-.821-1.936-1.232-4.062-1.232-6.38 0-2.317.41-4.444 1.232-6.38a15.702 15.702 0 0 1 3.52-5.06 15.797 15.797 0 0 1 5.324-3.3c2.024-.792 4.239-1.188 6.644-1.188 2.669 0 5.075.47 7.216 1.408 2.171.91 3.989 2.26 5.456 4.048l-4.576 4.224c-1.056-1.202-2.229-2.097-3.52-2.684-1.291-.616-2.699-.924-4.224-.924-1.437 0-2.757.235-3.96.704a8.978 8.978 0 0 0-3.124 2.024 9.524 9.524 0 0 0-2.068 3.124c-.47 1.203-.704 2.538-.704 4.004 0 1.467.235 2.802.704 4.004a9.523 9.523 0 0 0 2.068 3.124 8.976 8.976 0 0 0 3.124 2.024c1.203.47 2.523.704 3.96.704 1.525 0 2.933-.293 4.224-.88 1.291-.616 2.464-1.54 3.52-2.772l4.576 4.224c-1.467 1.79-3.285 3.154-5.456 4.092-2.141.94-4.561 1.408-7.26 1.408Zm31.845 0c-2.435 0-4.693-.396-6.776-1.188-2.053-.792-3.843-1.906-5.368-3.344a15.706 15.706 0 0 1-3.52-5.06c-.821-1.936-1.232-4.048-1.232-6.336 0-2.288.411-4.4 1.232-6.336a15.391 15.391 0 0 1 3.564-5.06c1.525-1.437 3.315-2.552 5.368-3.344 2.053-.792 4.283-1.188 6.688-1.188 2.435 0 4.664.396 6.688 1.188 2.053.792 3.828 1.907 5.324 3.344a15.391 15.391 0 0 1 3.564 5.06c.851 1.907 1.276 4.02 1.276 6.336 0 2.288-.425 4.415-1.276 6.38a15.39 15.39 0 0 1-3.564 5.06c-1.496 1.408-3.271 2.508-5.324 3.3-2.024.792-4.239 1.188-6.644 1.188Zm-.044-6.072c1.379 0 2.64-.234 3.784-.704a9.075 9.075 0 0 0 3.08-2.024 8.972 8.972 0 0 0 2.024-3.124c.499-1.202.748-2.537.748-4.004 0-1.466-.249-2.8-.748-4.004a8.973 8.973 0 0 0-2.024-3.124 8.627 8.627 0 0 0-3.036-2.024c-1.173-.469-2.449-.704-3.828-.704s-2.655.235-3.828.704a9.184 9.184 0 0 0-3.036 2.024 9.529 9.529 0 0 0-2.068 3.124c-.469 1.203-.704 2.538-.704 4.004 0 1.438.235 2.772.704 4.004a9.894 9.894 0 0 0 2.024 3.124 9.075 9.075 0 0 0 3.08 2.024c1.173.47 2.449.704 3.828.704Zm22.209 5.544v-30.8h5.896l13.112 21.736h-3.124l12.892-21.736h5.852l.088 30.8h-6.688l-.044-20.548h1.232L176.206 53.45h-3.212l-10.516-17.292h1.496v20.548h-6.688Zm42.024 0v-30.8h5.896l13.112 21.736h-3.124l12.892-21.736h5.852l.088 30.8h-6.688l-.044-20.548h1.232L218.23 53.45h-3.212l-10.516-17.292h1.496v20.548h-6.688Zm48.579-18.392h14.828v5.544h-14.828v-5.544Zm.528 12.672h16.764v5.72h-23.848v-30.8h23.276v5.72h-16.192v19.36Zm22.436 5.72v-30.8h5.896l18.172 22.176h-2.86V25.906h7.04v30.8h-5.852L275.033 34.53h2.86v22.176h-7.04Zm35.535 0v-30.8h13.992c3.344 0 6.292.646 8.844 1.936 2.552 1.262 4.546 3.036 5.984 5.324 1.437 2.288 2.156 5.002 2.156 8.14 0 3.11-.719 5.823-2.156 8.14-1.438 2.288-3.432 4.078-5.984 5.368-2.552 1.262-5.5 1.892-8.844 1.892h-13.992Zm7.128-5.852h6.512c2.053 0 3.828-.38 5.324-1.144 1.525-.792 2.698-1.906 3.52-3.344.85-1.437 1.276-3.124 1.276-5.06 0-1.965-.426-3.652-1.276-5.06-.822-1.437-1.995-2.537-3.52-3.3-1.496-.792-3.271-1.188-5.324-1.188h-6.512v19.096Zm35.779-12.54h14.828v5.544h-14.828v-5.544Zm.528 12.672h16.764v5.72h-23.848v-30.8h23.276v5.72h-16.192v19.36Zm22.436 5.72v-30.8h13.992c3.344 0 6.292.646 8.844 1.936 2.552 1.262 4.546 3.036 5.984 5.324 1.437 2.288 2.156 5.002 2.156 8.14 0 3.11-.719 5.823-2.156 8.14-1.438 2.288-3.432 4.078-5.984 5.368-2.552 1.262-5.5 1.892-8.844 1.892h-13.992Zm7.128-5.852h6.512c2.053 0 3.828-.38 5.324-1.144 1.525-.792 2.698-1.906 3.52-3.344.85-1.437 1.276-3.124 1.276-5.06 0-1.965-.426-3.652-1.276-5.06-.822-1.437-1.995-2.537-3.52-3.3-1.496-.792-3.271-1.188-5.324-1.188h-6.512v19.096Z" fill="#BDBDBD"/></svg>