<svg width="1363" height="885" fill="none" xmlns="http://www.w3.org/2000/svg"><g filter="url(#a)"><rect x="45" y="45" width="1253" height="775" rx="50" fill="#191D28"/></g><path d="M374.648 207h17.808c12.824 0 21.616-7.728 21.616-19.6 0-11.872-8.792-19.6-21.616-19.6h-17.808V207Zm9.072-7.448v-24.304h8.288c7.784 0 12.88 4.648 12.88 12.152s-5.096 12.152-12.88 12.152h-8.288Zm48.73-23.128c-4.816 0-9.688 1.288-12.992 3.64l3.136 6.104c2.184-1.736 5.488-2.8 8.68-2.8 4.704 0 6.944 2.184 6.944 5.936h-6.944c-9.184 0-12.936 3.696-12.936 9.016 0 5.208 4.2 9.128 11.256 9.128 4.424 0 7.56-1.456 9.184-4.2V207h8.176v-17.192c0-9.128-5.32-13.384-14.504-13.384Zm-.672 25.144c-3.08 0-4.928-1.456-4.928-3.64 0-2.016 1.288-3.528 5.376-3.528h5.992v3.08c-1.008 2.744-3.528 4.088-6.44 4.088Zm44.039-24.696-8.624 20.496-8.344-20.496h-9.016L462.489 207h9.016l12.712-30.128h-8.4Zm16.333-4.2c3.248 0 5.432-2.128 5.432-5.04 0-2.688-2.184-4.704-5.432-4.704s-5.432 2.128-5.432 4.872c0 2.744 2.184 4.872 5.432 4.872ZM487.782 207h8.736v-30.128h-8.736V207Zm38.796-41.552v14.616c-2.184-2.464-5.32-3.64-9.016-3.64-8.512 0-15.064 6.048-15.064 15.512s6.552 15.512 15.064 15.512c4.032 0 7.224-1.288 9.408-3.92V207h8.344v-41.552h-8.736Zm-7.504 34.832c-4.368 0-7.728-3.136-7.728-8.344 0-5.208 3.36-8.344 7.728-8.344 4.312 0 7.672 3.136 7.672 8.344 0 5.208-3.36 8.344-7.672 8.344Zm40.801 6.72h28.728v-7.392h-19.656V167.8h-9.072V207Zm62.474-14.952c0-9.688-6.832-15.624-15.68-15.624-9.184 0-16.072 6.496-16.072 15.512 0 8.96 6.776 15.512 17.192 15.512 5.432 0 9.632-1.68 12.432-4.872l-4.648-5.04c-2.072 1.96-4.368 2.912-7.56 2.912-4.592 0-7.784-2.296-8.624-6.048h22.792c.056-.728.168-1.68.168-2.352Zm-15.624-9.016c3.92 0 6.776 2.464 7.392 6.272h-14.84c.616-3.864 3.472-6.272 7.448-6.272Zm50.952 9.016c0-9.688-6.832-15.624-15.68-15.624-9.184 0-16.072 6.496-16.072 15.512 0 8.96 6.776 15.512 17.192 15.512 5.432 0 9.632-1.68 12.432-4.872l-4.648-5.04c-2.072 1.96-4.368 2.912-7.56 2.912-4.592 0-7.784-2.296-8.624-6.048h22.792c.056-.728.168-1.68.168-2.352Zm-15.624-9.016c3.92 0 6.776 2.464 7.392 6.272h-14.84c.616-3.864 3.472-6.272 7.448-6.272ZM388.392 278.352c4.796 0 8.932-1.672 11.748-4.84l-2.86-2.772c-2.376 2.508-5.28 3.696-8.668 3.696-6.952 0-12.1-5.016-12.1-11.836s5.148-11.836 12.1-11.836c3.388 0 6.292 1.144 8.668 3.652l2.86-2.772c-2.816-3.168-6.952-4.796-11.704-4.796-9.372 0-16.324 6.644-16.324 15.752s6.952 15.752 16.28 15.752Zm34.19-23.672v12.056c0 5.016-2.816 7.744-7.216 7.744-4.004 0-6.292-2.288-6.292-6.864V254.68h-4.224v13.42c0 6.864 4.004 10.164 10.032 10.164 3.3 0 6.204-1.364 7.92-3.784V278h4.004v-23.32h-4.224Zm18.954 23.584c6.204 0 10.076-2.684 10.076-6.908 0-9.064-14.784-4.576-14.784-10.076 0-1.848 1.804-3.212 5.5-3.212 2.288 0 4.62.484 6.732 1.848l1.804-3.344c-2.024-1.32-5.456-2.112-8.492-2.112-5.984 0-9.724 2.816-9.724 6.996 0 9.284 14.74 4.752 14.74 9.988 0 1.98-1.628 3.168-5.544 3.168-3.036 0-6.204-1.012-8.184-2.42l-1.76 3.344c1.936 1.54 5.764 2.728 9.636 2.728Zm27.147-4.664c-.88.704-2.068 1.1-3.3 1.1-2.332 0-3.652-1.408-3.652-3.916v-12.628h6.688v-3.476h-6.688v-5.104h-4.224v5.104h-3.96v3.476h3.96v12.804c0 4.708 2.684 7.304 7.392 7.304 1.892 0 3.828-.528 5.104-1.628l-1.32-3.036Zm15.641 4.664c6.996 0 12.1-4.972 12.1-11.924 0-6.952-5.104-11.88-12.1-11.88-6.996 0-12.144 4.928-12.144 11.88 0 6.952 5.148 11.924 12.144 11.924Zm0-3.696c-4.488 0-7.876-3.256-7.876-8.228 0-4.972 3.388-8.184 7.876-8.184s7.832 3.212 7.832 8.184c0 4.972-3.344 8.228-7.832 8.228Zm47.114-20.108c-3.96 0-7.216 1.672-8.976 4.312-1.54-2.904-4.532-4.312-8.096-4.312-3.52 0-6.38 1.32-8.052 3.696v-3.476h-4.048V278h4.224v-12.012c0-5.06 2.772-7.744 6.996-7.744 3.828 0 6.028 2.244 6.028 6.82V278h4.224v-12.012c0-5.06 2.772-7.744 6.996-7.744 3.828 0 6.028 2.244 6.028 6.82V278h4.224v-13.42c0-6.864-3.872-10.12-9.548-10.12Zm38.525 12.012c0-7.172-4.796-12.012-11.528-12.012s-11.704 4.972-11.704 11.88c0 6.952 5.016 11.924 12.54 11.924 3.872 0 7.084-1.32 9.196-3.784l-2.332-2.728c-1.716 1.892-4.004 2.816-6.732 2.816-4.62 0-7.92-2.728-8.448-6.82h18.92c.044-.396.088-.924.088-1.276Zm-11.528-8.448c4.092 0 7.04 2.772 7.48 6.688h-14.96c.44-3.96 3.432-6.688 7.48-6.688Zm21.441.572v-3.916h-4.048V278h4.224v-11.616c0-5.104 2.816-7.876 7.348-7.876.308 0 .616 0 .968.044v-4.092c-4.092 0-6.996 1.408-8.492 4.136Z" fill="#fff"/><path d="m124.932 386.652 1.332-5.364h-2.268l-1.692 5.04c-.504 1.332-.648 1.872-.648 2.556 0 1.404 1.008 2.448 2.412 2.448 1.332 0 2.376-1.008 2.376-2.448 0-1.116-.576-1.908-1.512-2.232Zm6.804 0 1.332-5.364H130.8l-1.692 5.04c-.504 1.332-.648 1.872-.648 2.556 0 1.404 1.008 2.448 2.412 2.448 1.332 0 2.376-1.008 2.376-2.448 0-1.116-.576-1.908-1.512-2.232ZM138.361 408h3.6v-25.2h-3.6V408Zm9.452-15.48h2.556l.252-9.72h-3.024l.216 9.72Zm21.455-3.6-6.696 15.3-6.552-15.3h-3.6l8.352 19.08h3.528l8.352-19.08h-3.384Zm22.93 9.648c0-5.868-3.924-9.828-9.432-9.828-5.508 0-9.576 4.068-9.576 9.72 0 5.688 4.104 9.756 10.26 9.756 3.168 0 5.796-1.08 7.524-3.096l-1.908-2.232c-1.404 1.548-3.276 2.304-5.508 2.304-3.78 0-6.48-2.232-6.912-5.58h15.48c.036-.324.072-.756.072-1.044Zm-9.432-6.912c3.348 0 5.76 2.268 6.12 5.472h-12.24c.36-3.24 2.808-5.472 6.12-5.472Zm33.223-2.916c-2.7 0-5.076 1.008-6.66 3.06v-10.512h-3.456V408h3.312v-3.024c1.548 2.16 3.996 3.24 6.804 3.24 5.58 0 9.648-3.924 9.648-9.756 0-5.832-4.068-9.72-9.648-9.72Zm-.288 16.452c-3.636 0-6.408-2.664-6.408-6.732s2.772-6.696 6.408-6.696c3.672 0 6.444 2.628 6.444 6.696s-2.772 6.732-6.444 6.732Zm31.559-6.624c0-5.868-3.924-9.828-9.432-9.828-5.508 0-9.576 4.068-9.576 9.72 0 5.688 4.104 9.756 10.26 9.756 3.168 0 5.796-1.08 7.524-3.096l-1.908-2.232c-1.404 1.548-3.276 2.304-5.508 2.304-3.78 0-6.48-2.232-6.912-5.58h15.48c.036-.324.072-.756.072-1.044Zm-9.432-6.912c3.348 0 5.76 2.268 6.12 5.472h-12.24c.36-3.24 2.808-5.472 6.12-5.472Zm31.079 6.912c0-5.868-3.924-9.828-9.432-9.828-5.508 0-9.576 4.068-9.576 9.72 0 5.688 4.104 9.756 10.26 9.756 3.168 0 5.796-1.08 7.524-3.096l-1.908-2.232c-1.404 1.548-3.276 2.304-5.508 2.304-3.78 0-6.48-2.232-6.912-5.58h15.48c.036-.324.072-.756.072-1.044Zm-9.432-6.912c3.348 0 5.76 2.268 6.12 5.472h-12.24c.36-3.24 2.808-5.472 6.12-5.472Zm24.023-2.916c-3.024 0-5.472 1.116-6.876 3.06v-2.88h-3.312V408h3.456v-9.828c0-4.14 2.376-6.336 6.048-6.336 3.276 0 5.148 1.836 5.148 5.58V408h3.456v-10.98c0-5.616-3.276-8.28-7.92-8.28Zm30.14 0c-3.06 0-5.904.864-7.884 2.448l1.44 2.592c1.476-1.26 3.78-2.052 6.048-2.052 3.42 0 5.112 1.692 5.112 4.608v.684h-5.472c-5.688 0-7.668 2.52-7.668 5.58 0 3.312 2.736 5.616 7.056 5.616 2.988 0 5.112-1.008 6.264-2.736V408h3.276v-11.52c0-5.22-2.952-7.74-8.172-7.74Zm-.792 16.812c-2.628 0-4.212-1.188-4.212-3.096 0-1.62.972-2.952 4.392-2.952h5.328v2.664c-.864 2.196-2.916 3.384-5.508 3.384Zm50.011-16.632-5.688 15.264-5.652-15.264h-2.916l-5.76 15.192-5.544-15.192h-3.276l7.092 19.08h3.312l5.58-14.472L355.513 408h3.312l7.128-19.08h-3.096Zm22.924 9.648c0-5.868-3.924-9.828-9.432-9.828-5.508 0-9.576 4.068-9.576 9.72 0 5.688 4.104 9.756 10.26 9.756 3.168 0 5.796-1.08 7.524-3.096l-1.908-2.232c-1.404 1.548-3.276 2.304-5.508 2.304-3.78 0-6.48-2.232-6.912-5.58h15.48c.036-.324.072-.756.072-1.044Zm-9.432-6.912c3.348 0 5.76 2.268 6.12 5.472h-12.24c.36-3.24 2.808-5.472 6.12-5.472Zm23.951-2.916c-2.7 0-5.076 1.008-6.66 3.06v-10.512h-3.456V408h3.312v-3.024c1.548 2.16 3.996 3.24 6.804 3.24 5.58 0 9.648-3.924 9.648-9.756 0-5.832-4.068-9.72-9.648-9.72Zm-.288 16.452c-3.636 0-6.408-2.664-6.408-6.732s2.772-6.696 6.408-6.696c3.672 0 6.444 2.628 6.444 6.696s-2.772 6.732-6.444 6.732Zm21.571-11.808 6.588-8.136V382.8h-16.632v3.132h12.132l-6.336 7.776v2.52h2.016c4.32 0 6.228 1.728 6.228 4.392 0 2.736-2.16 4.464-5.94 4.464-3.096 0-5.904-1.116-7.596-2.7l-1.656 2.844c2.124 1.908 5.652 3.06 9.252 3.06 6.408 0 9.54-3.456 9.54-7.704 0-3.888-2.556-6.732-7.596-7.2Zm54.066-10.584-6.948 20.592-6.948-20.592h-3.312l-7.092 20.484-6.804-20.484h-3.708l8.424 25.2h3.852l6.876-20.124L466.865 408h3.78l8.424-25.2h-3.42Zm13.654 25.416c5.724 0 9.9-4.068 9.9-9.756 0-5.688-4.176-9.72-9.9-9.72s-9.936 4.032-9.936 9.72c0 5.688 4.212 9.756 9.936 9.756Zm0-3.024c-3.672 0-6.444-2.664-6.444-6.732s2.772-6.696 6.444-6.696 6.408 2.628 6.408 6.696-2.736 6.732-6.408 6.732Zm17.595-13.068v-3.204h-3.312V408h3.456v-9.504c0-4.176 2.304-6.444 6.012-6.444.252 0 .504 0 .792.036v-3.348c-3.348 0-5.724 1.152-6.948 3.384Zm25.18-10.836V391.8c-1.584-2.052-3.96-3.06-6.66-3.06-5.58 0-9.648 3.888-9.648 9.72 0 5.832 4.068 9.756 9.648 9.756 2.808 0 5.256-1.08 6.804-3.24V408h3.312v-26.712h-3.456Zm-6.372 23.904c-3.672 0-6.444-2.664-6.444-6.732s2.772-6.696 6.444-6.696c3.636 0 6.408 2.628 6.408 6.696s-2.772 6.732-6.408 6.732Zm26.303-22.392h-9.828V408h3.6v-7.632h6.228c6.552 0 10.512-3.312 10.512-8.784 0-5.472-3.96-8.784-10.512-8.784Zm-.108 14.436h-6.12v-11.304h6.12c4.608 0 7.02 2.052 7.02 5.652s-2.412 5.652-7.02 5.652Zm18.005-5.112v-3.204h-3.312V408h3.456v-9.504c0-4.176 2.304-6.444 6.012-6.444.252 0 .504 0 .792.036v-3.348c-3.348 0-5.724 1.152-6.948 3.384Zm27.88 6.444c0-5.868-3.924-9.828-9.432-9.828-5.508 0-9.576 4.068-9.576 9.72 0 5.688 4.104 9.756 10.26 9.756 3.168 0 5.796-1.08 7.524-3.096l-1.908-2.232c-1.404 1.548-3.276 2.304-5.508 2.304-3.78 0-6.48-2.232-6.912-5.58h15.48c.036-.324.072-.756.072-1.044Zm-9.432-6.912c3.348 0 5.76 2.268 6.12 5.472h-12.24c.36-3.24 2.808-5.472 6.12-5.472Zm19.307 16.56c5.076 0 8.244-2.196 8.244-5.652 0-7.416-12.096-3.744-12.096-8.244 0-1.512 1.476-2.628 4.5-2.628 1.872 0 3.78.396 5.508 1.512l1.476-2.736c-1.656-1.08-4.464-1.728-6.948-1.728-4.896 0-7.956 2.304-7.956 5.724 0 7.596 12.06 3.888 12.06 8.172 0 1.62-1.332 2.592-4.536 2.592-2.484 0-5.076-.828-6.696-1.98l-1.44 2.736c1.584 1.26 4.716 2.232 7.884 2.232Zm17.639 0c5.076 0 8.244-2.196 8.244-5.652 0-7.416-12.096-3.744-12.096-8.244 0-1.512 1.476-2.628 4.5-2.628 1.872 0 3.78.396 5.508 1.512l1.476-2.736c-1.656-1.08-4.464-1.728-6.948-1.728-4.896 0-7.956 2.304-7.956 5.724 0 7.596 12.06 3.888 12.06 8.172 0 1.62-1.332 2.592-4.536 2.592-2.484 0-5.076-.828-6.696-1.98l-1.44 2.736c1.584 1.26 4.716 2.232 7.884 2.232Zm31.627-19.476c-2.916 0-5.292 1.044-6.732 2.88v-10.332h-3.456V408h3.456v-9.828c0-4.14 2.376-6.336 6.048-6.336 3.276 0 5.148 1.836 5.148 5.58V408h3.456v-10.98c0-5.616-3.276-8.28-7.92-8.28Zm22.197 19.476c5.724 0 9.9-4.068 9.9-9.756 0-5.688-4.176-9.72-9.9-9.72s-9.936 4.032-9.936 9.72c0 5.688 4.212 9.756 9.936 9.756Zm0-3.024c-3.672 0-6.444-2.664-6.444-6.732s2.772-6.696 6.444-6.696 6.408 2.628 6.408 6.696-2.736 6.732-6.408 6.732Zm19.756 3.024c5.076 0 8.244-2.196 8.244-5.652 0-7.416-12.096-3.744-12.096-8.244 0-1.512 1.476-2.628 4.5-2.628 1.872 0 3.78.396 5.508 1.512l1.476-2.736c-1.656-1.08-4.464-1.728-6.948-1.728-4.896 0-7.956 2.304-7.956 5.724 0 7.596 12.06 3.888 12.06 8.172 0 1.62-1.332 2.592-4.536 2.592-2.484 0-5.076-.828-6.696-1.98l-1.44 2.736c1.584 1.26 4.716 2.232 7.884 2.232Zm21.815-3.816c-.72.576-1.692.9-2.7.9-1.908 0-2.988-1.152-2.988-3.204v-10.332h5.472v-2.844h-5.472v-4.176h-3.456v4.176h-3.24v2.844h3.24v10.476c0 3.852 2.196 5.976 6.048 5.976 1.548 0 3.132-.432 4.176-1.332l-1.08-2.484Zm6.59-19.152c1.368 0 2.34-1.008 2.34-2.304 0-1.224-1.008-2.196-2.34-2.196-1.332 0-2.34 1.008-2.34 2.268 0 1.26 1.008 2.232 2.34 2.232ZM725.557 408h3.456v-19.08h-3.456V408Zm19.847-19.26c-3.024 0-5.472 1.116-6.876 3.06v-2.88h-3.312V408h3.456v-9.828c0-4.14 2.376-6.336 6.048-6.336 3.276 0 5.148 1.836 5.148 5.58V408h3.456v-10.98c0-5.616-3.276-8.28-7.92-8.28Zm29.001.18v2.952c-1.62-2.088-4.212-3.132-7.056-3.132-5.508 0-9.684 3.708-9.684 9.216 0 5.508 4.176 9.252 9.684 9.252 2.736 0 5.22-.972 6.876-2.952v1.512c0 4.32-2.052 6.408-6.552 6.408-2.808 0-5.58-.972-7.344-2.484l-1.656 2.664c2.088 1.872 5.616 2.844 9.108 2.844 6.48 0 9.9-3.06 9.9-9.792V388.92h-3.276Zm-6.66 15.264c-3.852 0-6.588-2.556-6.588-6.228 0-3.708 2.736-6.192 6.588-6.192 3.816 0 6.552 2.484 6.552 6.192 0 3.672-2.736 6.228-6.552 6.228Zm33.732 4.032c3.42 0 6.264-1.44 7.776-4.104l-2.628-1.656c-1.224 1.872-3.096 2.736-5.184 2.736-3.744 0-6.552-2.592-6.552-6.732 0-4.068 2.808-6.696 6.552-6.696 2.088 0 3.96.864 5.184 2.736l2.628-1.692c-1.512-2.664-4.356-4.068-7.776-4.068-5.868 0-10.08 4.032-10.08 9.72 0 5.688 4.212 9.756 10.08 9.756Zm26.182-19.296v9.864c0 4.104-2.304 6.336-5.904 6.336-3.276 0-5.148-1.872-5.148-5.616V388.92h-3.456v10.98c0 5.616 3.276 8.316 8.208 8.316 2.7 0 5.076-1.116 6.48-3.096V408h3.276v-19.08h-3.456Zm15.111 19.296c5.076 0 8.244-2.196 8.244-5.652 0-7.416-12.096-3.744-12.096-8.244 0-1.512 1.476-2.628 4.5-2.628 1.872 0 3.78.396 5.508 1.512l1.476-2.736c-1.656-1.08-4.464-1.728-6.948-1.728-4.896 0-7.956 2.304-7.956 5.724 0 7.596 12.06 3.888 12.06 8.172 0 1.62-1.332 2.592-4.536 2.592-2.484 0-5.076-.828-6.696-1.98l-1.44 2.736c1.584 1.26 4.716 2.232 7.884 2.232Zm21.816-3.816c-.721.576-1.693.9-2.701.9-1.908 0-2.988-1.152-2.988-3.204v-10.332h5.472v-2.844h-5.472v-4.176h-3.456v4.176h-3.24v2.844h3.24v10.476c0 3.852 2.196 5.976 6.048 5.976 1.548 0 3.132-.432 4.177-1.332l-1.08-2.484Zm12.401 3.816c5.724 0 9.9-4.068 9.9-9.756 0-5.688-4.176-9.72-9.9-9.72s-9.936 4.032-9.936 9.72c0 5.688 4.212 9.756 9.936 9.756Zm0-3.024c-3.672 0-6.444-2.664-6.444-6.732s2.772-6.696 6.444-6.696 6.408 2.628 6.408 6.696-2.736 6.732-6.408 6.732Zm38.151-16.452c-3.24 0-5.904 1.368-7.344 3.528-1.26-2.376-3.708-3.528-6.624-3.528-2.88 0-5.22 1.08-6.588 3.024v-2.844h-3.312V408h3.456v-9.828c0-4.14 2.268-6.336 5.724-6.336 3.132 0 4.932 1.836 4.932 5.58V408h3.456v-9.828c0-4.14 2.268-6.336 5.724-6.336 3.132 0 4.932 1.836 4.932 5.58V408h3.456v-10.98c0-5.616-3.168-8.28-7.812-8.28Zm31.125 9.828c0-5.868-3.924-9.828-9.432-9.828-5.508 0-9.576 4.068-9.576 9.72 0 5.688 4.104 9.756 10.26 9.756 3.168 0 5.796-1.08 7.524-3.096l-1.908-2.232c-1.404 1.548-3.276 2.304-5.508 2.304-3.78 0-6.48-2.232-6.912-5.58h15.48c.036-.324.072-.756.072-1.044Zm-9.432-6.912c3.348 0 5.76 2.268 6.12 5.472h-12.24c.36-3.24 2.808-5.472 6.12-5.472Zm17.147.468v-3.204h-3.312V408h3.456v-9.504c0-4.176 2.304-6.444 6.012-6.444.252 0 .504 0 .792.036v-3.348c-3.348 0-5.724 1.152-6.948 3.384Zm27.314-8.208c1.008 0 1.944.36 2.664.9l1.044-2.628c-.972-.756-2.412-1.116-3.888-1.116-4.068 0-6.3 2.448-6.3 6.156v1.692h-3.24v2.844h3.24V408h3.456v-16.236h5.472v-2.844h-5.544v-1.656c0-2.196 1.044-3.348 3.096-3.348Zm13.202 24.3c5.726 0 9.896-4.068 9.896-9.756 0-5.688-4.17-9.72-9.896-9.72-5.724 0-9.936 4.032-9.936 9.72 0 5.688 4.212 9.756 9.936 9.756Zm0-3.024c-3.672 0-6.444-2.664-6.444-6.732s2.772-6.696 6.444-6.696 6.406 2.628 6.406 6.696-2.734 6.732-6.406 6.732Zm17.596-13.068v-3.204h-3.31V408h3.45v-9.504c0-4.176 2.31-6.444 6.02-6.444.25 0 .5 0 .79.036v-3.348c-3.35 0-5.73 1.152-6.95 3.384Zm28.5 16.092c5.72 0 9.9-4.068 9.9-9.756 0-5.688-4.18-9.72-9.9-9.72-5.72 0-9.94 4.032-9.94 9.72 0 5.688 4.22 9.756 9.94 9.756Zm0-3.024c-3.67 0-6.44-2.664-6.44-6.732s2.77-6.696 6.44-6.696c3.67 0 6.41 2.628 6.41 6.696s-2.74 6.732-6.41 6.732Zm27.26-16.272-6.7 15.3-6.55-15.3h-3.6l8.35 19.08h3.53l8.35-19.08h-3.38Zm22.93 9.648c0-5.868-3.93-9.828-9.43-9.828-5.51 0-9.58 4.068-9.58 9.72 0 5.688 4.1 9.756 10.26 9.756 3.17 0 5.8-1.08 7.52-3.096l-1.9-2.232c-1.41 1.548-3.28 2.304-5.51 2.304-3.78 0-6.48-2.232-6.91-5.58h15.48c.03-.324.07-.756.07-1.044Zm-9.43-6.912c3.34 0 5.76 2.268 6.12 5.472h-12.24c.36-3.24 2.8-5.472 6.12-5.472Zm17.14.468v-3.204h-3.31V408h3.46v-9.504c0-4.176 2.3-6.444 6.01-6.444.25 0 .5 0 .79.036v-3.348c-3.35 0-5.72 1.152-6.95 3.384Zm27.28-3.384c-3.06 0-5.9.864-7.88 2.448l1.44 2.592c1.47-1.26 3.78-2.052 6.04-2.052 3.42 0 5.12 1.692 5.12 4.608v.684h-5.48c-5.68 0-7.66 2.52-7.66 5.58 0 3.312 2.73 5.616 7.05 5.616 2.99 0 5.11-1.008 6.27-2.736V408h3.27v-11.52c0-5.22-2.95-7.74-8.17-7.74Zm-.79 16.812c-2.63 0-4.21-1.188-4.21-3.096 0-1.62.97-2.952 4.39-2.952h5.33v2.664c-.87 2.196-2.92 3.384-5.51 3.384Zm37.73-16.632-6.58 15.264-6.66-15.264h-3.6l8.42 19.044-.61 1.332c-.94 2.196-1.98 2.952-3.64 2.952-1.29 0-2.48-.504-3.42-1.404l-1.47 2.592c1.18 1.152 3.06 1.764 4.89 1.764 2.92 0 5.11-1.26 6.81-5.292l9.25-20.988h-3.39Zm22.93 9.648c0-5.868-3.92-9.828-9.43-9.828s-9.57 4.068-9.57 9.72c0 5.688 4.1 9.756 10.26 9.756 3.16 0 5.79-1.08 7.52-3.096l-1.91-2.232c-1.4 1.548-3.27 2.304-5.51 2.304-3.78 0-6.48-2.232-6.91-5.58h15.48c.04-.324.07-.756.07-1.044Zm-9.43-6.912c3.35 0 5.76 2.268 6.12 5.472h-12.24c.36-3.24 2.81-5.472 6.12-5.472Zm20.26-2.916c-3.06 0-5.91.864-7.89 2.448l1.44 2.592c1.48-1.26 3.78-2.052 6.05-2.052 3.42 0 5.11 1.692 5.11 4.608v.684h-5.47c-5.69 0-7.67 2.52-7.67 5.58 0 3.312 2.74 5.616 7.06 5.616 2.99 0 5.11-1.008 6.26-2.736V408h3.28v-11.52c0-5.22-2.95-7.74-8.17-7.74Zm-.8 16.812c-2.62 0-4.21-1.188-4.21-3.096 0-1.62.97-2.952 4.39-2.952h5.33v2.664c-.86 2.196-2.91 3.384-5.51 3.384Zm18.28-13.428v-3.204h-3.31V408h3.45v-9.504c0-4.176 2.31-6.444 6.02-6.444.25 0 .5 0 .79.036v-3.348c-3.35 0-5.73 1.152-6.95 3.384ZM133.464 442.74c-3.024 0-5.472 1.116-6.876 3.06v-2.88h-3.312V462h3.456v-9.828c0-4.14 2.376-6.336 6.048-6.336 3.276 0 5.148 1.836 5.148 5.58V462h3.456v-10.98c0-5.616-3.276-8.28-7.92-8.28Zm22.197 19.476c5.724 0 9.9-4.068 9.9-9.756 0-5.688-4.176-9.72-9.9-9.72s-9.936 4.032-9.936 9.72c0 5.688 4.212 9.756 9.936 9.756Zm0-3.024c-3.672 0-6.444-2.664-6.444-6.732s2.772-6.696 6.444-6.696 6.408 2.628 6.408 6.696-2.736 6.732-6.408 6.732Zm39.533-16.272-5.688 15.264-5.652-15.264h-2.916l-5.76 15.192-5.544-15.192h-3.276L173.45 462h3.312l5.58-14.472L187.85 462h3.312l7.128-19.08h-3.096Zm22.426-.18c-3.06 0-5.904.864-7.884 2.448l1.44 2.592c1.476-1.26 3.78-2.052 6.048-2.052 3.42 0 5.112 1.692 5.112 4.608v.684h-5.472c-5.688 0-7.668 2.52-7.668 5.58 0 3.312 2.736 5.616 7.056 5.616 2.988 0 5.112-1.008 6.264-2.736V462h3.276v-11.52c0-5.22-2.952-7.74-8.172-7.74Zm-.792 16.812c-2.628 0-4.212-1.188-4.212-3.096 0-1.62.972-2.952 4.392-2.952h5.328v2.664c-.864 2.196-2.916 3.384-5.508 3.384Zm25.152-16.812c-3.024 0-5.472 1.116-6.876 3.06v-2.88h-3.312V462h3.456v-9.828c0-4.14 2.376-6.336 6.048-6.336 3.276 0 5.148 1.836 5.148 5.58V462h3.456v-10.98c0-5.616-3.276-8.28-7.92-8.28Zm28.569-7.452V445.8c-1.584-2.052-3.96-3.06-6.66-3.06-5.58 0-9.648 3.888-9.648 9.72 0 5.832 4.068 9.756 9.648 9.756 2.808 0 5.256-1.08 6.804-3.24V462h3.312v-26.712h-3.456Zm-6.372 23.904c-3.672 0-6.444-2.664-6.444-6.732s2.772-6.696 6.444-6.696c3.636 0 6.408 2.628 6.408 6.696s-2.772 6.732-6.408 6.732Zm26.972-19.944c1.368 0 2.34-1.008 2.34-2.304 0-1.224-1.008-2.196-2.34-2.196-1.332 0-2.34 1.008-2.34 2.268 0 1.26 1.008 2.232 2.34 2.232ZM289.421 462h3.456v-19.08h-3.456V462Zm19.306-3.6c-.72.576-1.692.9-2.7.9-1.908 0-2.988-1.152-2.988-3.204v-10.332h5.472v-2.844h-5.472v-4.176h-3.456v4.176h-3.24v2.844h3.24v10.476c0 3.852 2.196 5.976 6.048 5.976 1.548 0 3.132-.432 4.176-1.332l-1.08-2.484Zm24.322-15.66c-2.916 0-5.292 1.044-6.732 2.88v-10.332h-3.456V462h3.456v-9.828c0-4.14 2.376-6.336 6.048-6.336 3.276 0 5.148 1.836 5.148 5.58V462h3.456v-10.98c0-5.616-3.276-8.28-7.92-8.28Zm20.868 0c-3.06 0-5.904.864-7.884 2.448l1.44 2.592c1.476-1.26 3.78-2.052 6.048-2.052 3.42 0 5.112 1.692 5.112 4.608v.684h-5.472c-5.688 0-7.668 2.52-7.668 5.58 0 3.312 2.736 5.616 7.056 5.616 2.988 0 5.112-1.008 6.264-2.736V462h3.276v-11.52c0-5.22-2.952-7.74-8.172-7.74Zm-.792 16.812c-2.628 0-4.212-1.188-4.212-3.096 0-1.62.972-2.952 4.392-2.952h5.328v2.664c-.864 2.196-2.916 3.384-5.508 3.384Zm20.436 2.664c5.076 0 8.244-2.196 8.244-5.652 0-7.416-12.096-3.744-12.096-8.244 0-1.512 1.476-2.628 4.5-2.628 1.872 0 3.78.396 5.508 1.512l1.476-2.736c-1.656-1.08-4.464-1.728-6.948-1.728-4.896 0-7.956 2.304-7.956 5.724 0 7.596 12.06 3.888 12.06 8.172 0 1.62-1.332 2.592-4.536 2.592-2.484 0-5.076-.828-6.696-1.98l-1.44 2.736c1.584 1.26 4.716 2.232 7.884 2.232Zm31.555-19.476c-2.7 0-5.076 1.008-6.66 3.06v-10.512H395V462h3.312v-3.024c1.548 2.16 3.996 3.24 6.804 3.24 5.58 0 9.648-3.924 9.648-9.756 0-5.832-4.068-9.72-9.648-9.72Zm-.288 16.452c-3.636 0-6.408-2.664-6.408-6.732s2.772-6.696 6.408-6.696c3.672 0 6.444 2.628 6.444 6.696s-2.772 6.732-6.444 6.732Zm31.559-6.624c0-5.868-3.924-9.828-9.432-9.828-5.508 0-9.576 4.068-9.576 9.72 0 5.688 4.104 9.756 10.26 9.756 3.168 0 5.796-1.08 7.524-3.096l-1.908-2.232c-1.404 1.548-3.276 2.304-5.508 2.304-3.78 0-6.48-2.232-6.912-5.58h15.48c.036-.324.072-.756.072-1.044Zm-9.432-6.912c3.348 0 5.76 2.268 6.12 5.472h-12.24c.36-3.24 2.808-5.472 6.12-5.472Zm31.079 6.912c0-5.868-3.924-9.828-9.432-9.828-5.508 0-9.576 4.068-9.576 9.72 0 5.688 4.104 9.756 10.26 9.756 3.168 0 5.796-1.08 7.524-3.096l-1.908-2.232c-1.404 1.548-3.276 2.304-5.508 2.304-3.78 0-6.48-2.232-6.912-5.58h15.48c.036-.324.072-.756.072-1.044Zm-9.432-6.912c3.348 0 5.76 2.268 6.12 5.472h-12.24c.36-3.24 2.808-5.472 6.12-5.472Zm24.023-2.916c-3.024 0-5.472 1.116-6.876 3.06v-2.88h-3.312V462h3.456v-9.828c0-4.14 2.376-6.336 6.048-6.336 3.276 0 5.148 1.836 5.148 5.58V462h3.456v-10.98c0-5.616-3.276-8.28-7.92-8.28Zm30.14 0c-3.06 0-5.904.864-7.884 2.448l1.44 2.592c1.476-1.26 3.78-2.052 6.048-2.052 3.42 0 5.112 1.692 5.112 4.608v.684h-5.472c-5.688 0-7.668 2.52-7.668 5.58 0 3.312 2.736 5.616 7.056 5.616 2.988 0 5.112-1.008 6.264-2.736V462h3.276v-11.52c0-5.22-2.952-7.74-8.172-7.74Zm-.792 16.812c-2.628 0-4.212-1.188-4.212-3.096 0-1.62.972-2.952 4.392-2.952h5.328v2.664c-.864 2.196-2.916 3.384-5.508 3.384Zm31.22-21.636c1.008 0 1.944.36 2.664.9l1.044-2.628c-.972-.756-2.412-1.116-3.888-1.116-4.068 0-6.3 2.448-6.3 6.156v1.692h-3.24v2.844h3.24V462h3.456v-16.236h5.472v-2.844h-5.544v-1.656c0-2.196 1.044-3.348 3.096-3.348Zm11.907 4.824c-3.06 0-5.904.864-7.884 2.448l1.44 2.592c1.476-1.26 3.78-2.052 6.048-2.052 3.42 0 5.112 1.692 5.112 4.608v.684h-5.472c-5.688 0-7.668 2.52-7.668 5.58 0 3.312 2.736 5.616 7.056 5.616 2.988 0 5.112-1.008 6.264-2.736V462h3.276v-11.52c0-5.22-2.952-7.74-8.172-7.74Zm-.792 16.812c-2.628 0-4.212-1.188-4.212-3.096 0-1.62.972-2.952 4.392-2.952h5.328v2.664c-.864 2.196-2.916 3.384-5.508 3.384Zm25.152-16.812c-3.024 0-5.472 1.116-6.876 3.06v-2.88h-3.312V462h3.456v-9.828c0-4.14 2.376-6.336 6.048-6.336 3.276 0 5.148 1.836 5.148 5.58V462h3.456v-10.98c0-5.616-3.276-8.28-7.92-8.28Zm23.568 15.66c-.72.576-1.692.9-2.7.9-1.908 0-2.988-1.152-2.988-3.204v-10.332h5.472v-2.844h-5.472v-4.176h-3.456v4.176h-3.24v2.844h3.24v10.476c0 3.852 2.196 5.976 6.048 5.976 1.548 0 3.132-.432 4.176-1.332l-1.08-2.484Zm11.81-15.66c-3.06 0-5.904.864-7.884 2.448l1.44 2.592c1.476-1.26 3.78-2.052 6.048-2.052 3.42 0 5.112 1.692 5.112 4.608v.684h-5.472c-5.688 0-7.668 2.52-7.668 5.58 0 3.312 2.736 5.616 7.056 5.616 2.988 0 5.112-1.008 6.264-2.736V462h3.276v-11.52c0-5.22-2.952-7.74-8.172-7.74Zm-.792 16.812c-2.628 0-4.212-1.188-4.212-3.096 0-1.62.972-2.952 4.392-2.952h5.328v2.664c-.864 2.196-2.916 3.384-5.508 3.384Zm20.436 2.664c5.076 0 8.244-2.196 8.244-5.652 0-7.416-12.096-3.744-12.096-8.244 0-1.512 1.476-2.628 4.5-2.628 1.872 0 3.78.396 5.508 1.512l1.476-2.736c-1.656-1.08-4.464-1.728-6.948-1.728-4.896 0-7.956 2.304-7.956 5.724 0 7.596 12.06 3.888 12.06 8.172 0 1.62-1.332 2.592-4.536 2.592-2.484 0-5.076-.828-6.696-1.98l-1.44 2.736c1.584 1.26 4.716 2.232 7.884 2.232Zm21.815-3.816c-.72.576-1.692.9-2.7.9-1.908 0-2.988-1.152-2.988-3.204v-10.332h5.472v-2.844h-5.472v-4.176h-3.456v4.176h-3.24v2.844h3.24v10.476c0 3.852 2.196 5.976 6.048 5.976 1.548 0 3.132-.432 4.176-1.332l-1.08-2.484Zm6.59-19.152c1.368 0 2.34-1.008 2.34-2.304 0-1.224-1.008-2.196-2.34-2.196-1.332 0-2.34 1.008-2.34 2.268 0 1.26 1.008 2.232 2.34 2.232ZM651.159 462h3.456v-19.08h-3.456V462Zm17.975.216c3.42 0 6.264-1.44 7.776-4.104l-2.628-1.656c-1.224 1.872-3.096 2.736-5.184 2.736-3.744 0-6.552-2.592-6.552-6.732 0-4.068 2.808-6.696 6.552-6.696 2.088 0 3.96.864 5.184 2.736l2.628-1.692c-1.512-2.664-4.356-4.068-7.776-4.068-5.868 0-10.08 4.032-10.08 9.72 0 5.688 4.212 9.756 10.08 9.756Zm38.37-9.648c0-5.868-3.924-9.828-9.432-9.828-5.508 0-9.576 4.068-9.576 9.72 0 5.688 4.104 9.756 10.26 9.756 3.168 0 5.796-1.08 7.524-3.096l-1.908-2.232c-1.404 1.548-3.276 2.304-5.508 2.304-3.78 0-6.48-2.232-6.912-5.58h15.48c.036-.324.072-.756.072-1.044Zm-9.432-6.912c3.348 0 5.76 2.268 6.12 5.472h-12.24c.36-3.24 2.808-5.472 6.12-5.472Zm29.4 16.344-7.596-9.756 7.2-9.324h-3.78l-5.22 6.876-5.256-6.876h-3.852l7.164 9.324-7.524 9.756h3.852l5.58-7.308 5.508 7.308h3.924Zm13.491-19.26c-2.808 0-5.256 1.08-6.804 3.204v-3.024h-3.312v26.064h3.456v-9.864c1.584 2.052 3.96 3.096 6.66 3.096 5.58 0 9.648-3.888 9.648-9.756 0-5.832-4.068-9.72-9.648-9.72Zm-.288 16.452c-3.636 0-6.408-2.664-6.408-6.732 0-4.032 2.772-6.696 6.408-6.696 3.672 0 6.444 2.664 6.444 6.696 0 4.068-2.772 6.732-6.444 6.732Zm31.559-6.624c0-5.868-3.924-9.828-9.432-9.828-5.508 0-9.576 4.068-9.576 9.72 0 5.688 4.104 9.756 10.26 9.756 3.168 0 5.796-1.08 7.524-3.096l-1.908-2.232c-1.404 1.548-3.276 2.304-5.508 2.304-3.78 0-6.48-2.232-6.912-5.58h15.48c.036-.324.072-.756.072-1.044Zm-9.432-6.912c3.348 0 5.76 2.268 6.12 5.472h-12.24c.36-3.24 2.808-5.472 6.12-5.472Zm17.147.468v-3.204h-3.312V462h3.456v-9.504c0-4.176 2.304-6.444 6.012-6.444.252 0 .504 0 .792.036v-3.348c-3.348 0-5.724 1.152-6.948 3.384Zm12.54-6.876c1.368 0 2.34-1.008 2.34-2.304 0-1.224-1.008-2.196-2.34-2.196-1.332 0-2.34 1.008-2.34 2.268 0 1.26 1.008 2.232 2.34 2.232ZM790.761 462h3.456v-19.08h-3.456V462Zm26.902-9.432c0-5.868-3.924-9.828-9.432-9.828-5.508 0-9.576 4.068-9.576 9.72 0 5.688 4.104 9.756 10.26 9.756 3.168 0 5.796-1.08 7.524-3.096l-1.908-2.232c-1.404 1.548-3.276 2.304-5.508 2.304-3.78 0-6.48-2.232-6.912-5.58h15.48c.036-.324.072-.756.072-1.044Zm-9.432-6.912c3.348 0 5.76 2.268 6.12 5.472h-12.24c.36-3.24 2.808-5.472 6.12-5.472Zm24.023-2.916c-3.024 0-5.472 1.116-6.876 3.06v-2.88h-3.312V462h3.456v-9.828c0-4.14 2.376-6.336 6.048-6.336 3.276 0 5.148 1.836 5.148 5.58V462h3.456v-10.98c0-5.616-3.276-8.28-7.92-8.28Zm22.342 19.476c3.42 0 6.264-1.44 7.776-4.104l-2.628-1.656c-1.224 1.872-3.096 2.736-5.184 2.736-3.744 0-6.552-2.592-6.552-6.732 0-4.068 2.808-6.696 6.552-6.696 2.088 0 3.96.864 5.184 2.736l2.628-1.692c-1.512-2.664-4.356-4.068-7.776-4.068-5.868 0-10.08 4.032-10.08 9.72 0 5.688 4.212 9.756 10.08 9.756Zm28.817-9.648c0-5.868-3.924-9.828-9.432-9.828-5.508 0-9.576 4.068-9.576 9.72 0 5.688 4.104 9.756 10.26 9.756 3.168 0 5.796-1.08 7.524-3.096l-1.908-2.232c-1.404 1.548-3.276 2.304-5.508 2.304-3.78 0-6.48-2.232-6.912-5.58h15.48c.036-.324.072-.756.072-1.044Zm-9.432-6.912c3.348 0 5.76 2.268 6.12 5.472h-12.24c.36-3.24 2.808-5.472 6.12-5.472Zm14.663 16.56c1.296 0 2.376-1.044 2.376-2.484s-1.08-2.448-2.376-2.448c-1.332 0-2.448 1.008-2.448 2.448s1.116 2.484 2.448 2.484Zm21.712-.216h3.564v-22.068h8.64V436.8h-20.844v3.132h8.64V462Zm25.413-19.26c-2.916 0-5.292 1.044-6.732 2.88v-10.332h-3.456V462h3.456v-9.828c0-4.14 2.376-6.336 6.048-6.336 3.276 0 5.148 1.836 5.148 5.58V462h3.456v-10.98c0-5.616-3.276-8.28-7.92-8.28Zm31.269 9.828c0-5.868-3.924-9.828-9.432-9.828-5.508 0-9.576 4.068-9.576 9.72 0 5.688 4.104 9.756 10.26 9.756 3.168 0 5.796-1.08 7.524-3.096l-1.908-2.232c-1.404 1.548-3.276 2.304-5.508 2.304-3.78 0-6.48-2.232-6.912-5.58h15.48c.036-.324.072-.756.072-1.044Zm-9.432-6.912c3.348 0 5.76 2.268 6.12 5.472h-12.24c.36-3.24 2.808-5.472 6.12-5.472Zm15.563-6.408c1.368 0 2.34-1.008 2.34-2.304 0-1.224-1.008-2.196-2.34-2.196-1.332 0-2.34 1.008-2.34 2.268 0 1.26 1.008 2.232 2.34 2.232ZM971.441 462h3.456v-19.08h-3.456V462Zm12.971-15.876v-3.204H981.1V462h3.456v-9.504c0-4.176 2.304-6.444 6.012-6.444.252 0 .504 0 .792.036v-3.348c-3.348 0-5.724 1.152-6.948 3.384Zm25.798 16.092c5.08 0 8.25-2.196 8.25-5.652 0-7.416-12.1-3.744-12.1-8.244 0-1.512 1.48-2.628 4.5-2.628 1.87 0 3.78.396 5.51 1.512l1.48-2.736c-1.66-1.08-4.47-1.728-6.95-1.728-4.9 0-7.96 2.304-7.96 5.724 0 7.596 12.06 3.888 12.06 8.172 0 1.62-1.33 2.592-4.53 2.592-2.49 0-5.08-.828-6.7-1.98l-1.44 2.736c1.58 1.26 4.72 2.232 7.88 2.232Zm22.29-19.476c-2.81 0-5.26 1.08-6.81 3.204v-3.024h-3.31v26.064h3.46v-9.864c1.58 2.052 3.96 3.096 6.66 3.096 5.58 0 9.64-3.888 9.64-9.756 0-5.832-4.06-9.72-9.64-9.72Zm-.29 16.452c-3.64 0-6.41-2.664-6.41-6.732 0-4.032 2.77-6.696 6.41-6.696 3.67 0 6.44 2.664 6.44 6.696 0 4.068-2.77 6.732-6.44 6.732Zm31.56-6.624c0-5.868-3.93-9.828-9.43-9.828-5.51 0-9.58 4.068-9.58 9.72 0 5.688 4.1 9.756 10.26 9.756 3.17 0 5.8-1.08 7.52-3.096l-1.9-2.232c-1.41 1.548-3.28 2.304-5.51 2.304-3.78 0-6.48-2.232-6.91-5.58h15.48c.03-.324.07-.756.07-1.044Zm-9.43-6.912c3.34 0 5.76 2.268 6.12 5.472h-12.24c.36-3.24 2.8-5.472 6.12-5.472Zm31.07 6.912c0-5.868-3.92-9.828-9.43-9.828s-9.57 4.068-9.57 9.72c0 5.688 4.1 9.756 10.26 9.756 3.16 0 5.79-1.08 7.52-3.096l-1.91-2.232c-1.4 1.548-3.27 2.304-5.51 2.304-3.78 0-6.48-2.232-6.91-5.58h15.48c.04-.324.07-.756.07-1.044Zm-9.43-6.912c3.35 0 5.76 2.268 6.12 5.472h-12.24c.36-3.24 2.81-5.472 6.12-5.472Zm28.38-10.368V445.8c-1.58-2.052-3.96-3.06-6.66-3.06-5.58 0-9.65 3.888-9.65 9.72 0 5.832 4.07 9.756 9.65 9.756 2.81 0 5.26-1.08 6.81-3.24V462h3.31v-26.712h-3.46Zm-6.37 23.904c-3.67 0-6.44-2.664-6.44-6.732s2.77-6.696 6.44-6.696c3.64 0 6.41 2.628 6.41 6.696s-2.77 6.732-6.41 6.732Zm32.19-16.452c-3.06 0-5.9.864-7.88 2.448l1.44 2.592c1.47-1.26 3.78-2.052 6.04-2.052 3.42 0 5.12 1.692 5.12 4.608v.684h-5.48c-5.68 0-7.66 2.52-7.66 5.58 0 3.312 2.73 5.616 7.05 5.616 2.99 0 5.11-1.008 6.27-2.736V462h3.27v-11.52c0-5.22-2.95-7.74-8.17-7.74Zm-.79 16.812c-2.63 0-4.21-1.188-4.21-3.096 0-1.62.97-2.952 4.39-2.952h5.33v2.664c-.87 2.196-2.92 3.384-5.51 3.384Zm25.15-16.812c-3.02 0-5.47 1.116-6.88 3.06v-2.88h-3.31V462h3.46v-9.828c0-4.14 2.37-6.336 6.05-6.336 3.27 0 5.14 1.836 5.14 5.58V462h3.46v-10.98c0-5.616-3.28-8.28-7.92-8.28Zm28.57-7.452V445.8c-1.58-2.052-3.96-3.06-6.66-3.06-5.58 0-9.65 3.888-9.65 9.72 0 5.832 4.07 9.756 9.65 9.756 2.81 0 5.26-1.08 6.8-3.24V462h3.32v-26.712h-3.46Zm-6.37 23.904c-3.67 0-6.45-2.664-6.45-6.732s2.78-6.696 6.45-6.696c3.63 0 6.41 2.628 6.41 6.696s-2.78 6.732-6.41 6.732ZM137.604 496.92v9.864c0 4.104-2.304 6.336-5.904 6.336-3.276 0-5.148-1.872-5.148-5.616V496.92h-3.456v10.98c0 5.616 3.276 8.316 8.208 8.316 2.7 0 5.076-1.116 6.48-3.096V516h3.276v-19.08h-3.456Zm19.755-.18c-2.808 0-5.256 1.08-6.804 3.204v-3.024h-3.312v26.064h3.456v-9.864c1.584 2.052 3.96 3.096 6.66 3.096 5.58 0 9.648-3.888 9.648-9.756 0-5.832-4.068-9.72-9.648-9.72Zm-.288 16.452c-3.636 0-6.408-2.664-6.408-6.732 0-4.032 2.772-6.696 6.408-6.696 3.672 0 6.444 2.664 6.444 6.696 0 4.068-2.772 6.732-6.444 6.732Zm23.963-.792c-.72.576-1.692.9-2.7.9-1.908 0-2.988-1.152-2.988-3.204v-10.332h5.472v-2.844h-5.472v-4.176h-3.456v4.176h-3.24v2.844h3.24v10.476c0 3.852 2.196 5.976 6.048 5.976 1.548 0 3.132-.432 4.176-1.332l-1.08-2.484Zm6.591-19.152c1.368 0 2.34-1.008 2.34-2.304 0-1.224-1.008-2.196-2.34-2.196-1.332 0-2.34 1.008-2.34 2.268 0 1.26 1.008 2.232 2.34 2.232ZM185.897 516h3.456v-19.08h-3.456V516Zm33.526-19.26c-3.24 0-5.904 1.368-7.344 3.528-1.26-2.376-3.708-3.528-6.624-3.528-2.88 0-5.22 1.08-6.588 3.024v-2.844h-3.312V516h3.456v-9.828c0-4.14 2.268-6.336 5.724-6.336 3.132 0 4.932 1.836 4.932 5.58V516h3.456v-9.828c0-4.14 2.268-6.336 5.724-6.336 3.132 0 4.932 1.836 4.932 5.58V516h3.456v-10.98c0-5.616-3.168-8.28-7.812-8.28Zm31.125 9.828c0-5.868-3.924-9.828-9.432-9.828-5.508 0-9.576 4.068-9.576 9.72 0 5.688 4.104 9.756 10.26 9.756 3.168 0 5.796-1.08 7.524-3.096l-1.908-2.232c-1.404 1.548-3.276 2.304-5.508 2.304-3.78 0-6.48-2.232-6.912-5.58h15.48c.036-.324.072-.756.072-1.044Zm-9.432-6.912c3.348 0 5.76 2.268 6.12 5.472h-12.24c.36-3.24 2.808-5.472 6.12-5.472Zm30.055-2.916c-3.06 0-5.904.864-7.884 2.448l1.44 2.592c1.476-1.26 3.78-2.052 6.048-2.052 3.42 0 5.112 1.692 5.112 4.608v.684h-5.472c-5.688 0-7.668 2.52-7.668 5.58 0 3.312 2.736 5.616 7.056 5.616 2.988 0 5.112-1.008 6.264-2.736V516h3.276v-11.52c0-5.22-2.952-7.74-8.172-7.74Zm-.792 16.812c-2.628 0-4.212-1.188-4.212-3.096 0-1.62.972-2.952 4.392-2.952h5.328v2.664c-.864 2.196-2.916 3.384-5.508 3.384Zm18.275-13.428v-3.204h-3.312V516h3.456v-9.504c0-4.176 2.304-6.444 6.012-6.444.252 0 .504 0 .792.036v-3.348c-3.348 0-5.724 1.152-6.948 3.384Zm27.88 6.444c0-5.868-3.924-9.828-9.432-9.828-5.508 0-9.576 4.068-9.576 9.72 0 5.688 4.104 9.756 10.26 9.756 3.168 0 5.796-1.08 7.524-3.096l-1.908-2.232c-1.404 1.548-3.276 2.304-5.508 2.304-3.78 0-6.48-2.232-6.912-5.58h15.48c.036-.324.072-.756.072-1.044Zm-9.432-6.912c3.348 0 5.76 2.268 6.12 5.472h-12.24c.36-3.24 2.808-5.472 6.12-5.472Zm37.435-2.736v9.864c0 4.104-2.304 6.336-5.904 6.336-3.276 0-5.148-1.872-5.148-5.616V496.92h-3.456v10.98c0 5.616 3.276 8.316 8.208 8.316 2.7 0 5.076-1.116 6.48-3.096V516h3.276v-19.08h-3.456Zm19.827-.18c-3.024 0-5.472 1.116-6.876 3.06v-2.88h-3.312V516h3.456v-9.828c0-4.14 2.376-6.336 6.048-6.336 3.276 0 5.148 1.836 5.148 5.58V516h3.456v-10.98c0-5.616-3.276-8.28-7.92-8.28Zm37.788 0c-3.24 0-5.904 1.368-7.344 3.528-1.26-2.376-3.708-3.528-6.624-3.528-2.88 0-5.22 1.08-6.588 3.024v-2.844h-3.312V516h3.456v-9.828c0-4.14 2.268-6.336 5.724-6.336 3.132 0 4.932 1.836 4.932 5.58V516h3.456v-9.828c0-4.14 2.268-6.336 5.724-6.336 3.132 0 4.932 1.836 4.932 5.58V516h3.456v-10.98c0-5.616-3.168-8.28-7.812-8.28Zm20.723 0c-3.06 0-5.904.864-7.884 2.448l1.44 2.592c1.476-1.26 3.78-2.052 6.048-2.052 3.42 0 5.112 1.692 5.112 4.608v.684h-5.472c-5.688 0-7.668 2.52-7.668 5.58 0 3.312 2.736 5.616 7.056 5.616 2.988 0 5.112-1.008 6.264-2.736V516h3.276v-11.52c0-5.22-2.952-7.74-8.172-7.74Zm-.792 16.812c-2.628 0-4.212-1.188-4.212-3.096 0-1.62.972-2.952 4.392-2.952h5.328v2.664c-.864 2.196-2.916 3.384-5.508 3.384Zm24.612-1.152c-.72.576-1.692.9-2.7.9-1.908 0-2.988-1.152-2.988-3.204v-10.332h5.472v-2.844h-5.472v-4.176h-3.456v4.176h-3.24v2.844h3.24v10.476c0 3.852 2.196 5.976 6.048 5.976 1.548 0 3.132-.432 4.176-1.332l-1.08-2.484Zm12.545 3.816c3.42 0 6.264-1.44 7.776-4.104l-2.628-1.656c-1.224 1.872-3.096 2.736-5.184 2.736-3.744 0-6.552-2.592-6.552-6.732 0-4.068 2.808-6.696 6.552-6.696 2.088 0 3.96.864 5.184 2.736l2.628-1.692c-1.512-2.664-4.356-4.068-7.776-4.068-5.868 0-10.08 4.032-10.08 9.72 0 5.688 4.212 9.756 10.08 9.756Zm21.797-19.476c-2.916 0-5.292 1.044-6.732 2.88v-10.332h-3.456V516h3.456v-9.828c0-4.14 2.376-6.336 6.048-6.336 3.276 0 5.148 1.836 5.148 5.58V516h3.456v-10.98c0-5.616-3.276-8.28-7.92-8.28Zm31.269 9.828c0-5.868-3.924-9.828-9.432-9.828-5.508 0-9.576 4.068-9.576 9.72 0 5.688 4.104 9.756 10.26 9.756 3.168 0 5.796-1.08 7.524-3.096l-1.908-2.232c-1.404 1.548-3.276 2.304-5.508 2.304-3.78 0-6.48-2.232-6.912-5.58h15.48c.036-.324.072-.756.072-1.044Zm-9.432-6.912c3.348 0 5.76 2.268 6.12 5.472h-12.24c.36-3.24 2.808-5.472 6.12-5.472Zm28.379-10.368V499.8c-1.584-2.052-3.96-3.06-6.66-3.06-5.58 0-9.648 3.888-9.648 9.72 0 5.832 4.068 9.756 9.648 9.756 2.808 0 5.256-1.08 6.804-3.24V516h3.312v-26.712h-3.456Zm-6.372 23.904c-3.672 0-6.444-2.664-6.444-6.732s2.772-6.696 6.444-6.696c3.636 0 6.408 2.628 6.408 6.696s-2.772 6.732-6.408 6.732Zm16.835-1.908c-1.368 0-2.412 1.008-2.412 2.448 0 1.08.612 1.908 1.512 2.232l-1.332 5.364h2.268l1.692-5.004c.468-1.332.612-1.872.612-2.592 0-1.404-.972-2.448-2.34-2.448Zm23.116-14.544c-3.06 0-5.904.864-7.884 2.448l1.44 2.592c1.476-1.26 3.78-2.052 6.048-2.052 3.42 0 5.112 1.692 5.112 4.608v.684h-5.472c-5.688 0-7.668 2.52-7.668 5.58 0 3.312 2.736 5.616 7.056 5.616 2.988 0 5.112-1.008 6.264-2.736V516h3.276v-11.52c0-5.22-2.952-7.74-8.172-7.74Zm-.792 16.812c-2.628 0-4.212-1.188-4.212-3.096 0-1.62.972-2.952 4.392-2.952h5.328v2.664c-.864 2.196-2.916 3.384-5.508 3.384Zm25.152-16.812c-3.024 0-5.472 1.116-6.876 3.06v-2.88h-3.312V516h3.456v-9.828c0-4.14 2.376-6.336 6.048-6.336 3.276 0 5.148 1.836 5.148 5.58V516h3.456v-10.98c0-5.616-3.276-8.28-7.92-8.28Zm28.569-7.452V499.8c-1.584-2.052-3.96-3.06-6.66-3.06-5.58 0-9.648 3.888-9.648 9.72 0 5.832 4.068 9.756 9.648 9.756 2.808 0 5.256-1.08 6.804-3.24V516h3.312v-26.712h-3.456Zm-6.372 23.904c-3.672 0-6.444-2.664-6.444-6.732s2.772-6.696 6.444-6.696c3.636 0 6.408 2.628 6.408 6.696s-2.772 6.732-6.408 6.732Zm34.891-.792c-.72.576-1.692.9-2.7.9-1.908 0-2.988-1.152-2.988-3.204v-10.332h5.472v-2.844h-5.472v-4.176h-3.456v4.176h-3.24v2.844h3.24v10.476c0 3.852 2.196 5.976 6.048 5.976 1.548 0 3.132-.432 4.176-1.332l-1.08-2.484Zm15.051-15.66c-2.916 0-5.292 1.044-6.732 2.88v-10.332h-3.456V516h3.456v-9.828c0-4.14 2.376-6.336 6.048-6.336 3.276 0 5.148 1.836 5.148 5.58V516h3.456v-10.98c0-5.616-3.276-8.28-7.92-8.28Zm31.269 9.828c0-5.868-3.924-9.828-9.432-9.828-5.508 0-9.576 4.068-9.576 9.72 0 5.688 4.104 9.756 10.26 9.756 3.168 0 5.796-1.08 7.524-3.096l-1.908-2.232c-1.404 1.548-3.276 2.304-5.508 2.304-3.78 0-6.48-2.232-6.912-5.58h15.48c.036-.324.072-.756.072-1.044Zm-9.432-6.912c3.348 0 5.76 2.268 6.12 5.472h-12.24c.36-3.24 2.808-5.472 6.12-5.472Zm15.563-6.408c1.368 0 2.34-1.008 2.34-2.304 0-1.224-1.008-2.196-2.34-2.196-1.332 0-2.34 1.008-2.34 2.268 0 1.26 1.008 2.232 2.34 2.232ZM697.003 516h3.456v-19.08h-3.456V516Zm12.971-15.876v-3.204h-3.312V516h3.456v-9.504c0-4.176 2.304-6.444 6.012-6.444.252 0 .504 0 .792.036v-3.348c-3.348 0-5.724 1.152-6.948 3.384Zm28.645 16.092c3.42 0 6.264-1.44 7.776-4.104l-2.628-1.656c-1.224 1.872-3.096 2.736-5.184 2.736-3.744 0-6.552-2.592-6.552-6.732 0-4.068 2.808-6.696 6.552-6.696 2.088 0 3.96.864 5.184 2.736l2.628-1.692c-1.512-2.664-4.356-4.068-7.776-4.068-5.868 0-10.08 4.032-10.08 9.72 0 5.688 4.212 9.756 10.08 9.756Zm26.183-19.296v9.864c0 4.104-2.304 6.336-5.904 6.336-3.276 0-5.148-1.872-5.148-5.616V496.92h-3.456v10.98c0 5.616 3.276 8.316 8.208 8.316 2.7 0 5.076-1.116 6.48-3.096V516h3.276v-19.08h-3.456Zm15.111 19.296c5.076 0 8.244-2.196 8.244-5.652 0-7.416-12.096-3.744-12.096-8.244 0-1.512 1.476-2.628 4.5-2.628 1.872 0 3.78.396 5.508 1.512l1.476-2.736c-1.656-1.08-4.464-1.728-6.948-1.728-4.896 0-7.956 2.304-7.956 5.724 0 7.596 12.06 3.888 12.06 8.172 0 1.62-1.332 2.592-4.536 2.592-2.484 0-5.076-.828-6.696-1.98l-1.44 2.736c1.584 1.26 4.716 2.232 7.884 2.232Zm21.815-3.816c-.72.576-1.692.9-2.7.9-1.908 0-2.988-1.152-2.988-3.204v-10.332h5.472v-2.844h-5.472v-4.176h-3.456v4.176h-3.24v2.844h3.24v10.476c0 3.852 2.196 5.976 6.048 5.976 1.548 0 3.132-.432 4.176-1.332l-1.08-2.484Zm12.402 3.816c5.724 0 9.9-4.068 9.9-9.756 0-5.688-4.176-9.72-9.9-9.72s-9.936 4.032-9.936 9.72c0 5.688 4.212 9.756 9.936 9.756Zm0-3.024c-3.672 0-6.444-2.664-6.444-6.732s2.772-6.696 6.444-6.696 6.408 2.628 6.408 6.696-2.736 6.732-6.408 6.732Zm38.151-16.452c-3.24 0-5.904 1.368-7.344 3.528-1.26-2.376-3.708-3.528-6.624-3.528-2.88 0-5.22 1.08-6.588 3.024v-2.844h-3.312V516h3.456v-9.828c0-4.14 2.268-6.336 5.724-6.336 3.132 0 4.932 1.836 4.932 5.58V516h3.456v-9.828c0-4.14 2.268-6.336 5.724-6.336 3.132 0 4.932 1.836 4.932 5.58V516h3.456v-10.98c0-5.616-3.168-8.28-7.812-8.28Zm31.125 9.828c0-5.868-3.924-9.828-9.432-9.828-5.508 0-9.576 4.068-9.576 9.72 0 5.688 4.104 9.756 10.26 9.756 3.168 0 5.796-1.08 7.524-3.096l-1.908-2.232c-1.404 1.548-3.276 2.304-5.508 2.304-3.78 0-6.48-2.232-6.912-5.58h15.48c.036-.324.072-.756.072-1.044Zm-9.432-6.912c3.348 0 5.76 2.268 6.12 5.472h-12.24c.36-3.24 2.808-5.472 6.12-5.472Zm17.147.468v-3.204h-3.312V516h3.456v-9.504c0-4.176 2.304-6.444 6.012-6.444.252 0 .504 0 .792.036v-3.348c-3.348 0-5.724 1.152-6.948 3.384Zm25.801 16.092c5.076 0 8.244-2.196 8.244-5.652 0-7.416-12.096-3.744-12.096-8.244 0-1.512 1.476-2.628 4.5-2.628 1.872 0 3.78.396 5.508 1.512l1.476-2.736c-1.656-1.08-4.464-1.728-6.948-1.728-4.896 0-7.956 2.304-7.956 5.724 0 7.596 12.06 3.888 12.06 8.172 0 1.62-1.332 2.592-4.536 2.592-2.484 0-5.076-.828-6.696-1.98l-1.44 2.736c1.584 1.26 4.716 2.232 7.884 2.232Zm26.495-19.296v9.864c0 4.104-2.304 6.336-5.904 6.336-3.276 0-5.148-1.872-5.148-5.616V496.92h-3.456v10.98c0 5.616 3.276 8.316 8.208 8.316 2.7 0 5.076-1.116 6.48-3.096V516h3.276v-19.08h-3.456Zm19.756-.18c-2.808 0-5.256 1.08-6.804 3.204v-3.024h-3.312v26.064h3.456v-9.864c1.584 2.052 3.96 3.096 6.66 3.096 5.58 0 9.648-3.888 9.648-9.756 0-5.832-4.068-9.72-9.648-9.72Zm-.288 16.452c-3.636 0-6.408-2.664-6.408-6.732 0-4.032 2.772-6.696 6.408-6.696 3.672 0 6.444 2.664 6.444 6.696 0 4.068-2.772 6.732-6.444 6.732Zm24.431-16.452c-2.808 0-5.256 1.08-6.804 3.204v-3.024H977.2v26.064h3.456v-9.864c1.584 2.052 3.96 3.096 6.66 3.096 5.58 0 9.648-3.888 9.648-9.756 0-5.832-4.068-9.72-9.648-9.72Zm-.288 16.452c-3.636 0-6.408-2.664-6.408-6.732 0-4.032 2.772-6.696 6.408-6.696 3.672 0 6.444 2.664 6.444 6.696 0 4.068-2.772 6.732-6.444 6.732Zm22.482 3.024c5.73 0 9.9-4.068 9.9-9.756 0-5.688-4.17-9.72-9.9-9.72-5.72 0-9.931 4.032-9.931 9.72 0 5.688 4.211 9.756 9.931 9.756Zm0-3.024c-3.67 0-6.44-2.664-6.44-6.732s2.77-6.696 6.44-6.696c3.68 0 6.41 2.628 6.41 6.696s-2.73 6.732-6.41 6.732Zm17.6-13.068v-3.204h-3.31V516h3.45v-9.504c0-4.176 2.31-6.444 6.02-6.444.25 0 .5 0 .79.036v-3.348c-3.35 0-5.73 1.152-6.95 3.384Zm21.23 12.276c-.72.576-1.69.9-2.7.9-1.9 0-2.98-1.152-2.98-3.204v-10.332h5.47v-2.844h-5.47v-4.176h-3.46v4.176h-3.24v2.844h3.24v10.476c0 3.852 2.2 5.976 6.05 5.976 1.55 0 3.13-.432 4.17-1.332l-1.08-2.484Zm15.87-19.152c1.36 0 2.34-1.008 2.34-2.304 0-1.224-1.01-2.196-2.34-2.196-1.34 0-2.34 1.008-2.34 2.268 0 1.26 1 2.232 2.34 2.232ZM1062.48 516h3.45v-19.08h-3.45V516Zm15.13.216c5.07 0 8.24-2.196 8.24-5.652 0-7.416-12.09-3.744-12.09-8.244 0-1.512 1.47-2.628 4.5-2.628 1.87 0 3.78.396 5.5 1.512l1.48-2.736c-1.66-1.08-4.46-1.728-6.95-1.728-4.89 0-7.95 2.304-7.95 5.724 0 7.596 12.06 3.888 12.06 8.172 0 1.62-1.34 2.592-4.54 2.592-2.48 0-5.08-.828-6.7-1.98l-1.44 2.736c1.59 1.26 4.72 2.232 7.89 2.232Zm31.09-3.816c-.72.576-1.7.9-2.7.9-1.91 0-2.99-1.152-2.99-3.204v-10.332h5.47v-2.844h-5.47v-4.176h-3.46v4.176h-3.24v2.844h3.24v10.476c0 3.852 2.2 5.976 6.05 5.976 1.55 0 3.13-.432 4.18-1.332l-1.08-2.484Zm15.05-15.66c-2.92 0-5.3 1.044-6.74 2.88v-10.332h-3.45V516h3.45v-9.828c0-4.14 2.38-6.336 6.05-6.336 3.28 0 5.15 1.836 5.15 5.58V516h3.46v-10.98c0-5.616-3.28-8.28-7.92-8.28Zm31.26 9.828c0-5.868-3.92-9.828-9.43-9.828s-9.57 4.068-9.57 9.72c0 5.688 4.1 9.756 10.26 9.756 3.16 0 5.79-1.08 7.52-3.096l-1.91-2.232c-1.4 1.548-3.27 2.304-5.51 2.304-3.78 0-6.48-2.232-6.91-5.58h15.48c.04-.324.07-.756.07-1.044Zm-9.43-6.912c3.35 0 5.76 2.268 6.12 5.472h-12.24c.36-3.24 2.81-5.472 6.12-5.472ZM133.392 550.74c-2.7 0-5.076 1.008-6.66 3.06v-10.512h-3.456V570h3.312v-3.024c1.548 2.16 3.996 3.24 6.804 3.24 5.58 0 9.648-3.924 9.648-9.756 0-5.832-4.068-9.72-9.648-9.72Zm-.288 16.452c-3.636 0-6.408-2.664-6.408-6.732s2.772-6.696 6.408-6.696c3.672 0 6.444 2.628 6.444 6.696s-2.772 6.732-6.444 6.732Zm31.559-6.624c0-5.868-3.924-9.828-9.432-9.828-5.508 0-9.576 4.068-9.576 9.72 0 5.688 4.104 9.756 10.26 9.756 3.168 0 5.796-1.08 7.524-3.096l-1.908-2.232c-1.404 1.548-3.276 2.304-5.508 2.304-3.78 0-6.48-2.232-6.912-5.58h15.48c.036-.324.072-.756.072-1.044Zm-9.432-6.912c3.348 0 5.76 2.268 6.12 5.472h-12.24c.36-3.24 2.808-5.472 6.12-5.472Zm19.307 16.56c5.076 0 8.244-2.196 8.244-5.652 0-7.416-12.096-3.744-12.096-8.244 0-1.512 1.476-2.628 4.5-2.628 1.872 0 3.78.396 5.508 1.512l1.476-2.736c-1.656-1.08-4.464-1.728-6.948-1.728-4.896 0-7.956 2.304-7.956 5.724 0 7.596 12.06 3.888 12.06 8.172 0 1.62-1.332 2.592-4.536 2.592-2.484 0-5.076-.828-6.696-1.98l-1.44 2.736c1.584 1.26 4.716 2.232 7.884 2.232Zm21.815-3.816c-.72.576-1.692.9-2.7.9-1.908 0-2.988-1.152-2.988-3.204v-10.332h5.472v-2.844h-5.472v-4.176h-3.456v4.176h-3.24v2.844h3.24v10.476c0 3.852 2.196 5.976 6.048 5.976 1.548 0 3.132-.432 4.176-1.332l-1.08-2.484Zm14.638 3.6h3.6v-25.2h-3.6V570Zm9.453-15.48H223l.252-9.72h-3.024l.216 9.72Zm21.455-3.6-6.696 15.3-6.552-15.3h-3.6l8.352 19.08h3.528l8.352-19.08h-3.384Zm22.93 9.648c0-5.868-3.924-9.828-9.432-9.828-5.508 0-9.576 4.068-9.576 9.72 0 5.688 4.104 9.756 10.26 9.756 3.168 0 5.796-1.08 7.524-3.096l-1.908-2.232c-1.404 1.548-3.276 2.304-5.508 2.304-3.78 0-6.48-2.232-6.912-5.58h15.48c.036-.324.072-.756.072-1.044Zm-9.432-6.912c3.348 0 5.76 2.268 6.12 5.472h-12.24c.36-3.24 2.808-5.472 6.12-5.472Zm40.35 6.912c0-5.868-3.924-9.828-9.432-9.828-5.508 0-9.576 4.068-9.576 9.72 0 5.688 4.104 9.756 10.26 9.756 3.168 0 5.796-1.08 7.524-3.096l-1.908-2.232c-1.404 1.548-3.276 2.304-5.508 2.304-3.78 0-6.48-2.232-6.912-5.58h15.48c.036-.324.072-.756.072-1.044Zm-9.432-6.912c3.348 0 5.76 2.268 6.12 5.472h-12.24c.36-3.24 2.808-5.472 6.12-5.472Zm26.984-2.736-6.696 15.3-6.552-15.3h-3.6l8.352 19.08h3.528l8.352-19.08h-3.384Zm22.93 9.648c0-5.868-3.924-9.828-9.432-9.828-5.508 0-9.576 4.068-9.576 9.72 0 5.688 4.104 9.756 10.26 9.756 3.168 0 5.796-1.08 7.524-3.096l-1.908-2.232c-1.404 1.548-3.276 2.304-5.508 2.304-3.78 0-6.48-2.232-6.912-5.58h15.48c.036-.324.072-.756.072-1.044Zm-9.432-6.912c3.348 0 5.76 2.268 6.12 5.472h-12.24c.36-3.24 2.808-5.472 6.12-5.472Zm17.147.468v-3.204h-3.312V570h3.456v-9.504c0-4.176 2.304-6.444 6.012-6.444.252 0 .504 0 .792.036v-3.348c-3.348 0-5.724 1.152-6.948 3.384Zm37.573 6.444c0-5.868-3.924-9.828-9.432-9.828-5.508 0-9.576 4.068-9.576 9.72 0 5.688 4.104 9.756 10.26 9.756 3.168 0 5.796-1.08 7.524-3.096l-1.908-2.232c-1.404 1.548-3.276 2.304-5.508 2.304-3.78 0-6.48-2.232-6.912-5.58h15.48c.036-.324.072-.756.072-1.044Zm-9.432-6.912c3.348 0 5.76 2.268 6.12 5.472h-12.24c.36-3.24 2.808-5.472 6.12-5.472Zm24.023-2.916c-3.024 0-5.472 1.116-6.876 3.06v-2.88h-3.312V570h3.456v-9.828c0-4.14 2.376-6.336 6.048-6.336 3.276 0 5.148 1.836 5.148 5.58V570h3.456v-10.98c0-5.616-3.276-8.28-7.92-8.28Zm22.342 19.476c3.42 0 6.264-1.44 7.776-4.104l-2.628-1.656c-1.224 1.872-3.096 2.736-5.184 2.736-3.744 0-6.552-2.592-6.552-6.732 0-4.068 2.808-6.696 6.552-6.696 2.088 0 3.96.864 5.184 2.736l2.628-1.692c-1.512-2.664-4.356-4.068-7.776-4.068-5.868 0-10.08 4.032-10.08 9.72 0 5.688 4.212 9.756 10.08 9.756Zm19.745 0c5.724 0 9.9-4.068 9.9-9.756 0-5.688-4.176-9.72-9.9-9.72s-9.936 4.032-9.936 9.72c0 5.688 4.212 9.756 9.936 9.756Zm0-3.024c-3.672 0-6.444-2.664-6.444-6.732s2.772-6.696 6.444-6.696 6.408 2.628 6.408 6.696-2.736 6.732-6.408 6.732Zm28.612-16.272v9.864c0 4.104-2.304 6.336-5.904 6.336-3.276 0-5.148-1.872-5.148-5.616V550.92h-3.456v10.98c0 5.616 3.276 8.316 8.208 8.316 2.7 0 5.076-1.116 6.48-3.096V570h3.276v-19.08h-3.456Zm19.827-.18c-3.024 0-5.472 1.116-6.876 3.06v-2.88h-3.312V570h3.456v-9.828c0-4.14 2.376-6.336 6.048-6.336 3.276 0 5.148 1.836 5.148 5.58V570h3.456v-10.98c0-5.616-3.276-8.28-7.92-8.28Zm23.568 15.66c-.72.576-1.692.9-2.7.9-1.908 0-2.988-1.152-2.988-3.204v-10.332h5.472v-2.844h-5.472v-4.176h-3.456v4.176h-3.24v2.844h3.24v10.476c0 3.852 2.196 5.976 6.048 5.976 1.548 0 3.132-.432 4.176-1.332l-1.08-2.484Zm21.473-5.832c0-5.868-3.924-9.828-9.432-9.828-5.508 0-9.576 4.068-9.576 9.72 0 5.688 4.104 9.756 10.26 9.756 3.168 0 5.796-1.08 7.524-3.096l-1.908-2.232c-1.404 1.548-3.276 2.304-5.508 2.304-3.78 0-6.48-2.232-6.912-5.58h15.48c.036-.324.072-.756.072-1.044Zm-9.432-6.912c3.348 0 5.76 2.268 6.12 5.472h-12.24c.36-3.24 2.808-5.472 6.12-5.472Zm17.147.468v-3.204h-3.312V570h3.456v-9.504c0-4.176 2.304-6.444 6.012-6.444.252 0 .504 0 .792.036v-3.348c-3.348 0-5.724 1.152-6.948 3.384Zm27.88 6.444c0-5.868-3.924-9.828-9.432-9.828-5.508 0-9.576 4.068-9.576 9.72 0 5.688 4.104 9.756 10.26 9.756 3.168 0 5.796-1.08 7.524-3.096l-1.908-2.232c-1.404 1.548-3.276 2.304-5.508 2.304-3.78 0-6.48-2.232-6.912-5.58h15.48c.036-.324.072-.756.072-1.044Zm-9.432-6.912c3.348 0 5.76 2.268 6.12 5.472h-12.24c.36-3.24 2.808-5.472 6.12-5.472Zm28.379-10.368V553.8c-1.584-2.052-3.96-3.06-6.66-3.06-5.58 0-9.648 3.888-9.648 9.72 0 5.832 4.068 9.756 9.648 9.756 2.808 0 5.256-1.08 6.804-3.24V570h3.312v-26.712h-3.456Zm-6.372 23.904c-3.672 0-6.444-2.664-6.444-6.732s2.772-6.696 6.444-6.696c3.636 0 6.408 2.628 6.408 6.696s-2.772 6.732-6.408 6.732Zm16.799 3.024c1.296 0 2.376-1.044 2.376-2.484s-1.08-2.448-2.376-2.448c-1.332 0-2.448 1.008-2.448 2.448s1.116 2.484 2.448 2.484Zm21.712-.216h3.564v-22.068h8.64V544.8h-20.844v3.132h8.64V570Zm25.413-19.26c-2.916 0-5.292 1.044-6.732 2.88v-10.332h-3.456V570h3.456v-9.828c0-4.14 2.376-6.336 6.048-6.336 3.276 0 5.148 1.836 5.148 5.58V570h3.456v-10.98c0-5.616-3.276-8.28-7.92-8.28Zm31.269 9.828c0-5.868-3.924-9.828-9.432-9.828-5.508 0-9.576 4.068-9.576 9.72 0 5.688 4.104 9.756 10.26 9.756 3.168 0 5.796-1.08 7.524-3.096l-1.908-2.232c-1.404 1.548-3.276 2.304-5.508 2.304-3.78 0-6.48-2.232-6.912-5.58h15.48c.036-.324.072-.756.072-1.044Zm-9.432-6.912c3.348 0 5.76 2.268 6.12 5.472h-12.24c.36-3.24 2.808-5.472 6.12-5.472Zm37.435-2.736v9.864c0 4.104-2.304 6.336-5.904 6.336-3.276 0-5.148-1.872-5.148-5.616V550.92h-3.456v10.98c0 5.616 3.276 8.316 8.208 8.316 2.7 0 5.076-1.116 6.48-3.096V570h3.276v-19.08h-3.456Zm15.112 19.296c5.076 0 8.244-2.196 8.244-5.652 0-7.416-12.096-3.744-12.096-8.244 0-1.512 1.476-2.628 4.5-2.628 1.872 0 3.78.396 5.508 1.512l1.476-2.736c-1.656-1.08-4.464-1.728-6.948-1.728-4.896 0-7.956 2.304-7.956 5.724 0 7.596 12.06 3.888 12.06 8.172 0 1.62-1.332 2.592-4.536 2.592-2.484 0-5.076-.828-6.696-1.98l-1.44 2.736c1.584 1.26 4.716 2.232 7.884 2.232Zm29.411-9.648c0-5.868-3.924-9.828-9.432-9.828-5.508 0-9.576 4.068-9.576 9.72 0 5.688 4.104 9.756 10.26 9.756 3.168 0 5.796-1.08 7.524-3.096l-1.908-2.232c-1.404 1.548-3.276 2.304-5.508 2.304-3.78 0-6.48-2.232-6.912-5.58h15.48c.036-.324.072-.756.072-1.044Zm-9.432-6.912c3.348 0 5.76 2.268 6.12 5.472h-12.24c.36-3.24 2.808-5.472 6.12-5.472Zm17.147.468v-3.204h-3.312V570h3.456v-9.504c0-4.176 2.304-6.444 6.012-6.444.252 0 .504 0 .792.036v-3.348c-3.348 0-5.724 1.152-6.948 3.384Zm22.057-6.876c1.368 0 2.34-1.008 2.34-2.304 0-1.224-1.008-2.196-2.34-2.196-1.332 0-2.34 1.008-2.34 2.268 0 1.26 1.008 2.232 2.34 2.232ZM775.608 570h3.456v-19.08h-3.456V570Zm19.847-19.26c-3.024 0-5.472 1.116-6.876 3.06v-2.88h-3.312V570h3.456v-9.828c0-4.14 2.376-6.336 6.048-6.336 3.276 0 5.148 1.836 5.148 5.58V570h3.456v-10.98c0-5.616-3.276-8.28-7.92-8.28Zm23.568 15.66c-.72.576-1.692.9-2.7.9-1.908 0-2.988-1.152-2.988-3.204v-10.332h5.472v-2.844h-5.472v-4.176h-3.456v4.176h-3.24v2.844h3.24v10.476c0 3.852 2.196 5.976 6.048 5.976 1.548 0 3.132-.432 4.176-1.332l-1.08-2.484Zm21.473-5.832c0-5.868-3.924-9.828-9.432-9.828-5.508 0-9.576 4.068-9.576 9.72 0 5.688 4.104 9.756 10.26 9.756 3.168 0 5.796-1.08 7.524-3.096l-1.908-2.232c-1.404 1.548-3.276 2.304-5.508 2.304-3.78 0-6.48-2.232-6.912-5.58h15.48c.036-.324.072-.756.072-1.044Zm-9.432-6.912c3.348 0 5.76 2.268 6.12 5.472h-12.24c.36-3.24 2.808-5.472 6.12-5.472Zm17.147.468v-3.204h-3.312V570h3.456v-9.504c0-4.176 2.304-6.444 6.012-6.444.252 0 .504 0 .792.036v-3.348c-3.348 0-5.724 1.152-6.948 3.384Zm18.042-8.208c1.008 0 1.944.36 2.664.9l1.044-2.628c-.972-.756-2.412-1.116-3.888-1.116-4.068 0-6.3 2.448-6.3 6.156v1.692h-3.24v2.844h3.24V570h3.456v-16.236h5.472v-2.844h-5.544v-1.656c0-2.196 1.044-3.348 3.096-3.348Zm11.908 4.824c-3.06 0-5.904.864-7.884 2.448l1.44 2.592c1.476-1.26 3.78-2.052 6.048-2.052 3.42 0 5.112 1.692 5.112 4.608v.684h-5.472c-5.688 0-7.668 2.52-7.668 5.58 0 3.312 2.736 5.616 7.056 5.616 2.988 0 5.112-1.008 6.264-2.736V570h3.276v-11.52c0-5.22-2.952-7.74-8.172-7.74Zm-.792 16.812c-2.628 0-4.212-1.188-4.212-3.096 0-1.62.972-2.952 4.392-2.952h5.328v2.664c-.864 2.196-2.916 3.384-5.508 3.384Zm23.385 2.664c3.42 0 6.264-1.44 7.776-4.104l-2.628-1.656c-1.224 1.872-3.096 2.736-5.184 2.736-3.744 0-6.552-2.592-6.552-6.732 0-4.068 2.808-6.696 6.552-6.696 2.088 0 3.96.864 5.184 2.736l2.628-1.692c-1.512-2.664-4.356-4.068-7.776-4.068-5.868 0-10.08 4.032-10.08 9.72 0 5.688 4.212 9.756 10.08 9.756Zm28.817-9.648c0-5.868-3.924-9.828-9.432-9.828-5.508 0-9.576 4.068-9.576 9.72 0 5.688 4.104 9.756 10.26 9.756 3.168 0 5.796-1.08 7.524-3.096l-1.908-2.232c-1.404 1.548-3.276 2.304-5.508 2.304-3.78 0-6.48-2.232-6.912-5.58h15.48c.036-.324.072-.756.072-1.044Zm-9.432-6.912c3.348 0 5.76 2.268 6.12 5.472h-12.24c.36-3.24 2.808-5.472 6.12-5.472Zm24.835-6.408c1.368 0 2.34-1.008 2.34-2.304 0-1.224-1.008-2.196-2.34-2.196-1.332 0-2.34 1.008-2.34 2.268 0 1.26 1.008 2.232 2.34 2.232ZM943.246 570h3.456v-19.08h-3.456V570Zm15.131.216c5.076 0 8.244-2.196 8.244-5.652 0-7.416-12.096-3.744-12.096-8.244 0-1.512 1.476-2.628 4.5-2.628 1.872 0 3.78.396 5.508 1.512l1.476-2.736c-1.656-1.08-4.464-1.728-6.948-1.728-4.896 0-7.956 2.304-7.956 5.724 0 7.596 12.06 3.888 12.06 8.172 0 1.62-1.332 2.592-4.536 2.592-2.484 0-5.076-.828-6.696-1.98l-1.44 2.736c1.584 1.26 4.716 2.232 7.884 2.232Zm38.683-9.648c0-5.868-3.924-9.828-9.432-9.828-5.508 0-9.576 4.068-9.576 9.72 0 5.688 4.104 9.756 10.26 9.756 3.168 0 5.796-1.08 7.524-3.096l-1.908-2.232c-1.404 1.548-3.276 2.304-5.508 2.304-3.78 0-6.48-2.232-6.912-5.58h15.48c.036-.324.072-.756.072-1.044Zm-9.432-6.912c3.348 0 5.76 2.268 6.12 5.472h-12.24c.36-3.24 2.808-5.472 6.12-5.472Zm20.252-2.916c-3.06 0-5.9.864-7.881 2.448l1.441 2.592c1.48-1.26 3.78-2.052 6.05-2.052 3.42 0 5.11 1.692 5.11 4.608v.684h-5.47c-5.69 0-7.671 2.52-7.671 5.58 0 3.312 2.741 5.616 7.061 5.616 2.98 0 5.11-1.008 6.26-2.736V570h3.28v-11.52c0-5.22-2.96-7.74-8.18-7.74Zm-.79 16.812c-2.63 0-4.21-1.188-4.21-3.096 0-1.62.97-2.952 4.39-2.952h5.33v2.664c-.86 2.196-2.92 3.384-5.51 3.384Zm20.44 2.664c5.07 0 8.24-2.196 8.24-5.652 0-7.416-12.09-3.744-12.09-8.244 0-1.512 1.47-2.628 4.5-2.628 1.87 0 3.78.396 5.5 1.512l1.48-2.736c-1.66-1.08-4.46-1.728-6.95-1.728-4.89 0-7.95 2.304-7.95 5.724 0 7.596 12.06 3.888 12.06 8.172 0 1.62-1.34 2.592-4.54 2.592-2.48 0-5.08-.828-6.7-1.98l-1.44 2.736c1.59 1.26 4.72 2.232 7.89 2.232Zm25.31-19.296-6.59 15.264-6.66-15.264h-3.6l8.43 19.044-.61 1.332c-.94 2.196-1.98 2.952-3.64 2.952-1.3 0-2.48-.504-3.42-1.404l-1.48 2.592c1.19 1.152 3.06 1.764 4.9 1.764 2.92 0 5.11-1.26 6.8-5.292l9.26-20.988h-3.39Zm25.14 15.48c-.72.576-1.7.9-2.7.9-1.91 0-2.99-1.152-2.99-3.204v-10.332h5.47v-2.844h-5.47v-4.176h-3.46v4.176h-3.24v2.844h3.24v10.476c0 3.852 2.2 5.976 6.05 5.976 1.55 0 3.13-.432 4.18-1.332l-1.08-2.484Zm12.4 3.816c5.72 0 9.9-4.068 9.9-9.756 0-5.688-4.18-9.72-9.9-9.72-5.73 0-9.94 4.032-9.94 9.72 0 5.688 4.21 9.756 9.94 9.756Zm0-3.024c-3.67 0-6.45-2.664-6.45-6.732s2.78-6.696 6.45-6.696c3.67 0 6.41 2.628 6.41 6.696s-2.74 6.732-6.41 6.732Zm37.88-16.272v9.864c0 4.104-2.3 6.336-5.9 6.336-3.28 0-5.15-1.872-5.15-5.616V550.92h-3.46v10.98c0 5.616 3.28 8.316 8.21 8.316 2.7 0 5.08-1.116 6.48-3.096V570h3.28v-19.08h-3.46Zm15.11 19.296c5.08 0 8.25-2.196 8.25-5.652 0-7.416-12.1-3.744-12.1-8.244 0-1.512 1.48-2.628 4.5-2.628 1.87 0 3.78.396 5.51 1.512l1.47-2.736c-1.65-1.08-4.46-1.728-6.94-1.728-4.9 0-7.96 2.304-7.96 5.724 0 7.596 12.06 3.888 12.06 8.172 0 1.62-1.33 2.592-4.54 2.592-2.48 0-5.07-.828-6.69-1.98l-1.44 2.736c1.58 1.26 4.71 2.232 7.88 2.232Zm29.41-9.648c0-5.868-3.92-9.828-9.43-9.828s-9.57 4.068-9.57 9.72c0 5.688 4.1 9.756 10.26 9.756 3.16 0 5.79-1.08 7.52-3.096l-1.91-2.232c-1.4 1.548-3.27 2.304-5.51 2.304-3.78 0-6.48-2.232-6.91-5.58h15.48c.04-.324.07-.756.07-1.044Zm-9.43-6.912c3.35 0 5.76 2.268 6.12 5.472h-12.24c.36-3.24 2.81-5.472 6.12-5.472ZM130.224 604.74c-3.06 0-5.904.864-7.884 2.448l1.44 2.592c1.476-1.26 3.78-2.052 6.048-2.052 3.42 0 5.112 1.692 5.112 4.608v.684h-5.472c-5.688 0-7.668 2.52-7.668 5.58 0 3.312 2.736 5.616 7.056 5.616 2.988 0 5.112-1.008 6.264-2.736V624h3.276v-11.52c0-5.22-2.952-7.74-8.172-7.74Zm-.792 16.812c-2.628 0-4.212-1.188-4.212-3.096 0-1.62.972-2.952 4.392-2.952h5.328v2.664c-.864 2.196-2.916 3.384-5.508 3.384Zm25.152-16.812c-3.024 0-5.472 1.116-6.876 3.06v-2.88h-3.312V624h3.456v-9.828c0-4.14 2.376-6.336 6.048-6.336 3.276 0 5.148 1.836 5.148 5.58V624h3.456v-10.98c0-5.616-3.276-8.28-7.92-8.28Zm28.569-7.452V607.8c-1.584-2.052-3.96-3.06-6.66-3.06-5.58 0-9.648 3.888-9.648 9.72 0 5.832 4.068 9.756 9.648 9.756 2.808 0 5.256-1.08 6.804-3.24V624h3.312v-26.712h-3.456Zm-6.372 23.904c-3.672 0-6.444-2.664-6.444-6.732s2.772-6.696 6.444-6.696c3.636 0 6.408 2.628 6.408 6.696s-2.772 6.732-6.408 6.732Zm33.415 3.024c5.724 0 9.9-4.068 9.9-9.756 0-5.688-4.176-9.72-9.9-9.72s-9.936 4.032-9.936 9.72c0 5.688 4.212 9.756 9.936 9.756Zm0-3.024c-3.672 0-6.444-2.664-6.444-6.732s2.772-6.696 6.444-6.696 6.408 2.628 6.408 6.696-2.736 6.732-6.408 6.732Zm21.268-21.276c1.008 0 1.944.36 2.664.9l1.044-2.628c-.972-.756-2.412-1.116-3.888-1.116-4.068 0-6.3 2.448-6.3 6.156v1.692h-3.24v2.844h3.24V624h3.456v-16.236h5.472v-2.844h-5.544v-1.656c0-2.196 1.044-3.348 3.096-3.348Zm12.295 0c1.008 0 1.944.36 2.664.9l1.044-2.628c-.972-.756-2.412-1.116-3.888-1.116-4.068 0-6.3 2.448-6.3 6.156v1.692h-3.24v2.844h3.24V624h3.456v-16.236h5.472v-2.844h-5.544v-1.656c0-2.196 1.044-3.348 3.096-3.348Zm22.274 14.652c0-5.868-3.924-9.828-9.432-9.828-5.508 0-9.576 4.068-9.576 9.72 0 5.688 4.104 9.756 10.26 9.756 3.168 0 5.796-1.08 7.524-3.096l-1.908-2.232c-1.404 1.548-3.276 2.304-5.508 2.304-3.78 0-6.48-2.232-6.912-5.58h15.48c.036-.324.072-.756.072-1.044Zm-9.432-6.912c3.348 0 5.76 2.268 6.12 5.472h-12.24c.36-3.24 2.808-5.472 6.12-5.472Zm17.147.468v-3.204h-3.312V624h3.456v-9.504c0-4.176 2.304-6.444 6.012-6.444.252 0 .504 0 .792.036v-3.348c-3.348 0-5.724 1.152-6.948 3.384Zm16.424 16.092c5.076 0 8.244-2.196 8.244-5.652 0-7.416-12.096-3.744-12.096-8.244 0-1.512 1.476-2.628 4.5-2.628 1.872 0 3.78.396 5.508 1.512l1.476-2.736c-1.656-1.08-4.464-1.728-6.948-1.728-4.896 0-7.956 2.304-7.956 5.724 0 7.596 12.06 3.888 12.06 8.172 0 1.62-1.332 2.592-4.536 2.592-2.484 0-5.076-.828-6.696-1.98l-1.44 2.736c1.584 1.26 4.716 2.232 7.884 2.232Zm28.387-19.476c-3.06 0-5.904.864-7.884 2.448l1.44 2.592c1.476-1.26 3.78-2.052 6.048-2.052 3.42 0 5.112 1.692 5.112 4.608v.684h-5.472c-5.688 0-7.668 2.52-7.668 5.58 0 3.312 2.736 5.616 7.056 5.616 2.988 0 5.112-1.008 6.264-2.736V624h3.276v-11.52c0-5.22-2.952-7.74-8.172-7.74Zm-.792 16.812c-2.628 0-4.212-1.188-4.212-3.096 0-1.62.972-2.952 4.392-2.952h5.328v2.664c-.864 2.196-2.916 3.384-5.508 3.384Zm37.736-16.632-6.696 15.3-6.552-15.3h-3.6l8.352 19.08h3.528l8.352-19.08h-3.384Zm12.564-.18c-3.06 0-5.904.864-7.884 2.448l1.44 2.592c1.476-1.26 3.78-2.052 6.048-2.052 3.42 0 5.112 1.692 5.112 4.608v.684h-5.472c-5.688 0-7.668 2.52-7.668 5.58 0 3.312 2.736 5.616 7.056 5.616 2.988 0 5.112-1.008 6.264-2.736V624h3.276v-11.52c0-5.22-2.952-7.74-8.172-7.74Zm-.792 16.812c-2.628 0-4.212-1.188-4.212-3.096 0-1.62.972-2.952 4.392-2.952h5.328v2.664c-.864 2.196-2.916 3.384-5.508 3.384Zm18.275-13.428v-3.204h-3.312V624h3.456v-9.504c0-4.176 2.304-6.444 6.012-6.444.252 0 .504 0 .792.036v-3.348c-3.348 0-5.724 1.152-6.948 3.384Zm12.54-6.876c1.368 0 2.34-1.008 2.34-2.304 0-1.224-1.008-2.196-2.34-2.196-1.332 0-2.34 1.008-2.34 2.268 0 1.26 1.008 2.232 2.34 2.232ZM396.362 624h3.456v-19.08h-3.456V624Zm26.903-9.432c0-5.868-3.924-9.828-9.432-9.828-5.508 0-9.576 4.068-9.576 9.72 0 5.688 4.104 9.756 10.26 9.756 3.168 0 5.796-1.08 7.524-3.096l-1.908-2.232c-1.404 1.548-3.276 2.304-5.508 2.304-3.78 0-6.48-2.232-6.912-5.58h15.48c.036-.324.072-.756.072-1.044Zm-9.432-6.912c3.348 0 5.76 2.268 6.12 5.472h-12.24c.36-3.24 2.808-5.472 6.12-5.472Zm23.483 12.744c-.72.576-1.692.9-2.7.9-1.908 0-2.988-1.152-2.988-3.204v-10.332h5.472v-2.844h-5.472v-4.176h-3.456v4.176h-3.24v2.844h3.24v10.476c0 3.852 2.196 5.976 6.048 5.976 1.548 0 3.132-.432 4.176-1.332l-1.08-2.484Zm18.01-15.48-6.588 15.264-6.66-15.264h-3.6l8.424 19.044-.612 1.332c-.936 2.196-1.98 2.952-3.636 2.952-1.296 0-2.484-.504-3.42-1.404l-1.476 2.592c1.188 1.152 3.06 1.764 4.896 1.764 2.916 0 5.112-1.26 6.804-5.292l9.252-20.988h-3.384Zm23.658 19.296c5.724 0 9.9-4.068 9.9-9.756 0-5.688-4.176-9.72-9.9-9.72s-9.936 4.032-9.936 9.72c0 5.688 4.212 9.756 9.936 9.756Zm0-3.024c-3.672 0-6.444-2.664-6.444-6.732s2.772-6.696 6.444-6.696 6.408 2.628 6.408 6.696-2.736 6.732-6.408 6.732Zm21.267-21.276c1.008 0 1.944.36 2.664.9l1.044-2.628c-.972-.756-2.412-1.116-3.888-1.116-4.068 0-6.3 2.448-6.3 6.156v1.692h-3.24v2.844h3.24V624h3.456v-16.236h5.472v-2.844h-5.544v-1.656c0-2.196 1.044-3.348 3.096-3.348Zm28.912 5.004v9.864c0 4.104-2.304 6.336-5.904 6.336-3.276 0-5.148-1.872-5.148-5.616V604.92h-3.456v10.98c0 5.616 3.276 8.316 8.208 8.316 2.7 0 5.076-1.116 6.48-3.096V624h3.276v-19.08h-3.456Zm15.111 19.296c5.076 0 8.244-2.196 8.244-5.652 0-7.416-12.096-3.744-12.096-8.244 0-1.512 1.476-2.628 4.5-2.628 1.872 0 3.78.396 5.508 1.512l1.476-2.736c-1.656-1.08-4.464-1.728-6.948-1.728-4.896 0-7.956 2.304-7.956 5.724 0 7.596 12.06 3.888 12.06 8.172 0 1.62-1.332 2.592-4.536 2.592-2.484 0-5.076-.828-6.696-1.98l-1.44 2.736c1.584 1.26 4.716 2.232 7.884 2.232Zm29.411-9.648c0-5.868-3.924-9.828-9.432-9.828-5.508 0-9.576 4.068-9.576 9.72 0 5.688 4.104 9.756 10.26 9.756 3.168 0 5.796-1.08 7.524-3.096l-1.908-2.232c-1.404 1.548-3.276 2.304-5.508 2.304-3.78 0-6.48-2.232-6.912-5.58h15.48c.036-.324.072-.756.072-1.044Zm-9.432-6.912c3.348 0 5.76 2.268 6.12 5.472h-12.24c.36-3.24 2.808-5.472 6.12-5.472Zm20.819-7.74c1.008 0 1.944.36 2.664.9l1.044-2.628c-.972-.756-2.412-1.116-3.888-1.116-4.068 0-6.3 2.448-6.3 6.156v1.692h-3.24v2.844h3.24V624h3.456v-16.236h5.472v-2.844h-5.544v-1.656c0-2.196 1.044-3.348 3.096-3.348Zm19.639 5.004v9.864c0 4.104-2.304 6.336-5.904 6.336-3.276 0-5.148-1.872-5.148-5.616V604.92h-3.456v10.98c0 5.616 3.276 8.316 8.208 8.316 2.7 0 5.076-1.116 6.48-3.096V624h3.276v-19.08h-3.456Zm9.64 19.08h3.456v-26.712h-3.456V624Zm25.914-24.084c1.008 0 1.944.36 2.664.9l1.044-2.628c-.972-.756-2.412-1.116-3.888-1.116-4.068 0-6.3 2.448-6.3 6.156v1.692h-3.24v2.844h3.24V624h3.456v-16.236h5.472v-2.844h-5.544v-1.656c0-2.196 1.044-3.348 3.096-3.348Zm22.274 14.652c0-5.868-3.924-9.828-9.432-9.828-5.508 0-9.576 4.068-9.576 9.72 0 5.688 4.104 9.756 10.26 9.756 3.168 0 5.796-1.08 7.524-3.096l-1.908-2.232c-1.404 1.548-3.276 2.304-5.508 2.304-3.78 0-6.48-2.232-6.912-5.58h15.48c.036-.324.072-.756.072-1.044Zm-9.432-6.912c3.348 0 5.76 2.268 6.12 5.472h-12.24c.36-3.24 2.808-5.472 6.12-5.472Zm20.256-2.916c-3.06 0-5.904.864-7.884 2.448l1.44 2.592c1.476-1.26 3.78-2.052 6.048-2.052 3.42 0 5.112 1.692 5.112 4.608v.684h-5.472c-5.688 0-7.668 2.52-7.668 5.58 0 3.312 2.736 5.616 7.056 5.616 2.988 0 5.112-1.008 6.264-2.736V624h3.276v-11.52c0-5.22-2.952-7.74-8.172-7.74Zm-.792 16.812c-2.628 0-4.212-1.188-4.212-3.096 0-1.62.972-2.952 4.392-2.952h5.328v2.664c-.864 2.196-2.916 3.384-5.508 3.384Zm24.612-1.152c-.72.576-1.692.9-2.7.9-1.908 0-2.988-1.152-2.988-3.204v-10.332h5.472v-2.844h-5.472v-4.176h-3.456v4.176h-3.24v2.844h3.24v10.476c0 3.852 2.196 5.976 6.048 5.976 1.548 0 3.132-.432 4.176-1.332l-1.08-2.484Zm19.19-15.48v9.864c0 4.104-2.304 6.336-5.904 6.336-3.276 0-5.148-1.872-5.148-5.616V604.92h-3.456v10.98c0 5.616 3.276 8.316 8.208 8.316 2.7 0 5.076-1.116 6.48-3.096V624h3.276v-19.08h-3.456Zm12.951 3.204v-3.204h-3.312V624h3.456v-9.504c0-4.176 2.304-6.444 6.012-6.444.252 0 .504 0 .792.036v-3.348c-3.348 0-5.724 1.152-6.948 3.384Zm27.88 6.444c0-5.868-3.924-9.828-9.432-9.828-5.508 0-9.576 4.068-9.576 9.72 0 5.688 4.104 9.756 10.26 9.756 3.168 0 5.796-1.08 7.524-3.096l-1.908-2.232c-1.404 1.548-3.276 2.304-5.508 2.304-3.78 0-6.48-2.232-6.912-5.58h15.48c.036-.324.072-.756.072-1.044Zm-9.432-6.912c3.348 0 5.76 2.268 6.12 5.472h-12.24c.36-3.24 2.808-5.472 6.12-5.472Zm19.307 16.56c5.076 0 8.244-2.196 8.244-5.652 0-7.416-12.096-3.744-12.096-8.244 0-1.512 1.476-2.628 4.5-2.628 1.872 0 3.78.396 5.508 1.512l1.476-2.736c-1.656-1.08-4.464-1.728-6.948-1.728-4.896 0-7.956 2.304-7.956 5.724 0 7.596 12.06 3.888 12.06 8.172 0 1.62-1.332 2.592-4.536 2.592-2.484 0-5.076-.828-6.696-1.98l-1.44 2.736c1.584 1.26 4.716 2.232 7.884 2.232Zm12.995 0c1.296 0 2.376-1.044 2.376-2.484s-1.08-2.448-2.376-2.448c-1.332 0-2.448 1.008-2.448 2.448s1.116 2.484 2.448 2.484Zm16.708-.216h3.6v-25.2h-3.6V624Zm29.705-19.26c-2.916 0-5.292 1.044-6.732 2.88v-10.332h-3.456V624h3.456v-9.828c0-4.14 2.376-6.336 6.048-6.336 3.276 0 5.148 1.836 5.148 5.58V624h3.456v-10.98c0-5.616-3.276-8.28-7.92-8.28Zm15.648-3.492c1.368 0 2.34-1.008 2.34-2.304 0-1.224-1.008-2.196-2.34-2.196-1.332 0-2.34 1.008-2.34 2.268 0 1.26 1.008 2.232 2.34 2.232ZM840.407 624h3.456v-19.08h-3.456V624Zm24.634-19.08v2.952c-1.62-2.088-4.212-3.132-7.056-3.132-5.508 0-9.684 3.708-9.684 9.216 0 5.508 4.176 9.252 9.684 9.252 2.736 0 5.22-.972 6.876-2.952v1.512c0 4.32-2.052 6.408-6.552 6.408-2.808 0-5.58-.972-7.344-2.484l-1.656 2.664c2.088 1.872 5.616 2.844 9.108 2.844 6.48 0 9.9-3.06 9.9-9.792V604.92h-3.276Zm-6.66 15.264c-3.852 0-6.588-2.556-6.588-6.228 0-3.708 2.736-6.192 6.588-6.192 3.816 0 6.552 2.484 6.552 6.192 0 3.672-2.736 6.228-6.552 6.228Zm26.332-15.444c-2.916 0-5.292 1.044-6.732 2.88v-10.332h-3.456V624h3.456v-9.828c0-4.14 2.376-6.336 6.048-6.336 3.276 0 5.148 1.836 5.148 5.58V624h3.456v-10.98c0-5.616-3.276-8.28-7.92-8.28Zm13.92 19.26h3.456v-26.712h-3.456V624Zm23.158-19.08-6.588 15.264-6.66-15.264h-3.6l8.424 19.044-.612 1.332c-.936 2.196-1.98 2.952-3.636 2.952-1.296 0-2.484-.504-3.42-1.404l-1.476 2.592c1.188 1.152 3.06 1.764 4.896 1.764 2.916 0 5.112-1.26 6.804-5.292l9.252-20.988h-3.384Zm18.798 3.204v-3.204h-3.312V624h3.456v-9.504c0-4.176 2.304-6.444 6.012-6.444.252 0 .504 0 .792.036v-3.348c-3.348 0-5.724 1.152-6.948 3.384Zm27.88 6.444c0-5.868-3.924-9.828-9.432-9.828-5.508 0-9.576 4.068-9.576 9.72 0 5.688 4.104 9.756 10.26 9.756 3.168 0 5.796-1.08 7.524-3.096l-1.908-2.232c-1.404 1.548-3.276 2.304-5.508 2.304-3.78 0-6.48-2.232-6.912-5.58h15.48c.036-.324.072-.756.072-1.044Zm-9.432-6.912c3.348 0 5.76 2.268 6.12 5.472h-12.24c.36-3.24 2.808-5.472 6.12-5.472Zm22.151 16.56c3.42 0 6.264-1.44 7.776-4.104l-2.628-1.656c-1.224 1.872-3.096 2.736-5.184 2.736-3.744 0-6.552-2.592-6.552-6.732 0-4.068 2.808-6.696 6.552-6.696 2.088 0 3.96.864 5.184 2.736l2.628-1.692c-1.512-2.664-4.356-4.068-7.776-4.068-5.868 0-10.08 4.032-10.08 9.72 0 5.688 4.212 9.756 10.08 9.756Zm19.742 0c5.73 0 9.9-4.068 9.9-9.756 0-5.688-4.17-9.72-9.9-9.72-5.721 0-9.933 4.032-9.933 9.72 0 5.688 4.212 9.756 9.933 9.756Zm0-3.024c-3.669 0-6.441-2.664-6.441-6.732s2.772-6.696 6.441-6.696c3.67 0 6.41 2.628 6.41 6.696s-2.74 6.732-6.41 6.732Zm38.15-16.452c-3.24 0-5.9 1.368-7.34 3.528-1.26-2.376-3.71-3.528-6.62-3.528-2.88 0-5.22 1.08-6.59 3.024v-2.844h-3.31V624h3.45v-9.828c0-4.14 2.27-6.336 5.73-6.336 3.13 0 4.93 1.836 4.93 5.58V624h3.45v-9.828c0-4.14 2.27-6.336 5.73-6.336 3.13 0 4.93 1.836 4.93 5.58V624h3.46v-10.98c0-5.616-3.17-8.28-7.82-8.28Zm37.65 0c-3.24 0-5.91 1.368-7.35 3.528-1.26-2.376-3.7-3.528-6.62-3.528-2.88 0-5.22 1.08-6.59 3.024v-2.844h-3.31V624h3.46v-9.828c0-4.14 2.26-6.336 5.72-6.336 3.13 0 4.93 1.836 4.93 5.58V624h3.46v-9.828c0-4.14 2.27-6.336 5.72-6.336 3.13 0 4.93 1.836 4.93 5.58V624h3.46v-10.98c0-5.616-3.17-8.28-7.81-8.28Zm31.12 9.828c0-5.868-3.92-9.828-9.43-9.828s-9.58 4.068-9.58 9.72c0 5.688 4.11 9.756 10.26 9.756 3.17 0 5.8-1.08 7.53-3.096l-1.91-2.232c-1.4 1.548-3.28 2.304-5.51 2.304-3.78 0-6.48-2.232-6.91-5.58h15.48c.04-.324.07-.756.07-1.044Zm-9.43-6.912c3.35 0 5.76 2.268 6.12 5.472h-12.24c.36-3.24 2.81-5.472 6.12-5.472Zm24.02-2.916c-3.02 0-5.47 1.116-6.87 3.06v-2.88h-3.32V624h3.46v-9.828c0-4.14 2.38-6.336 6.05-6.336 3.27 0 5.15 1.836 5.15 5.58V624h3.45v-10.98c0-5.616-3.27-8.28-7.92-8.28Zm28.57-7.452V607.8c-1.58-2.052-3.96-3.06-6.66-3.06-5.58 0-9.65 3.888-9.65 9.72 0 5.832 4.07 9.756 9.65 9.756 2.81 0 5.26-1.08 6.81-3.24V624h3.31v-26.712h-3.46Zm-6.37 23.904c-3.67 0-6.44-2.664-6.44-6.732s2.77-6.696 6.44-6.696c3.64 0 6.41 2.628 6.41 6.696s-2.77 6.732-6.41 6.732ZM149.052 658.92l-5.688 15.264-5.652-15.264h-2.916l-5.76 15.192-5.544-15.192h-3.276l7.092 19.08h3.312l5.58-14.472L141.708 678h3.312l7.128-19.08h-3.096Zm22.924 9.648c0-5.868-3.924-9.828-9.432-9.828-5.508 0-9.576 4.068-9.576 9.72 0 5.688 4.104 9.756 10.26 9.756 3.168 0 5.796-1.08 7.524-3.096l-1.908-2.232c-1.404 1.548-3.276 2.304-5.508 2.304-3.78 0-6.48-2.232-6.912-5.58h15.48c.036-.324.072-.756.072-1.044Zm-9.432-6.912c3.348 0 5.76 2.268 6.12 5.472h-12.24c.36-3.24 2.808-5.472 6.12-5.472Zm23.951-2.916c-2.7 0-5.076 1.008-6.66 3.06v-10.512h-3.456V678h3.312v-3.024c1.548 2.16 3.996 3.24 6.804 3.24 5.58 0 9.648-3.924 9.648-9.756 0-5.832-4.068-9.72-9.648-9.72Zm-.288 16.452c-3.636 0-6.408-2.664-6.408-6.732s2.772-6.696 6.408-6.696c3.672 0 6.444 2.628 6.444 6.696s-2.772 6.732-6.444 6.732Zm21.571-11.808 6.588-8.136V652.8h-16.632v3.132h12.132l-6.336 7.776v2.52h2.016c4.32 0 6.228 1.728 6.228 4.392 0 2.736-2.16 4.464-5.94 4.464-3.096 0-5.904-1.116-7.596-2.7l-1.656 2.844c2.124 1.908 5.652 3.06 9.252 3.06 6.408 0 9.54-3.456 9.54-7.704 0-3.888-2.556-6.732-7.596-7.2Zm54.065-10.584-6.948 20.592-6.948-20.592h-3.312l-7.092 20.484-6.804-20.484h-3.708l8.424 25.2h3.852l6.876-20.124L253.059 678h3.78l8.424-25.2h-3.42Zm13.655 25.416c5.724 0 9.9-4.068 9.9-9.756 0-5.688-4.176-9.72-9.9-9.72s-9.936 4.032-9.936 9.72c0 5.688 4.212 9.756 9.936 9.756Zm0-3.024c-3.672 0-6.444-2.664-6.444-6.732s2.772-6.696 6.444-6.696 6.408 2.628 6.408 6.696-2.736 6.732-6.408 6.732Zm17.595-13.068v-3.204h-3.312V678h3.456v-9.504c0-4.176 2.304-6.444 6.012-6.444.252 0 .504 0 .792.036v-3.348c-3.348 0-5.724 1.152-6.948 3.384Zm25.18-10.836V661.8c-1.584-2.052-3.96-3.06-6.66-3.06-5.58 0-9.648 3.888-9.648 9.72 0 5.832 4.068 9.756 9.648 9.756 2.808 0 5.256-1.08 6.804-3.24V678h3.312v-26.712h-3.456Zm-6.372 23.904c-3.672 0-6.444-2.664-6.444-6.732s2.772-6.696 6.444-6.696c3.636 0 6.408 2.628 6.408 6.696s-2.772 6.732-6.408 6.732Zm26.303-22.392h-9.828V678h3.6v-7.632h6.228c6.552 0 10.512-3.312 10.512-8.784 0-5.472-3.96-8.784-10.512-8.784Zm-.108 14.436h-6.12v-11.304h6.12c4.608 0 7.02 2.052 7.02 5.652s-2.412 5.652-7.02 5.652Zm18.005-5.112v-3.204h-3.312V678h3.456v-9.504c0-4.176 2.304-6.444 6.012-6.444.252 0 .504 0 .792.036v-3.348c-3.348 0-5.724 1.152-6.948 3.384Zm27.879 6.444c0-5.868-3.924-9.828-9.432-9.828-5.508 0-9.576 4.068-9.576 9.72 0 5.688 4.104 9.756 10.26 9.756 3.168 0 5.796-1.08 7.524-3.096l-1.908-2.232c-1.404 1.548-3.276 2.304-5.508 2.304-3.78 0-6.48-2.232-6.912-5.58h15.48c.036-.324.072-.756.072-1.044Zm-9.432-6.912c3.348 0 5.76 2.268 6.12 5.472h-12.24c.36-3.24 2.808-5.472 6.12-5.472Zm19.307 16.56c5.076 0 8.244-2.196 8.244-5.652 0-7.416-12.096-3.744-12.096-8.244 0-1.512 1.476-2.628 4.5-2.628 1.872 0 3.78.396 5.508 1.512l1.476-2.736c-1.656-1.08-4.464-1.728-6.948-1.728-4.896 0-7.956 2.304-7.956 5.724 0 7.596 12.06 3.888 12.06 8.172 0 1.62-1.332 2.592-4.536 2.592-2.484 0-5.076-.828-6.696-1.98l-1.44 2.736c1.584 1.26 4.716 2.232 7.884 2.232Zm17.64 0c5.076 0 8.244-2.196 8.244-5.652 0-7.416-12.096-3.744-12.096-8.244 0-1.512 1.476-2.628 4.5-2.628 1.872 0 3.78.396 5.508 1.512l1.476-2.736c-1.656-1.08-4.464-1.728-6.948-1.728-4.896 0-7.956 2.304-7.956 5.724 0 7.596 12.06 3.888 12.06 8.172 0 1.62-1.332 2.592-4.536 2.592-2.484 0-5.076-.828-6.696-1.98l-1.44 2.736c1.584 1.26 4.716 2.232 7.884 2.232Zm31.627-19.476c-2.916 0-5.292 1.044-6.732 2.88v-10.332h-3.456V678h3.456v-9.828c0-4.14 2.376-6.336 6.048-6.336 3.276 0 5.148 1.836 5.148 5.58V678h3.456v-10.98c0-5.616-3.276-8.28-7.92-8.28Zm22.197 19.476c5.724 0 9.9-4.068 9.9-9.756 0-5.688-4.176-9.72-9.9-9.72s-9.936 4.032-9.936 9.72c0 5.688 4.212 9.756 9.936 9.756Zm0-3.024c-3.672 0-6.444-2.664-6.444-6.732s2.772-6.696 6.444-6.696 6.408 2.628 6.408 6.696-2.736 6.732-6.408 6.732Zm19.756 3.024c5.076 0 8.244-2.196 8.244-5.652 0-7.416-12.096-3.744-12.096-8.244 0-1.512 1.476-2.628 4.5-2.628 1.872 0 3.78.396 5.508 1.512l1.476-2.736c-1.656-1.08-4.464-1.728-6.948-1.728-4.896 0-7.956 2.304-7.956 5.724 0 7.596 12.06 3.888 12.06 8.172 0 1.62-1.332 2.592-4.536 2.592-2.484 0-5.076-.828-6.696-1.98l-1.44 2.736c1.584 1.26 4.716 2.232 7.884 2.232Zm21.815-3.816c-.72.576-1.692.9-2.7.9-1.908 0-2.988-1.152-2.988-3.204v-10.332h5.472v-2.844h-5.472v-4.176h-3.456v4.176h-3.24v2.844h3.24v10.476c0 3.852 2.196 5.976 6.048 5.976 1.548 0 3.132-.432 4.176-1.332l-1.08-2.484Zm6.59-19.152c1.368 0 2.34-1.008 2.34-2.304 0-1.224-1.008-2.196-2.34-2.196-1.332 0-2.34 1.008-2.34 2.268 0 1.26 1.008 2.232 2.34 2.232ZM511.752 678h3.456v-19.08h-3.456V678Zm19.847-19.26c-3.024 0-5.472 1.116-6.876 3.06v-2.88h-3.312V678h3.456v-9.828c0-4.14 2.376-6.336 6.048-6.336 3.276 0 5.148 1.836 5.148 5.58V678h3.456v-10.98c0-5.616-3.276-8.28-7.92-8.28Zm29.001.18v2.952c-1.62-2.088-4.212-3.132-7.056-3.132-5.508 0-9.684 3.708-9.684 9.216 0 5.508 4.176 9.252 9.684 9.252 2.736 0 5.22-.972 6.876-2.952v1.512c0 4.32-2.052 6.408-6.552 6.408-2.808 0-5.58-.972-7.344-2.484l-1.656 2.664c2.088 1.872 5.616 2.844 9.108 2.844 6.48 0 9.9-3.06 9.9-9.792V658.92H560.6Zm-6.66 15.264c-3.852 0-6.588-2.556-6.588-6.228 0-3.708 2.736-6.192 6.588-6.192 3.816 0 6.552 2.484 6.552 6.192 0 3.672-2.736 6.228-6.552 6.228Zm35.063.216c-.72.576-1.692.9-2.7.9-1.908 0-2.988-1.152-2.988-3.204v-10.332h5.472v-2.844h-5.472v-4.176h-3.456v4.176h-3.24v2.844h3.24v10.476c0 3.852 2.196 5.976 6.048 5.976 1.548 0 3.132-.432 4.176-1.332l-1.08-2.484Zm12.402 3.816c5.724 0 9.9-4.068 9.9-9.756 0-5.688-4.176-9.72-9.9-9.72s-9.936 4.032-9.936 9.72c0 5.688 4.212 9.756 9.936 9.756Zm0-3.024c-3.672 0-6.444-2.664-6.444-6.732s2.772-6.696 6.444-6.696 6.408 2.628 6.408 6.696-2.736 6.732-6.408 6.732Zm30.503-16.452c-3.06 0-5.904.864-7.884 2.448l1.44 2.592c1.476-1.26 3.78-2.052 6.048-2.052 3.42 0 5.112 1.692 5.112 4.608v.684h-5.472c-5.688 0-7.668 2.52-7.668 5.58 0 3.312 2.736 5.616 7.056 5.616 2.988 0 5.112-1.008 6.264-2.736V678h3.276v-11.52c0-5.22-2.952-7.74-8.172-7.74Zm-.792 16.812c-2.628 0-4.212-1.188-4.212-3.096 0-1.62.972-2.952 4.392-2.952h5.328v2.664c-.864 2.196-2.916 3.384-5.508 3.384Zm25.152-16.812c-3.024 0-5.472 1.116-6.876 3.06v-2.88h-3.312V678h3.456v-9.828c0-4.14 2.376-6.336 6.048-6.336 3.276 0 5.148 1.836 5.148 5.58V678h3.456v-10.98c0-5.616-3.276-8.28-7.92-8.28Zm27.068.18-6.588 15.264-6.66-15.264h-3.6l8.424 19.044-.612 1.332c-.936 2.196-1.98 2.952-3.636 2.952-1.296 0-2.484-.504-3.42-1.404l-1.476 2.592c1.188 1.152 3.06 1.764 4.896 1.764 2.916 0 5.112-1.26 6.804-5.292l9.252-20.988h-3.384Zm13.858 19.296c5.724 0 9.9-4.068 9.9-9.756 0-5.688-4.176-9.72-9.9-9.72s-9.936 4.032-9.936 9.72c0 5.688 4.212 9.756 9.936 9.756Zm0-3.024c-3.672 0-6.444-2.664-6.444-6.732s2.772-6.696 6.444-6.696 6.408 2.628 6.408 6.696-2.736 6.732-6.408 6.732Zm24.472-16.452c-3.024 0-5.472 1.116-6.876 3.06v-2.88h-3.312V678h3.456v-9.828c0-4.14 2.376-6.336 6.048-6.336 3.276 0 5.148 1.836 5.148 5.58V678h3.456v-10.98c0-5.616-3.276-8.28-7.92-8.28Zm31.269 9.828c0-5.868-3.924-9.828-9.432-9.828-5.508 0-9.576 4.068-9.576 9.72 0 5.688 4.104 9.756 10.26 9.756 3.168 0 5.796-1.08 7.524-3.096l-1.908-2.232c-1.404 1.548-3.276 2.304-5.508 2.304-3.78 0-6.48-2.232-6.912-5.58h15.48c.036-.324.072-.756.072-1.044Zm-9.432-6.912c3.348 0 5.76 2.268 6.12 5.472h-12.24c.36-3.24 2.808-5.472 6.12-5.472ZM766.61 678h3.456v-26.712h-3.456V678Zm17.831.216c5.724 0 9.9-4.068 9.9-9.756 0-5.688-4.176-9.72-9.9-9.72s-9.936 4.032-9.936 9.72c0 5.688 4.212 9.756 9.936 9.756Zm0-3.024c-3.672 0-6.444-2.664-6.444-6.732s2.772-6.696 6.444-6.696 6.408 2.628 6.408 6.696-2.736 6.732-6.408 6.732Zm22.456 3.024c5.724 0 9.9-4.068 9.9-9.756 0-5.688-4.176-9.72-9.9-9.72s-9.936 4.032-9.936 9.72c0 5.688 4.212 9.756 9.936 9.756Zm0-3.024c-3.672 0-6.444-2.664-6.444-6.732s2.772-6.696 6.444-6.696 6.408 2.628 6.408 6.696-2.736 6.732-6.408 6.732ZM835.76 678h4.248l-8.82-11.196 8.028-7.884h-4.176l-10.404 9.504v-17.136h-3.456V678h3.456v-5.22l3.96-3.672L835.76 678Zm8.69-22.752c1.368 0 2.34-1.008 2.34-2.304 0-1.224-1.008-2.196-2.34-2.196-1.332 0-2.34 1.008-2.34 2.268 0 1.26 1.008 2.232 2.34 2.232ZM842.722 678h3.456v-19.08h-3.456V678Zm19.846-19.26c-3.024 0-5.472 1.116-6.876 3.06v-2.88h-3.312V678h3.456v-9.828c0-4.14 2.376-6.336 6.048-6.336 3.276 0 5.148 1.836 5.148 5.58V678h3.456v-10.98c0-5.616-3.276-8.28-7.92-8.28Zm29.002.18v2.952c-1.62-2.088-4.212-3.132-7.056-3.132-5.508 0-9.684 3.708-9.684 9.216 0 5.508 4.176 9.252 9.684 9.252 2.736 0 5.22-.972 6.876-2.952v1.512c0 4.32-2.052 6.408-6.552 6.408-2.808 0-5.58-.972-7.344-2.484l-1.656 2.664c2.088 1.872 5.616 2.844 9.108 2.844 6.48 0 9.9-3.06 9.9-9.792V658.92h-3.276Zm-6.66 15.264c-3.852 0-6.588-2.556-6.588-6.228 0-3.708 2.736-6.192 6.588-6.192 3.816 0 6.552 2.484 6.552 6.192 0 3.672-2.736 6.228-6.552 6.228Zm32.399-20.268c1.008 0 1.944.36 2.664.9l1.044-2.628c-.972-.756-2.412-1.116-3.888-1.116-4.068 0-6.3 2.448-6.3 6.156v1.692h-3.24v2.844h3.24V678h3.456v-16.236h5.472v-2.844h-5.544v-1.656c0-2.196 1.044-3.348 3.096-3.348Zm13.202 24.3c5.724 0 9.9-4.068 9.9-9.756 0-5.688-4.176-9.72-9.9-9.72s-9.936 4.032-9.936 9.72c0 5.688 4.212 9.756 9.936 9.756Zm0-3.024c-3.672 0-6.444-2.664-6.444-6.732s2.772-6.696 6.444-6.696 6.408 2.628 6.408 6.696-2.736 6.732-6.408 6.732Zm17.596-13.068v-3.204h-3.312V678h3.456v-9.504c0-4.176 2.304-6.444 6.012-6.444.252 0 .504 0 .792.036v-3.348c-3.348 0-5.724 1.152-6.948 3.384Zm23.641 0v-3.204h-3.312V678h3.456v-9.504c0-4.176 2.304-6.444 6.012-6.444.252 0 .504 0 .792.036v-3.348c-3.348 0-5.724 1.152-6.948 3.384Zm27.88 6.444c0-5.868-3.924-9.828-9.432-9.828-5.508 0-9.576 4.068-9.576 9.72 0 5.688 4.104 9.756 10.26 9.756 3.168 0 5.796-1.08 7.524-3.096l-1.908-2.232c-1.404 1.548-3.276 2.304-5.508 2.304-3.78 0-6.48-2.232-6.912-5.58h15.48c.036-.324.072-.756.072-1.044Zm-9.432-6.912c3.348 0 5.76 2.268 6.12 5.472h-12.24c.36-3.24 2.808-5.472 6.12-5.472ZM1004.03 678h3.46v-26.712h-3.46V678Zm11.39-22.752c1.37 0 2.34-1.008 2.34-2.304 0-1.224-1.01-2.196-2.34-2.196-1.33 0-2.34 1.008-2.34 2.268 0 1.26 1.01 2.232 2.34 2.232ZM1013.69 678h3.46v-19.08h-3.46V678Zm16.61-19.26c-3.06 0-5.91.864-7.89 2.448l1.44 2.592c1.48-1.26 3.78-2.052 6.05-2.052 3.42 0 5.11 1.692 5.11 4.608v.684h-5.47c-5.69 0-7.67 2.52-7.67 5.58 0 3.312 2.74 5.616 7.06 5.616 2.99 0 5.11-1.008 6.26-2.736V678h3.28v-11.52c0-5.22-2.95-7.74-8.17-7.74Zm-.8 16.812c-2.62 0-4.21-1.188-4.21-3.096 0-1.62.97-2.952 4.39-2.952h5.33v2.664c-.86 2.196-2.91 3.384-5.51 3.384Zm25.08-16.812c-2.7 0-5.07 1.008-6.66 3.06v-10.512h-3.45V678h3.31v-3.024c1.55 2.16 4 3.24 6.8 3.24 5.58 0 9.65-3.924 9.65-9.756 0-5.832-4.07-9.72-9.65-9.72Zm-.28 16.452c-3.64 0-6.41-2.664-6.41-6.732s2.77-6.696 6.41-6.696c3.67 0 6.44 2.628 6.44 6.696s-2.77 6.732-6.44 6.732Zm14.31 2.808h3.46v-26.712h-3.46V678Zm26.9-9.432c0-5.868-3.92-9.828-9.43-9.828s-9.57 4.068-9.57 9.72c0 5.688 4.1 9.756 10.26 9.756 3.16 0 5.79-1.08 7.52-3.096l-1.91-2.232c-1.4 1.548-3.27 2.304-5.51 2.304-3.78 0-6.48-2.232-6.91-5.58h15.48c.04-.324.07-.756.07-1.044Zm-9.43-6.912c3.35 0 5.76 2.268 6.12 5.472h-12.24c.36-3.24 2.81-5.472 6.12-5.472Zm30.06-2.916c-3.06 0-5.91.864-7.89 2.448l1.44 2.592c1.48-1.26 3.78-2.052 6.05-2.052 3.42 0 5.11 1.692 5.11 4.608v.684h-5.47c-5.69 0-7.67 2.52-7.67 5.58 0 3.312 2.74 5.616 7.06 5.616 2.99 0 5.11-1.008 6.26-2.736V678h3.28v-11.52c0-5.22-2.95-7.74-8.17-7.74Zm-.8 16.812c-2.62 0-4.21-1.188-4.21-3.096 0-1.62.97-2.952 4.39-2.952h5.33v2.664c-.86 2.196-2.91 3.384-5.51 3.384Zm25.16-16.812c-3.03 0-5.48 1.116-6.88 3.06v-2.88h-3.31V678h3.45v-9.828c0-4.14 2.38-6.336 6.05-6.336 3.28 0 5.15 1.836 5.15 5.58V678h3.46v-10.98c0-5.616-3.28-8.28-7.92-8.28Zm28.57-7.452V661.8c-1.59-2.052-3.96-3.06-6.66-3.06-5.58 0-9.65 3.888-9.65 9.72 0 5.832 4.07 9.756 9.65 9.756 2.8 0 5.25-1.08 6.8-3.24V678h3.31v-26.712h-3.45Zm-6.38 23.904c-3.67 0-6.44-2.664-6.44-6.732s2.77-6.696 6.44-6.696c3.64 0 6.41 2.628 6.41 6.696s-2.77 6.732-6.41 6.732ZM133.464 712.74c-2.916 0-5.292 1.044-6.732 2.88v-10.332h-3.456V732h3.456v-9.828c0-4.14 2.376-6.336 6.048-6.336 3.276 0 5.148 1.836 5.148 5.58V732h3.456v-10.98c0-5.616-3.276-8.28-7.92-8.28Zm15.648-3.492c1.368 0 2.34-1.008 2.34-2.304 0-1.224-1.008-2.196-2.34-2.196-1.332 0-2.34 1.008-2.34 2.268 0 1.26 1.008 2.232 2.34 2.232ZM147.384 732h3.456v-19.08h-3.456V732Zm24.635-19.08v2.952c-1.62-2.088-4.212-3.132-7.056-3.132-5.508 0-9.684 3.708-9.684 9.216 0 5.508 4.176 9.252 9.684 9.252 2.736 0 5.22-.972 6.876-2.952v1.512c0 4.32-2.052 6.408-6.552 6.408-2.808 0-5.58-.972-7.344-2.484l-1.656 2.664c2.088 1.872 5.616 2.844 9.108 2.844 6.48 0 9.9-3.06 9.9-9.792V712.92h-3.276Zm-6.66 15.264c-3.852 0-6.588-2.556-6.588-6.228 0-3.708 2.736-6.192 6.588-6.192 3.816 0 6.552 2.484 6.552 6.192 0 3.672-2.736 6.228-6.552 6.228Zm26.331-15.444c-2.916 0-5.292 1.044-6.732 2.88v-10.332h-3.456V732h3.456v-9.828c0-4.14 2.376-6.336 6.048-6.336 3.276 0 5.148 1.836 5.148 5.58V732h3.456v-10.98c0-5.616-3.276-8.28-7.92-8.28Zm12.696 10.872h9.684v-2.988h-9.684v2.988Zm24.725-10.872c-2.808 0-5.256 1.08-6.804 3.204v-3.024h-3.312v26.064h3.456v-9.864c1.584 2.052 3.96 3.096 6.66 3.096 5.58 0 9.648-3.888 9.648-9.756 0-5.832-4.068-9.72-9.648-9.72Zm-.288 16.452c-3.636 0-6.408-2.664-6.408-6.732 0-4.032 2.772-6.696 6.408-6.696 3.672 0 6.444 2.664 6.444 6.696 0 4.068-2.772 6.732-6.444 6.732Zm31.559-6.624c0-5.868-3.924-9.828-9.432-9.828-5.508 0-9.576 4.068-9.576 9.72 0 5.688 4.104 9.756 10.26 9.756 3.168 0 5.796-1.08 7.524-3.096l-1.908-2.232c-1.404 1.548-3.276 2.304-5.508 2.304-3.78 0-6.48-2.232-6.912-5.58h15.48c.036-.324.072-.756.072-1.044Zm-9.432-6.912c3.348 0 5.76 2.268 6.12 5.472h-12.24c.36-3.24 2.808-5.472 6.12-5.472Zm17.147.468v-3.204h-3.312V732h3.456v-9.504c0-4.176 2.304-6.444 6.012-6.444.252 0 .504 0 .792.036v-3.348c-3.348 0-5.724 1.152-6.948 3.384Zm18.042-8.208c1.008 0 1.944.36 2.664.9l1.044-2.628c-.972-.756-2.412-1.116-3.888-1.116-4.068 0-6.3 2.448-6.3 6.156v1.692h-3.24v2.844h3.24V732h3.456v-16.236h5.472v-2.844h-5.544v-1.656c0-2.196 1.044-3.348 3.096-3.348Zm13.202 24.3c5.724 0 9.9-4.068 9.9-9.756 0-5.688-4.176-9.72-9.9-9.72s-9.936 4.032-9.936 9.72c0 5.688 4.212 9.756 9.936 9.756Zm0-3.024c-3.672 0-6.444-2.664-6.444-6.732s2.772-6.696 6.444-6.696 6.408 2.628 6.408 6.696-2.736 6.732-6.408 6.732Zm17.596-13.068v-3.204h-3.312V732h3.456v-9.504c0-4.176 2.304-6.444 6.012-6.444.252 0 .504 0 .792.036v-3.348c-3.348 0-5.724 1.152-6.948 3.384Zm34.679-3.384c-3.24 0-5.904 1.368-7.344 3.528-1.26-2.376-3.708-3.528-6.624-3.528-2.88 0-5.22 1.08-6.588 3.024v-2.844h-3.312V732h3.456v-9.828c0-4.14 2.268-6.336 5.724-6.336 3.132 0 4.932 1.836 4.932 5.58V732h3.456v-9.828c0-4.14 2.268-6.336 5.724-6.336 3.132 0 4.932 1.836 4.932 5.58V732h3.456v-10.98c0-5.616-3.168-8.28-7.812-8.28Zm20.723 0c-3.06 0-5.904.864-7.884 2.448l1.44 2.592c1.476-1.26 3.78-2.052 6.048-2.052 3.42 0 5.112 1.692 5.112 4.608v.684h-5.472c-5.688 0-7.668 2.52-7.668 5.58 0 3.312 2.736 5.616 7.056 5.616 2.988 0 5.112-1.008 6.264-2.736V732h3.276v-11.52c0-5.22-2.952-7.74-8.172-7.74Zm-.792 16.812c-2.628 0-4.212-1.188-4.212-3.096 0-1.62.972-2.952 4.392-2.952h5.328v2.664c-.864 2.196-2.916 3.384-5.508 3.384Zm25.152-16.812c-3.024 0-5.472 1.116-6.876 3.06v-2.88h-3.312V732h3.456v-9.828c0-4.14 2.376-6.336 6.048-6.336 3.276 0 5.148 1.836 5.148 5.58V732h3.456v-10.98c0-5.616-3.276-8.28-7.92-8.28Zm22.341 19.476c3.42 0 6.264-1.44 7.776-4.104l-2.628-1.656c-1.224 1.872-3.096 2.736-5.184 2.736-3.744 0-6.552-2.592-6.552-6.732 0-4.068 2.808-6.696 6.552-6.696 2.088 0 3.96.864 5.184 2.736l2.628-1.692c-1.512-2.664-4.356-4.068-7.776-4.068-5.868 0-10.08 4.032-10.08 9.72 0 5.688 4.212 9.756 10.08 9.756Zm28.817-9.648c0-5.868-3.924-9.828-9.432-9.828-5.508 0-9.576 4.068-9.576 9.72 0 5.688 4.104 9.756 10.26 9.756 3.168 0 5.796-1.08 7.524-3.096l-1.908-2.232c-1.404 1.548-3.276 2.304-5.508 2.304-3.78 0-6.48-2.232-6.912-5.58h15.48c.036-.324.072-.756.072-1.044Zm-9.432-6.912c3.348 0 5.76 2.268 6.12 5.472h-12.24c.36-3.24 2.808-5.472 6.12-5.472Zm48.883-2.736-5.688 15.264-5.652-15.264h-2.916l-5.76 15.192-5.544-15.192h-3.276l7.092 19.08h3.312l5.58-14.472L479.964 732h3.312l7.128-19.08h-3.096Zm22.924 9.648c0-5.868-3.924-9.828-9.432-9.828-5.508 0-9.576 4.068-9.576 9.72 0 5.688 4.104 9.756 10.26 9.756 3.168 0 5.796-1.08 7.524-3.096l-1.908-2.232c-1.404 1.548-3.276 2.304-5.508 2.304-3.78 0-6.48-2.232-6.912-5.58h15.48c.036-.324.072-.756.072-1.044Zm-9.432-6.912c3.348 0 5.76 2.268 6.12 5.472h-12.24c.36-3.24 2.808-5.472 6.12-5.472Zm23.951-2.916c-2.7 0-5.076 1.008-6.66 3.06v-10.512h-3.456V732h3.312v-3.024c1.548 2.16 3.996 3.24 6.804 3.24 5.58 0 9.648-3.924 9.648-9.756 0-5.832-4.068-9.72-9.648-9.72Zm-.288 16.452c-3.636 0-6.408-2.664-6.408-6.732s2.772-6.696 6.408-6.696c3.672 0 6.444 2.628 6.444 6.696s-2.772 6.732-6.444 6.732Zm33.775-16.452c-2.916 0-5.292 1.044-6.732 2.88v-10.332h-3.456V732h3.456v-9.828c0-4.14 2.376-6.336 6.048-6.336 3.276 0 5.148 1.836 5.148 5.58V732h3.456v-10.98c0-5.616-3.276-8.28-7.92-8.28Zm22.197 19.476c5.724 0 9.9-4.068 9.9-9.756 0-5.688-4.176-9.72-9.9-9.72s-9.936 4.032-9.936 9.72c0 5.688 4.212 9.756 9.936 9.756Zm0-3.024c-3.672 0-6.444-2.664-6.444-6.732s2.772-6.696 6.444-6.696 6.408 2.628 6.408 6.696-2.736 6.732-6.408 6.732Zm19.756 3.024c5.076 0 8.244-2.196 8.244-5.652 0-7.416-12.096-3.744-12.096-8.244 0-1.512 1.476-2.628 4.5-2.628 1.872 0 3.78.396 5.508 1.512l1.476-2.736c-1.656-1.08-4.464-1.728-6.948-1.728-4.896 0-7.956 2.304-7.956 5.724 0 7.596 12.06 3.888 12.06 8.172 0 1.62-1.332 2.592-4.536 2.592-2.484 0-5.076-.828-6.696-1.98l-1.44 2.736c1.584 1.26 4.716 2.232 7.884 2.232Zm21.815-3.816c-.72.576-1.692.9-2.7.9-1.908 0-2.988-1.152-2.988-3.204v-10.332h5.472v-2.844h-5.472v-4.176h-3.456v4.176h-3.24v2.844h3.24v10.476c0 3.852 2.196 5.976 6.048 5.976 1.548 0 3.132-.432 4.176-1.332l-1.08-2.484Zm6.59-19.152c1.368 0 2.34-1.008 2.34-2.304 0-1.224-1.008-2.196-2.34-2.196-1.332 0-2.34 1.008-2.34 2.268 0 1.26 1.008 2.232 2.34 2.232ZM626.868 732h3.456v-19.08h-3.456V732Zm19.847-19.26c-3.024 0-5.472 1.116-6.876 3.06v-2.88h-3.312V732h3.456v-9.828c0-4.14 2.376-6.336 6.048-6.336 3.276 0 5.148 1.836 5.148 5.58V732h3.456v-10.98c0-5.616-3.276-8.28-7.92-8.28Zm29.001.18v2.952c-1.62-2.088-4.212-3.132-7.056-3.132-5.508 0-9.684 3.708-9.684 9.216 0 5.508 4.176 9.252 9.684 9.252 2.736 0 5.22-.972 6.876-2.952v1.512c0 4.32-2.052 6.408-6.552 6.408-2.808 0-5.58-.972-7.344-2.484l-1.656 2.664c2.088 1.872 5.616 2.844 9.108 2.844 6.48 0 9.9-3.06 9.9-9.792V712.92h-3.276Zm-6.66 15.264c-3.852 0-6.588-2.556-6.588-6.228 0-3.708 2.736-6.192 6.588-6.192 3.816 0 6.552 2.484 6.552 6.192 0 3.672-2.736 6.228-6.552 6.228Zm30.888 4.032c5.076 0 8.244-2.196 8.244-5.652 0-7.416-12.096-3.744-12.096-8.244 0-1.512 1.476-2.628 4.5-2.628 1.872 0 3.78.396 5.508 1.512l1.476-2.736c-1.656-1.08-4.464-1.728-6.948-1.728-4.896 0-7.956 2.304-7.956 5.724 0 7.596 12.06 3.888 12.06 8.172 0 1.62-1.332 2.592-4.536 2.592-2.484 0-5.076-.828-6.696-1.98l-1.44 2.736c1.584 1.26 4.716 2.232 7.884 2.232Zm29.411-9.648c0-5.868-3.924-9.828-9.432-9.828-5.508 0-9.576 4.068-9.576 9.72 0 5.688 4.104 9.756 10.26 9.756 3.168 0 5.796-1.08 7.524-3.096l-1.908-2.232c-1.404 1.548-3.276 2.304-5.508 2.304-3.78 0-6.48-2.232-6.912-5.58h15.48c.036-.324.072-.756.072-1.044Zm-9.432-6.912c3.348 0 5.76 2.268 6.12 5.472h-12.24c.36-3.24 2.808-5.472 6.12-5.472Zm17.147.468v-3.204h-3.312V732h3.456v-9.504c0-4.176 2.304-6.444 6.012-6.444.252 0 .504 0 .792.036v-3.348c-3.348 0-5.724 1.152-6.948 3.384Zm25.085-3.204-6.696 15.3-6.552-15.3h-3.6l8.352 19.08h3.528l8.352-19.08h-3.384Zm7.941-3.672c1.368 0 2.34-1.008 2.34-2.304 0-1.224-1.008-2.196-2.34-2.196-1.332 0-2.34 1.008-2.34 2.268 0 1.26 1.008 2.232 2.34 2.232ZM768.368 732h3.456v-19.08h-3.456V732Zm17.975.216c3.42 0 6.264-1.44 7.776-4.104l-2.628-1.656c-1.224 1.872-3.096 2.736-5.184 2.736-3.744 0-6.552-2.592-6.552-6.732 0-4.068 2.808-6.696 6.552-6.696 2.088 0 3.96.864 5.184 2.736l2.628-1.692c-1.512-2.664-4.356-4.068-7.776-4.068-5.868 0-10.08 4.032-10.08 9.72 0 5.688 4.212 9.756 10.08 9.756Zm28.817-9.648c0-5.868-3.924-9.828-9.432-9.828-5.508 0-9.576 4.068-9.576 9.72 0 5.688 4.104 9.756 10.26 9.756 3.168 0 5.796-1.08 7.524-3.096l-1.908-2.232c-1.404 1.548-3.276 2.304-5.508 2.304-3.78 0-6.48-2.232-6.912-5.58h15.48c.036-.324.072-.756.072-1.044Zm-9.432-6.912c3.348 0 5.76 2.268 6.12 5.472h-12.24c.36-3.24 2.808-5.472 6.12-5.472Zm19.307 16.56c5.076 0 8.244-2.196 8.244-5.652 0-7.416-12.096-3.744-12.096-8.244 0-1.512 1.476-2.628 4.5-2.628 1.872 0 3.78.396 5.508 1.512l1.476-2.736c-1.656-1.08-4.464-1.728-6.948-1.728-4.896 0-7.956 2.304-7.956 5.724 0 7.596 12.06 3.888 12.06 8.172 0 1.62-1.332 2.592-4.536 2.592-2.484 0-5.076-.828-6.696-1.98l-1.44 2.736c1.584 1.26 4.716 2.232 7.884 2.232Zm12.995 0c1.296 0 2.376-1.044 2.376-2.484s-1.08-2.448-2.376-2.448c-1.332 0-2.448 1.008-2.448 2.448s1.116 2.484 2.448 2.484Zm7.164-27.144c-1.368 0-2.412 1.008-2.412 2.448 0 1.08.612 1.908 1.512 2.232l-1.332 5.364h2.268l1.728-5.04c.468-1.332.576-1.872.576-2.556 0-1.404-.972-2.448-2.34-2.448Zm6.804 0c-1.368 0-2.412 1.008-2.412 2.448 0 1.08.612 1.908 1.512 2.232l-1.332 5.364h2.268l1.728-5.04c.468-1.332.576-1.872.576-2.556 0-1.404-.972-2.448-2.34-2.448Z" fill="#BDBDBD"/><g filter="url(#b)"><circle cx="220" cy="220" r="100" fill="#191D28"/></g><g clip-path="url(#c)"><g filter="url(#d)"><circle cx="220" cy="220" r="100" fill="#F8F8F8"/></g><g opacity=".8" filter="url(#e)"><ellipse cx="98.832" cy="97.605" rx="98.832" ry="97.605" transform="matrix(-.2882 -.95757 .93652 -.35062 154.617 289.35)" fill="#3502FF"/></g><g opacity=".8" filter="url(#f)"><ellipse cx="83.863" cy="81.235" rx="83.863" ry="81.235" transform="matrix(-.48289 -.87568 .7985 -.602 143.648 305.084)" fill="#77BEFF"/></g><g opacity=".8" filter="url(#g)"><path d="M317.06 78.285c44.451 36.353 10.598 219.4-6.592 207.371-10.486-7.338-22.884-69.412-55.802-96.014-21.044-17.005-58.719-4.596-82.715-2.842-61.533 4.5 100.288-145.172 145.109-108.515Z" fill="#3D39FF"/></g></g><rect x="118" y="118" width="204" height="204" rx="102" stroke="#D8DBE3" stroke-width="4"/><defs><filter id="a" x="0" y="0" width="1363" height="885" filterUnits="userSpaceOnUse" color-interpolation-filters="sRGB"><feFlood flood-opacity="0" result="BackgroundImageFix"/><feColorMatrix in="SourceAlpha" values="0 0 0 0 0 0 0 0 0 0 0 0 0 0 0 0 0 0 127 0" result="hardAlpha"/><feMorphology radius="5" operator="dilate" in="SourceAlpha" result="effect1_dropShadow_916_3074"/><feOffset dx="10" dy="10"/><feGaussianBlur stdDeviation="25"/><feComposite in2="hardAlpha" operator="out"/><feColorMatrix values="0 0 0 0 0 0 0 0 0 0 0 0 0 0 0 0 0 0 0.05 0"/><feBlend in2="BackgroundImageFix" result="effect1_dropShadow_916_3074"/><feBlend in="SourceGraphic" in2="effect1_dropShadow_916_3074" result="shape"/></filter><filter id="b" x="96" y="96" width="308" height="308" filterUnits="userSpaceOnUse" color-interpolation-filters="sRGB"><feFlood flood-opacity="0" result="BackgroundImageFix"/><feColorMatrix in="SourceAlpha" values="0 0 0 0 0 0 0 0 0 0 0 0 0 0 0 0 0 0 127 0" result="hardAlpha"/><feMorphology radius="4" operator="dilate" in="SourceAlpha" result="effect1_dropShadow_916_3074"/><feOffset dx="30" dy="30"/><feGaussianBlur stdDeviation="25"/><feComposite in2="hardAlpha" operator="out"/><feColorMatrix values="0 0 0 0 0 0 0 0 0 0 0 0 0 0 0 0 0 0 0.25 0"/><feBlend in2="BackgroundImageFix" result="effect1_dropShadow_916_3074"/><feBlend in="SourceGraphic" in2="effect1_dropShadow_916_3074" result="shape"/></filter><filter id="d" x="108" y="110" width="224" height="224" filterUnits="userSpaceOnUse" color-interpolation-filters="sRGB"><feFlood flood-opacity="0" result="BackgroundImageFix"/><feColorMatrix in="SourceAlpha" values="0 0 0 0 0 0 0 0 0 0 0 0 0 0 0 0 0 0 127 0" result="hardAlpha"/><feOffset dy="2"/><feGaussianBlur stdDeviation="6"/><feComposite in2="hardAlpha" operator="out"/><feColorMatrix values="0 0 0 0 0.6875 0 0 0 0 0.744318 0 0 0 0 1 0 0 0 0.06 0"/><feBlend in2="BackgroundImageFix" result="effect1_dropShadow_916_3074"/><feColorMatrix in="SourceAlpha" values="0 0 0 0 0 0 0 0 0 0 0 0 0 0 0 0 0 0 127 0" result="hardAlpha"/><feOffset dy="1"/><feGaussianBlur stdDeviation="1"/><feComposite in2="hardAlpha" operator="out"/><feColorMatrix values="0 0 0 0 0.549757 0 0 0 0 0.610463 0 0 0 0 0.929167 0 0 0 0.05 0"/><feBlend in2="effect1_dropShadow_916_3074" result="effect2_dropShadow_916_3074"/><feBlend in="SourceGraphic" in2="effect2_dropShadow_916_3074" result="shape"/></filter><filter id="e" x="97.773" y="35.827" width="239.539" height="249.326" filterUnits="userSpaceOnUse" color-interpolation-filters="sRGB"><feFlood flood-opacity="0" result="BackgroundImageFix"/><feBlend in="SourceGraphic" in2="BackgroundImageFix" result="shape"/><feGaussianBlur stdDeviation="12" result="effect1_foregroundBlur_916_3074"/></filter><filter id="f" x="67.539" y="70.504" width="200.961" height="224.479" filterUnits="userSpaceOnUse" color-interpolation-filters="sRGB"><feFlood flood-opacity="0" result="BackgroundImageFix"/><feBlend in="SourceGraphic" in2="BackgroundImageFix" result="shape"/><feGaussianBlur stdDeviation="12" result="effect1_foregroundBlur_916_3074"/></filter><filter id="g" x="134.164" y="48.498" width="228.891" height="261.725" filterUnits="userSpaceOnUse" color-interpolation-filters="sRGB"><feFlood flood-opacity="0" result="BackgroundImageFix"/><feBlend in="SourceGraphic" in2="BackgroundImageFix" result="shape"/><feGaussianBlur stdDeviation="12" result="effect1_foregroundBlur_916_3074"/></filter><clipPath id="c"><rect x="120" y="120" width="200" height="200" rx="100" fill="#fff"/></clipPath></defs></svg>