<svg width="1363" height="885" fill="none" xmlns="http://www.w3.org/2000/svg"><g filter="url(#a)"><rect x="45" y="45" width="1253" height="775" rx="50" fill="#191D28"/></g><path d="m425.216 167.8-9.128 27.776-8.96-27.776h-8.4l-9.24 27.552-8.848-27.552h-9.408l12.88 39.2h9.688l8.904-26.544L411.328 207h9.744l12.824-39.2h-8.68Zm18.043 4.872c3.248 0 5.432-2.128 5.432-5.04 0-2.688-2.184-4.704-5.432-4.704s-5.432 2.128-5.432 4.872c0 2.744 2.184 4.872 5.432 4.872ZM438.891 207h8.736v-30.128h-8.736V207Zm16.844 0h8.736v-41.552h-8.736V207Zm16.844 0h8.736v-41.552h-8.736V207Zm21.212-34.328c3.248 0 5.432-2.128 5.432-5.04 0-2.688-2.184-4.704-5.432-4.704s-5.432 2.128-5.432 4.872c0 2.744 2.184 4.872 5.432 4.872ZM489.423 207h8.736v-30.128h-8.736V207Zm28.995-30.576c-4.816 0-9.688 1.288-12.992 3.64l3.136 6.104c2.184-1.736 5.488-2.8 8.68-2.8 4.704 0 6.944 2.184 6.944 5.936h-6.944c-9.184 0-12.936 3.696-12.936 9.016 0 5.208 4.2 9.128 11.256 9.128 4.424 0 7.56-1.456 9.184-4.2V207h8.176v-17.192c0-9.128-5.32-13.384-14.504-13.384Zm-.672 25.144c-3.08 0-4.928-1.456-4.928-3.64 0-2.016 1.288-3.528 5.376-3.528h5.992v3.08c-1.008 2.744-3.528 4.088-6.44 4.088Zm61.667-25.144c-4.536 0-8.456 1.848-10.864 4.928-2.128-3.304-5.712-4.928-9.912-4.928-3.864 0-7.224 1.344-9.464 3.92v-3.472h-8.344V207h8.736v-15.12c0-5.376 2.744-7.896 6.608-7.896 3.64 0 5.712 2.24 5.712 7.112V207h8.736v-15.12c0-5.376 2.744-7.896 6.664-7.896 3.528 0 5.712 2.24 5.712 7.112V207h8.736v-17.248c0-9.184-5.152-13.328-12.32-13.328Zm65.41 10.192c3.192-1.68 5.208-4.704 5.208-8.624 0-6.104-5.04-10.192-14.84-10.192h-19.152V207h20.272c10.304 0 15.68-3.92 15.68-10.696 0-4.928-2.8-8.288-7.168-9.688Zm-10.752-11.984c4.424 0 6.832 1.512 6.832 4.592 0 3.08-2.408 4.648-6.832 4.648h-9.016v-9.24h9.016Zm1.568 25.536h-10.584v-9.688h10.584c4.704 0 7.224 1.568 7.224 4.872 0 3.36-2.52 4.816-7.224 4.816Zm34.756-23.744c-4.816 0-9.688 1.288-12.992 3.64l3.136 6.104c2.184-1.736 5.488-2.8 8.68-2.8 4.704 0 6.944 2.184 6.944 5.936h-6.944c-9.184 0-12.936 3.696-12.936 9.016 0 5.208 4.2 9.128 11.256 9.128 4.424 0 7.56-1.456 9.184-4.2V207h8.176v-17.192c0-9.128-5.32-13.384-14.504-13.384Zm-.672 25.144c-3.08 0-4.928-1.456-4.928-3.64 0-2.016 1.288-3.528 5.376-3.528h5.992v3.08c-1.008 2.744-3.528 4.088-6.44 4.088ZM715.261 207h10.584l-13.664-17.36 12.544-12.768h-10.416l-12.768 12.096v-23.52h-8.736V207h8.736v-7.672l4.2-4.144 9.52 11.816Zm42.713-14.952c0-9.688-6.832-15.624-15.68-15.624-9.184 0-16.072 6.496-16.072 15.512 0 8.96 6.776 15.512 17.192 15.512 5.432 0 9.632-1.68 12.432-4.872l-4.648-5.04c-2.072 1.96-4.368 2.912-7.56 2.912-4.592 0-7.784-2.296-8.624-6.048h22.792c.056-.728.168-1.68.168-2.352Zm-15.624-9.016c3.92 0 6.776 2.464 7.392 6.272h-14.84c.616-3.864 3.472-6.272 7.448-6.272Zm29.784-2.184v-3.976h-8.344V207h8.736v-14.224c0-5.768 3.192-8.4 8.008-8.4.672 0 1.232.056 1.96.112v-8.064c-4.648 0-8.232 1.512-10.36 4.424ZM388.392 278.352c4.796 0 8.932-1.672 11.748-4.84l-2.86-2.772c-2.376 2.508-5.28 3.696-8.668 3.696-6.952 0-12.1-5.016-12.1-11.836s5.148-11.836 12.1-11.836c3.388 0 6.292 1.144 8.668 3.652l2.86-2.772c-2.816-3.168-6.952-4.796-11.704-4.796-9.372 0-16.324 6.644-16.324 15.752s6.952 15.752 16.28 15.752Zm34.19-23.672v12.056c0 5.016-2.816 7.744-7.216 7.744-4.004 0-6.292-2.288-6.292-6.864V254.68h-4.224v13.42c0 6.864 4.004 10.164 10.032 10.164 3.3 0 6.204-1.364 7.92-3.784V278h4.004v-23.32h-4.224Zm18.954 23.584c6.204 0 10.076-2.684 10.076-6.908 0-9.064-14.784-4.576-14.784-10.076 0-1.848 1.804-3.212 5.5-3.212 2.288 0 4.62.484 6.732 1.848l1.804-3.344c-2.024-1.32-5.456-2.112-8.492-2.112-5.984 0-9.724 2.816-9.724 6.996 0 9.284 14.74 4.752 14.74 9.988 0 1.98-1.628 3.168-5.544 3.168-3.036 0-6.204-1.012-8.184-2.42l-1.76 3.344c1.936 1.54 5.764 2.728 9.636 2.728Zm27.147-4.664c-.88.704-2.068 1.1-3.3 1.1-2.332 0-3.652-1.408-3.652-3.916v-12.628h6.688v-3.476h-6.688v-5.104h-4.224v5.104h-3.96v3.476h3.96v12.804c0 4.708 2.684 7.304 7.392 7.304 1.892 0 3.828-.528 5.104-1.628l-1.32-3.036Zm15.641 4.664c6.996 0 12.1-4.972 12.1-11.924 0-6.952-5.104-11.88-12.1-11.88-6.996 0-12.144 4.928-12.144 11.88 0 6.952 5.148 11.924 12.144 11.924Zm0-3.696c-4.488 0-7.876-3.256-7.876-8.228 0-4.972 3.388-8.184 7.876-8.184s7.832 3.212 7.832 8.184c0 4.972-3.344 8.228-7.832 8.228Zm47.114-20.108c-3.96 0-7.216 1.672-8.976 4.312-1.54-2.904-4.532-4.312-8.096-4.312-3.52 0-6.38 1.32-8.052 3.696v-3.476h-4.048V278h4.224v-12.012c0-5.06 2.772-7.744 6.996-7.744 3.828 0 6.028 2.244 6.028 6.82V278h4.224v-12.012c0-5.06 2.772-7.744 6.996-7.744 3.828 0 6.028 2.244 6.028 6.82V278h4.224v-13.42c0-6.864-3.872-10.12-9.548-10.12Zm38.525 12.012c0-7.172-4.796-12.012-11.528-12.012s-11.704 4.972-11.704 11.88c0 6.952 5.016 11.924 12.54 11.924 3.872 0 7.084-1.32 9.196-3.784l-2.332-2.728c-1.716 1.892-4.004 2.816-6.732 2.816-4.62 0-7.92-2.728-8.448-6.82h18.92c.044-.396.088-.924.088-1.276Zm-11.528-8.448c4.092 0 7.04 2.772 7.48 6.688h-14.96c.44-3.96 3.432-6.688 7.48-6.688Zm21.441.572v-3.916h-4.048V278h4.224v-11.616c0-5.104 2.816-7.876 7.348-7.876.308 0 .616 0 .968.044v-4.092c-4.092 0-6.996 1.408-8.492 4.136Z" fill="#fff"/><path d="m124.932 388.652 1.332-5.364h-2.268l-1.692 5.04c-.504 1.332-.648 1.872-.648 2.556 0 1.404 1.008 2.448 2.412 2.448 1.332 0 2.376-1.008 2.376-2.448 0-1.116-.576-1.908-1.512-2.232Zm6.804 0 1.332-5.364H130.8l-1.692 5.04c-.504 1.332-.648 1.872-.648 2.556 0 1.404 1.008 2.448 2.412 2.448 1.332 0 2.376-1.008 2.376-2.448 0-1.116-.576-1.908-1.512-2.232ZM138.361 410h3.6v-25.2h-3.6V410Zm9.452-15.48h2.556l.252-9.72h-3.024l.216 9.72Zm21.455-3.6-6.696 15.3-6.552-15.3h-3.6l8.352 19.08h3.528l8.352-19.08h-3.384Zm22.93 9.648c0-5.868-3.924-9.828-9.432-9.828-5.508 0-9.576 4.068-9.576 9.72 0 5.688 4.104 9.756 10.26 9.756 3.168 0 5.796-1.08 7.524-3.096l-1.908-2.232c-1.404 1.548-3.276 2.304-5.508 2.304-3.78 0-6.48-2.232-6.912-5.58h15.48c.036-.324.072-.756.072-1.044Zm-9.432-6.912c3.348 0 5.76 2.268 6.12 5.472h-12.24c.36-3.24 2.808-5.472 6.12-5.472Zm33.223-2.916c-2.7 0-5.076 1.008-6.66 3.06v-10.512h-3.456V410h3.312v-3.024c1.548 2.16 3.996 3.24 6.804 3.24 5.58 0 9.648-3.924 9.648-9.756 0-5.832-4.068-9.72-9.648-9.72Zm-.288 16.452c-3.636 0-6.408-2.664-6.408-6.732s2.772-6.696 6.408-6.696c3.672 0 6.444 2.628 6.444 6.696s-2.772 6.732-6.444 6.732Zm31.559-6.624c0-5.868-3.924-9.828-9.432-9.828-5.508 0-9.576 4.068-9.576 9.72 0 5.688 4.104 9.756 10.26 9.756 3.168 0 5.796-1.08 7.524-3.096l-1.908-2.232c-1.404 1.548-3.276 2.304-5.508 2.304-3.78 0-6.48-2.232-6.912-5.58h15.48c.036-.324.072-.756.072-1.044Zm-9.432-6.912c3.348 0 5.76 2.268 6.12 5.472h-12.24c.36-3.24 2.808-5.472 6.12-5.472Zm31.079 6.912c0-5.868-3.924-9.828-9.432-9.828-5.508 0-9.576 4.068-9.576 9.72 0 5.688 4.104 9.756 10.26 9.756 3.168 0 5.796-1.08 7.524-3.096l-1.908-2.232c-1.404 1.548-3.276 2.304-5.508 2.304-3.78 0-6.48-2.232-6.912-5.58h15.48c.036-.324.072-.756.072-1.044Zm-9.432-6.912c3.348 0 5.76 2.268 6.12 5.472h-12.24c.36-3.24 2.808-5.472 6.12-5.472Zm24.023-2.916c-3.024 0-5.472 1.116-6.876 3.06v-2.88h-3.312V410h3.456v-9.828c0-4.14 2.376-6.336 6.048-6.336 3.276 0 5.148 1.836 5.148 5.58V410h3.456v-10.98c0-5.616-3.276-8.28-7.92-8.28Zm37.52.18v9.864c0 4.104-2.304 6.336-5.904 6.336-3.276 0-5.148-1.872-5.148-5.616V390.92h-3.456v10.98c0 5.616 3.276 8.316 8.208 8.316 2.7 0 5.076-1.116 6.48-3.096V410h3.276v-19.08h-3.456Zm15.111 19.296c5.076 0 8.244-2.196 8.244-5.652 0-7.416-12.096-3.744-12.096-8.244 0-1.512 1.476-2.628 4.5-2.628 1.872 0 3.78.396 5.508 1.512l1.476-2.736c-1.656-1.08-4.464-1.728-6.948-1.728-4.896 0-7.956 2.304-7.956 5.724 0 7.596 12.06 3.888 12.06 8.172 0 1.62-1.332 2.592-4.536 2.592-2.484 0-5.076-.828-6.696-1.98l-1.44 2.736c1.584 1.26 4.716 2.232 7.884 2.232Zm13.895-22.968c1.368 0 2.34-1.008 2.34-2.304 0-1.224-1.008-2.196-2.34-2.196-1.332 0-2.34 1.008-2.34 2.268 0 1.26 1.008 2.232 2.34 2.232ZM348.296 410h3.456v-19.08h-3.456V410Zm19.847-19.26c-3.024 0-5.472 1.116-6.876 3.06v-2.88h-3.312V410h3.456v-9.828c0-4.14 2.376-6.336 6.048-6.336 3.276 0 5.148 1.836 5.148 5.58V410h3.456v-10.98c0-5.616-3.276-8.28-7.92-8.28Zm29.001.18v2.952c-1.62-2.088-4.212-3.132-7.056-3.132-5.508 0-9.684 3.708-9.684 9.216 0 5.508 4.176 9.252 9.684 9.252 2.736 0 5.22-.972 6.876-2.952v1.512c0 4.32-2.052 6.408-6.552 6.408-2.808 0-5.58-.972-7.344-2.484l-1.656 2.664c2.088 1.872 5.616 2.844 9.108 2.844 6.48 0 9.9-3.06 9.9-9.792V390.92h-3.276Zm-6.66 15.264c-3.852 0-6.588-2.556-6.588-6.228 0-3.708 2.736-6.192 6.588-6.192 3.816 0 6.552 2.484 6.552 6.192 0 3.672-2.736 6.228-6.552 6.228Zm51.191-15.264-5.688 15.264-5.652-15.264h-2.916l-5.76 15.192-5.544-15.192h-3.276l7.092 19.08h3.312l5.58-14.472L434.331 410h3.312l7.128-19.08h-3.096Zm22.924 9.648c0-5.868-3.924-9.828-9.432-9.828-5.508 0-9.576 4.068-9.576 9.72 0 5.688 4.104 9.756 10.26 9.756 3.168 0 5.796-1.08 7.524-3.096l-1.908-2.232c-1.404 1.548-3.276 2.304-5.508 2.304-3.78 0-6.48-2.232-6.912-5.58h15.48c.036-.324.072-.756.072-1.044Zm-9.432-6.912c3.348 0 5.76 2.268 6.12 5.472h-12.24c.36-3.24 2.808-5.472 6.12-5.472Zm23.951-2.916c-2.7 0-5.076 1.008-6.66 3.06v-10.512h-3.456V410h3.312v-3.024c1.548 2.16 3.996 3.24 6.804 3.24 5.58 0 9.648-3.924 9.648-9.756 0-5.832-4.068-9.72-9.648-9.72Zm-.288 16.452c-3.636 0-6.408-2.664-6.408-6.732s2.772-6.696 6.408-6.696c3.672 0 6.444 2.628 6.444 6.696s-2.772 6.732-6.444 6.732Zm21.571-11.808 6.588-8.136V384.8h-16.632v3.132h12.132l-6.336 7.776v2.52h2.016c4.32 0 6.228 1.728 6.228 4.392 0 2.736-2.16 4.464-5.94 4.464-3.096 0-5.904-1.116-7.596-2.7l-1.656 2.844c2.124 1.908 5.652 3.06 9.252 3.06 6.408 0 9.54-3.456 9.54-7.704 0-3.888-2.556-6.732-7.596-7.2Zm54.066-10.584-6.948 20.592-6.948-20.592h-3.312l-7.092 20.484-6.804-20.484h-3.708l8.424 25.2h3.852l6.876-20.124L545.683 410h3.78l8.424-25.2h-3.42Zm13.654 25.416c5.724 0 9.9-4.068 9.9-9.756 0-5.688-4.176-9.72-9.9-9.72s-9.936 4.032-9.936 9.72c0 5.688 4.212 9.756 9.936 9.756Zm0-3.024c-3.672 0-6.444-2.664-6.444-6.732s2.772-6.696 6.444-6.696 6.408 2.628 6.408 6.696-2.736 6.732-6.408 6.732Zm17.596-13.068v-3.204h-3.312V410h3.456v-9.504c0-4.176 2.304-6.444 6.012-6.444.252 0 .504 0 .792.036v-3.348c-3.348 0-5.724 1.152-6.948 3.384Zm25.18-10.836V393.8c-1.584-2.052-3.96-3.06-6.66-3.06-5.58 0-9.648 3.888-9.648 9.72 0 5.832 4.068 9.756 9.648 9.756 2.808 0 5.256-1.08 6.804-3.24V410h3.312v-26.712h-3.456Zm-6.372 23.904c-3.672 0-6.444-2.664-6.444-6.732s2.772-6.696 6.444-6.696c3.636 0 6.408 2.628 6.408 6.696s-2.772 6.732-6.408 6.732Zm26.303-22.392H621V410h3.6v-7.632h6.228c6.552 0 10.512-3.312 10.512-8.784 0-5.472-3.96-8.784-10.512-8.784Zm-.108 14.436h-6.12v-11.304h6.12c4.608 0 7.02 2.052 7.02 5.652s-2.412 5.652-7.02 5.652Zm18.004-5.112v-3.204h-3.312V410h3.456v-9.504c0-4.176 2.304-6.444 6.012-6.444.252 0 .504 0 .792.036v-3.348c-3.348 0-5.724 1.152-6.948 3.384Zm27.88 6.444c0-5.868-3.924-9.828-9.432-9.828-5.508 0-9.576 4.068-9.576 9.72 0 5.688 4.104 9.756 10.26 9.756 3.168 0 5.796-1.08 7.524-3.096l-1.908-2.232c-1.404 1.548-3.276 2.304-5.508 2.304-3.78 0-6.48-2.232-6.912-5.58h15.48c.036-.324.072-.756.072-1.044Zm-9.432-6.912c3.348 0 5.76 2.268 6.12 5.472h-12.24c.36-3.24 2.808-5.472 6.12-5.472Zm19.307 16.56c5.076 0 8.244-2.196 8.244-5.652 0-7.416-12.096-3.744-12.096-8.244 0-1.512 1.476-2.628 4.5-2.628 1.872 0 3.78.396 5.508 1.512l1.476-2.736c-1.656-1.08-4.464-1.728-6.948-1.728-4.896 0-7.956 2.304-7.956 5.724 0 7.596 12.06 3.888 12.06 8.172 0 1.62-1.332 2.592-4.536 2.592-2.484 0-5.076-.828-6.696-1.98l-1.44 2.736c1.584 1.26 4.716 2.232 7.884 2.232Zm17.639 0c5.076 0 8.244-2.196 8.244-5.652 0-7.416-12.096-3.744-12.096-8.244 0-1.512 1.476-2.628 4.5-2.628 1.872 0 3.78.396 5.508 1.512l1.476-2.736c-1.656-1.08-4.464-1.728-6.948-1.728-4.896 0-7.956 2.304-7.956 5.724 0 7.596 12.06 3.888 12.06 8.172 0 1.62-1.332 2.592-4.536 2.592-2.484 0-5.076-.828-6.696-1.98l-1.44 2.736c1.584 1.26 4.716 2.232 7.884 2.232Zm31.627-19.476c-2.916 0-5.292 1.044-6.732 2.88v-10.332h-3.456V410h3.456v-9.828c0-4.14 2.376-6.336 6.048-6.336 3.276 0 5.148 1.836 5.148 5.58V410h3.456v-10.98c0-5.616-3.276-8.28-7.92-8.28Zm22.198 19.476c5.724 0 9.9-4.068 9.9-9.756 0-5.688-4.176-9.72-9.9-9.72s-9.936 4.032-9.936 9.72c0 5.688 4.212 9.756 9.936 9.756Zm0-3.024c-3.672 0-6.444-2.664-6.444-6.732s2.772-6.696 6.444-6.696 6.408 2.628 6.408 6.696-2.736 6.732-6.408 6.732Zm19.755 3.024c5.076 0 8.244-2.196 8.244-5.652 0-7.416-12.096-3.744-12.096-8.244 0-1.512 1.476-2.628 4.5-2.628 1.872 0 3.78.396 5.508 1.512l1.476-2.736c-1.656-1.08-4.464-1.728-6.948-1.728-4.896 0-7.956 2.304-7.956 5.724 0 7.596 12.06 3.888 12.06 8.172 0 1.62-1.332 2.592-4.536 2.592-2.484 0-5.076-.828-6.696-1.98l-1.44 2.736c1.584 1.26 4.716 2.232 7.884 2.232Zm21.815-3.816c-.72.576-1.692.9-2.7.9-1.908 0-2.988-1.152-2.988-3.204v-10.332h5.472v-2.844h-5.472v-4.176h-3.456v4.176h-3.24v2.844h3.24v10.476c0 3.852 2.196 5.976 6.048 5.976 1.548 0 3.132-.432 4.176-1.332l-1.08-2.484Zm6.59-19.152c1.368 0 2.34-1.008 2.34-2.304 0-1.224-1.008-2.196-2.34-2.196-1.332 0-2.34 1.008-2.34 2.268 0 1.26 1.008 2.232 2.34 2.232ZM804.375 410h3.456v-19.08h-3.456V410Zm19.847-19.26c-3.024 0-5.472 1.116-6.876 3.06v-2.88h-3.312V410h3.456v-9.828c0-4.14 2.376-6.336 6.048-6.336 3.276 0 5.148 1.836 5.148 5.58V410h3.456v-10.98c0-5.616-3.276-8.28-7.92-8.28Zm29.002.18v2.952c-1.62-2.088-4.212-3.132-7.056-3.132-5.508 0-9.684 3.708-9.684 9.216 0 5.508 4.176 9.252 9.684 9.252 2.736 0 5.22-.972 6.876-2.952v1.512c0 4.32-2.052 6.408-6.552 6.408-2.808 0-5.58-.972-7.344-2.484l-1.656 2.664c2.088 1.872 5.616 2.844 9.108 2.844 6.48 0 9.9-3.06 9.9-9.792V390.92h-3.276Zm-6.66 15.264c-3.852 0-6.588-2.556-6.588-6.228 0-3.708 2.736-6.192 6.588-6.192 3.816 0 6.552 2.484 6.552 6.192 0 3.672-2.736 6.228-6.552 6.228Zm32.399-20.268c1.008 0 1.944.36 2.664.9l1.044-2.628c-.972-.756-2.412-1.116-3.888-1.116-4.068 0-6.3 2.448-6.3 6.156v1.692h-3.24v2.844h3.24V410h3.456v-16.236h5.472v-2.844h-5.544v-1.656c0-2.196 1.044-3.348 3.096-3.348Zm13.202 24.3c5.724 0 9.9-4.068 9.9-9.756 0-5.688-4.176-9.72-9.9-9.72s-9.936 4.032-9.936 9.72c0 5.688 4.212 9.756 9.936 9.756Zm0-3.024c-3.672 0-6.444-2.664-6.444-6.732s2.772-6.696 6.444-6.696 6.408 2.628 6.408 6.696-2.736 6.732-6.408 6.732Zm17.596-13.068v-3.204h-3.312V410h3.456v-9.504c0-4.176 2.304-6.444 6.012-6.444.252 0 .504 0 .792.036v-3.348c-3.348 0-5.724 1.152-6.948 3.384Zm44.197-3.384c-3.24 0-5.904 1.368-7.344 3.528-1.26-2.376-3.708-3.528-6.624-3.528-2.88 0-5.22 1.08-6.588 3.024v-2.844h-3.312V410h3.456v-9.828c0-4.14 2.268-6.336 5.724-6.336 3.132 0 4.932 1.836 4.932 5.58V410h3.456v-9.828c0-4.14 2.268-6.336 5.724-6.336 3.132 0 4.932 1.836 4.932 5.58V410h3.456v-10.98c0-5.616-3.168-8.28-7.812-8.28Zm26.924.18-6.588 15.264-6.66-15.264h-3.6l8.424 19.044-.612 1.332c-.936 2.196-1.98 2.952-3.636 2.952-1.296 0-2.484-.504-3.42-1.404l-1.476 2.592c1.188 1.152 3.06 1.764 4.896 1.764 2.916 0 5.112-1.26 6.804-5.292l9.252-20.988h-3.384Zm41.258 0-5.68 15.264-5.66-15.264h-2.91l-5.76 15.192-5.547-15.192h-3.276L1000.4 410h3.31l5.58-14.472L1014.8 410h3.31l7.13-19.08h-3.1Zm22.93 9.648c0-5.868-3.93-9.828-9.44-9.828-5.5 0-9.57 4.068-9.57 9.72 0 5.688 4.1 9.756 10.26 9.756 3.17 0 5.79-1.08 7.52-3.096l-1.91-2.232c-1.4 1.548-3.27 2.304-5.5 2.304-3.78 0-6.48-2.232-6.92-5.58h15.48c.04-.324.08-.756.08-1.044Zm-9.44-6.912c3.35 0 5.76 2.268 6.12 5.472h-12.24c.36-3.24 2.81-5.472 6.12-5.472Zm23.96-2.916c-2.7 0-5.08 1.008-6.66 3.06v-10.512h-3.46V410h3.31v-3.024c1.55 2.16 4 3.24 6.81 3.24 5.58 0 9.64-3.924 9.64-9.756 0-5.832-4.06-9.72-9.64-9.72Zm-.29 16.452c-3.64 0-6.41-2.664-6.41-6.732s2.77-6.696 6.41-6.696c3.67 0 6.44 2.628 6.44 6.696s-2.77 6.732-6.44 6.732Zm19.78 3.024c5.08 0 8.25-2.196 8.25-5.652 0-7.416-12.1-3.744-12.1-8.244 0-1.512 1.48-2.628 4.5-2.628 1.87 0 3.78.396 5.51 1.512l1.48-2.736c-1.66-1.08-4.47-1.728-6.95-1.728-4.9 0-7.96 2.304-7.96 5.724 0 7.596 12.06 3.888 12.06 8.172 0 1.62-1.33 2.592-4.53 2.592-2.49 0-5.08-.828-6.7-1.98l-1.44 2.736c1.58 1.26 4.72 2.232 7.88 2.232Zm13.9-22.968c1.37 0 2.34-1.008 2.34-2.304 0-1.224-1.01-2.196-2.34-2.196-1.33 0-2.34 1.008-2.34 2.268 0 1.26 1.01 2.232 2.34 2.232ZM1091.25 410h3.46v-19.08h-3.46V410Zm19.31-3.6c-.72.576-1.69.9-2.7.9-1.91 0-2.99-1.152-2.99-3.204v-10.332h5.47v-2.844h-5.47v-4.176h-3.46v4.176h-3.24v2.844h3.24v10.476c0 3.852 2.2 5.976 6.05 5.976 1.55 0 3.13-.432 4.18-1.332l-1.08-2.484Zm21.47-5.832c0-5.868-3.92-9.828-9.43-9.828s-9.58 4.068-9.58 9.72c0 5.688 4.11 9.756 10.26 9.756 3.17 0 5.8-1.08 7.53-3.096l-1.91-2.232c-1.4 1.548-3.28 2.304-5.51 2.304-3.78 0-6.48-2.232-6.91-5.58h15.48c.04-.324.07-.756.07-1.044Zm-9.43-6.912c3.35 0 5.76 2.268 6.12 5.472h-12.24c.36-3.24 2.81-5.472 6.12-5.472Zm30.09-7.74c1.01 0 1.94.36 2.66.9l1.05-2.628c-.97-.756-2.41-1.116-3.89-1.116-4.07 0-6.3 2.448-6.3 6.156v1.692h-3.24v2.844h3.24V410h3.46v-16.236h5.47v-2.844h-5.55v-1.656c0-2.196 1.05-3.348 3.1-3.348Zm13.2 24.3c5.73 0 9.9-4.068 9.9-9.756 0-5.688-4.17-9.72-9.9-9.72-5.72 0-9.93 4.032-9.93 9.72 0 5.688 4.21 9.756 9.93 9.756Zm0-3.024c-3.67 0-6.44-2.664-6.44-6.732s2.77-6.696 6.44-6.696c3.68 0 6.41 2.628 6.41 6.696s-2.73 6.732-6.41 6.732Zm17.6-13.068v-3.204h-3.31V410h3.45v-9.504c0-4.176 2.31-6.444 6.01-6.444.26 0 .51 0 .8.036v-3.348c-3.35 0-5.73 1.152-6.95 3.384Zm27.28-3.384c-3.06 0-5.91.864-7.89 2.448l1.44 2.592c1.48-1.26 3.78-2.052 6.05-2.052 3.42 0 5.11 1.692 5.11 4.608v.684h-5.47c-5.69 0-7.67 2.52-7.67 5.58 0 3.312 2.74 5.616 7.06 5.616 2.99 0 5.11-1.008 6.26-2.736V410h3.28v-11.52c0-5.22-2.95-7.74-8.17-7.74Zm-.8 16.812c-2.62 0-4.21-1.188-4.21-3.096 0-1.62.97-2.952 4.39-2.952h5.33v2.664c-.86 2.196-2.91 3.384-5.51 3.384ZM130.26 439.916c1.008 0 1.944.36 2.664.9l1.044-2.628c-.972-.756-2.412-1.116-3.888-1.116-4.068 0-6.3 2.448-6.3 6.156v1.692h-3.24v2.844h3.24V464h3.456v-16.236h5.472v-2.844h-5.544v-1.656c0-2.196 1.044-3.348 3.096-3.348Zm22.274 14.652c0-5.868-3.924-9.828-9.432-9.828-5.508 0-9.576 4.068-9.576 9.72 0 5.688 4.104 9.756 10.26 9.756 3.168 0 5.796-1.08 7.524-3.096l-1.908-2.232c-1.404 1.548-3.276 2.304-5.508 2.304-3.78 0-6.48-2.232-6.912-5.58h15.48c.036-.324.072-.756.072-1.044Zm-9.432-6.912c3.348 0 5.76 2.268 6.12 5.472h-12.24c.36-3.24 2.808-5.472 6.12-5.472Zm39.26-2.736-5.688 15.264-5.652-15.264h-2.916l-5.76 15.192-5.544-15.192h-3.276l7.092 19.08h3.312l5.58-14.472L175.018 464h3.312l7.128-19.08h-3.096Zm39.346-.18c-3.24 0-5.904 1.368-7.344 3.528-1.26-2.376-3.708-3.528-6.624-3.528-2.88 0-5.22 1.08-6.588 3.024v-2.844h-3.312V464h3.456v-9.828c0-4.14 2.268-6.336 5.724-6.336 3.132 0 4.932 1.836 4.932 5.58V464h3.456v-9.828c0-4.14 2.268-6.336 5.724-6.336 3.132 0 4.932 1.836 4.932 5.58V464h3.456v-10.98c0-5.616-3.168-8.28-7.812-8.28Zm22.053 19.476c5.724 0 9.9-4.068 9.9-9.756 0-5.688-4.176-9.72-9.9-9.72s-9.936 4.032-9.936 9.72c0 5.688 4.212 9.756 9.936 9.756Zm0-3.024c-3.672 0-6.444-2.664-6.444-6.732s2.772-6.696 6.444-6.696 6.408 2.628 6.408 6.696-2.736 6.732-6.408 6.732Zm24.472-16.452c-3.024 0-5.472 1.116-6.876 3.06v-2.88h-3.312V464h3.456v-9.828c0-4.14 2.376-6.336 6.048-6.336 3.276 0 5.148 1.836 5.148 5.58V464h3.456v-10.98c0-5.616-3.276-8.28-7.92-8.28ZM291.8 460.4c-.72.576-1.692.9-2.7.9-1.908 0-2.988-1.152-2.988-3.204v-10.332h5.472v-2.844h-5.472v-4.176h-3.456v4.176h-3.24v2.844h3.24v10.476c0 3.852 2.196 5.976 6.048 5.976 1.548 0 3.132-.432 4.176-1.332l-1.08-2.484Zm15.051-15.66c-2.916 0-5.292 1.044-6.732 2.88v-10.332h-3.456V464h3.456v-9.828c0-4.14 2.376-6.336 6.048-6.336 3.276 0 5.148 1.836 5.148 5.58V464h3.456v-10.98c0-5.616-3.276-8.28-7.92-8.28Zm19.392 19.476c5.076 0 8.244-2.196 8.244-5.652 0-7.416-12.096-3.744-12.096-8.244 0-1.512 1.476-2.628 4.5-2.628 1.872 0 3.78.396 5.508 1.512l1.476-2.736c-1.656-1.08-4.464-1.728-6.948-1.728-4.896 0-7.956 2.304-7.956 5.724 0 7.596 12.06 3.888 12.06 8.172 0 1.62-1.332 2.592-4.536 2.592-2.484 0-5.076-.828-6.696-1.98l-1.44 2.736c1.584 1.26 4.716 2.232 7.884 2.232Zm31.627-19.476c-3.024 0-5.472 1.116-6.876 3.06v-2.88h-3.312V464h3.456v-9.828c0-4.14 2.376-6.336 6.048-6.336 3.276 0 5.148 1.836 5.148 5.58V464h3.456v-10.98c0-5.616-3.276-8.28-7.92-8.28Zm22.197 19.476c5.724 0 9.9-4.068 9.9-9.756 0-5.688-4.176-9.72-9.9-9.72s-9.936 4.032-9.936 9.72c0 5.688 4.212 9.756 9.936 9.756Zm0-3.024c-3.672 0-6.444-2.664-6.444-6.732s2.772-6.696 6.444-6.696 6.408 2.628 6.408 6.696-2.736 6.732-6.408 6.732Zm39.532-16.272-5.688 15.264-5.652-15.264h-2.916l-5.76 15.192-5.544-15.192h-3.276l7.092 19.08h3.312l5.58-14.472L412.255 464h3.312l7.128-19.08h-3.096Zm22.427-.18c-3.06 0-5.904.864-7.884 2.448l1.44 2.592c1.476-1.26 3.78-2.052 6.048-2.052 3.42 0 5.112 1.692 5.112 4.608v.684h-5.472c-5.688 0-7.668 2.52-7.668 5.58 0 3.312 2.736 5.616 7.056 5.616 2.988 0 5.112-1.008 6.264-2.736V464h3.276v-11.52c0-5.22-2.952-7.74-8.172-7.74Zm-.792 16.812c-2.628 0-4.212-1.188-4.212-3.096 0-1.62.972-2.952 4.392-2.952h5.328v2.664c-.864 2.196-2.916 3.384-5.508 3.384Zm25.152-16.812c-3.024 0-5.472 1.116-6.876 3.06v-2.88h-3.312V464h3.456v-9.828c0-4.14 2.376-6.336 6.048-6.336 3.276 0 5.148 1.836 5.148 5.58V464h3.456v-10.98c0-5.616-3.276-8.28-7.92-8.28Zm28.569-7.452V447.8c-1.584-2.052-3.96-3.06-6.66-3.06-5.58 0-9.648 3.888-9.648 9.72 0 5.832 4.068 9.756 9.648 9.756 2.808 0 5.256-1.08 6.804-3.24V464h3.312v-26.712h-3.456Zm-6.372 23.904c-3.672 0-6.444-2.664-6.444-6.732s2.772-6.696 6.444-6.696c3.636 0 6.408 2.628 6.408 6.696s-2.772 6.732-6.408 6.732Zm26.971-19.944c1.368 0 2.34-1.008 2.34-2.304 0-1.224-1.008-2.196-2.34-2.196-1.332 0-2.34 1.008-2.34 2.268 0 1.26 1.008 2.232 2.34 2.232ZM513.826 464h3.456v-19.08h-3.456V464Zm19.307-3.6c-.72.576-1.692.9-2.7.9-1.908 0-2.988-1.152-2.988-3.204v-10.332h5.472v-2.844h-5.472v-4.176h-3.456v4.176h-3.24v2.844h3.24v10.476c0 3.852 2.196 5.976 6.048 5.976 1.548 0 3.132-.432 4.176-1.332l-1.08-2.484Zm4.07-11.88h2.556l.252-9.72h-3.024l.216 9.72Zm13.427 15.696c5.076 0 8.244-2.196 8.244-5.652 0-7.416-12.096-3.744-12.096-8.244 0-1.512 1.476-2.628 4.5-2.628 1.872 0 3.78.396 5.508 1.512l1.476-2.736c-1.656-1.08-4.464-1.728-6.948-1.728-4.896 0-7.956 2.304-7.956 5.724 0 7.596 12.06 3.888 12.06 8.172 0 1.62-1.332 2.592-4.536 2.592-2.484 0-5.076-.828-6.696-1.98l-1.44 2.736c1.584 1.26 4.716 2.232 7.884 2.232Zm31.555-19.476c-2.7 0-5.076 1.008-6.66 3.06v-10.512h-3.456V464h3.312v-3.024c1.548 2.16 3.996 3.24 6.804 3.24 5.58 0 9.648-3.924 9.648-9.756 0-5.832-4.068-9.72-9.648-9.72Zm-.288 16.452c-3.636 0-6.408-2.664-6.408-6.732s2.772-6.696 6.408-6.696c3.672 0 6.444 2.628 6.444 6.696s-2.772 6.732-6.444 6.732Zm31.559-6.624c0-5.868-3.924-9.828-9.432-9.828-5.508 0-9.576 4.068-9.576 9.72 0 5.688 4.104 9.756 10.26 9.756 3.168 0 5.796-1.08 7.524-3.096l-1.908-2.232c-1.404 1.548-3.276 2.304-5.508 2.304-3.78 0-6.48-2.232-6.912-5.58h15.48c.036-.324.072-.756.072-1.044Zm-9.432-6.912c3.348 0 5.76 2.268 6.12 5.472h-12.24c.36-3.24 2.808-5.472 6.12-5.472Zm31.079 6.912c0-5.868-3.924-9.828-9.432-9.828-5.508 0-9.576 4.068-9.576 9.72 0 5.688 4.104 9.756 10.26 9.756 3.168 0 5.796-1.08 7.524-3.096l-1.908-2.232c-1.404 1.548-3.276 2.304-5.508 2.304-3.78 0-6.48-2.232-6.912-5.58h15.48c.036-.324.072-.756.072-1.044Zm-9.432-6.912c3.348 0 5.76 2.268 6.12 5.472h-12.24c.36-3.24 2.808-5.472 6.12-5.472Zm24.023-2.916c-3.024 0-5.472 1.116-6.876 3.06v-2.88h-3.312V464h3.456v-9.828c0-4.14 2.376-6.336 6.048-6.336 3.276 0 5.148 1.836 5.148 5.58V464h3.456v-10.98c0-5.616-3.276-8.28-7.92-8.28Zm30.14 0c-3.06 0-5.904.864-7.884 2.448l1.44 2.592c1.476-1.26 3.78-2.052 6.048-2.052 3.42 0 5.112 1.692 5.112 4.608v.684h-5.472c-5.688 0-7.668 2.52-7.668 5.58 0 3.312 2.736 5.616 7.056 5.616 2.988 0 5.112-1.008 6.264-2.736V464h3.276v-11.52c0-5.22-2.952-7.74-8.172-7.74Zm-.792 16.812c-2.628 0-4.212-1.188-4.212-3.096 0-1.62.972-2.952 4.392-2.952h5.328v2.664c-.864 2.196-2.916 3.384-5.508 3.384Zm39.211-16.632v2.952c-1.62-2.088-4.212-3.132-7.056-3.132-5.508 0-9.684 3.708-9.684 9.216 0 5.508 4.176 9.252 9.684 9.252 2.736 0 5.22-.972 6.876-2.952v1.512c0 4.32-2.052 6.408-6.552 6.408-2.808 0-5.58-.972-7.344-2.484l-1.656 2.664c2.088 1.872 5.616 2.844 9.108 2.844 6.48 0 9.9-3.06 9.9-9.792V444.92h-3.276Zm-6.66 15.264c-3.852 0-6.588-2.556-6.588-6.228 0-3.708 2.736-6.192 6.588-6.192 3.816 0 6.552 2.484 6.552 6.192 0 3.672-2.736 6.228-6.552 6.228Zm19.456-12.06v-3.204h-3.312V464h3.456v-9.504c0-4.176 2.304-6.444 6.012-6.444.252 0 .504 0 .792.036v-3.348c-3.348 0-5.724 1.152-6.948 3.384Zm27.88 6.444c0-5.868-3.924-9.828-9.432-9.828-5.508 0-9.576 4.068-9.576 9.72 0 5.688 4.104 9.756 10.26 9.756 3.168 0 5.796-1.08 7.524-3.096l-1.908-2.232c-1.404 1.548-3.276 2.304-5.508 2.304-3.78 0-6.48-2.232-6.912-5.58h15.48c.036-.324.072-.756.072-1.044Zm-9.432-6.912c3.348 0 5.76 2.268 6.12 5.472h-12.24c.36-3.24 2.808-5.472 6.12-5.472Zm20.255-2.916c-3.06 0-5.904.864-7.884 2.448l1.44 2.592c1.476-1.26 3.78-2.052 6.048-2.052 3.42 0 5.112 1.692 5.112 4.608v.684h-5.472c-5.688 0-7.668 2.52-7.668 5.58 0 3.312 2.736 5.616 7.056 5.616 2.988 0 5.112-1.008 6.264-2.736V464h3.276v-11.52c0-5.22-2.952-7.74-8.172-7.74Zm-.792 16.812c-2.628 0-4.212-1.188-4.212-3.096 0-1.62.972-2.952 4.392-2.952h5.328v2.664c-.864 2.196-2.916 3.384-5.508 3.384Zm24.612-1.152c-.72.576-1.692.9-2.7.9-1.908 0-2.988-1.152-2.988-3.204v-10.332h5.472v-2.844h-5.472v-4.176h-3.456v4.176h-3.24v2.844h3.24v10.476c0 3.852 2.196 5.976 6.048 5.976 1.548 0 3.132-.432 4.176-1.332l-1.08-2.484Zm31.378-5.832c0-5.868-3.924-9.828-9.432-9.828-5.508 0-9.576 4.068-9.576 9.72 0 5.688 4.104 9.756 10.26 9.756 3.168 0 5.796-1.08 7.524-3.096l-1.908-2.232c-1.404 1.548-3.276 2.304-5.508 2.304-3.78 0-6.48-2.232-6.912-5.58h15.48c.036-.324.072-.756.072-1.044Zm-9.432-6.912c3.348 0 5.76 2.268 6.12 5.472h-12.24c.36-3.24 2.808-5.472 6.12-5.472Zm29.4 16.344-7.596-9.756 7.2-9.324h-3.78l-5.22 6.876-5.256-6.876h-3.852l7.164 9.324-7.524 9.756h3.852l5.58-7.308 5.508 7.308h3.924Zm13.491-19.26c-2.808 0-5.256 1.08-6.804 3.204v-3.024h-3.312v26.064h3.456v-9.864c1.584 2.052 3.96 3.096 6.66 3.096 5.58 0 9.648-3.888 9.648-9.756 0-5.832-4.068-9.72-9.648-9.72Zm-.288 16.452c-3.636 0-6.408-2.664-6.408-6.732 0-4.032 2.772-6.696 6.408-6.696 3.672 0 6.444 2.664 6.444 6.696 0 4.068-2.772 6.732-6.444 6.732Zm31.559-6.624c0-5.868-3.924-9.828-9.432-9.828-5.508 0-9.576 4.068-9.576 9.72 0 5.688 4.104 9.756 10.26 9.756 3.168 0 5.796-1.08 7.524-3.096l-1.908-2.232c-1.404 1.548-3.276 2.304-5.508 2.304-3.78 0-6.48-2.232-6.912-5.58h15.48c.036-.324.072-.756.072-1.044Zm-9.432-6.912c3.348 0 5.76 2.268 6.12 5.472h-12.24c.36-3.24 2.808-5.472 6.12-5.472Zm17.147.468v-3.204h-3.312V464h3.456v-9.504c0-4.176 2.304-6.444 6.012-6.444.252 0 .504 0 .792.036v-3.348c-3.348 0-5.724 1.152-6.948 3.384Zm12.539-6.876c1.368 0 2.34-1.008 2.34-2.304 0-1.224-1.008-2.196-2.34-2.196-1.332 0-2.34 1.008-2.34 2.268 0 1.26 1.008 2.232 2.34 2.232ZM908.206 464h3.456v-19.08h-3.456V464Zm26.903-9.432c0-5.868-3.924-9.828-9.432-9.828-5.508 0-9.576 4.068-9.576 9.72 0 5.688 4.104 9.756 10.26 9.756 3.168 0 5.796-1.08 7.524-3.096l-1.908-2.232c-1.404 1.548-3.276 2.304-5.508 2.304-3.78 0-6.48-2.232-6.912-5.58h15.48c.036-.324.072-.756.072-1.044Zm-9.432-6.912c3.348 0 5.76 2.268 6.12 5.472h-12.24c.36-3.24 2.808-5.472 6.12-5.472Zm24.023-2.916c-3.024 0-5.472 1.116-6.876 3.06v-2.88h-3.312V464h3.456v-9.828c0-4.14 2.376-6.336 6.048-6.336 3.276 0 5.148 1.836 5.148 5.58V464h3.456v-10.98c0-5.616-3.276-8.28-7.92-8.28Zm22.342 19.476c3.42 0 6.264-1.44 7.776-4.104l-2.628-1.656c-1.224 1.872-3.096 2.736-5.184 2.736-3.744 0-6.552-2.592-6.552-6.732 0-4.068 2.808-6.696 6.552-6.696 2.088 0 3.96.864 5.184 2.736l2.628-1.692c-1.512-2.664-4.356-4.068-7.776-4.068-5.868 0-10.08 4.032-10.08 9.72 0 5.688 4.212 9.756 10.08 9.756Zm28.818-9.648c0-5.868-3.925-9.828-9.433-9.828s-9.576 4.068-9.576 9.72c0 5.688 4.104 9.756 10.26 9.756 3.168 0 5.796-1.08 7.524-3.096l-1.908-2.232c-1.404 1.548-3.276 2.304-5.508 2.304-3.78 0-6.48-2.232-6.912-5.58h15.483c.03-.324.07-.756.07-1.044Zm-9.433-6.912c3.348 0 5.76 2.268 6.12 5.472h-12.24c.36-3.24 2.808-5.472 6.12-5.472Zm14.663 16.56c1.3 0 2.38-1.044 2.38-2.484s-1.08-2.448-2.38-2.448c-1.33 0-2.45 1.008-2.45 2.448s1.12 2.484 2.45 2.484Zm21.71-.216h3.57v-22.068h8.64V438.8h-20.85v3.132h8.64V464Zm25.41-19.26c-2.91 0-5.29 1.044-6.73 2.88v-10.332h-3.45V464h3.45v-9.828c0-4.14 2.38-6.336 6.05-6.336 3.28 0 5.15 1.836 5.15 5.58V464h3.45v-10.98c0-5.616-3.27-8.28-7.92-8.28Zm31.27 9.828c0-5.868-3.92-9.828-9.43-9.828s-9.57 4.068-9.57 9.72c0 5.688 4.1 9.756 10.26 9.756 3.16 0 5.79-1.08 7.52-3.096l-1.91-2.232c-1.4 1.548-3.27 2.304-5.51 2.304-3.78 0-6.48-2.232-6.91-5.58h15.48c.04-.324.07-.756.07-1.044Zm-9.43-6.912c3.35 0 5.76 2.268 6.12 5.472h-12.24c.36-3.24 2.81-5.472 6.12-5.472Zm15.57-6.408c1.36 0 2.34-1.008 2.34-2.304 0-1.224-1.01-2.196-2.34-2.196-1.34 0-2.34 1.008-2.34 2.268 0 1.26 1 2.232 2.34 2.232ZM1088.89 464h3.45v-19.08h-3.45V464Zm12.97-15.876v-3.204h-3.31V464h3.45v-9.504c0-4.176 2.31-6.444 6.01-6.444.26 0 .51 0 .8.036v-3.348c-3.35 0-5.73 1.152-6.95 3.384Zm-973.112 70.092c5.076 0 8.244-2.196 8.244-5.652 0-7.416-12.096-3.744-12.096-8.244 0-1.512 1.476-2.628 4.5-2.628 1.872 0 3.78.396 5.508 1.512l1.476-2.736c-1.656-1.08-4.464-1.728-6.948-1.728-4.896 0-7.956 2.304-7.956 5.724 0 7.596 12.06 3.888 12.06 8.172 0 1.62-1.332 2.592-4.536 2.592-2.484 0-5.076-.828-6.696-1.98l-1.44 2.736c1.584 1.26 4.716 2.232 7.884 2.232Zm22.283-19.476c-2.808 0-5.256 1.08-6.804 3.204v-3.024h-3.312v26.064h3.456v-9.864c1.584 2.052 3.96 3.096 6.66 3.096 5.58 0 9.648-3.888 9.648-9.756 0-5.832-4.068-9.72-9.648-9.72Zm-.288 16.452c-3.636 0-6.408-2.664-6.408-6.732 0-4.032 2.772-6.696 6.408-6.696 3.672 0 6.444 2.664 6.444 6.696 0 4.068-2.772 6.732-6.444 6.732Zm31.559-6.624c0-5.868-3.924-9.828-9.432-9.828-5.508 0-9.576 4.068-9.576 9.72 0 5.688 4.104 9.756 10.26 9.756 3.168 0 5.796-1.08 7.524-3.096l-1.908-2.232c-1.404 1.548-3.276 2.304-5.508 2.304-3.78 0-6.48-2.232-6.912-5.58h15.48c.036-.324.072-.756.072-1.044Zm-9.432-6.912c3.348 0 5.76 2.268 6.12 5.472h-12.24c.36-3.24 2.808-5.472 6.12-5.472Zm31.079 6.912c0-5.868-3.924-9.828-9.432-9.828-5.508 0-9.576 4.068-9.576 9.72 0 5.688 4.104 9.756 10.26 9.756 3.168 0 5.796-1.08 7.524-3.096l-1.908-2.232c-1.404 1.548-3.276 2.304-5.508 2.304-3.78 0-6.48-2.232-6.912-5.58h15.48c.036-.324.072-.756.072-1.044Zm-9.432-6.912c3.348 0 5.76 2.268 6.12 5.472h-12.24c.36-3.24 2.808-5.472 6.12-5.472Zm28.379-10.368V501.8c-1.584-2.052-3.96-3.06-6.66-3.06-5.58 0-9.648 3.888-9.648 9.72 0 5.832 4.068 9.756 9.648 9.756 2.808 0 5.256-1.08 6.804-3.24V518h3.312v-26.712h-3.456Zm-6.372 23.904c-3.672 0-6.444-2.664-6.444-6.732s2.772-6.696 6.444-6.696c3.636 0 6.408 2.628 6.408 6.696s-2.772 6.732-6.408 6.732Zm32.191-16.452c-3.06 0-5.904.864-7.884 2.448l1.44 2.592c1.476-1.26 3.78-2.052 6.048-2.052 3.42 0 5.112 1.692 5.112 4.608v.684h-5.472c-5.688 0-7.668 2.52-7.668 5.58 0 3.312 2.736 5.616 7.056 5.616 2.988 0 5.112-1.008 6.264-2.736V518h3.276v-11.52c0-5.22-2.952-7.74-8.172-7.74Zm-.792 16.812c-2.628 0-4.212-1.188-4.212-3.096 0-1.62.972-2.952 4.392-2.952h5.328v2.664c-.864 2.196-2.916 3.384-5.508 3.384Zm25.152-16.812c-3.024 0-5.472 1.116-6.876 3.06v-2.88h-3.312V518h3.456v-9.828c0-4.14 2.376-6.336 6.048-6.336 3.276 0 5.148 1.836 5.148 5.58V518h3.456v-10.98c0-5.616-3.276-8.28-7.92-8.28Zm28.569-7.452V501.8c-1.584-2.052-3.96-3.06-6.66-3.06-5.58 0-9.648 3.888-9.648 9.72 0 5.832 4.068 9.756 9.648 9.756 2.808 0 5.256-1.08 6.804-3.24V518h3.312v-26.712h-3.456Zm-6.372 23.904c-3.672 0-6.444-2.664-6.444-6.732s2.772-6.696 6.444-6.696c3.636 0 6.408 2.628 6.408 6.696s-2.772 6.732-6.408 6.732Zm39.571-16.272v9.864c0 4.104-2.304 6.336-5.904 6.336-3.276 0-5.148-1.872-5.148-5.616V498.92h-3.456v10.98c0 5.616 3.276 8.316 8.208 8.316 2.7 0 5.076-1.116 6.48-3.096V518h3.276v-19.08h-3.456Zm19.755-.18c-2.808 0-5.256 1.08-6.804 3.204v-3.024h-3.312v26.064h3.456v-9.864c1.584 2.052 3.96 3.096 6.66 3.096 5.58 0 9.648-3.888 9.648-9.756 0-5.832-4.068-9.72-9.648-9.72Zm-.288 16.452c-3.636 0-6.408-2.664-6.408-6.732 0-4.032 2.772-6.696 6.408-6.696 3.672 0 6.444 2.664 6.444 6.696 0 4.068-2.772 6.732-6.444 6.732Zm23.964-.792c-.72.576-1.692.9-2.7.9-1.908 0-2.988-1.152-2.988-3.204v-10.332h5.472v-2.844h-5.472v-4.176h-3.456v4.176h-3.24v2.844h3.24v10.476c0 3.852 2.196 5.976 6.048 5.976 1.548 0 3.132-.432 4.176-1.332l-1.08-2.484Zm6.59-19.152c1.368 0 2.34-1.008 2.34-2.304 0-1.224-1.008-2.196-2.34-2.196-1.332 0-2.34 1.008-2.34 2.268 0 1.26 1.008 2.232 2.34 2.232ZM383.136 518h3.456v-19.08h-3.456V518Zm33.526-19.26c-3.24 0-5.904 1.368-7.344 3.528-1.26-2.376-3.708-3.528-6.624-3.528-2.88 0-5.22 1.08-6.588 3.024v-2.844h-3.312V518h3.456v-9.828c0-4.14 2.268-6.336 5.724-6.336 3.132 0 4.932 1.836 4.932 5.58V518h3.456v-9.828c0-4.14 2.268-6.336 5.724-6.336 3.132 0 4.932 1.836 4.932 5.58V518h3.456v-10.98c0-5.616-3.168-8.28-7.812-8.28Zm31.125 9.828c0-5.868-3.924-9.828-9.432-9.828-5.508 0-9.576 4.068-9.576 9.72 0 5.688 4.104 9.756 10.26 9.756 3.168 0 5.796-1.08 7.524-3.096l-1.908-2.232c-1.404 1.548-3.276 2.304-5.508 2.304-3.78 0-6.48-2.232-6.912-5.58h15.48c.036-.324.072-.756.072-1.044Zm-9.432-6.912c3.348 0 5.76 2.268 6.12 5.472h-12.24c.36-3.24 2.808-5.472 6.12-5.472Zm30.055-2.916c-3.06 0-5.904.864-7.884 2.448l1.44 2.592c1.476-1.26 3.78-2.052 6.048-2.052 3.42 0 5.112 1.692 5.112 4.608v.684h-5.472c-5.688 0-7.668 2.52-7.668 5.58 0 3.312 2.736 5.616 7.056 5.616 2.988 0 5.112-1.008 6.264-2.736V518h3.276v-11.52c0-5.22-2.952-7.74-8.172-7.74Zm-.792 16.812c-2.628 0-4.212-1.188-4.212-3.096 0-1.62.972-2.952 4.392-2.952h5.328v2.664c-.864 2.196-2.916 3.384-5.508 3.384Zm18.276-13.428v-3.204h-3.312V518h3.456v-9.504c0-4.176 2.304-6.444 6.012-6.444.252 0 .504 0 .792.036v-3.348c-3.348 0-5.724 1.152-6.948 3.384Zm27.879 6.444c0-5.868-3.924-9.828-9.432-9.828-5.508 0-9.576 4.068-9.576 9.72 0 5.688 4.104 9.756 10.26 9.756 3.168 0 5.796-1.08 7.524-3.096l-1.908-2.232c-1.404 1.548-3.276 2.304-5.508 2.304-3.78 0-6.48-2.232-6.912-5.58h15.48c.036-.324.072-.756.072-1.044Zm-9.432-6.912c3.348 0 5.76 2.268 6.12 5.472h-12.24c.36-3.24 2.808-5.472 6.12-5.472Zm24.835-6.408c1.368 0 2.34-1.008 2.34-2.304 0-1.224-1.008-2.196-2.34-2.196-1.332 0-2.34 1.008-2.34 2.268 0 1.26 1.008 2.232 2.34 2.232ZM527.448 518h3.456v-19.08h-3.456V518Zm33.527-19.26c-3.24 0-5.904 1.368-7.344 3.528-1.26-2.376-3.708-3.528-6.624-3.528-2.88 0-5.22 1.08-6.588 3.024v-2.844h-3.312V518h3.456v-9.828c0-4.14 2.268-6.336 5.724-6.336 3.132 0 4.932 1.836 4.932 5.58V518h3.456v-9.828c0-4.14 2.268-6.336 5.724-6.336 3.132 0 4.932 1.836 4.932 5.58V518h3.456v-10.98c0-5.616-3.168-8.28-7.812-8.28Zm23.891 0c-2.808 0-5.256 1.08-6.804 3.204v-3.024h-3.312v26.064h3.456v-9.864c1.584 2.052 3.96 3.096 6.66 3.096 5.58 0 9.648-3.888 9.648-9.756 0-5.832-4.068-9.72-9.648-9.72Zm-.288 16.452c-3.636 0-6.408-2.664-6.408-6.732 0-4.032 2.772-6.696 6.408-6.696 3.672 0 6.444 2.664 6.444 6.696 0 4.068-2.772 6.732-6.444 6.732Zm17.627-13.068v-3.204h-3.312V518h3.456v-9.504c0-4.176 2.304-6.444 6.012-6.444.252 0 .504 0 .792.036v-3.348c-3.348 0-5.724 1.152-6.948 3.384Zm27.88 6.444c0-5.868-3.924-9.828-9.432-9.828-5.508 0-9.576 4.068-9.576 9.72 0 5.688 4.104 9.756 10.26 9.756 3.168 0 5.796-1.08 7.524-3.096l-1.908-2.232c-1.404 1.548-3.276 2.304-5.508 2.304-3.78 0-6.48-2.232-6.912-5.58h15.48c.036-.324.072-.756.072-1.044Zm-9.432-6.912c3.348 0 5.76 2.268 6.12 5.472h-12.24c.36-3.24 2.808-5.472 6.12-5.472Zm19.307 16.56c5.076 0 8.244-2.196 8.244-5.652 0-7.416-12.096-3.744-12.096-8.244 0-1.512 1.476-2.628 4.5-2.628 1.872 0 3.78.396 5.508 1.512l1.476-2.736c-1.656-1.08-4.464-1.728-6.948-1.728-4.896 0-7.956 2.304-7.956 5.724 0 7.596 12.06 3.888 12.06 8.172 0 1.62-1.332 2.592-4.536 2.592-2.484 0-5.076-.828-6.696-1.98l-1.44 2.736c1.584 1.26 4.716 2.232 7.884 2.232Zm17.639 0c5.076 0 8.244-2.196 8.244-5.652 0-7.416-12.096-3.744-12.096-8.244 0-1.512 1.476-2.628 4.5-2.628 1.872 0 3.78.396 5.508 1.512l1.476-2.736c-1.656-1.08-4.464-1.728-6.948-1.728-4.896 0-7.956 2.304-7.956 5.724 0 7.596 12.06 3.888 12.06 8.172 0 1.62-1.332 2.592-4.536 2.592-2.484 0-5.076-.828-6.696-1.98l-1.44 2.736c1.584 1.26 4.716 2.232 7.884 2.232Zm13.895-22.968c1.368 0 2.34-1.008 2.34-2.304 0-1.224-1.008-2.196-2.34-2.196-1.332 0-2.34 1.008-2.34 2.268 0 1.26 1.008 2.232 2.34 2.232ZM669.766 518h3.456v-19.08h-3.456V518Zm23.159-19.08-6.696 15.3-6.552-15.3h-3.6l8.352 19.08h3.528l8.352-19.08h-3.384Zm22.93 9.648c0-5.868-3.924-9.828-9.432-9.828-5.508 0-9.576 4.068-9.576 9.72 0 5.688 4.104 9.756 10.26 9.756 3.168 0 5.796-1.08 7.524-3.096l-1.908-2.232c-1.404 1.548-3.276 2.304-5.508 2.304-3.78 0-6.48-2.232-6.912-5.58h15.48c.036-.324.072-.756.072-1.044Zm-9.432-6.912c3.348 0 5.76 2.268 6.12 5.472h-12.24c.36-3.24 2.808-5.472 6.12-5.472Zm14.699 11.628c-1.368 0-2.412 1.008-2.412 2.448 0 1.08.612 1.908 1.512 2.232l-1.332 5.364h2.268l1.692-5.004c.468-1.332.612-1.872.612-2.592 0-1.404-.972-2.448-2.34-2.448Zm23.116-14.544c-3.06 0-5.904.864-7.884 2.448l1.44 2.592c1.476-1.26 3.78-2.052 6.048-2.052 3.42 0 5.112 1.692 5.112 4.608v.684h-5.472c-5.688 0-7.668 2.52-7.668 5.58 0 3.312 2.736 5.616 7.056 5.616 2.988 0 5.112-1.008 6.264-2.736V518h3.276v-11.52c0-5.22-2.952-7.74-8.172-7.74Zm-.792 16.812c-2.628 0-4.212-1.188-4.212-3.096 0-1.62.972-2.952 4.392-2.952h5.328v2.664c-.864 2.196-2.916 3.384-5.508 3.384Zm25.152-16.812c-3.024 0-5.472 1.116-6.876 3.06v-2.88h-3.312V518h3.456v-9.828c0-4.14 2.376-6.336 6.048-6.336 3.276 0 5.148 1.836 5.148 5.58V518h3.456v-10.98c0-5.616-3.276-8.28-7.92-8.28Zm28.569-7.452V501.8c-1.584-2.052-3.96-3.06-6.66-3.06-5.58 0-9.648 3.888-9.648 9.72 0 5.832 4.068 9.756 9.648 9.756 2.808 0 5.256-1.08 6.804-3.24V518h3.312v-26.712h-3.456Zm-6.372 23.904c-3.672 0-6.444-2.664-6.444-6.732s2.772-6.696 6.444-6.696c3.636 0 6.408 2.628 6.408 6.696s-2.772 6.732-6.408 6.732Zm34.891-.792c-.72.576-1.692.9-2.7.9-1.908 0-2.988-1.152-2.988-3.204v-10.332h5.472v-2.844h-5.472v-4.176h-3.456v4.176h-3.24v2.844h3.24v10.476c0 3.852 2.196 5.976 6.048 5.976 1.548 0 3.132-.432 4.176-1.332l-1.08-2.484Zm15.05-15.66c-2.916 0-5.292 1.044-6.732 2.88v-10.332h-3.456V518h3.456v-9.828c0-4.14 2.376-6.336 6.048-6.336 3.276 0 5.148 1.836 5.148 5.58V518h3.456v-10.98c0-5.616-3.276-8.28-7.92-8.28Zm31.27 9.828c0-5.868-3.924-9.828-9.432-9.828-5.508 0-9.576 4.068-9.576 9.72 0 5.688 4.104 9.756 10.26 9.756 3.168 0 5.796-1.08 7.524-3.096l-1.908-2.232c-1.404 1.548-3.276 2.304-5.508 2.304-3.78 0-6.48-2.232-6.912-5.58h15.48c.036-.324.072-.756.072-1.044Zm-9.432-6.912c3.348 0 5.76 2.268 6.12 5.472h-12.24c.36-3.24 2.808-5.472 6.12-5.472Zm15.563-6.408c1.368 0 2.34-1.008 2.34-2.304 0-1.224-1.008-2.196-2.34-2.196-1.332 0-2.34 1.008-2.34 2.268 0 1.26 1.008 2.232 2.34 2.232ZM876.409 518h3.456v-19.08h-3.456V518Zm12.97-15.876v-3.204h-3.312V518h3.456v-9.504c0-4.176 2.304-6.444 6.012-6.444.252 0 .504 0 .792.036v-3.348c-3.348 0-5.724 1.152-6.948 3.384Zm28.646 16.092c3.42 0 6.264-1.44 7.776-4.104l-2.628-1.656c-1.224 1.872-3.096 2.736-5.184 2.736-3.744 0-6.552-2.592-6.552-6.732 0-4.068 2.808-6.696 6.552-6.696 2.088 0 3.96.864 5.184 2.736l2.628-1.692c-1.512-2.664-4.356-4.068-7.776-4.068-5.868 0-10.08 4.032-10.08 9.72 0 5.688 4.212 9.756 10.08 9.756Zm26.182-19.296v9.864c0 4.104-2.304 6.336-5.904 6.336-3.276 0-5.148-1.872-5.148-5.616V498.92h-3.456v10.98c0 5.616 3.276 8.316 8.208 8.316 2.7 0 5.076-1.116 6.48-3.096V518h3.276v-19.08h-3.456Zm15.112 19.296c5.076 0 8.244-2.196 8.244-5.652 0-7.416-12.096-3.744-12.096-8.244 0-1.512 1.476-2.628 4.5-2.628 1.872 0 3.78.396 5.508 1.512l1.476-2.736c-1.656-1.08-4.464-1.728-6.948-1.728-4.896 0-7.956 2.304-7.956 5.724 0 7.596 12.06 3.888 12.06 8.172 0 1.62-1.332 2.592-4.536 2.592-2.484 0-5.076-.828-6.696-1.98l-1.44 2.736c1.584 1.26 4.716 2.232 7.884 2.232Zm21.815-3.816c-.72.576-1.692.9-2.7.9-1.908 0-2.988-1.152-2.988-3.204v-10.332h5.472v-2.844h-5.472v-4.176h-3.456v4.176h-3.24v2.844h3.24v10.476c0 3.852 2.196 5.976 6.048 5.976 1.548 0 3.132-.432 4.176-1.332l-1.08-2.484Zm12.401 3.816c5.724 0 9.905-4.068 9.905-9.756 0-5.688-4.181-9.72-9.905-9.72-5.724 0-9.936 4.032-9.936 9.72 0 5.688 4.212 9.756 9.936 9.756Zm0-3.024c-3.672 0-6.444-2.664-6.444-6.732s2.772-6.696 6.444-6.696 6.408 2.628 6.408 6.696-2.736 6.732-6.408 6.732Zm38.155-16.452c-3.24 0-5.91 1.368-7.35 3.528-1.26-2.376-3.71-3.528-6.62-3.528-2.88 0-5.22 1.08-6.59 3.024v-2.844h-3.31V518h3.45v-9.828c0-4.14 2.27-6.336 5.73-6.336 3.13 0 4.93 1.836 4.93 5.58V518h3.46v-9.828c0-4.14 2.26-6.336 5.72-6.336 3.13 0 4.93 1.836 4.93 5.58V518h3.46v-10.98c0-5.616-3.17-8.28-7.81-8.28Zm31.12 9.828c0-5.868-3.92-9.828-9.43-9.828s-9.58 4.068-9.58 9.72c0 5.688 4.11 9.756 10.26 9.756 3.17 0 5.8-1.08 7.53-3.096l-1.91-2.232c-1.4 1.548-3.28 2.304-5.51 2.304-3.78 0-6.48-2.232-6.91-5.58h15.48c.04-.324.07-.756.07-1.044Zm-9.43-6.912c3.35 0 5.76 2.268 6.12 5.472h-12.24c.36-3.24 2.81-5.472 6.12-5.472Zm17.15.468v-3.204h-3.32V518h3.46v-9.504c0-4.176 2.3-6.444 6.01-6.444.25 0 .51 0 .79.036v-3.348c-3.34 0-5.72 1.152-6.94 3.384Zm-941.782 70.092c5.076 0 8.244-2.196 8.244-5.652 0-7.416-12.096-3.744-12.096-8.244 0-1.512 1.476-2.628 4.5-2.628 1.872 0 3.78.396 5.508 1.512l1.476-2.736c-1.656-1.08-4.464-1.728-6.948-1.728-4.896 0-7.956 2.304-7.956 5.724 0 7.596 12.06 3.888 12.06 8.172 0 1.62-1.332 2.592-4.536 2.592-2.484 0-5.076-.828-6.696-1.98l-1.44 2.736c1.584 1.26 4.716 2.232 7.884 2.232Zm26.495-19.296v9.864c0 4.104-2.304 6.336-5.904 6.336-3.276 0-5.148-1.872-5.148-5.616V552.92h-3.456v10.98c0 5.616 3.276 8.316 8.208 8.316 2.7 0 5.076-1.116 6.48-3.096V572h3.276v-19.08h-3.456Zm19.755-.18c-2.808 0-5.256 1.08-6.804 3.204v-3.024h-3.312v26.064h3.456v-9.864c1.584 2.052 3.96 3.096 6.66 3.096 5.58 0 9.648-3.888 9.648-9.756 0-5.832-4.068-9.72-9.648-9.72Zm-.288 16.452c-3.636 0-6.408-2.664-6.408-6.732 0-4.032 2.772-6.696 6.408-6.696 3.672 0 6.444 2.664 6.444 6.696 0 4.068-2.772 6.732-6.444 6.732Zm24.431-16.452c-2.808 0-5.256 1.08-6.804 3.204v-3.024h-3.312v26.064h3.456v-9.864c1.584 2.052 3.96 3.096 6.66 3.096 5.58 0 9.648-3.888 9.648-9.756 0-5.832-4.068-9.72-9.648-9.72Zm-.288 16.452c-3.636 0-6.408-2.664-6.408-6.732 0-4.032 2.772-6.696 6.408-6.696 3.672 0 6.444 2.664 6.444 6.696 0 4.068-2.772 6.732-6.444 6.732Zm22.488 3.024c5.724 0 9.9-4.068 9.9-9.756 0-5.688-4.176-9.72-9.9-9.72s-9.936 4.032-9.936 9.72c0 5.688 4.212 9.756 9.936 9.756Zm0-3.024c-3.672 0-6.444-2.664-6.444-6.732s2.772-6.696 6.444-6.696 6.408 2.628 6.408 6.696-2.736 6.732-6.408 6.732Zm17.595-13.068v-3.204h-3.312V572h3.456v-9.504c0-4.176 2.304-6.444 6.012-6.444.252 0 .504 0 .792.036v-3.348c-3.348 0-5.724 1.152-6.948 3.384Zm21.233 12.276c-.72.576-1.692.9-2.7.9-1.908 0-2.988-1.152-2.988-3.204v-10.332h5.472v-2.844h-5.472v-4.176h-3.456v4.176h-3.24v2.844h3.24v10.476c0 3.852 2.196 5.976 6.048 5.976 1.548 0 3.132-.432 4.176-1.332l-1.08-2.484Zm23.782 0c-.72.576-1.692.9-2.7.9-1.908 0-2.988-1.152-2.988-3.204v-10.332h5.472v-2.844h-5.472v-4.176h-3.456v4.176h-3.24v2.844h3.24v10.476c0 3.852 2.196 5.976 6.048 5.976 1.548 0 3.132-.432 4.176-1.332l-1.08-2.484Zm21.474-5.832c0-5.868-3.924-9.828-9.432-9.828-5.508 0-9.576 4.068-9.576 9.72 0 5.688 4.104 9.756 10.26 9.756 3.168 0 5.796-1.08 7.524-3.096l-1.908-2.232c-1.404 1.548-3.276 2.304-5.508 2.304-3.78 0-6.48-2.232-6.912-5.58h15.48c.036-.324.072-.756.072-1.044Zm-9.432-6.912c3.348 0 5.76 2.268 6.12 5.472h-12.24c.36-3.24 2.808-5.472 6.12-5.472Zm20.255-2.916c-3.06 0-5.904.864-7.884 2.448l1.44 2.592c1.476-1.26 3.78-2.052 6.048-2.052 3.42 0 5.112 1.692 5.112 4.608v.684h-5.472c-5.688 0-7.668 2.52-7.668 5.58 0 3.312 2.736 5.616 7.056 5.616 2.988 0 5.112-1.008 6.264-2.736V572h3.276v-11.52c0-5.22-2.952-7.74-8.172-7.74Zm-.792 16.812c-2.628 0-4.212-1.188-4.212-3.096 0-1.62.972-2.952 4.392-2.952h5.328v2.664c-.864 2.196-2.916 3.384-5.508 3.384Zm38.832-16.812c-3.24 0-5.904 1.368-7.344 3.528-1.26-2.376-3.708-3.528-6.624-3.528-2.88 0-5.22 1.08-6.588 3.024v-2.844h-3.312V572h3.456v-9.828c0-4.14 2.268-6.336 5.724-6.336 3.132 0 4.932 1.836 4.932 5.58V572h3.456v-9.828c0-4.14 2.268-6.336 5.724-6.336 3.132 0 4.932 1.836 4.932 5.58V572h3.456v-10.98c0-5.616-3.168-8.28-7.812-8.28Zm33.235 0c-2.916 0-5.292 1.044-6.732 2.88v-10.332h-3.456V572h3.456v-9.828c0-4.14 2.376-6.336 6.048-6.336 3.276 0 5.148 1.836 5.148 5.58V572h3.456v-10.98c0-5.616-3.276-8.28-7.92-8.28Zm20.868 0c-3.06 0-5.904.864-7.884 2.448l1.44 2.592c1.476-1.26 3.78-2.052 6.048-2.052 3.42 0 5.112 1.692 5.112 4.608v.684h-5.472c-5.688 0-7.668 2.52-7.668 5.58 0 3.312 2.736 5.616 7.056 5.616 2.988 0 5.112-1.008 6.264-2.736V572h3.276v-11.52c0-5.22-2.952-7.74-8.172-7.74Zm-.792 16.812c-2.628 0-4.212-1.188-4.212-3.096 0-1.62.972-2.952 4.392-2.952h5.328v2.664c-.864 2.196-2.916 3.384-5.508 3.384Zm20.436 2.664c5.076 0 8.244-2.196 8.244-5.652 0-7.416-12.096-3.744-12.096-8.244 0-1.512 1.476-2.628 4.5-2.628 1.872 0 3.78.396 5.508 1.512l1.476-2.736c-1.656-1.08-4.464-1.728-6.948-1.728-4.896 0-7.956 2.304-7.956 5.724 0 7.596 12.06 3.888 12.06 8.172 0 1.62-1.332 2.592-4.536 2.592-2.484 0-5.076-.828-6.696-1.98l-1.44 2.736c1.584 1.26 4.716 2.232 7.884 2.232Zm31.555-19.476c-2.7 0-5.076 1.008-6.66 3.06v-10.512h-3.456V572h3.312v-3.024c1.548 2.16 3.996 3.24 6.804 3.24 5.58 0 9.648-3.924 9.648-9.756 0-5.832-4.068-9.72-9.648-9.72Zm-.288 16.452c-3.636 0-6.408-2.664-6.408-6.732s2.772-6.696 6.408-6.696c3.672 0 6.444 2.628 6.444 6.696s-2.772 6.732-6.444 6.732Zm31.559-6.624c0-5.868-3.924-9.828-9.432-9.828-5.508 0-9.576 4.068-9.576 9.72 0 5.688 4.104 9.756 10.26 9.756 3.168 0 5.796-1.08 7.524-3.096l-1.908-2.232c-1.404 1.548-3.276 2.304-5.508 2.304-3.78 0-6.48-2.232-6.912-5.58h15.48c.036-.324.072-.756.072-1.044Zm-9.432-6.912c3.348 0 5.76 2.268 6.12 5.472h-12.24c.36-3.24 2.808-5.472 6.12-5.472Zm31.079 6.912c0-5.868-3.924-9.828-9.432-9.828-5.508 0-9.576 4.068-9.576 9.72 0 5.688 4.104 9.756 10.26 9.756 3.168 0 5.796-1.08 7.524-3.096l-1.908-2.232c-1.404 1.548-3.276 2.304-5.508 2.304-3.78 0-6.48-2.232-6.912-5.58h15.48c.036-.324.072-.756.072-1.044Zm-9.432-6.912c3.348 0 5.76 2.268 6.12 5.472h-12.24c.36-3.24 2.808-5.472 6.12-5.472Zm24.023-2.916c-3.024 0-5.472 1.116-6.876 3.06v-2.88h-3.312V572h3.456v-9.828c0-4.14 2.376-6.336 6.048-6.336 3.276 0 5.148 1.836 5.148 5.58V572h3.456v-10.98c0-5.616-3.276-8.28-7.92-8.28Zm24.92-3.492c1.368 0 2.34-1.008 2.34-2.304 0-1.224-1.008-2.196-2.34-2.196-1.332 0-2.34 1.008-2.34 2.268 0 1.26 1.008 2.232 2.34 2.232ZM550.291 572h3.456v-19.08h-3.456V572Zm19.846-19.26c-3.024 0-5.472 1.116-6.876 3.06v-2.88h-3.312V572h3.456v-9.828c0-4.14 2.376-6.336 6.048-6.336 3.276 0 5.148 1.836 5.148 5.58V572h3.456v-10.98c0-5.616-3.276-8.28-7.92-8.28Zm22.342 19.476c3.42 0 6.264-1.44 7.776-4.104l-2.628-1.656c-1.224 1.872-3.096 2.736-5.184 2.736-3.744 0-6.552-2.592-6.552-6.732 0-4.068 2.808-6.696 6.552-6.696 2.088 0 3.96.864 5.184 2.736l2.628-1.692c-1.512-2.664-4.356-4.068-7.776-4.068-5.868 0-10.08 4.032-10.08 9.72 0 5.688 4.212 9.756 10.08 9.756Zm15.166-16.092v-3.204h-3.312V572h3.456v-9.504c0-4.176 2.304-6.444 6.012-6.444.252 0 .504 0 .792.036v-3.348c-3.348 0-5.724 1.152-6.948 3.384Zm27.88 6.444c0-5.868-3.924-9.828-9.432-9.828-5.508 0-9.576 4.068-9.576 9.72 0 5.688 4.104 9.756 10.26 9.756 3.168 0 5.796-1.08 7.524-3.096l-1.908-2.232c-1.404 1.548-3.276 2.304-5.508 2.304-3.78 0-6.48-2.232-6.912-5.58h15.48c.036-.324.072-.756.072-1.044Zm-9.432-6.912c3.348 0 5.76 2.268 6.12 5.472h-12.24c.36-3.24 2.808-5.472 6.12-5.472Zm28.379-10.368V555.8c-1.584-2.052-3.96-3.06-6.66-3.06-5.58 0-9.648 3.888-9.648 9.72 0 5.832 4.068 9.756 9.648 9.756 2.808 0 5.256-1.08 6.804-3.24V572h3.312v-26.712h-3.456Zm-6.372 23.904c-3.672 0-6.444-2.664-6.444-6.732s2.772-6.696 6.444-6.696c3.636 0 6.408 2.628 6.408 6.696s-2.772 6.732-6.408 6.732Zm17.699-19.944c1.368 0 2.34-1.008 2.34-2.304 0-1.224-1.008-2.196-2.34-2.196-1.332 0-2.34 1.008-2.34 2.268 0 1.26 1.008 2.232 2.34 2.232ZM664.071 572h3.456v-19.08h-3.456V572Zm19.774-19.26c-2.7 0-5.076 1.008-6.66 3.06v-10.512h-3.456V572h3.312v-3.024c1.548 2.16 3.996 3.24 6.804 3.24 5.58 0 9.648-3.924 9.648-9.756 0-5.832-4.068-9.72-9.648-9.72Zm-.288 16.452c-3.636 0-6.408-2.664-6.408-6.732s2.772-6.696 6.408-6.696c3.672 0 6.444 2.628 6.444 6.696s-2.772 6.732-6.444 6.732ZM697.873 572h3.456v-26.712h-3.456V572Zm23.158-19.08-6.588 15.264-6.66-15.264h-3.6l8.424 19.044-.612 1.332c-.936 2.196-1.98 2.952-3.636 2.952-1.296 0-2.484-.504-3.42-1.404l-1.476 2.592c1.188 1.152 3.06 1.764 4.896 1.764 2.916 0 5.112-1.26 6.804-5.292l9.252-20.988h-3.384Zm25.674-.18c-2.916 0-5.292 1.044-6.732 2.88v-10.332h-3.456V572h3.456v-9.828c0-4.14 2.376-6.336 6.048-6.336 3.276 0 5.148 1.836 5.148 5.58V572h3.456v-10.98c0-5.616-3.276-8.28-7.92-8.28Zm31.269 9.828c0-5.868-3.924-9.828-9.432-9.828-5.508 0-9.576 4.068-9.576 9.72 0 5.688 4.104 9.756 10.26 9.756 3.168 0 5.796-1.08 7.524-3.096l-1.908-2.232c-1.404 1.548-3.276 2.304-5.508 2.304-3.78 0-6.48-2.232-6.912-5.58h15.48c.036-.324.072-.756.072-1.044Zm-9.432-6.912c3.348 0 5.76 2.268 6.12 5.472h-12.24c.36-3.24 2.808-5.472 6.12-5.472ZM782.377 572h3.456v-26.712h-3.456V572Zm19.775-19.26c-2.808 0-5.256 1.08-6.804 3.204v-3.024h-3.312v26.064h3.456v-9.864c1.584 2.052 3.96 3.096 6.66 3.096 5.58 0 9.648-3.888 9.648-9.756 0-5.832-4.068-9.72-9.648-9.72Zm-.288 16.452c-3.636 0-6.408-2.664-6.408-6.732 0-4.032 2.772-6.696 6.408-6.696 3.672 0 6.444 2.664 6.444 6.696 0 4.068-2.772 6.732-6.444 6.732Zm21.299-21.276c1.008 0 1.944.36 2.664.9l1.044-2.628c-.972-.756-2.412-1.116-3.888-1.116-4.068 0-6.3 2.448-6.3 6.156v1.692h-3.24v2.844h3.24V572h3.456v-16.236h5.472v-2.844h-5.544v-1.656c0-2.196 1.044-3.348 3.096-3.348Zm19.639 5.004v9.864c0 4.104-2.304 6.336-5.904 6.336-3.276 0-5.148-1.872-5.148-5.616V552.92h-3.456v10.98c0 5.616 3.276 8.316 8.208 8.316 2.7 0 5.076-1.116 6.48-3.096V572h3.276v-19.08h-3.456Zm9.639 19.08h3.456v-26.712h-3.456V572Zm10.487.216c1.296 0 2.376-1.044 2.376-2.484s-1.08-2.448-2.376-2.448c-1.332 0-2.448 1.008-2.448 2.448s1.116 2.484 2.448 2.484ZM884.64 572h3.564v-22.068h8.64V546.8H876v3.132h8.64V572Zm25.413-19.26c-2.916 0-5.292 1.044-6.732 2.88v-10.332h-3.456V572h3.456v-9.828c0-4.14 2.376-6.336 6.048-6.336 3.276 0 5.148 1.836 5.148 5.58V572h3.456v-10.98c0-5.616-3.276-8.28-7.92-8.28Zm31.27 9.828c0-5.868-3.924-9.828-9.432-9.828-5.508 0-9.576 4.068-9.576 9.72 0 5.688 4.104 9.756 10.26 9.756 3.168 0 5.796-1.08 7.524-3.096l-1.908-2.232c-1.404 1.548-3.276 2.304-5.508 2.304-3.78 0-6.48-2.232-6.912-5.58h15.48c.036-.324.072-.756.072-1.044Zm-9.432-6.912c3.348 0 5.76 2.268 6.12 5.472h-12.24c.36-3.24 2.808-5.472 6.12-5.472Zm15.563-6.408c1.368 0 2.34-1.008 2.34-2.304 0-1.224-1.008-2.196-2.34-2.196-1.332 0-2.34 1.008-2.34 2.268 0 1.26 1.008 2.232 2.34 2.232ZM945.726 572h3.456v-19.08h-3.456V572Zm12.97-15.876v-3.204h-3.312V572h3.456v-9.504c0-4.176 2.304-6.444 6.012-6.444.252 0 .504 0 .792.036v-3.348c-3.348 0-5.724 1.152-6.948 3.384Zm27.314-8.208c1.008 0 1.944.36 2.664.9l1.044-2.628c-.972-.756-2.412-1.116-3.888-1.116-4.068 0-6.3 2.448-6.3 6.156v1.692h-3.24v2.844h3.24V572h3.456v-16.236h5.472v-2.844h-5.544v-1.656c0-2.196 1.044-3.348 3.096-3.348Zm22.27 14.652c0-5.868-3.92-9.828-9.428-9.828-5.508 0-9.576 4.068-9.576 9.72 0 5.688 4.104 9.756 10.26 9.756 3.164 0 5.794-1.08 7.524-3.096l-1.91-2.232c-1.4 1.548-3.27 2.304-5.506 2.304-3.78 0-6.48-2.232-6.912-5.58h15.478c.04-.324.07-.756.07-1.044Zm-9.428-6.912c3.348 0 5.758 2.268 6.118 5.472h-12.238c.36-3.24 2.808-5.472 6.12-5.472Zm20.258-2.916c-3.06 0-5.91.864-7.89 2.448l1.44 2.592c1.48-1.26 3.78-2.052 6.05-2.052 3.42 0 5.11 1.692 5.11 4.608v.684h-5.47c-5.69 0-7.67 2.52-7.67 5.58 0 3.312 2.74 5.616 7.06 5.616 2.99 0 5.11-1.008 6.26-2.736V572h3.28v-11.52c0-5.22-2.95-7.74-8.17-7.74Zm-.79 16.812c-2.63 0-4.22-1.188-4.22-3.096 0-1.62.98-2.952 4.4-2.952h5.32v2.664c-.86 2.196-2.91 3.384-5.5 3.384Zm24.61-1.152c-.72.576-1.69.9-2.7.9-1.91 0-2.99-1.152-2.99-3.204v-10.332h5.47v-2.844h-5.47v-4.176h-3.46v4.176h-3.24v2.844h3.24v10.476c0 3.852 2.2 5.976 6.05 5.976 1.55 0 3.13-.432 4.18-1.332l-1.08-2.484Zm19.19-15.48v9.864c0 4.104-2.31 6.336-5.91 6.336-3.27 0-5.14-1.872-5.14-5.616V552.92h-3.46v10.98c0 5.616 3.28 8.316 8.21 8.316 2.7 0 5.07-1.116 6.48-3.096V572h3.27v-19.08h-3.45Zm12.95 3.204v-3.204h-3.31V572h3.45v-9.504c0-4.176 2.31-6.444 6.01-6.444.26 0 .51 0 .8.036v-3.348c-3.35 0-5.73 1.152-6.95 3.384Zm27.88 6.444c0-5.868-3.93-9.828-9.43-9.828-5.51 0-9.58 4.068-9.58 9.72 0 5.688 4.1 9.756 10.26 9.756 3.17 0 5.8-1.08 7.52-3.096l-1.9-2.232c-1.41 1.548-3.28 2.304-5.51 2.304-3.78 0-6.48-2.232-6.91-5.58h15.48c.03-.324.07-.756.07-1.044Zm-9.43-6.912c3.34 0 5.76 2.268 6.12 5.472h-12.24c.36-3.24 2.8-5.472 6.12-5.472Zm19.3 16.56c5.08 0 8.25-2.196 8.25-5.652 0-7.416-12.1-3.744-12.1-8.244 0-1.512 1.48-2.628 4.5-2.628 1.87 0 3.78.396 5.51 1.512l1.48-2.736c-1.66-1.08-4.47-1.728-6.95-1.728-4.9 0-7.96 2.304-7.96 5.724 0 7.596 12.06 3.888 12.06 8.172 0 1.62-1.33 2.592-4.53 2.592-2.49 0-5.08-.828-6.7-1.98l-1.44 2.736c1.58 1.26 4.72 2.232 7.88 2.232Zm13.03-4.932c-1.36 0-2.41 1.008-2.41 2.448 0 1.08.61 1.908 1.51 2.232l-1.33 5.364h2.27l1.69-5.004c.47-1.332.61-1.872.61-2.592 0-1.404-.97-2.448-2.34-2.448Zm-997.102 58.932c5.076 0 8.244-2.196 8.244-5.652 0-7.416-12.096-3.744-12.096-8.244 0-1.512 1.476-2.628 4.5-2.628 1.872 0 3.78.396 5.508 1.512l1.476-2.736c-1.656-1.08-4.464-1.728-6.948-1.728-4.896 0-7.956 2.304-7.956 5.724 0 7.596 12.06 3.888 12.06 8.172 0 1.62-1.332 2.592-4.536 2.592-2.484 0-5.076-.828-6.696-1.98l-1.44 2.736c1.584 1.26 4.716 2.232 7.884 2.232Zm26.495-19.296v9.864c0 4.104-2.304 6.336-5.904 6.336-3.276 0-5.148-1.872-5.148-5.616V606.92h-3.456v10.98c0 5.616 3.276 8.316 8.208 8.316 2.7 0 5.076-1.116 6.48-3.096V626h3.276v-19.08h-3.456Zm17.955 19.296c3.42 0 6.264-1.44 7.776-4.104l-2.628-1.656c-1.224 1.872-3.096 2.736-5.184 2.736-3.744 0-6.552-2.592-6.552-6.732 0-4.068 2.808-6.696 6.552-6.696 2.088 0 3.96.864 5.184 2.736l2.628-1.692c-1.512-2.664-4.356-4.068-7.776-4.068-5.868 0-10.08 4.032-10.08 9.72 0 5.688 4.212 9.756 10.08 9.756Zm21.797-19.476c-2.916 0-5.292 1.044-6.732 2.88v-10.332h-3.456V626h3.456v-9.828c0-4.14 2.376-6.336 6.048-6.336 3.276 0 5.148 1.836 5.148 5.58V626h3.456v-10.98c0-5.616-3.276-8.28-7.92-8.28Zm30.14 0c-3.06 0-5.904.864-7.884 2.448l1.44 2.592c1.476-1.26 3.78-2.052 6.048-2.052 3.42 0 5.112 1.692 5.112 4.608v.684h-5.472c-5.688 0-7.668 2.52-7.668 5.58 0 3.312 2.736 5.616 7.056 5.616 2.988 0 5.112-1.008 6.264-2.736V626h3.276v-11.52c0-5.22-2.952-7.74-8.172-7.74Zm-.792 16.812c-2.628 0-4.212-1.188-4.212-3.096 0-1.62.972-2.952 4.392-2.952h5.328v2.664c-.864 2.196-2.916 3.384-5.508 3.384Zm20.435 2.664c5.076 0 8.244-2.196 8.244-5.652 0-7.416-12.096-3.744-12.096-8.244 0-1.512 1.476-2.628 4.5-2.628 1.872 0 3.78.396 5.508 1.512l1.476-2.736c-1.656-1.08-4.464-1.728-6.948-1.728-4.896 0-7.956 2.304-7.956 5.724 0 7.596 12.06 3.888 12.06 8.172 0 1.62-1.332 2.592-4.536 2.592-2.484 0-5.076-.828-6.696-1.98l-1.44 2.736c1.584 1.26 4.716 2.232 7.884 2.232Zm29.755 0c3.42 0 6.264-1.44 7.776-4.104l-2.628-1.656c-1.224 1.872-3.096 2.736-5.184 2.736-3.744 0-6.552-2.592-6.552-6.732 0-4.068 2.808-6.696 6.552-6.696 2.088 0 3.96.864 5.184 2.736l2.628-1.692c-1.512-2.664-4.356-4.068-7.776-4.068-5.868 0-10.08 4.032-10.08 9.72 0 5.688 4.212 9.756 10.08 9.756Zm18.803-19.476c-3.06 0-5.904.864-7.884 2.448l1.44 2.592c1.476-1.26 3.78-2.052 6.048-2.052 3.42 0 5.112 1.692 5.112 4.608v.684h-5.472c-5.688 0-7.668 2.52-7.668 5.58 0 3.312 2.736 5.616 7.056 5.616 2.988 0 5.112-1.008 6.264-2.736V626h3.276v-11.52c0-5.22-2.952-7.74-8.172-7.74Zm-.792 16.812c-2.628 0-4.212-1.188-4.212-3.096 0-1.62.972-2.952 4.392-2.952h5.328v2.664c-.864 2.196-2.916 3.384-5.508 3.384Zm23.385 2.664c3.42 0 6.264-1.44 7.776-4.104l-2.628-1.656c-1.224 1.872-3.096 2.736-5.184 2.736-3.744 0-6.552-2.592-6.552-6.732 0-4.068 2.808-6.696 6.552-6.696 2.088 0 3.96.864 5.184 2.736l2.628-1.692c-1.512-2.664-4.356-4.068-7.776-4.068-5.868 0-10.08 4.032-10.08 9.72 0 5.688 4.212 9.756 10.08 9.756Zm21.796-19.476c-2.916 0-5.292 1.044-6.732 2.88v-10.332h-3.456V626h3.456v-9.828c0-4.14 2.376-6.336 6.048-6.336 3.276 0 5.148 1.836 5.148 5.58V626h3.456v-10.98c0-5.616-3.276-8.28-7.92-8.28Zm15.648-3.492c1.368 0 2.34-1.008 2.34-2.304 0-1.224-1.008-2.196-2.34-2.196-1.332 0-2.34 1.008-2.34 2.268 0 1.26 1.008 2.232 2.34 2.232ZM351.645 626h3.456v-19.08h-3.456V626Zm19.847-19.26c-3.024 0-5.472 1.116-6.876 3.06v-2.88h-3.312V626h3.456v-9.828c0-4.14 2.376-6.336 6.048-6.336 3.276 0 5.148 1.836 5.148 5.58V626h3.456v-10.98c0-5.616-3.276-8.28-7.92-8.28Zm29.001.18v2.952c-1.62-2.088-4.212-3.132-7.056-3.132-5.508 0-9.684 3.708-9.684 9.216 0 5.508 4.176 9.252 9.684 9.252 2.736 0 5.22-.972 6.876-2.952v1.512c0 4.32-2.052 6.408-6.552 6.408-2.808 0-5.58-.972-7.344-2.484l-1.656 2.664c2.088 1.872 5.616 2.844 9.108 2.844 6.48 0 9.9-3.06 9.9-9.792V606.92h-3.276Zm-6.66 15.264c-3.852 0-6.588-2.556-6.588-6.228 0-3.708 2.736-6.192 6.588-6.192 3.816 0 6.552 2.484 6.552 6.192 0 3.672-2.736 6.228-6.552 6.228Zm32.364-15.444c-3.06 0-5.904.864-7.884 2.448l1.44 2.592c1.476-1.26 3.78-2.052 6.048-2.052 3.42 0 5.112 1.692 5.112 4.608v.684h-5.472c-5.688 0-7.668 2.52-7.668 5.58 0 3.312 2.736 5.616 7.056 5.616 2.988 0 5.112-1.008 6.264-2.736V626h3.276v-11.52c0-5.22-2.952-7.74-8.172-7.74Zm-.792 16.812c-2.628 0-4.212-1.188-4.212-3.096 0-1.62.972-2.952 4.392-2.952h5.328v2.664c-.864 2.196-2.916 3.384-5.508 3.384Zm25.151-16.812c-3.024 0-5.472 1.116-6.876 3.06v-2.88h-3.312V626h3.456v-9.828c0-4.14 2.376-6.336 6.048-6.336 3.276 0 5.148 1.836 5.148 5.58V626h3.456v-10.98c0-5.616-3.276-8.28-7.92-8.28Zm28.57-7.452V609.8c-1.584-2.052-3.96-3.06-6.66-3.06-5.58 0-9.648 3.888-9.648 9.72 0 5.832 4.068 9.756 9.648 9.756 2.808 0 5.256-1.08 6.804-3.24V626h3.312v-26.712h-3.456Zm-6.372 23.904c-3.672 0-6.444-2.664-6.444-6.732s2.772-6.696 6.444-6.696c3.636 0 6.408 2.628 6.408 6.696s-2.772 6.732-6.408 6.732Zm33.091 3.096c6.66 0 9.756-3.312 9.756-7.164 0-9.252-15.264-5.4-15.264-11.556 0-2.196 1.836-3.996 6.12-3.996 2.232 0 4.716.648 6.912 2.052l1.188-2.88c-2.088-1.44-5.148-2.232-8.1-2.232-6.624 0-9.648 3.312-9.648 7.2 0 9.36 15.264 5.472 15.264 11.628 0 2.196-1.872 3.888-6.228 3.888-3.24 0-6.444-1.224-8.316-2.916l-1.332 2.808c2.016 1.872 5.796 3.168 9.648 3.168Zm21.963 0c6.66 0 9.756-3.312 9.756-7.164 0-9.252-15.264-5.4-15.264-11.556 0-2.196 1.836-3.996 6.12-3.996 2.232 0 4.716.648 6.912 2.052l1.188-2.88c-2.088-1.44-5.148-2.232-8.1-2.232-6.624 0-9.648 3.312-9.648 7.2 0 9.36 15.264 5.472 15.264 11.628 0 2.196-1.872 3.888-6.228 3.888-3.24 0-6.444-1.224-8.316-2.916l-1.332 2.808c2.016 1.872 5.796 3.168 9.648 3.168Zm14.619-.288h17.244v-3.132h-13.644V600.8h-3.6V626Zm38.063.216c3.42 0 6.264-1.44 7.776-4.104l-2.628-1.656c-1.224 1.872-3.096 2.736-5.184 2.736-3.744 0-6.552-2.592-6.552-6.732 0-4.068 2.808-6.696 6.552-6.696 2.088 0 3.96.864 5.184 2.736l2.628-1.692c-1.512-2.664-4.356-4.068-7.776-4.068-5.868 0-10.08 4.032-10.08 9.72 0 5.688 4.212 9.756 10.08 9.756Zm28.818-9.648c0-5.868-3.924-9.828-9.432-9.828-5.508 0-9.576 4.068-9.576 9.72 0 5.688 4.104 9.756 10.26 9.756 3.168 0 5.796-1.08 7.524-3.096l-1.908-2.232c-1.404 1.548-3.276 2.304-5.508 2.304-3.78 0-6.48-2.232-6.912-5.58h15.48c.036-.324.072-.756.072-1.044Zm-9.432-6.912c3.348 0 5.76 2.268 6.12 5.472h-12.24c.36-3.24 2.808-5.472 6.12-5.472Zm17.146.468v-3.204h-3.312V626h3.456v-9.504c0-4.176 2.304-6.444 6.012-6.444.252 0 .504 0 .792.036v-3.348c-3.348 0-5.724 1.152-6.948 3.384Zm21.233 12.276c-.72.576-1.692.9-2.7.9-1.908 0-2.988-1.152-2.988-3.204v-10.332h5.472v-2.844h-5.472v-4.176h-3.456v4.176h-3.24v2.844h3.24v10.476c0 3.852 2.196 5.976 6.048 5.976 1.548 0 3.132-.432 4.176-1.332l-1.08-2.484Zm6.591-19.152c1.368 0 2.34-1.008 2.34-2.304 0-1.224-1.008-2.196-2.34-2.196-1.332 0-2.34 1.008-2.34 2.268 0 1.26 1.008 2.232 2.34 2.232ZM643.118 626h3.456v-19.08h-3.456V626Zm26.974-22.752c1.368 0 2.34-1.008 2.34-2.304 0-1.224-1.008-2.196-2.34-2.196-1.332 0-2.34 1.008-2.34 2.268 0 1.26 1.008 2.232 2.34 2.232Zm-16.812 1.98v1.692h-3.24v2.844h3.24V626h3.456v-16.236h5.472v-2.844h-5.544v-1.656c0-2.196 1.044-3.348 3.096-3.348 1.008 0 1.944.36 2.664.9l1.044-2.628c-.972-.756-2.412-1.116-3.888-1.116-4.068 0-6.3 2.448-6.3 6.156ZM668.364 626h3.456v-19.08h-3.456V626Zm17.961.216c3.42 0 6.264-1.44 7.776-4.104l-2.628-1.656c-1.224 1.872-3.096 2.736-5.184 2.736-3.744 0-6.552-2.592-6.552-6.732 0-4.068 2.808-6.696 6.552-6.696 2.088 0 3.96.864 5.184 2.736l2.628-1.692c-1.512-2.664-4.356-4.068-7.776-4.068-5.868 0-10.08 4.032-10.08 9.72 0 5.688 4.212 9.756 10.08 9.756Zm18.803-19.476c-3.06 0-5.904.864-7.884 2.448l1.44 2.592c1.476-1.26 3.78-2.052 6.048-2.052 3.42 0 5.112 1.692 5.112 4.608v.684h-5.472c-5.688 0-7.668 2.52-7.668 5.58 0 3.312 2.736 5.616 7.056 5.616 2.988 0 5.112-1.008 6.264-2.736V626h3.276v-11.52c0-5.22-2.952-7.74-8.172-7.74Zm-.792 16.812c-2.628 0-4.212-1.188-4.212-3.096 0-1.62.972-2.952 4.392-2.952h5.328v2.664c-.864 2.196-2.916 3.384-5.508 3.384Zm24.611-1.152c-.72.576-1.692.9-2.7.9-1.908 0-2.988-1.152-2.988-3.204v-10.332h5.472v-2.844h-5.472v-4.176h-3.456v4.176h-3.24v2.844h3.24v10.476c0 3.852 2.196 5.976 6.048 5.976 1.548 0 3.132-.432 4.176-1.332l-1.08-2.484Zm21.474-5.832c0-5.868-3.924-9.828-9.432-9.828-5.508 0-9.576 4.068-9.576 9.72 0 5.688 4.104 9.756 10.26 9.756 3.168 0 5.796-1.08 7.524-3.096l-1.908-2.232c-1.404 1.548-3.276 2.304-5.508 2.304-3.78 0-6.48-2.232-6.912-5.58h15.48c.036-.324.072-.756.072-1.044Zm-9.432-6.912c3.348 0 5.76 2.268 6.12 5.472h-12.24c.36-3.24 2.808-5.472 6.12-5.472Zm19.307 16.56c5.076 0 8.244-2.196 8.244-5.652 0-7.416-12.096-3.744-12.096-8.244 0-1.512 1.476-2.628 4.5-2.628 1.872 0 3.78.396 5.508 1.512l1.476-2.736c-1.656-1.08-4.464-1.728-6.948-1.728-4.896 0-7.956 2.304-7.956 5.724 0 7.596 12.06 3.888 12.06 8.172 0 1.62-1.332 2.592-4.536 2.592-2.484 0-5.076-.828-6.696-1.98l-1.44 2.736c1.584 1.26 4.716 2.232 7.884 2.232Zm13.031-4.932c-1.368 0-2.412 1.008-2.412 2.448 0 1.08.612 1.908 1.512 2.232l-1.332 5.364h2.268l1.692-5.004c.468-1.332.612-1.872.612-2.592 0-1.404-.972-2.448-2.34-2.448Zm26.356-14.544c-2.916 0-5.292 1.044-6.732 2.88v-10.332h-3.456V626h3.456v-9.828c0-4.14 2.376-6.336 6.048-6.336 3.276 0 5.148 1.836 5.148 5.58V626h3.456v-10.98c0-5.616-3.276-8.28-7.92-8.28Zm20.868 0c-3.06 0-5.904.864-7.884 2.448l1.44 2.592c1.476-1.26 3.78-2.052 6.048-2.052 3.42 0 5.112 1.692 5.112 4.608v.684h-5.472c-5.688 0-7.668 2.52-7.668 5.58 0 3.312 2.736 5.616 7.056 5.616 2.988 0 5.112-1.008 6.264-2.736V626h3.276v-11.52c0-5.22-2.952-7.74-8.172-7.74Zm-.792 16.812c-2.628 0-4.212-1.188-4.212-3.096 0-1.62.972-2.952 4.392-2.952h5.328v2.664c-.864 2.196-2.916 3.384-5.508 3.384Zm28.112-16.632-6.696 15.3-6.552-15.3h-3.6l8.352 19.08h3.528l8.352-19.08h-3.384Zm22.93 9.648c0-5.868-3.924-9.828-9.432-9.828-5.508 0-9.576 4.068-9.576 9.72 0 5.688 4.104 9.756 10.26 9.756 3.168 0 5.796-1.08 7.524-3.096l-1.908-2.232c-1.404 1.548-3.276 2.304-5.508 2.304-3.78 0-6.48-2.232-6.912-5.58h15.48c.036-.324.072-.756.072-1.044Zm-9.432-6.912c3.348 0 5.76 2.268 6.12 5.472h-12.24c.36-3.24 2.808-5.472 6.12-5.472Zm33.295-2.916c-2.916 0-5.292 1.044-6.732 2.88v-10.332h-3.456V626h3.456v-9.828c0-4.14 2.376-6.336 6.048-6.336 3.276 0 5.148 1.836 5.148 5.58V626h3.456v-10.98c0-5.616-3.276-8.28-7.92-8.28Zm31.269 9.828c0-5.868-3.924-9.828-9.432-9.828-5.508 0-9.576 4.068-9.576 9.72 0 5.688 4.104 9.756 10.26 9.756 3.168 0 5.796-1.08 7.524-3.096l-1.908-2.232c-1.404 1.548-3.276 2.304-5.508 2.304-3.78 0-6.48-2.232-6.912-5.58h15.48c.036-.324.072-.756.072-1.044Zm-9.432-6.912c3.348 0 5.76 2.268 6.12 5.472h-12.24c.36-3.24 2.808-5.472 6.12-5.472ZM930.336 626h3.456v-26.712h-3.456V626Zm19.775-19.26c-2.808 0-5.256 1.08-6.804 3.204v-3.024h-3.312v26.064h3.456v-9.864c1.584 2.052 3.96 3.096 6.66 3.096 5.58 0 9.648-3.888 9.648-9.756 0-5.832-4.068-9.72-9.648-9.72Zm-.288 16.452c-3.636 0-6.408-2.664-6.408-6.732 0-4.032 2.772-6.696 6.408-6.696 3.672 0 6.444 2.664 6.444 6.696 0 4.068-2.772 6.732-6.444 6.732Zm31.559-6.624c0-5.868-3.924-9.828-9.432-9.828-5.508 0-9.576 4.068-9.576 9.72 0 5.688 4.104 9.756 10.26 9.756 3.168 0 5.796-1.08 7.524-3.096l-1.908-2.232c-1.404 1.548-3.276 2.304-5.508 2.304-3.78 0-6.48-2.232-6.912-5.58h15.48c.036-.324.072-.756.072-1.044Zm-9.432-6.912c3.348 0 5.76 2.268 6.12 5.472h-12.24c.36-3.24 2.808-5.472 6.12-5.472Zm28.38-10.368V609.8c-1.585-2.052-3.961-3.06-6.661-3.06-5.58 0-9.648 3.888-9.648 9.72 0 5.832 4.068 9.756 9.648 9.756 2.808 0 5.256-1.08 6.801-3.24V626h3.32v-26.712h-3.46Zm-6.373 23.904c-3.672 0-6.444-2.664-6.444-6.732s2.772-6.696 6.444-6.696c3.636 0 6.413 2.628 6.413 6.696s-2.777 6.732-6.413 6.732Zm49.113-16.452c-3.24 0-5.91 1.368-7.35 3.528-1.26-2.376-3.7-3.528-6.62-3.528-2.88 0-5.22 1.08-6.59 3.024v-2.844h-3.31V626h3.46v-9.828c0-4.14 2.26-6.336 5.72-6.336 3.13 0 4.93 1.836 4.93 5.58V626h3.46v-9.828c0-4.14 2.27-6.336 5.72-6.336 3.13 0 4.93 1.836 4.93 5.58V626h3.46v-10.98c0-5.616-3.17-8.28-7.81-8.28Zm31.12 9.828c0-5.868-3.92-9.828-9.43-9.828s-9.58 4.068-9.58 9.72c0 5.688 4.11 9.756 10.26 9.756 3.17 0 5.8-1.08 7.53-3.096l-1.91-2.232c-1.4 1.548-3.28 2.304-5.51 2.304-3.78 0-6.48-2.232-6.91-5.58h15.48c.04-.324.07-.756.07-1.044Zm-9.43-6.912c3.35 0 5.76 2.268 6.12 5.472h-12.24c.36-3.24 2.81-5.472 6.12-5.472Zm-939.756 47.592c1.368 0 2.34-1.008 2.34-2.304 0-1.224-1.008-2.196-2.34-2.196-1.332 0-2.34 1.008-2.34 2.268 0 1.26 1.008 2.232 2.34 2.232ZM123.276 680h3.456v-19.08h-3.456V680Zm33.527-19.26c-3.24 0-5.904 1.368-7.344 3.528-1.26-2.376-3.708-3.528-6.624-3.528-2.88 0-5.22 1.08-6.588 3.024v-2.844h-3.312V680h3.456v-9.828c0-4.14 2.268-6.336 5.724-6.336 3.132 0 4.932 1.836 4.932 5.58V680h3.456v-9.828c0-4.14 2.268-6.336 5.724-6.336 3.132 0 4.932 1.836 4.932 5.58V680h3.456v-10.98c0-5.616-3.168-8.28-7.812-8.28Zm23.891 0c-2.808 0-5.256 1.08-6.804 3.204v-3.024h-3.312v26.064h3.456v-9.864c1.584 2.052 3.96 3.096 6.66 3.096 5.58 0 9.648-3.888 9.648-9.756 0-5.832-4.068-9.72-9.648-9.72Zm-.288 16.452c-3.636 0-6.408-2.664-6.408-6.732 0-4.032 2.772-6.696 6.408-6.696 3.672 0 6.444 2.664 6.444 6.696 0 4.068-2.772 6.732-6.444 6.732Zm17.627-13.068v-3.204h-3.312V680h3.456v-9.504c0-4.176 2.304-6.444 6.012-6.444.252 0 .504 0 .792.036v-3.348c-3.348 0-5.724 1.152-6.948 3.384Zm18.808 16.092c5.724 0 9.9-4.068 9.9-9.756 0-5.688-4.176-9.72-9.9-9.72s-9.936 4.032-9.936 9.72c0 5.688 4.212 9.756 9.936 9.756Zm0-3.024c-3.672 0-6.444-2.664-6.444-6.732s2.772-6.696 6.444-6.696 6.408 2.628 6.408 6.696-2.736 6.732-6.408 6.732Zm27.256-16.272-6.696 15.3-6.552-15.3h-3.6l8.352 19.08h3.528l8.352-19.08h-3.384Zm22.93 9.648c0-5.868-3.924-9.828-9.432-9.828-5.508 0-9.576 4.068-9.576 9.72 0 5.688 4.104 9.756 10.26 9.756 3.168 0 5.796-1.08 7.524-3.096l-1.908-2.232c-1.404 1.548-3.276 2.304-5.508 2.304-3.78 0-6.48-2.232-6.912-5.58h15.48c.036-.324.072-.756.072-1.044Zm-9.432-6.912c3.348 0 5.76 2.268 6.12 5.472h-12.24c.36-3.24 2.808-5.472 6.12-5.472Zm46.975-2.916c-3.24 0-5.904 1.368-7.344 3.528-1.26-2.376-3.708-3.528-6.624-3.528-2.88 0-5.22 1.08-6.588 3.024v-2.844h-3.312V680h3.456v-9.828c0-4.14 2.268-6.336 5.724-6.336 3.132 0 4.932 1.836 4.932 5.58V680h3.456v-9.828c0-4.14 2.268-6.336 5.724-6.336 3.132 0 4.932 1.836 4.932 5.58V680h3.456v-10.98c0-5.616-3.168-8.28-7.812-8.28Zm26.923.18-6.588 15.264-6.66-15.264h-3.6l8.424 19.044-.612 1.332c-.936 2.196-1.98 2.952-3.636 2.952-1.296 0-2.484-.504-3.42-1.404l-1.476 2.592c1.188 1.152 3.06 1.764 4.896 1.764 2.916 0 5.112-1.26 6.804-5.292l9.252-20.988h-3.384Zm41.262 0-5.688 15.264-5.652-15.264h-2.916l-5.76 15.192-5.544-15.192h-3.276l7.092 19.08h3.312l5.58-14.472L365.411 680h3.312l7.128-19.08h-3.096Zm22.923 9.648c0-5.868-3.924-9.828-9.432-9.828-5.508 0-9.576 4.068-9.576 9.72 0 5.688 4.104 9.756 10.26 9.756 3.168 0 5.796-1.08 7.524-3.096l-1.908-2.232c-1.404 1.548-3.276 2.304-5.508 2.304-3.78 0-6.48-2.232-6.912-5.58h15.48c.036-.324.072-.756.072-1.044Zm-9.432-6.912c3.348 0 5.76 2.268 6.12 5.472h-12.24c.36-3.24 2.808-5.472 6.12-5.472Zm23.951-2.916c-2.7 0-5.076 1.008-6.66 3.06v-10.512h-3.456V680h3.312v-3.024c1.548 2.16 3.996 3.24 6.804 3.24 5.58 0 9.648-3.924 9.648-9.756 0-5.832-4.068-9.72-9.648-9.72Zm-.288 16.452c-3.636 0-6.408-2.664-6.408-6.732s2.772-6.696 6.408-6.696c3.672 0 6.444 2.628 6.444 6.696s-2.772 6.732-6.444 6.732Zm19.787 3.024c5.076 0 8.244-2.196 8.244-5.652 0-7.416-12.096-3.744-12.096-8.244 0-1.512 1.476-2.628 4.5-2.628 1.872 0 3.78.396 5.508 1.512l1.476-2.736c-1.656-1.08-4.464-1.728-6.948-1.728-4.896 0-7.956 2.304-7.956 5.724 0 7.596 12.06 3.888 12.06 8.172 0 1.62-1.332 2.592-4.536 2.592-2.484 0-5.076-.828-6.696-1.98l-1.44 2.736c1.584 1.26 4.716 2.232 7.884 2.232Zm13.895-22.968c1.368 0 2.34-1.008 2.34-2.304 0-1.224-1.008-2.196-2.34-2.196-1.332 0-2.34 1.008-2.34 2.268 0 1.26 1.008 2.232 2.34 2.232ZM441.863 680h3.456v-19.08h-3.456V680Zm19.307-3.6c-.72.576-1.692.9-2.7.9-1.908 0-2.988-1.152-2.988-3.204v-10.332h5.472v-2.844h-5.472v-4.176h-3.456v4.176h-3.24v2.844h3.24v10.476c0 3.852 2.196 5.976 6.048 5.976 1.548 0 3.132-.432 4.176-1.332l-1.08-2.484Zm21.473-5.832c0-5.868-3.924-9.828-9.432-9.828-5.508 0-9.576 4.068-9.576 9.72 0 5.688 4.104 9.756 10.26 9.756 3.168 0 5.796-1.08 7.524-3.096l-1.908-2.232c-1.404 1.548-3.276 2.304-5.508 2.304-3.78 0-6.48-2.232-6.912-5.58h15.48c.036-.324.072-.756.072-1.044Zm-9.432-6.912c3.348 0 5.76 2.268 6.12 5.472h-12.24c.36-3.24 2.808-5.472 6.12-5.472Zm12.235.864h2.556l.252-9.72h-3.024l.216 9.72Zm13.426 15.696c5.076 0 8.244-2.196 8.244-5.652 0-7.416-12.096-3.744-12.096-8.244 0-1.512 1.476-2.628 4.5-2.628 1.872 0 3.78.396 5.508 1.512l1.476-2.736c-1.656-1.08-4.464-1.728-6.948-1.728-4.896 0-7.956 2.304-7.956 5.724 0 7.596 12.06 3.888 12.06 8.172 0 1.62-1.332 2.592-4.536 2.592-2.484 0-5.076-.828-6.696-1.98l-1.44 2.736c1.584 1.26 4.716 2.232 7.884 2.232Zm31.556-19.476c-2.808 0-5.256 1.08-6.804 3.204v-3.024h-3.312v26.064h3.456v-9.864c1.584 2.052 3.96 3.096 6.66 3.096 5.58 0 9.648-3.888 9.648-9.756 0-5.832-4.068-9.72-9.648-9.72Zm-.288 16.452c-3.636 0-6.408-2.664-6.408-6.732 0-4.032 2.772-6.696 6.408-6.696 3.672 0 6.444 2.664 6.444 6.696 0 4.068-2.772 6.732-6.444 6.732Zm31.559-6.624c0-5.868-3.924-9.828-9.432-9.828-5.508 0-9.576 4.068-9.576 9.72 0 5.688 4.104 9.756 10.26 9.756 3.168 0 5.796-1.08 7.524-3.096l-1.908-2.232c-1.404 1.548-3.276 2.304-5.508 2.304-3.78 0-6.48-2.232-6.912-5.58h15.48c.036-.324.072-.756.072-1.044Zm-9.432-6.912c3.348 0 5.76 2.268 6.12 5.472h-12.24c.36-3.24 2.808-5.472 6.12-5.472Zm17.147.468v-3.204h-3.312V680h3.456v-9.504c0-4.176 2.304-6.444 6.012-6.444.252 0 .504 0 .792.036v-3.348c-3.348 0-5.724 1.152-6.948 3.384Zm18.041-8.208c1.008 0 1.944.36 2.664.9l1.044-2.628c-.972-.756-2.412-1.116-3.888-1.116-4.068 0-6.3 2.448-6.3 6.156v1.692h-3.24v2.844h3.24V680h3.456v-16.236h5.472v-2.844h-5.544v-1.656c0-2.196 1.044-3.348 3.096-3.348Zm13.202 24.3c5.724 0 9.9-4.068 9.9-9.756 0-5.688-4.176-9.72-9.9-9.72s-9.936 4.032-9.936 9.72c0 5.688 4.212 9.756 9.936 9.756Zm0-3.024c-3.672 0-6.444-2.664-6.444-6.732s2.772-6.696 6.444-6.696 6.408 2.628 6.408 6.696-2.736 6.732-6.408 6.732Zm17.596-13.068v-3.204h-3.312V680h3.456v-9.504c0-4.176 2.304-6.444 6.012-6.444.252 0 .504 0 .792.036v-3.348c-3.348 0-5.724 1.152-6.948 3.384Zm34.679-3.384c-3.24 0-5.904 1.368-7.344 3.528-1.26-2.376-3.708-3.528-6.624-3.528-2.88 0-5.22 1.08-6.588 3.024v-2.844h-3.312V680h3.456v-9.828c0-4.14 2.268-6.336 5.724-6.336 3.132 0 4.932 1.836 4.932 5.58V680h3.456v-9.828c0-4.14 2.268-6.336 5.724-6.336 3.132 0 4.932 1.836 4.932 5.58V680h3.456v-10.98c0-5.616-3.168-8.28-7.812-8.28Zm20.724 0c-3.06 0-5.904.864-7.884 2.448l1.44 2.592c1.476-1.26 3.78-2.052 6.048-2.052 3.42 0 5.112 1.692 5.112 4.608v.684H672.9c-5.688 0-7.668 2.52-7.668 5.58 0 3.312 2.736 5.616 7.056 5.616 2.988 0 5.112-1.008 6.264-2.736V680h3.276v-11.52c0-5.22-2.952-7.74-8.172-7.74Zm-.792 16.812c-2.628 0-4.212-1.188-4.212-3.096 0-1.62.972-2.952 4.392-2.952h5.328v2.664c-.864 2.196-2.916 3.384-5.508 3.384Zm25.151-16.812c-3.024 0-5.472 1.116-6.876 3.06v-2.88h-3.312V680h3.456v-9.828c0-4.14 2.376-6.336 6.048-6.336 3.276 0 5.148 1.836 5.148 5.58V680h3.456v-10.98c0-5.616-3.276-8.28-7.92-8.28Zm22.342 19.476c3.42 0 6.264-1.44 7.776-4.104l-2.628-1.656c-1.224 1.872-3.096 2.736-5.184 2.736-3.744 0-6.552-2.592-6.552-6.732 0-4.068 2.808-6.696 6.552-6.696 2.088 0 3.96.864 5.184 2.736l2.628-1.692c-1.512-2.664-4.356-4.068-7.776-4.068-5.868 0-10.08 4.032-10.08 9.72 0 5.688 4.212 9.756 10.08 9.756Zm28.817-9.648c0-5.868-3.924-9.828-9.432-9.828-5.508 0-9.576 4.068-9.576 9.72 0 5.688 4.104 9.756 10.26 9.756 3.168 0 5.796-1.08 7.524-3.096l-1.908-2.232c-1.404 1.548-3.276 2.304-5.508 2.304-3.78 0-6.48-2.232-6.912-5.58h15.48c.036-.324.072-.756.072-1.044Zm-9.432-6.912c3.348 0 5.76 2.268 6.12 5.472h-12.24c.36-3.24 2.808-5.472 6.12-5.472Zm14.663 16.56c1.296 0 2.376-1.044 2.376-2.484s-1.08-2.448-2.376-2.448c-1.332 0-2.448 1.008-2.448 2.448s1.116 2.484 2.448 2.484Zm16.708-.216h3.6v-25.2h-3.6V680Zm9.452-15.48h2.556l.252-9.72h-3.024l.216 9.72Zm31.823-3.78c-3.24 0-5.904 1.368-7.344 3.528-1.26-2.376-3.708-3.528-6.624-3.528-2.88 0-5.22 1.08-6.588 3.024v-2.844h-3.312V680h3.456v-9.828c0-4.14 2.268-6.336 5.724-6.336 3.132 0 4.932 1.836 4.932 5.58V680h3.456v-9.828c0-4.14 2.268-6.336 5.724-6.336 3.132 0 4.932 1.836 4.932 5.58V680h3.456v-10.98c0-5.616-3.168-8.28-7.812-8.28Zm36.547.18-6.696 15.3-6.552-15.3h-3.6l8.352 19.08h3.528l8.352-19.08h-3.384Zm22.93 9.648c0-5.868-3.924-9.828-9.432-9.828-5.508 0-9.576 4.068-9.576 9.72 0 5.688 4.104 9.756 10.26 9.756 3.168 0 5.796-1.08 7.524-3.096l-1.908-2.232c-1.404 1.548-3.276 2.304-5.508 2.304-3.78 0-6.48-2.232-6.912-5.58h15.48c.036-.324.072-.756.072-1.044Zm-9.432-6.912c3.348 0 5.76 2.268 6.12 5.472h-12.24c.36-3.24 2.808-5.472 6.12-5.472Zm17.147.468v-3.204h-3.312V680h3.456v-9.504c0-4.176 2.304-6.444 6.012-6.444.252 0 .504 0 .792.036v-3.348c-3.348 0-5.724 1.152-6.948 3.384Zm25.085-3.204-6.588 15.264-6.66-15.264h-3.6l8.424 19.044-.612 1.332c-.936 2.196-1.98 2.952-3.636 2.952-1.296 0-2.484-.504-3.42-1.404l-1.476 2.592c1.188 1.152 3.06 1.764 4.896 1.764 2.916 0 5.112-1.26 6.804-5.292l9.252-20.988h-3.384Zm25.673-.18c-2.916 0-5.292 1.044-6.732 2.88v-10.332h-3.456V680h3.456v-9.828c0-4.14 2.376-6.336 6.048-6.336 3.276 0 5.148 1.836 5.148 5.58V680h3.456v-10.98c0-5.616-3.276-8.28-7.92-8.28Zm20.868 0c-3.06 0-5.904.864-7.884 2.448l1.44 2.592c1.476-1.26 3.78-2.052 6.048-2.052 3.42 0 5.112 1.692 5.112 4.608v.684h-5.472c-5.688 0-7.668 2.52-7.668 5.58 0 3.312 2.736 5.616 7.056 5.616 2.988 0 5.112-1.008 6.264-2.736V680h3.276v-11.52c0-5.22-2.952-7.74-8.172-7.74Zm-.792 16.812c-2.628 0-4.212-1.188-4.212-3.096 0-1.62.972-2.952 4.392-2.952h5.328v2.664c-.864 2.196-2.916 3.384-5.508 3.384Zm25.08-16.812c-2.808 0-5.256 1.08-6.804 3.204v-3.024h-3.312v26.064h3.456v-9.864c1.584 2.052 3.96 3.096 6.66 3.096 5.58 0 9.648-3.888 9.648-9.756 0-5.832-4.068-9.72-9.648-9.72Zm-.288 16.452c-3.636 0-6.408-2.664-6.408-6.732 0-4.032 2.772-6.696 6.408-6.696 3.672 0 6.444 2.664 6.444 6.696 0 4.068-2.772 6.732-6.444 6.732Zm24.431-16.452c-2.808 0-5.256 1.08-6.804 3.204v-3.024h-3.312v26.064h3.456v-9.864c1.584 2.052 3.96 3.096 6.66 3.096 5.583 0 9.643-3.888 9.643-9.756 0-5.832-4.06-9.72-9.643-9.72Zm-.288 16.452c-3.636 0-6.408-2.664-6.408-6.732 0-4.032 2.772-6.696 6.408-6.696 3.671 0 6.441 2.664 6.441 6.696 0 4.068-2.77 6.732-6.441 6.732Zm27.291-16.272-6.59 15.264-6.66-15.264h-3.6l8.42 19.044-.61 1.332c-.94 2.196-1.98 2.952-3.64 2.952-1.29 0-2.48-.504-3.42-1.404l-1.47 2.592c1.19 1.152 3.06 1.764 4.89 1.764 2.92 0 5.12-1.26 6.81-5.292l9.25-20.988h-3.38Zm41.26 0-5.69 15.264-5.65-15.264h-2.92l-5.76 15.192-5.54-15.192h-3.28l7.09 19.08h3.32l5.58-14.472 5.5 14.472h3.32l7.12-19.08h-3.09Zm7.93-3.672c1.37 0 2.34-1.008 2.34-2.304 0-1.224-1.01-2.196-2.34-2.196-1.33 0-2.34 1.008-2.34 2.268 0 1.26 1.01 2.232 2.34 2.232ZM1074.1 680h3.46v-19.08h-3.46V680Zm19.31-3.6c-.72.576-1.69.9-2.7.9-1.91 0-2.99-1.152-2.99-3.204v-10.332h5.48v-2.844h-5.48v-4.176h-3.45v4.176h-3.24v2.844h3.24v10.476c0 3.852 2.19 5.976 6.05 5.976 1.54 0 3.13-.432 4.17-1.332l-1.08-2.484Zm15.05-15.66c-2.91 0-5.29 1.044-6.73 2.88v-10.332h-3.46V680h3.46v-9.828c0-4.14 2.38-6.336 6.05-6.336 3.27 0 5.15 1.836 5.15 5.58V680h3.45v-10.98c0-5.616-3.27-8.28-7.92-8.28Zm47.06 0c-3.24 0-5.9 1.368-7.34 3.528-1.26-2.376-3.71-3.528-6.63-3.528-2.88 0-5.22 1.08-6.58 3.024v-2.844h-3.32V680h3.46v-9.828c0-4.14 2.27-6.336 5.72-6.336 3.14 0 4.94 1.836 4.94 5.58V680h3.45v-9.828c0-4.14 2.27-6.336 5.73-6.336 3.13 0 4.93 1.836 4.93 5.58V680h3.45v-10.98c0-5.616-3.16-8.28-7.81-8.28Zm26.93.18-6.59 15.264-6.66-15.264h-3.6l8.42 19.044-.61 1.332c-.94 2.196-1.98 2.952-3.64 2.952-1.29 0-2.48-.504-3.42-1.404l-1.47 2.592c1.19 1.152 3.06 1.764 4.89 1.764 2.92 0 5.12-1.26 6.81-5.292l9.25-20.988h-3.38ZM137.82 707.288V717.8c-1.584-2.052-3.96-3.06-6.66-3.06-5.58 0-9.648 3.888-9.648 9.72 0 5.832 4.068 9.756 9.648 9.756 2.808 0 5.256-1.08 6.804-3.24V734h3.312v-26.712h-3.456Zm-6.372 23.904c-3.672 0-6.444-2.664-6.444-6.732s2.772-6.696 6.444-6.696c3.636 0 6.408 2.628 6.408 6.696s-2.772 6.732-6.408 6.732Zm33.215-6.624c0-5.868-3.924-9.828-9.432-9.828-5.508 0-9.576 4.068-9.576 9.72 0 5.688 4.104 9.756 10.26 9.756 3.168 0 5.796-1.08 7.524-3.096l-1.908-2.232c-1.404 1.548-3.276 2.304-5.508 2.304-3.78 0-6.48-2.232-6.912-5.58h15.48c.036-.324.072-.756.072-1.044Zm-9.432-6.912c3.348 0 5.76 2.268 6.12 5.472h-12.24c.36-3.24 2.808-5.472 6.12-5.472Zm22.151 16.56c3.42 0 6.264-1.44 7.776-4.104l-2.628-1.656c-1.224 1.872-3.096 2.736-5.184 2.736-3.744 0-6.552-2.592-6.552-6.732 0-4.068 2.808-6.696 6.552-6.696 2.088 0 3.96.864 5.184 2.736l2.628-1.692c-1.512-2.664-4.356-4.068-7.776-4.068-5.868 0-10.08 4.032-10.08 9.72 0 5.688 4.212 9.756 10.08 9.756Zm13.582-22.968c1.368 0 2.34-1.008 2.34-2.304 0-1.224-1.008-2.196-2.34-2.196-1.332 0-2.34 1.008-2.34 2.268 0 1.26 1.008 2.232 2.34 2.232ZM189.236 734h3.456v-19.08h-3.456V734Zm15.131.216c5.076 0 8.244-2.196 8.244-5.652 0-7.416-12.096-3.744-12.096-8.244 0-1.512 1.476-2.628 4.5-2.628 1.872 0 3.78.396 5.508 1.512l1.476-2.736c-1.656-1.08-4.464-1.728-6.948-1.728-4.896 0-7.956 2.304-7.956 5.724 0 7.596 12.06 3.888 12.06 8.172 0 1.62-1.332 2.592-4.536 2.592-2.484 0-5.076-.828-6.696-1.98l-1.44 2.736c1.584 1.26 4.716 2.232 7.884 2.232Zm13.895-22.968c1.368 0 2.34-1.008 2.34-2.304 0-1.224-1.008-2.196-2.34-2.196-1.332 0-2.34 1.008-2.34 2.268 0 1.26 1.008 2.232 2.34 2.232ZM216.534 734h3.456v-19.08h-3.456V734Zm17.831.216c5.724 0 9.9-4.068 9.9-9.756 0-5.688-4.176-9.72-9.9-9.72s-9.936 4.032-9.936 9.72c0 5.688 4.212 9.756 9.936 9.756Zm0-3.024c-3.672 0-6.444-2.664-6.444-6.732s2.772-6.696 6.444-6.696 6.408 2.628 6.408 6.696-2.736 6.732-6.408 6.732Zm24.472-16.452c-3.024 0-5.472 1.116-6.876 3.06v-2.88h-3.312V734h3.456v-9.828c0-4.14 2.376-6.336 6.048-6.336 3.276 0 5.148 1.836 5.148 5.58V734h3.456v-10.98c0-5.616-3.276-8.28-7.92-8.28Zm32.839 15.66c-.72.576-1.692.9-2.7.9-1.908 0-2.988-1.152-2.988-3.204v-10.332h5.472v-2.844h-5.472v-4.176h-3.456v4.176h-3.24v2.844h3.24v10.476c0 3.852 2.196 5.976 6.048 5.976 1.548 0 3.132-.432 4.176-1.332l-1.08-2.484Zm12.402 3.816c5.724 0 9.9-4.068 9.9-9.756 0-5.688-4.176-9.72-9.9-9.72s-9.936 4.032-9.936 9.72c0 5.688 4.212 9.756 9.936 9.756Zm0-3.024c-3.672 0-6.444-2.664-6.444-6.732s2.772-6.696 6.444-6.696 6.408 2.628 6.408 6.696-2.736 6.732-6.408 6.732Zm29.027 3.024c5.076 0 8.244-2.196 8.244-5.652 0-7.416-12.096-3.744-12.096-8.244 0-1.512 1.476-2.628 4.5-2.628 1.872 0 3.78.396 5.508 1.512l1.476-2.736c-1.656-1.08-4.464-1.728-6.948-1.728-4.896 0-7.956 2.304-7.956 5.724 0 7.596 12.06 3.888 12.06 8.172 0 1.62-1.332 2.592-4.536 2.592-2.484 0-5.076-.828-6.696-1.98l-1.44 2.736c1.584 1.26 4.716 2.232 7.884 2.232Zm37.592-19.296-5.688 15.264-5.652-15.264h-2.916l-5.76 15.192-5.544-15.192h-3.276l7.092 19.08h3.312l5.58-14.472L363.353 734h3.312l7.128-19.08h-3.096Zm7.935-3.672c1.368 0 2.34-1.008 2.34-2.304 0-1.224-1.008-2.196-2.34-2.196-1.332 0-2.34 1.008-2.34 2.268 0 1.26 1.008 2.232 2.34 2.232ZM376.904 734h3.456v-19.08h-3.456V734Zm19.307-3.6c-.72.576-1.692.9-2.7.9-1.908 0-2.988-1.152-2.988-3.204v-10.332h5.472v-2.844h-5.472v-4.176h-3.456v4.176h-3.24v2.844h3.24v10.476c0 3.852 2.196 5.976 6.048 5.976 1.548 0 3.132-.432 4.176-1.332l-1.08-2.484Zm12.545 3.816c3.42 0 6.264-1.44 7.776-4.104l-2.628-1.656c-1.224 1.872-3.096 2.736-5.184 2.736-3.744 0-6.552-2.592-6.552-6.732 0-4.068 2.808-6.696 6.552-6.696 2.088 0 3.96.864 5.184 2.736l2.628-1.692c-1.512-2.664-4.356-4.068-7.776-4.068-5.868 0-10.08 4.032-10.08 9.72 0 5.688 4.212 9.756 10.08 9.756Zm21.796-19.476c-2.916 0-5.292 1.044-6.732 2.88v-10.332h-3.456V734h3.456v-9.828c0-4.14 2.376-6.336 6.048-6.336 3.276 0 5.148 1.836 5.148 5.58V734h3.456v-10.98c0-5.616-3.276-8.28-7.92-8.28Zm32.84 15.66c-.72.576-1.692.9-2.7.9-1.908 0-2.988-1.152-2.988-3.204v-10.332h5.472v-2.844h-5.472v-4.176h-3.456v4.176h-3.24v2.844h3.24v10.476c0 3.852 2.196 5.976 6.048 5.976 1.548 0 3.132-.432 4.176-1.332l-1.08-2.484Zm12.402 3.816c5.724 0 9.9-4.068 9.9-9.756 0-5.688-4.176-9.72-9.9-9.72s-9.936 4.032-9.936 9.72c0 5.688 4.212 9.756 9.936 9.756Zm0-3.024c-3.672 0-6.444-2.664-6.444-6.732s2.772-6.696 6.444-6.696 6.408 2.628 6.408 6.696-2.736 6.732-6.408 6.732Zm49.331-16.272-5.688 15.264-5.652-15.264h-2.916l-5.76 15.192-5.544-15.192h-3.276l7.092 19.08h3.312l5.58-14.472L517.781 734h3.312l7.128-19.08h-3.096Zm22.924 9.648c0-5.868-3.924-9.828-9.432-9.828-5.508 0-9.576 4.068-9.576 9.72 0 5.688 4.104 9.756 10.26 9.756 3.168 0 5.796-1.08 7.524-3.096l-1.908-2.232c-1.404 1.548-3.276 2.304-5.508 2.304-3.78 0-6.48-2.232-6.912-5.58h15.48c.036-.324.072-.756.072-1.044Zm-9.432-6.912c3.348 0 5.76 2.268 6.12 5.472h-12.24c.36-3.24 2.808-5.472 6.12-5.472Zm23.951-2.916c-2.7 0-5.076 1.008-6.66 3.06v-10.512h-3.456V734h3.312v-3.024c1.548 2.16 3.996 3.24 6.804 3.24 5.58 0 9.648-3.924 9.648-9.756 0-5.832-4.068-9.72-9.648-9.72Zm-.288 16.452c-3.636 0-6.408-2.664-6.408-6.732s2.772-6.696 6.408-6.696c3.672 0 6.444 2.628 6.444 6.696s-2.772 6.732-6.444 6.732Zm21.571-11.808 6.588-8.136V708.8h-16.632v3.132h12.132l-6.336 7.776v2.52h2.016c4.32 0 6.228 1.728 6.228 4.392 0 2.736-2.16 4.464-5.94 4.464-3.096 0-5.904-1.116-7.596-2.7l-1.656 2.844c2.124 1.908 5.652 3.06 9.252 3.06 6.408 0 9.54-3.456 9.54-7.704 0-3.888-2.556-6.732-7.596-7.2Zm54.066-10.584-6.948 20.592-6.948-20.592h-3.312l-7.092 20.484-6.804-20.484h-3.708l8.424 25.2h3.852l6.876-20.124L629.133 734h3.78l8.424-25.2h-3.42Zm13.654 25.416c5.724 0 9.9-4.068 9.9-9.756 0-5.688-4.176-9.72-9.9-9.72s-9.936 4.032-9.936 9.72c0 5.688 4.212 9.756 9.936 9.756Zm0-3.024c-3.672 0-6.444-2.664-6.444-6.732s2.772-6.696 6.444-6.696 6.408 2.628 6.408 6.696-2.736 6.732-6.408 6.732Zm17.595-13.068v-3.204h-3.312V734h3.456v-9.504c0-4.176 2.304-6.444 6.012-6.444.252 0 .504 0 .792.036v-3.348c-3.348 0-5.724 1.152-6.948 3.384Zm25.18-10.836V717.8c-1.584-2.052-3.96-3.06-6.66-3.06-5.58 0-9.648 3.888-9.648 9.72 0 5.832 4.068 9.756 9.648 9.756 2.808 0 5.256-1.08 6.804-3.24V734h3.312v-26.712h-3.456Zm-6.372 23.904c-3.672 0-6.444-2.664-6.444-6.732s2.772-6.696 6.444-6.696c3.636 0 6.408 2.628 6.408 6.696s-2.772 6.732-6.408 6.732Zm26.303-22.392h-9.828V734h3.6v-7.632h6.228c6.552 0 10.512-3.312 10.512-8.784 0-5.472-3.96-8.784-10.512-8.784Zm-.108 14.436h-6.12v-11.304h6.12c4.608 0 7.02 2.052 7.02 5.652s-2.412 5.652-7.02 5.652Zm18.005-5.112v-3.204h-3.312V734h3.456v-9.504c0-4.176 2.304-6.444 6.012-6.444.252 0 .504 0 .792.036v-3.348c-3.348 0-5.724 1.152-6.948 3.384Zm27.88 6.444c0-5.868-3.924-9.828-9.432-9.828-5.508 0-9.576 4.068-9.576 9.72 0 5.688 4.104 9.756 10.26 9.756 3.168 0 5.796-1.08 7.524-3.096l-1.908-2.232c-1.404 1.548-3.276 2.304-5.508 2.304-3.78 0-6.48-2.232-6.912-5.58h15.48c.036-.324.072-.756.072-1.044Zm-9.432-6.912c3.348 0 5.76 2.268 6.12 5.472h-12.24c.36-3.24 2.808-5.472 6.12-5.472Zm19.307 16.56c5.076 0 8.244-2.196 8.244-5.652 0-7.416-12.096-3.744-12.096-8.244 0-1.512 1.476-2.628 4.5-2.628 1.872 0 3.78.396 5.508 1.512l1.476-2.736c-1.656-1.08-4.464-1.728-6.948-1.728-4.896 0-7.956 2.304-7.956 5.724 0 7.596 12.06 3.888 12.06 8.172 0 1.62-1.332 2.592-4.536 2.592-2.484 0-5.076-.828-6.696-1.98l-1.44 2.736c1.584 1.26 4.716 2.232 7.884 2.232Zm17.639 0c5.076 0 8.244-2.196 8.244-5.652 0-7.416-12.096-3.744-12.096-8.244 0-1.512 1.476-2.628 4.5-2.628 1.872 0 3.78.396 5.508 1.512l1.476-2.736c-1.656-1.08-4.464-1.728-6.948-1.728-4.896 0-7.956 2.304-7.956 5.724 0 7.596 12.06 3.888 12.06 8.172 0 1.62-1.332 2.592-4.536 2.592-2.484 0-5.076-.828-6.696-1.98l-1.44 2.736c1.584 1.26 4.716 2.232 7.884 2.232Zm31.627-19.476c-2.916 0-5.292 1.044-6.732 2.88v-10.332h-3.456V734h3.456v-9.828c0-4.14 2.376-6.336 6.048-6.336 3.276 0 5.148 1.836 5.148 5.58V734h3.456v-10.98c0-5.616-3.276-8.28-7.92-8.28Zm22.197 19.476c5.724 0 9.9-4.068 9.9-9.756 0-5.688-4.176-9.72-9.9-9.72s-9.936 4.032-9.936 9.72c0 5.688 4.212 9.756 9.936 9.756Zm0-3.024c-3.672 0-6.444-2.664-6.444-6.732s2.772-6.696 6.444-6.696 6.408 2.628 6.408 6.696-2.736 6.732-6.408 6.732Zm19.756 3.024c5.076 0 8.244-2.196 8.244-5.652 0-7.416-12.096-3.744-12.096-8.244 0-1.512 1.476-2.628 4.5-2.628 1.872 0 3.78.396 5.508 1.512l1.476-2.736c-1.656-1.08-4.464-1.728-6.948-1.728-4.896 0-7.956 2.304-7.956 5.724 0 7.596 12.06 3.888 12.06 8.172 0 1.62-1.332 2.592-4.536 2.592-2.484 0-5.076-.828-6.696-1.98l-1.44 2.736c1.584 1.26 4.716 2.232 7.884 2.232Zm21.815-3.816c-.72.576-1.692.9-2.7.9-1.908 0-2.988-1.152-2.988-3.204v-10.332h5.472v-2.844h-5.472v-4.176h-3.456v4.176h-3.24v2.844h3.24v10.476c0 3.852 2.196 5.976 6.048 5.976 1.548 0 3.132-.432 4.176-1.332l-1.08-2.484Zm6.59-19.152c1.368 0 2.34-1.008 2.34-2.304 0-1.224-1.008-2.196-2.34-2.196-1.332 0-2.34 1.008-2.34 2.268 0 1.26 1.008 2.232 2.34 2.232ZM887.825 734h3.456v-19.08h-3.456V734Zm19.847-19.26c-3.024 0-5.472 1.116-6.876 3.06v-2.88h-3.312V734h3.456v-9.828c0-4.14 2.376-6.336 6.048-6.336 3.276 0 5.148 1.836 5.148 5.58V734h3.456v-10.98c0-5.616-3.276-8.28-7.92-8.28Zm29.001.18v2.952c-1.62-2.088-4.212-3.132-7.056-3.132-5.508 0-9.684 3.708-9.684 9.216 0 5.508 4.176 9.252 9.684 9.252 2.736 0 5.22-.972 6.876-2.952v1.512c0 4.32-2.052 6.408-6.552 6.408-2.808 0-5.58-.972-7.344-2.484l-1.656 2.664c2.088 1.872 5.616 2.844 9.108 2.844 6.48 0 9.9-3.06 9.9-9.792V714.92h-3.276Zm-6.66 15.264c-3.852 0-6.588-2.556-6.588-6.228 0-3.708 2.736-6.192 6.588-6.192 3.816 0 6.552 2.484 6.552 6.192 0 3.672-2.736 6.228-6.552 6.228Zm16.972 4.032c1.296 0 2.376-1.044 2.376-2.484s-1.08-2.448-2.376-2.448c-1.332 0-2.448 1.008-2.448 2.448s1.116 2.484 2.448 2.484Zm4.171-15.696h2.556l.252-9.72h-3.024l.216 9.72Zm6.516 0h2.556l.252-9.72h-3.024l.216 9.72Z" fill="#BDBDBD"/><g filter="url(#b)"><circle cx="220" cy="220" r="100" fill="#191D28"/></g><g clip-path="url(#c)"><g filter="url(#d)"><circle cx="220" cy="220" r="100" fill="#F8F8F8"/></g><g opacity=".8" filter="url(#e)"><ellipse cx="98.832" cy="97.605" rx="98.832" ry="97.605" transform="matrix(-.2882 -.95757 .93652 -.35062 154.617 289.35)" fill="#7777A3"/></g><g opacity=".8" filter="url(#f)"><ellipse cx="83.863" cy="81.235" rx="83.863" ry="81.235" transform="matrix(-.48289 -.87568 .7985 -.602 143.648 305.084)" fill="#47426A"/></g><g opacity=".8" filter="url(#g)"><path d="M317.06 78.285c44.451 36.353 10.598 219.4-6.592 207.371-10.486-7.338-22.884-69.412-55.802-96.014-21.044-17.005-58.719-4.596-82.715-2.842-61.533 4.5 100.288-145.172 145.109-108.515Z" fill="#2C2B31"/></g></g><rect x="118" y="118" width="204" height="204" rx="102" stroke="#D8DBE3" stroke-width="4"/><defs><filter id="a" x="0" y="0" width="1363" height="885" filterUnits="userSpaceOnUse" color-interpolation-filters="sRGB"><feFlood flood-opacity="0" result="BackgroundImageFix"/><feColorMatrix in="SourceAlpha" values="0 0 0 0 0 0 0 0 0 0 0 0 0 0 0 0 0 0 127 0" result="hardAlpha"/><feMorphology radius="5" operator="dilate" in="SourceAlpha" result="effect1_dropShadow_1261_2662"/><feOffset dx="10" dy="10"/><feGaussianBlur stdDeviation="25"/><feComposite in2="hardAlpha" operator="out"/><feColorMatrix values="0 0 0 0 0 0 0 0 0 0 0 0 0 0 0 0 0 0 0.05 0"/><feBlend in2="BackgroundImageFix" result="effect1_dropShadow_1261_2662"/><feBlend in="SourceGraphic" in2="effect1_dropShadow_1261_2662" result="shape"/></filter><filter id="b" x="96" y="96" width="308" height="308" filterUnits="userSpaceOnUse" color-interpolation-filters="sRGB"><feFlood flood-opacity="0" result="BackgroundImageFix"/><feColorMatrix in="SourceAlpha" values="0 0 0 0 0 0 0 0 0 0 0 0 0 0 0 0 0 0 127 0" result="hardAlpha"/><feMorphology radius="4" operator="dilate" in="SourceAlpha" result="effect1_dropShadow_1261_2662"/><feOffset dx="30" dy="30"/><feGaussianBlur stdDeviation="25"/><feComposite in2="hardAlpha" operator="out"/><feColorMatrix values="0 0 0 0 0 0 0 0 0 0 0 0 0 0 0 0 0 0 0.25 0"/><feBlend in2="BackgroundImageFix" result="effect1_dropShadow_1261_2662"/><feBlend in="SourceGraphic" in2="effect1_dropShadow_1261_2662" result="shape"/></filter><filter id="d" x="108" y="110" width="224" height="224" filterUnits="userSpaceOnUse" color-interpolation-filters="sRGB"><feFlood flood-opacity="0" result="BackgroundImageFix"/><feColorMatrix in="SourceAlpha" values="0 0 0 0 0 0 0 0 0 0 0 0 0 0 0 0 0 0 127 0" result="hardAlpha"/><feOffset dy="2"/><feGaussianBlur stdDeviation="6"/><feComposite in2="hardAlpha" operator="out"/><feColorMatrix values="0 0 0 0 0.6875 0 0 0 0 0.744318 0 0 0 0 1 0 0 0 0.06 0"/><feBlend in2="BackgroundImageFix" result="effect1_dropShadow_1261_2662"/><feColorMatrix in="SourceAlpha" values="0 0 0 0 0 0 0 0 0 0 0 0 0 0 0 0 0 0 127 0" result="hardAlpha"/><feOffset dy="1"/><feGaussianBlur stdDeviation="1"/><feComposite in2="hardAlpha" operator="out"/><feColorMatrix values="0 0 0 0 0.549757 0 0 0 0 0.610463 0 0 0 0 0.929167 0 0 0 0.05 0"/><feBlend in2="effect1_dropShadow_1261_2662" result="effect2_dropShadow_1261_2662"/><feBlend in="SourceGraphic" in2="effect2_dropShadow_1261_2662" result="shape"/></filter><filter id="e" x="97.773" y="35.827" width="239.539" height="249.326" filterUnits="userSpaceOnUse" color-interpolation-filters="sRGB"><feFlood flood-opacity="0" result="BackgroundImageFix"/><feBlend in="SourceGraphic" in2="BackgroundImageFix" result="shape"/><feGaussianBlur stdDeviation="12" result="effect1_foregroundBlur_1261_2662"/></filter><filter id="f" x="67.539" y="70.504" width="200.961" height="224.479" filterUnits="userSpaceOnUse" color-interpolation-filters="sRGB"><feFlood flood-opacity="0" result="BackgroundImageFix"/><feBlend in="SourceGraphic" in2="BackgroundImageFix" result="shape"/><feGaussianBlur stdDeviation="12" result="effect1_foregroundBlur_1261_2662"/></filter><filter id="g" x="134.164" y="48.498" width="228.891" height="261.725" filterUnits="userSpaceOnUse" color-interpolation-filters="sRGB"><feFlood flood-opacity="0" result="BackgroundImageFix"/><feBlend in="SourceGraphic" in2="BackgroundImageFix" result="shape"/><feGaussianBlur stdDeviation="12" result="effect1_foregroundBlur_1261_2662"/></filter><clipPath id="c"><rect x="120" y="120" width="200" height="200" rx="100" fill="#fff"/></clipPath></defs></svg>