<svg width="730" height="802" viewBox="0 0 730 802" fill="none" xmlns="http://www.w3.org/2000/svg">
<g filter="url(#filter0_b_1317_82)">
<rect y="302" width="730" height="500" rx="50" fill="#13202F" fill-opacity="0.5"/>
<rect x="2.5" y="304.5" width="725" height="495" rx="47.5" stroke="white" stroke-opacity="0.15" stroke-width="5"/>
</g>
<path d="M186.755 599.2L176.459 630H171.839L163.435 605.404L155.031 630H150.323L140.027 599.2H144.559L152.875 624.236L161.543 599.2H165.591L174.083 624.368L182.575 599.2H186.755ZM199.748 630.264C197.431 630.264 195.348 629.751 193.5 628.724C191.652 627.697 190.2 626.289 189.144 624.5C188.117 622.681 187.604 620.628 187.604 618.34C187.604 616.052 188.117 614.013 189.144 612.224C190.2 610.405 191.652 608.997 193.5 608C195.348 606.973 197.431 606.46 199.748 606.46C202.065 606.46 204.133 606.973 205.952 608C207.8 608.997 209.237 610.405 210.264 612.224C211.32 614.013 211.848 616.052 211.848 618.34C211.848 620.628 211.32 622.681 210.264 624.5C209.237 626.289 207.8 627.697 205.952 628.724C204.133 629.751 202.065 630.264 199.748 630.264ZM199.748 626.568C201.244 626.568 202.579 626.231 203.752 625.556C204.955 624.852 205.893 623.884 206.568 622.652C207.243 621.391 207.58 619.953 207.58 618.34C207.58 616.727 207.243 615.304 206.568 614.072C205.893 612.811 204.955 611.843 203.752 611.168C202.579 610.493 201.244 610.156 199.748 610.156C198.252 610.156 196.903 610.493 195.7 611.168C194.527 611.843 193.588 612.811 192.884 614.072C192.209 615.304 191.872 616.727 191.872 618.34C191.872 619.953 192.209 621.391 192.884 622.652C193.588 623.884 194.527 624.852 195.7 625.556C196.903 626.231 198.252 626.568 199.748 626.568ZM221.738 610.596C222.471 609.247 223.556 608.22 224.994 607.516C226.431 606.812 228.176 606.46 230.23 606.46V610.552C229.995 610.523 229.672 610.508 229.262 610.508C226.974 610.508 225.17 611.197 223.85 612.576C222.559 613.925 221.914 615.861 221.914 618.384V630H217.69V606.68H221.738V610.596ZM257.221 597.352V630H253.173V626.304C252.234 627.595 251.046 628.577 249.609 629.252C248.171 629.927 246.587 630.264 244.857 630.264C242.598 630.264 240.574 629.765 238.785 628.768C236.995 627.771 235.587 626.377 234.561 624.588C233.563 622.769 233.065 620.687 233.065 618.34C233.065 615.993 233.563 613.925 234.561 612.136C235.587 610.347 236.995 608.953 238.785 607.956C240.574 606.959 242.598 606.46 244.857 606.46C246.529 606.46 248.069 606.783 249.477 607.428C250.885 608.044 252.058 608.968 252.997 610.2V597.352H257.221ZM245.209 626.568C246.675 626.568 248.01 626.231 249.213 625.556C250.415 624.852 251.354 623.884 252.029 622.652C252.703 621.391 253.041 619.953 253.041 618.34C253.041 616.727 252.703 615.304 252.029 614.072C251.354 612.811 250.415 611.843 249.213 611.168C248.01 610.493 246.675 610.156 245.209 610.156C243.713 610.156 242.363 610.493 241.161 611.168C239.987 611.843 239.049 612.811 238.345 614.072C237.67 615.304 237.333 616.727 237.333 618.34C237.333 619.953 237.67 621.391 238.345 622.652C239.049 623.884 239.987 624.852 241.161 625.556C242.363 626.231 243.713 626.568 245.209 626.568ZM277.841 599.2C281.83 599.2 284.969 600.153 287.257 602.06C289.545 603.967 290.689 606.592 290.689 609.936C290.689 613.28 289.545 615.905 287.257 617.812C284.969 619.719 281.83 620.672 277.841 620.672H270.229V630H265.829V599.2H277.841ZM277.709 616.844C280.496 616.844 282.622 616.257 284.089 615.084C285.556 613.881 286.289 612.165 286.289 609.936C286.289 607.707 285.556 606.005 284.089 604.832C282.622 603.629 280.496 603.028 277.709 603.028H270.229V616.844H277.709ZM300.198 610.596C300.932 609.247 302.017 608.22 303.454 607.516C304.892 606.812 306.637 606.46 308.69 606.46V610.552C308.456 610.523 308.133 610.508 307.722 610.508C305.434 610.508 303.63 611.197 302.31 612.576C301.02 613.925 300.374 615.861 300.374 618.384V630H296.15V606.68H300.198V610.596ZM334.758 618.472C334.758 618.795 334.728 619.22 334.67 619.748H315.75C316.014 621.801 316.908 623.459 318.434 624.72C319.988 625.952 321.91 626.568 324.198 626.568C326.984 626.568 329.228 625.629 330.93 623.752L333.262 626.48C332.206 627.712 330.886 628.651 329.302 629.296C327.747 629.941 326.002 630.264 324.066 630.264C321.602 630.264 319.416 629.765 317.51 628.768C315.603 627.741 314.122 626.319 313.066 624.5C312.039 622.681 311.526 620.628 311.526 618.34C311.526 616.081 312.024 614.043 313.022 612.224C314.048 610.405 315.442 608.997 317.202 608C318.991 606.973 321 606.46 323.23 606.46C325.459 606.46 327.439 606.973 329.17 608C330.93 608.997 332.294 610.405 333.262 612.224C334.259 614.043 334.758 616.125 334.758 618.472ZM323.23 610.024C321.206 610.024 319.504 610.64 318.126 611.872C316.776 613.104 315.984 614.717 315.75 616.712H330.71C330.475 614.747 329.668 613.148 328.29 611.916C326.94 610.655 325.254 610.024 323.23 610.024ZM347.311 630.264C345.404 630.264 343.571 630.015 341.811 629.516C340.051 628.988 338.672 628.328 337.675 627.536L339.435 624.192C340.462 624.925 341.708 625.512 343.175 625.952C344.642 626.392 346.123 626.612 347.619 626.612C351.315 626.612 353.163 625.556 353.163 623.444C353.163 622.74 352.914 622.183 352.415 621.772C351.916 621.361 351.286 621.068 350.523 620.892C349.79 620.687 348.734 620.467 347.355 620.232C345.478 619.939 343.938 619.601 342.735 619.22C341.562 618.839 340.55 618.193 339.699 617.284C338.848 616.375 338.423 615.099 338.423 613.456C338.423 611.344 339.303 609.657 341.063 608.396C342.823 607.105 345.184 606.46 348.147 606.46C349.702 606.46 351.256 606.651 352.811 607.032C354.366 607.413 355.642 607.927 356.639 608.572L354.835 611.916C352.928 610.684 350.684 610.068 348.103 610.068C346.314 610.068 344.95 610.361 344.011 610.948C343.072 611.535 342.603 612.312 342.603 613.28C342.603 614.043 342.867 614.644 343.395 615.084C343.923 615.524 344.568 615.847 345.331 616.052C346.123 616.257 347.223 616.492 348.631 616.756C350.508 617.079 352.019 617.431 353.163 617.812C354.336 618.164 355.334 618.78 356.155 619.66C356.976 620.54 357.387 621.772 357.387 623.356C357.387 625.468 356.478 627.155 354.659 628.416C352.87 629.648 350.42 630.264 347.311 630.264ZM369.354 630.264C367.447 630.264 365.614 630.015 363.854 629.516C362.094 628.988 360.715 628.328 359.718 627.536L361.478 624.192C362.505 624.925 363.751 625.512 365.218 625.952C366.685 626.392 368.166 626.612 369.662 626.612C373.358 626.612 375.206 625.556 375.206 623.444C375.206 622.74 374.957 622.183 374.458 621.772C373.959 621.361 373.329 621.068 372.566 620.892C371.833 620.687 370.777 620.467 369.398 620.232C367.521 619.939 365.981 619.601 364.778 619.22C363.605 618.839 362.593 618.193 361.742 617.284C360.891 616.375 360.466 615.099 360.466 613.456C360.466 611.344 361.346 609.657 363.106 608.396C364.866 607.105 367.227 606.46 370.19 606.46C371.745 606.46 373.299 606.651 374.854 607.032C376.409 607.413 377.685 607.927 378.682 608.572L376.878 611.916C374.971 610.684 372.727 610.068 370.146 610.068C368.357 610.068 366.993 610.361 366.054 610.948C365.115 611.535 364.646 612.312 364.646 613.28C364.646 614.043 364.91 614.644 365.438 615.084C365.966 615.524 366.611 615.847 367.374 616.052C368.166 616.257 369.266 616.492 370.674 616.756C372.551 617.079 374.062 617.431 375.206 617.812C376.379 618.164 377.377 618.78 378.198 619.66C379.019 620.54 379.43 621.772 379.43 623.356C379.43 625.468 378.521 627.155 376.702 628.416C374.913 629.648 372.463 630.264 369.354 630.264ZM409.153 599.2C413.143 599.2 416.281 600.153 418.569 602.06C420.857 603.967 422.001 606.592 422.001 609.936C422.001 613.28 420.857 615.905 418.569 617.812C416.281 619.719 413.143 620.672 409.153 620.672H401.541V630H397.141V599.2H409.153ZM409.021 616.844C411.808 616.844 413.935 616.257 415.401 615.084C416.868 613.881 417.601 612.165 417.601 609.936C417.601 607.707 416.868 606.005 415.401 604.832C413.935 603.629 411.808 603.028 409.021 603.028H401.541V616.844H409.021ZM437.752 630.264C435.434 630.264 433.352 629.751 431.504 628.724C429.656 627.697 428.204 626.289 427.148 624.5C426.121 622.681 425.608 620.628 425.608 618.34C425.608 616.052 426.121 614.013 427.148 612.224C428.204 610.405 429.656 608.997 431.504 608C433.352 606.973 435.434 606.46 437.752 606.46C440.069 606.46 442.137 606.973 443.956 608C445.804 608.997 447.241 610.405 448.268 612.224C449.324 614.013 449.852 616.052 449.852 618.34C449.852 620.628 449.324 622.681 448.268 624.5C447.241 626.289 445.804 627.697 443.956 628.724C442.137 629.751 440.069 630.264 437.752 630.264ZM437.752 626.568C439.248 626.568 440.582 626.231 441.756 625.556C442.958 624.852 443.897 623.884 444.572 622.652C445.246 621.391 445.584 619.953 445.584 618.34C445.584 616.727 445.246 615.304 444.572 614.072C443.897 612.811 442.958 611.843 441.756 611.168C440.582 610.493 439.248 610.156 437.752 610.156C436.256 610.156 434.906 610.493 433.704 611.168C432.53 611.843 431.592 612.811 430.888 614.072C430.213 615.304 429.876 616.727 429.876 618.34C429.876 619.953 430.213 621.391 430.888 622.652C431.592 623.884 432.53 624.852 433.704 625.556C434.906 626.231 436.256 626.568 437.752 626.568ZM490.337 606.68L481.625 630H477.577L470.845 612.312L464.025 630H459.977L451.309 606.68H455.313L462.089 625.248L469.129 606.68H472.693L479.601 625.336L486.553 606.68H490.337ZM515.055 618.472C515.055 618.795 515.025 619.22 514.967 619.748H496.047C496.311 621.801 497.205 623.459 498.731 624.72C500.285 625.952 502.207 626.568 504.495 626.568C507.281 626.568 509.525 625.629 511.227 623.752L513.559 626.48C512.503 627.712 511.183 628.651 509.599 629.296C508.044 629.941 506.299 630.264 504.363 630.264C501.899 630.264 499.713 629.765 497.807 628.768C495.9 627.741 494.419 626.319 493.363 624.5C492.336 622.681 491.823 620.628 491.823 618.34C491.823 616.081 492.321 614.043 493.319 612.224C494.345 610.405 495.739 608.997 497.499 608C499.288 606.973 501.297 606.46 503.527 606.46C505.756 606.46 507.736 606.973 509.467 608C511.227 608.997 512.591 610.405 513.559 612.224C514.556 614.043 515.055 616.125 515.055 618.472ZM503.527 610.024C501.503 610.024 499.801 610.64 498.423 611.872C497.073 613.104 496.281 614.717 496.047 616.712H511.007C510.772 614.747 509.965 613.148 508.587 611.916C507.237 610.655 505.551 610.024 503.527 610.024ZM524.968 610.596C525.701 609.247 526.787 608.22 528.224 607.516C529.661 606.812 531.407 606.46 533.46 606.46V610.552C533.225 610.523 532.903 610.508 532.492 610.508C530.204 610.508 528.4 611.197 527.08 612.576C525.789 613.925 525.144 615.861 525.144 618.384V630H520.92V606.68H524.968V610.596ZM559.527 618.472C559.527 618.795 559.498 619.22 559.439 619.748H540.519C540.783 621.801 541.678 623.459 543.203 624.72C544.758 625.952 546.679 626.568 548.967 626.568C551.754 626.568 553.998 625.629 555.699 623.752L558.031 626.48C556.975 627.712 555.655 628.651 554.071 629.296C552.517 629.941 550.771 630.264 548.835 630.264C546.371 630.264 544.186 629.765 542.279 628.768C540.373 627.741 538.891 626.319 537.835 624.5C536.809 622.681 536.295 620.628 536.295 618.34C536.295 616.081 536.794 614.043 537.791 612.224C538.818 610.405 540.211 608.997 541.971 608C543.761 606.973 545.77 606.46 547.999 606.46C550.229 606.46 552.209 606.973 553.939 608C555.699 608.997 557.063 610.405 558.031 612.224C559.029 614.043 559.527 616.125 559.527 618.472ZM547.999 610.024C545.975 610.024 544.274 610.64 542.895 611.872C541.546 613.104 540.754 614.717 540.519 616.712H555.479C555.245 614.747 554.438 613.148 553.059 611.916C551.71 610.655 550.023 610.024 547.999 610.024ZM587.393 597.352V630H583.345V626.304C582.406 627.595 581.218 628.577 579.781 629.252C578.343 629.927 576.759 630.264 575.029 630.264C572.77 630.264 570.746 629.765 568.957 628.768C567.167 627.771 565.759 626.377 564.733 624.588C563.735 622.769 563.237 620.687 563.237 618.34C563.237 615.993 563.735 613.925 564.733 612.136C565.759 610.347 567.167 608.953 568.957 607.956C570.746 606.959 572.77 606.46 575.029 606.46C576.701 606.46 578.241 606.783 579.649 607.428C581.057 608.044 582.23 608.968 583.169 610.2V597.352H587.393ZM575.381 626.568C576.847 626.568 578.182 626.231 579.385 625.556C580.587 624.852 581.526 623.884 582.201 622.652C582.875 621.391 583.213 619.953 583.213 618.34C583.213 616.727 582.875 615.304 582.201 614.072C581.526 612.811 580.587 611.843 579.385 611.168C578.182 610.493 576.847 610.156 575.381 610.156C573.885 610.156 572.535 610.493 571.333 611.168C570.159 611.843 569.221 612.811 568.517 614.072C567.842 615.304 567.505 616.727 567.505 618.34C567.505 619.953 567.842 621.391 568.517 622.652C569.221 623.884 570.159 624.852 571.333 625.556C572.535 626.231 573.885 626.568 575.381 626.568ZM310.72 665.2L300.424 696H295.804L287.4 671.404L278.996 696H274.288L263.992 665.2H268.524L276.84 690.236L285.508 665.2H289.556L298.048 690.368L306.54 665.2H310.72ZM334.801 684.472C334.801 684.795 334.771 685.22 334.713 685.748H315.793C316.057 687.801 316.951 689.459 318.477 690.72C320.031 691.952 321.953 692.568 324.241 692.568C327.027 692.568 329.271 691.629 330.973 689.752L333.305 692.48C332.249 693.712 330.929 694.651 329.345 695.296C327.79 695.941 326.045 696.264 324.109 696.264C321.645 696.264 319.459 695.765 317.553 694.768C315.646 693.741 314.165 692.319 313.109 690.5C312.082 688.681 311.569 686.628 311.569 684.34C311.569 682.081 312.067 680.043 313.065 678.224C314.091 676.405 315.485 674.997 317.245 674C319.034 672.973 321.043 672.46 323.273 672.46C325.502 672.46 327.482 672.973 329.213 674C330.973 674.997 332.337 676.405 333.305 678.224C334.302 680.043 334.801 682.125 334.801 684.472ZM323.273 676.024C321.249 676.024 319.547 676.64 318.169 677.872C316.819 679.104 316.027 680.717 315.793 682.712H330.753C330.518 680.747 329.711 679.148 328.333 677.916C326.983 676.655 325.297 676.024 323.273 676.024ZM353.03 672.46C355.289 672.46 357.313 672.959 359.102 673.956C360.891 674.953 362.285 676.347 363.282 678.136C364.309 679.925 364.822 681.993 364.822 684.34C364.822 686.687 364.309 688.769 363.282 690.588C362.285 692.377 360.891 693.771 359.102 694.768C357.313 695.765 355.289 696.264 353.03 696.264C351.299 696.264 349.715 695.927 348.278 695.252C346.841 694.577 345.653 693.595 344.714 692.304V696H340.666V663.352H344.89V676.2C345.829 674.968 347.002 674.044 348.41 673.428C349.818 672.783 351.358 672.46 353.03 672.46ZM352.678 692.568C354.174 692.568 355.509 692.231 356.682 691.556C357.885 690.852 358.823 689.884 359.498 688.652C360.202 687.391 360.554 685.953 360.554 684.34C360.554 682.727 360.202 681.304 359.498 680.072C358.823 678.811 357.885 677.843 356.682 677.168C355.509 676.493 354.174 676.156 352.678 676.156C351.211 676.156 349.877 676.493 348.674 677.168C347.471 677.843 346.533 678.811 345.858 680.072C345.183 681.304 344.846 682.727 344.846 684.34C344.846 685.953 345.183 687.391 345.858 688.652C346.533 689.884 347.471 690.852 348.674 691.556C349.877 692.231 351.211 692.568 352.678 692.568ZM377.346 696.264C375.44 696.264 373.606 696.015 371.846 695.516C370.086 694.988 368.708 694.328 367.71 693.536L369.47 690.192C370.497 690.925 371.744 691.512 373.21 691.952C374.677 692.392 376.158 692.612 377.654 692.612C381.35 692.612 383.198 691.556 383.198 689.444C383.198 688.74 382.949 688.183 382.45 687.772C381.952 687.361 381.321 687.068 380.558 686.892C379.825 686.687 378.769 686.467 377.39 686.232C375.513 685.939 373.973 685.601 372.77 685.22C371.597 684.839 370.585 684.193 369.734 683.284C368.884 682.375 368.458 681.099 368.458 679.456C368.458 677.344 369.338 675.657 371.098 674.396C372.858 673.105 375.22 672.46 378.182 672.46C379.737 672.46 381.292 672.651 382.846 673.032C384.401 673.413 385.677 673.927 386.674 674.572L384.87 677.916C382.964 676.684 380.72 676.068 378.138 676.068C376.349 676.068 374.985 676.361 374.046 676.948C373.108 677.535 372.638 678.312 372.638 679.28C372.638 680.043 372.902 680.644 373.43 681.084C373.958 681.524 374.604 681.847 375.366 682.052C376.158 682.257 377.258 682.492 378.666 682.756C380.544 683.079 382.054 683.431 383.198 683.812C384.372 684.164 385.369 684.78 386.19 685.66C387.012 686.54 387.422 687.772 387.422 689.356C387.422 691.468 386.513 693.155 384.694 694.416C382.905 695.648 380.456 696.264 377.346 696.264ZM392.701 672.68H396.925V696H392.701V672.68ZM394.813 668.192C393.992 668.192 393.303 667.928 392.745 667.4C392.217 666.872 391.953 666.227 391.953 665.464C391.953 664.701 392.217 664.056 392.745 663.528C393.303 662.971 393.992 662.692 394.813 662.692C395.635 662.692 396.309 662.956 396.837 663.484C397.395 663.983 397.673 664.613 397.673 665.376C397.673 666.168 397.395 666.843 396.837 667.4C396.309 667.928 395.635 668.192 394.813 668.192ZM418.102 694.636C417.486 695.164 416.724 695.575 415.814 695.868C414.905 696.132 413.966 696.264 412.998 696.264C410.652 696.264 408.833 695.633 407.542 694.372C406.252 693.111 405.606 691.307 405.606 688.96V676.156H401.646V672.68H405.606V667.576H409.83V672.68H416.518V676.156H409.83V688.784C409.83 690.045 410.138 691.013 410.754 691.688C411.4 692.363 412.309 692.7 413.482 692.7C414.773 692.7 415.873 692.333 416.782 691.6L418.102 694.636ZM443.512 684.472C443.512 684.795 443.482 685.22 443.424 685.748H424.504C424.768 687.801 425.662 689.459 427.188 690.72C428.742 691.952 430.664 692.568 432.952 692.568C435.738 692.568 437.982 691.629 439.684 689.752L442.016 692.48C440.96 693.712 439.64 694.651 438.056 695.296C436.501 695.941 434.756 696.264 432.82 696.264C430.356 696.264 428.17 695.765 426.264 694.768C424.357 693.741 422.876 692.319 421.82 690.5C420.793 688.681 420.28 686.628 420.28 684.34C420.28 682.081 420.778 680.043 421.776 678.224C422.802 676.405 424.196 674.997 425.956 674C427.745 672.973 429.754 672.46 431.984 672.46C434.213 672.46 436.193 672.973 437.924 674C439.684 674.997 441.048 676.405 442.016 678.224C443.013 680.043 443.512 682.125 443.512 684.472ZM431.984 676.024C429.96 676.024 428.258 676.64 426.88 677.872C425.53 679.104 424.738 680.717 424.504 682.712H439.464C439.229 680.747 438.422 679.148 437.044 677.916C435.694 676.655 434.008 676.024 431.984 676.024ZM456.065 696.264C454.158 696.264 452.325 696.015 450.565 695.516C448.805 694.988 447.426 694.328 446.429 693.536L448.189 690.192C449.216 690.925 450.462 691.512 451.929 691.952C453.396 692.392 454.877 692.612 456.373 692.612C460.069 692.612 461.917 691.556 461.917 689.444C461.917 688.74 461.668 688.183 461.169 687.772C460.67 687.361 460.04 687.068 459.277 686.892C458.544 686.687 457.488 686.467 456.109 686.232C454.232 685.939 452.692 685.601 451.489 685.22C450.316 684.839 449.304 684.193 448.453 683.284C447.602 682.375 447.177 681.099 447.177 679.456C447.177 677.344 448.057 675.657 449.817 674.396C451.577 673.105 453.938 672.46 456.901 672.46C458.456 672.46 460.01 672.651 461.565 673.032C463.12 673.413 464.396 673.927 465.393 674.572L463.589 677.916C461.682 676.684 459.438 676.068 456.857 676.068C455.068 676.068 453.704 676.361 452.765 676.948C451.826 677.535 451.357 678.312 451.357 679.28C451.357 680.043 451.621 680.644 452.149 681.084C452.677 681.524 453.322 681.847 454.085 682.052C454.877 682.257 455.977 682.492 457.385 682.756C459.262 683.079 460.773 683.431 461.917 683.812C463.09 684.164 464.088 684.78 464.909 685.66C465.73 686.54 466.141 687.772 466.141 689.356C466.141 691.468 465.232 693.155 463.413 694.416C461.624 695.648 459.174 696.264 456.065 696.264Z" fill="white"/>
<path d="M241.634 500.95H224.534V523H200.834V500.95H144.284V484.6L193.784 418H219.284L173.384 481.15H201.584V461.5H224.534V481.15H241.634V500.95ZM296.926 460.75C306.126 462.25 313.176 465.7 318.076 471.1C322.976 476.4 325.426 483 325.426 490.9C325.426 497 323.826 502.65 320.626 507.85C317.426 512.95 312.526 517.05 305.926 520.15C299.426 523.25 291.426 524.8 281.926 524.8C274.526 524.8 267.226 523.85 260.026 521.95C252.926 519.95 246.876 517.15 241.876 513.55L251.326 494.95C255.326 497.95 259.926 500.3 265.126 502C270.426 503.6 275.826 504.4 281.326 504.4C287.426 504.4 292.226 503.25 295.726 500.95C299.226 498.55 300.976 495.2 300.976 490.9C300.976 482.3 294.426 478 281.326 478H270.226V461.95L291.826 437.5H247.126V418H320.626V433.75L296.926 460.75ZM350.446 524.2C346.346 524.2 342.896 522.8 340.096 520C337.296 517.2 335.896 513.7 335.896 509.5C335.896 505.2 337.296 501.75 340.096 499.15C342.896 496.45 346.346 495.1 350.446 495.1C354.546 495.1 357.996 496.45 360.796 499.15C363.596 501.75 364.996 505.2 364.996 509.5C364.996 513.7 363.596 517.2 360.796 520C357.996 522.8 354.546 524.2 350.446 524.2ZM426.419 460.75C435.619 462.25 442.669 465.7 447.569 471.1C452.469 476.4 454.919 483 454.919 490.9C454.919 497 453.319 502.65 450.119 507.85C446.919 512.95 442.019 517.05 435.419 520.15C428.919 523.25 420.919 524.8 411.419 524.8C404.019 524.8 396.719 523.85 389.519 521.95C382.419 519.95 376.369 517.15 371.369 513.55L380.819 494.95C384.819 497.95 389.419 500.3 394.619 502C399.919 503.6 405.319 504.4 410.819 504.4C416.919 504.4 421.719 503.25 425.219 500.95C428.719 498.55 430.469 495.2 430.469 490.9C430.469 482.3 423.919 478 410.819 478H399.719V461.95L421.319 437.5H376.619V418H450.119V433.75L426.419 460.75ZM488.973 474.7C481.273 474.7 474.973 472.1 470.073 466.9C465.273 461.6 462.873 454.55 462.873 445.75C462.873 436.95 465.273 429.95 470.073 424.75C474.973 419.45 481.273 416.8 488.973 416.8C496.673 416.8 502.923 419.45 507.723 424.75C512.523 429.95 514.923 436.95 514.923 445.75C514.923 454.55 512.523 461.6 507.723 466.9C502.923 472.1 496.673 474.7 488.973 474.7ZM551.523 418H569.373L497.673 523H479.823L551.523 418ZM488.973 462.4C492.373 462.4 495.023 461 496.923 458.2C498.923 455.4 499.923 451.25 499.923 445.75C499.923 440.25 498.923 436.1 496.923 433.3C495.023 430.5 492.373 429.1 488.973 429.1C485.673 429.1 483.023 430.55 481.023 433.45C479.023 436.25 478.023 440.35 478.023 445.75C478.023 451.15 479.023 455.3 481.023 458.2C483.023 461 485.673 462.4 488.973 462.4ZM560.223 524.2C555.223 524.2 550.723 523.05 546.723 520.75C542.823 518.35 539.773 514.95 537.573 510.55C535.373 506.15 534.273 501.05 534.273 495.25C534.273 489.45 535.373 484.35 537.573 479.95C539.773 475.55 542.823 472.2 546.723 469.9C550.723 467.5 555.223 466.3 560.223 466.3C567.923 466.3 574.173 468.95 578.973 474.25C583.873 479.45 586.323 486.45 586.323 495.25C586.323 504.05 583.873 511.1 578.973 516.4C574.173 521.6 567.923 524.2 560.223 524.2ZM560.223 511.9C563.623 511.9 566.273 510.5 568.173 507.7C570.173 504.8 571.173 500.65 571.173 495.25C571.173 489.85 570.173 485.75 568.173 482.95C566.273 480.05 563.623 478.6 560.223 478.6C556.923 478.6 554.273 480 552.273 482.8C550.273 485.6 549.273 489.75 549.273 495.25C549.273 500.75 550.273 504.9 552.273 507.7C554.273 510.5 556.923 511.9 560.223 511.9Z" fill="white"/>
<line x1="367" y1="197" x2="367" y2="302" stroke="#0095FF" stroke-width="4" stroke-dasharray="15 15"/>
<g filter="url(#filter1_d_1317_82)">
<circle cx="364.733" cy="110.733" r="86.7326" fill="#13202F"/>
<circle cx="364.733" cy="110.733" r="84.7326" stroke="white" stroke-width="4"/>
</g>
<path fill-rule="evenodd" clip-rule="evenodd" d="M337.095 72.7039V76.2043C332.869 76.8088 328.688 77.5503 324.554 78.4241C322.948 78.7638 321.895 80.3107 322.168 81.9302C324.252 94.277 334.539 103.833 347.234 104.795C350.442 107.415 354.255 109.329 358.432 110.293C358.029 115.064 356.411 119.484 353.888 123.25H350.875C346.647 123.25 343.219 126.678 343.219 130.906V141.625H340.156C335.082 141.625 330.969 145.738 330.969 150.812C330.969 152.504 332.34 153.875 334.031 153.875H395.281C396.972 153.875 398.344 152.504 398.344 150.812C398.344 145.738 394.23 141.625 389.156 141.625H386.094V130.906C386.094 126.678 382.666 123.25 378.438 123.25H375.422C372.901 119.484 371.284 115.064 370.881 110.294C375.059 109.329 378.872 107.416 382.081 104.795C394.776 103.833 405.063 94.277 407.147 81.9302C407.42 80.3107 406.368 78.7638 404.761 78.4241C400.628 77.5503 396.446 76.8088 392.22 76.2043V72.7039C392.22 71.1591 391.069 69.8561 389.536 69.6649C381.385 68.6485 373.082 68.125 364.658 68.125C356.233 68.125 347.93 68.6485 339.779 69.6649C338.246 69.8561 337.095 71.1591 337.095 72.7039ZM337.095 83.4375C337.095 88.3219 338.367 92.9106 340.595 96.889C335.054 94.4082 330.756 89.6432 328.903 83.7922C331.613 83.267 334.344 82.8004 337.095 82.3937V83.4375ZM392.22 83.4375V82.3937C394.971 82.8004 397.702 83.267 400.412 83.7922C398.559 89.6432 394.261 94.4082 388.72 96.889C390.948 92.9106 392.22 88.3219 392.22 83.4375Z" fill="white"/>
<defs>
<filter id="filter0_b_1317_82" x="-100" y="202" width="930" height="700" filterUnits="userSpaceOnUse" color-interpolation-filters="sRGB">
<feFlood flood-opacity="0" result="BackgroundImageFix"/>
<feGaussianBlur in="BackgroundImageFix" stdDeviation="50"/>
<feComposite in2="SourceAlpha" operator="in" result="effect1_backgroundBlur_1317_82"/>
<feBlend mode="normal" in="SourceGraphic" in2="effect1_backgroundBlur_1317_82" result="shape"/>
</filter>
<filter id="filter1_d_1317_82" x="254" y="0" width="281.469" height="281.465" filterUnits="userSpaceOnUse" color-interpolation-filters="sRGB">
<feFlood flood-opacity="0" result="BackgroundImageFix"/>
<feColorMatrix in="SourceAlpha" type="matrix" values="0 0 0 0 0 0 0 0 0 0 0 0 0 0 0 0 0 0 127 0" result="hardAlpha"/>
<feMorphology radius="4" operator="dilate" in="SourceAlpha" result="effect1_dropShadow_1317_82"/>
<feOffset dx="30" dy="30"/>
<feGaussianBlur stdDeviation="25"/>
<feComposite in2="hardAlpha" operator="out"/>
<feColorMatrix type="matrix" values="0 0 0 0 0 0 0 0 0 0 0 0 0 0 0 0 0 0 0.25 0"/>
<feBlend mode="normal" in2="BackgroundImageFix" result="effect1_dropShadow_1317_82"/>
<feBlend mode="normal" in="SourceGraphic" in2="effect1_dropShadow_1317_82" result="shape"/>
</filter>
</defs>
</svg>
