<svg width="730" height="727" viewBox="0 0 730 727" fill="none" xmlns="http://www.w3.org/2000/svg">
<g filter="url(#filter0_b_1317_83)">
<rect y="302" width="730" height="425" rx="50" fill="#13202F" fill-opacity="0.5"/>
<rect x="2.5" y="304.5" width="725" height="420" rx="47.5" stroke="white" stroke-opacity="0.15" stroke-width="5"/>
</g>
<path d="M178.302 625.352C175.222 625.352 172.435 624.677 169.942 623.328C167.478 621.949 165.542 620.072 164.134 617.696C162.726 615.291 162.022 612.592 162.022 609.6C162.022 606.608 162.726 603.924 164.134 601.548C165.542 599.143 167.493 597.265 169.986 595.916C172.479 594.537 175.266 593.848 178.346 593.848C180.751 593.848 182.951 594.259 184.946 595.08C186.941 595.872 188.642 597.06 190.05 598.644L187.19 601.416C184.873 598.981 181.983 597.764 178.522 597.764C176.234 597.764 174.166 598.277 172.318 599.304C170.47 600.331 169.018 601.753 167.962 603.572C166.935 605.361 166.422 607.371 166.422 609.6C166.422 611.829 166.935 613.853 167.962 615.672C169.018 617.461 170.47 618.869 172.318 619.896C174.166 620.923 176.234 621.436 178.522 621.436C181.954 621.436 184.843 620.204 187.19 617.74L190.05 620.512C188.642 622.096 186.926 623.299 184.902 624.12C182.907 624.941 180.707 625.352 178.302 625.352ZM224.883 625L224.839 602.56L213.707 621.26H211.683L200.551 602.692V625H196.327V594.2H199.935L212.783 615.848L225.455 594.2H229.063L229.107 625H224.883ZM247.326 625.352C245.009 625.352 242.765 625 240.594 624.296C238.453 623.563 236.766 622.624 235.534 621.48L237.162 618.048C238.336 619.104 239.832 619.969 241.65 620.644C243.498 621.289 245.39 621.612 247.326 621.612C249.878 621.612 251.785 621.187 253.046 620.336C254.308 619.456 254.938 618.297 254.938 616.86C254.938 615.804 254.586 614.953 253.882 614.308C253.208 613.633 252.357 613.12 251.33 612.768C250.333 612.416 248.91 612.02 247.062 611.58C244.745 611.023 242.868 610.465 241.43 609.908C240.022 609.351 238.805 608.5 237.778 607.356C236.781 606.183 236.282 604.613 236.282 602.648C236.282 601.005 236.708 599.524 237.558 598.204C238.438 596.884 239.758 595.828 241.518 595.036C243.278 594.244 245.464 593.848 248.074 593.848C249.893 593.848 251.682 594.083 253.442 594.552C255.202 595.021 256.713 595.696 257.974 596.576L256.522 600.096C255.232 599.275 253.853 598.659 252.386 598.248C250.92 597.808 249.482 597.588 248.074 597.588C245.581 597.588 243.704 598.043 242.442 598.952C241.21 599.861 240.594 601.035 240.594 602.472C240.594 603.528 240.946 604.393 241.65 605.068C242.354 605.713 243.22 606.227 244.246 606.608C245.302 606.96 246.725 607.341 248.514 607.752C250.832 608.309 252.694 608.867 254.102 609.424C255.51 609.981 256.713 610.832 257.71 611.976C258.737 613.12 259.25 614.66 259.25 616.596C259.25 618.209 258.81 619.691 257.93 621.04C257.05 622.36 255.716 623.416 253.926 624.208C252.137 624.971 249.937 625.352 247.326 625.352ZM306.051 625L306.007 602.56L294.875 621.26H292.851L281.719 602.692V625H277.495V594.2H281.103L293.951 615.848L306.623 594.2H310.231L310.275 625H306.051ZM327.394 601.46C330.621 601.46 333.085 602.252 334.786 603.836C336.517 605.42 337.382 607.781 337.382 610.92V625H333.378V621.92C332.674 623.005 331.662 623.841 330.342 624.428C329.052 624.985 327.512 625.264 325.722 625.264C323.112 625.264 321.014 624.633 319.43 623.372C317.876 622.111 317.098 620.453 317.098 618.4C317.098 616.347 317.846 614.704 319.342 613.472C320.838 612.211 323.214 611.58 326.47 611.58H333.158V610.744C333.158 608.925 332.63 607.532 331.574 606.564C330.518 605.596 328.964 605.112 326.91 605.112C325.532 605.112 324.182 605.347 322.862 605.816C321.542 606.256 320.428 606.857 319.518 607.62L317.758 604.452C318.961 603.484 320.398 602.751 322.07 602.252C323.742 601.724 325.517 601.46 327.394 601.46ZM326.426 622.008C328.04 622.008 329.433 621.656 330.606 620.952C331.78 620.219 332.63 619.192 333.158 617.872V614.616H326.646C323.068 614.616 321.278 615.819 321.278 618.224C321.278 619.397 321.733 620.321 322.642 620.996C323.552 621.671 324.813 622.008 326.426 622.008ZM349.247 605.596C349.981 604.247 351.066 603.22 352.503 602.516C353.941 601.812 355.686 601.46 357.739 601.46V605.552C357.505 605.523 357.182 605.508 356.771 605.508C354.483 605.508 352.679 606.197 351.359 607.576C350.069 608.925 349.423 610.861 349.423 613.384V625H345.199V601.68H349.247V605.596ZM372.009 614.132L367.169 618.62V625H362.945V592.352H367.169V613.296L379.885 601.68H384.989L375.177 611.316L385.957 625H380.765L372.009 614.132ZM410.146 613.472C410.146 613.795 410.117 614.22 410.058 614.748H391.138C391.402 616.801 392.297 618.459 393.822 619.72C395.377 620.952 397.298 621.568 399.586 621.568C402.373 621.568 404.617 620.629 406.318 618.752L408.65 621.48C407.594 622.712 406.274 623.651 404.69 624.296C403.136 624.941 401.39 625.264 399.454 625.264C396.99 625.264 394.805 624.765 392.898 623.768C390.992 622.741 389.51 621.319 388.454 619.5C387.428 617.681 386.914 615.628 386.914 613.34C386.914 611.081 387.413 609.043 388.41 607.224C389.437 605.405 390.83 603.997 392.59 603C394.38 601.973 396.389 601.46 398.618 601.46C400.848 601.46 402.828 601.973 404.558 603C406.318 603.997 407.682 605.405 408.65 607.224C409.648 609.043 410.146 611.125 410.146 613.472ZM398.618 605.024C396.594 605.024 394.893 605.64 393.514 606.872C392.165 608.104 391.373 609.717 391.138 611.712H406.098C405.864 609.747 405.057 608.148 403.678 606.916C402.329 605.655 400.642 605.024 398.618 605.024ZM429.124 623.636C428.508 624.164 427.745 624.575 426.836 624.868C425.926 625.132 424.988 625.264 424.02 625.264C421.673 625.264 419.854 624.633 418.564 623.372C417.273 622.111 416.628 620.307 416.628 617.96V605.156H412.668V601.68H416.628V596.576H420.852V601.68H427.54V605.156H420.852V617.784C420.852 619.045 421.16 620.013 421.776 620.688C422.421 621.363 423.33 621.7 424.504 621.7C425.794 621.7 426.894 621.333 427.804 620.6L429.124 623.636ZM455.639 625.352C453.322 625.352 451.078 625 448.907 624.296C446.766 623.563 445.079 622.624 443.847 621.48L445.475 618.048C446.648 619.104 448.144 619.969 449.963 620.644C451.811 621.289 453.703 621.612 455.639 621.612C458.191 621.612 460.098 621.187 461.359 620.336C462.62 619.456 463.251 618.297 463.251 616.86C463.251 615.804 462.899 614.953 462.195 614.308C461.52 613.633 460.67 613.12 459.643 612.768C458.646 612.416 457.223 612.02 455.375 611.58C453.058 611.023 451.18 610.465 449.743 609.908C448.335 609.351 447.118 608.5 446.091 607.356C445.094 606.183 444.595 604.613 444.595 602.648C444.595 601.005 445.02 599.524 445.871 598.204C446.751 596.884 448.071 595.828 449.831 595.036C451.591 594.244 453.776 593.848 456.387 593.848C458.206 593.848 459.995 594.083 461.755 594.552C463.515 595.021 465.026 595.696 466.287 596.576L464.835 600.096C463.544 599.275 462.166 598.659 460.699 598.248C459.232 597.808 457.795 597.588 456.387 597.588C453.894 597.588 452.016 598.043 450.755 598.952C449.523 599.861 448.907 601.035 448.907 602.472C448.907 603.528 449.259 604.393 449.963 605.068C450.667 605.713 451.532 606.227 452.559 606.608C453.615 606.96 455.038 607.341 456.827 607.752C459.144 608.309 461.007 608.867 462.415 609.424C463.823 609.981 465.026 610.832 466.023 611.976C467.05 613.12 467.563 614.66 467.563 616.596C467.563 618.209 467.123 619.691 466.243 621.04C465.363 622.36 464.028 623.416 462.239 624.208C460.45 624.971 458.25 625.352 455.639 625.352ZM485.827 601.46C488.79 601.46 491.136 602.325 492.867 604.056C494.627 605.757 495.507 608.265 495.507 611.58V625H491.283V612.064C491.283 609.805 490.74 608.104 489.655 606.96C488.57 605.816 487.015 605.244 484.991 605.244C482.703 605.244 480.899 605.919 479.579 607.268C478.259 608.588 477.599 610.495 477.599 612.988V625H473.375V592.352H477.599V604.98C478.479 603.865 479.623 603 481.031 602.384C482.468 601.768 484.067 601.46 485.827 601.46ZM511.816 601.46C515.043 601.46 517.507 602.252 519.208 603.836C520.939 605.42 521.804 607.781 521.804 610.92V625H517.8V621.92C517.096 623.005 516.084 623.841 514.764 624.428C513.474 624.985 511.934 625.264 510.144 625.264C507.534 625.264 505.436 624.633 503.852 623.372C502.298 622.111 501.52 620.453 501.52 618.4C501.52 616.347 502.268 614.704 503.764 613.472C505.26 612.211 507.636 611.58 510.892 611.58H517.58V610.744C517.58 608.925 517.052 607.532 515.996 606.564C514.94 605.596 513.386 605.112 511.332 605.112C509.954 605.112 508.604 605.347 507.284 605.816C505.964 606.256 504.85 606.857 503.94 607.62L502.18 604.452C503.383 603.484 504.82 602.751 506.492 602.252C508.164 601.724 509.939 601.46 511.816 601.46ZM510.848 622.008C512.462 622.008 513.855 621.656 515.028 620.952C516.202 620.219 517.052 619.192 517.58 617.872V614.616H511.068C507.49 614.616 505.7 615.819 505.7 618.224C505.7 619.397 506.155 620.321 507.064 620.996C507.974 621.671 509.235 622.008 510.848 622.008ZM533.669 605.596C534.403 604.247 535.488 603.22 536.925 602.516C538.363 601.812 540.108 601.46 542.161 601.46V605.552C541.927 605.523 541.604 605.508 541.193 605.508C538.905 605.508 537.101 606.197 535.781 607.576C534.491 608.925 533.845 610.861 533.845 613.384V625H529.621V601.68H533.669V605.596ZM568.228 613.472C568.228 613.795 568.199 614.22 568.14 614.748H549.22C549.484 616.801 550.379 618.459 551.904 619.72C553.459 620.952 555.38 621.568 557.668 621.568C560.455 621.568 562.699 620.629 564.4 618.752L566.732 621.48C565.676 622.712 564.356 623.651 562.772 624.296C561.218 624.941 559.472 625.264 557.536 625.264C555.072 625.264 552.887 624.765 550.98 623.768C549.074 622.741 547.592 621.319 546.536 619.5C545.51 617.681 544.996 615.628 544.996 613.34C544.996 611.081 545.495 609.043 546.492 607.224C547.519 605.405 548.912 603.997 550.672 603C552.462 601.973 554.471 601.46 556.7 601.46C558.93 601.46 560.91 601.973 562.64 603C564.4 603.997 565.764 605.405 566.732 607.224C567.73 609.043 568.228 611.125 568.228 613.472ZM556.7 605.024C554.676 605.024 552.975 605.64 551.596 606.872C550.247 608.104 549.455 609.717 549.22 611.712H564.18C563.946 609.747 563.139 608.148 561.76 606.916C560.411 605.655 558.724 605.024 556.7 605.024Z" fill="white"/>
<path d="M215.443 457.15C222.143 457.15 228.243 458.5 233.743 461.2C239.243 463.9 243.593 467.75 246.793 472.75C249.993 477.65 251.593 483.35 251.593 489.85C251.593 496.85 249.843 503 246.343 508.3C242.843 513.6 238.043 517.7 231.943 520.6C225.943 523.4 219.243 524.8 211.843 524.8C197.143 524.8 185.643 520.3 177.343 511.3C169.043 502.3 164.893 489.45 164.893 472.75C164.893 460.85 167.143 450.65 171.643 442.15C176.143 433.65 182.393 427.2 190.393 422.8C198.493 418.4 207.843 416.2 218.443 416.2C224.043 416.2 229.393 416.85 234.493 418.15C239.693 419.35 244.093 421.1 247.693 423.4L238.693 441.25C233.493 437.75 226.943 436 219.043 436C210.143 436 203.093 438.6 197.893 443.8C192.693 449 189.893 456.55 189.493 466.45C195.693 460.25 204.343 457.15 215.443 457.15ZM210.493 506.65C215.693 506.65 219.893 505.25 223.093 502.45C226.393 499.65 228.043 495.85 228.043 491.05C228.043 486.25 226.393 482.45 223.093 479.65C219.893 476.75 215.593 475.3 210.193 475.3C204.893 475.3 200.543 476.8 197.143 479.8C193.743 482.7 192.043 486.45 192.043 491.05C192.043 495.65 193.693 499.4 196.993 502.3C200.293 505.2 204.793 506.65 210.493 506.65ZM296.401 457.45C311.201 457.45 322.101 460.4 329.101 466.3C336.201 472.2 339.751 480.1 339.751 490C339.751 496.4 338.151 502.25 334.951 507.55C331.751 512.75 326.851 516.95 320.251 520.15C313.751 523.25 305.701 524.8 296.101 524.8C288.701 524.8 281.401 523.85 274.201 521.95C267.101 519.95 261.051 517.15 256.051 513.55L265.651 494.95C269.651 497.95 274.251 500.3 279.451 502C284.651 503.6 290.001 504.4 295.501 504.4C301.601 504.4 306.401 503.2 309.901 500.8C313.401 498.4 315.151 495.05 315.151 490.75C315.151 486.25 313.301 482.85 309.601 480.55C306.001 478.25 299.701 477.1 290.701 477.1H263.851L269.251 418H333.301V437.5H289.501L287.851 457.45H296.401ZM363.41 524.2C359.31 524.2 355.86 522.8 353.06 520C350.26 517.2 348.86 513.7 348.86 509.5C348.86 505.2 350.26 501.75 353.06 499.15C355.86 496.45 359.31 495.1 363.41 495.1C367.51 495.1 370.96 496.45 373.76 499.15C376.56 501.75 377.96 505.2 377.96 509.5C377.96 513.7 376.56 517.2 373.76 520C370.96 522.8 367.51 524.2 363.41 524.2ZM427.024 418V523H402.724V437.5H381.724V418H427.024ZM469.564 474.7C461.864 474.7 455.564 472.1 450.664 466.9C445.864 461.6 443.464 454.55 443.464 445.75C443.464 436.95 445.864 429.95 450.664 424.75C455.564 419.45 461.864 416.8 469.564 416.8C477.264 416.8 483.514 419.45 488.314 424.75C493.114 429.95 495.514 436.95 495.514 445.75C495.514 454.55 493.114 461.6 488.314 466.9C483.514 472.1 477.264 474.7 469.564 474.7ZM532.114 418H549.964L478.264 523H460.414L532.114 418ZM469.564 462.4C472.964 462.4 475.614 461 477.514 458.2C479.514 455.4 480.514 451.25 480.514 445.75C480.514 440.25 479.514 436.1 477.514 433.3C475.614 430.5 472.964 429.1 469.564 429.1C466.264 429.1 463.614 430.55 461.614 433.45C459.614 436.25 458.614 440.35 458.614 445.75C458.614 451.15 459.614 455.3 461.614 458.2C463.614 461 466.264 462.4 469.564 462.4ZM540.814 524.2C535.814 524.2 531.314 523.05 527.314 520.75C523.414 518.35 520.364 514.95 518.164 510.55C515.964 506.15 514.864 501.05 514.864 495.25C514.864 489.45 515.964 484.35 518.164 479.95C520.364 475.55 523.414 472.2 527.314 469.9C531.314 467.5 535.814 466.3 540.814 466.3C548.514 466.3 554.764 468.95 559.564 474.25C564.464 479.45 566.914 486.45 566.914 495.25C566.914 504.05 564.464 511.1 559.564 516.4C554.764 521.6 548.514 524.2 540.814 524.2ZM540.814 511.9C544.214 511.9 546.864 510.5 548.764 507.7C550.764 504.8 551.764 500.65 551.764 495.25C551.764 489.85 550.764 485.75 548.764 482.95C546.864 480.05 544.214 478.6 540.814 478.6C537.514 478.6 534.864 480 532.864 482.8C530.864 485.6 529.864 489.75 529.864 495.25C529.864 500.75 530.864 504.9 532.864 507.7C534.864 510.5 537.514 511.9 540.814 511.9Z" fill="white"/>
<line x1="367" y1="197" x2="367" y2="302" stroke="#0095FF" stroke-width="4" stroke-dasharray="15 15"/>
<g filter="url(#filter1_d_1317_83)">
<circle cx="364.733" cy="110.733" r="86.7326" fill="#13202F"/>
<circle cx="364.733" cy="110.733" r="84.7326" stroke="white" stroke-width="4"/>
</g>
<path fill-rule="evenodd" clip-rule="evenodd" d="M337.095 72.7039V76.2043C332.869 76.8088 328.688 77.5503 324.554 78.4241C322.948 78.7638 321.895 80.3107 322.168 81.9302C324.252 94.277 334.539 103.833 347.234 104.795C350.442 107.415 354.255 109.329 358.432 110.293C358.029 115.064 356.411 119.484 353.888 123.25H350.875C346.647 123.25 343.219 126.678 343.219 130.906V141.625H340.156C335.082 141.625 330.969 145.738 330.969 150.812C330.969 152.504 332.34 153.875 334.031 153.875H395.281C396.972 153.875 398.344 152.504 398.344 150.812C398.344 145.738 394.23 141.625 389.156 141.625H386.094V130.906C386.094 126.678 382.666 123.25 378.438 123.25H375.422C372.901 119.484 371.284 115.064 370.881 110.294C375.059 109.329 378.872 107.416 382.081 104.795C394.776 103.833 405.063 94.277 407.147 81.9302C407.42 80.3107 406.368 78.7638 404.761 78.4241C400.628 77.5503 396.446 76.8088 392.22 76.2043V72.7039C392.22 71.1591 391.069 69.8561 389.536 69.6649C381.385 68.6485 373.082 68.125 364.658 68.125C356.233 68.125 347.93 68.6485 339.779 69.6649C338.246 69.8561 337.095 71.1591 337.095 72.7039ZM337.095 83.4375C337.095 88.3219 338.367 92.9106 340.595 96.889C335.054 94.4082 330.756 89.6432 328.903 83.7922C331.613 83.267 334.344 82.8004 337.095 82.3937V83.4375ZM392.22 83.4375V82.3937C394.971 82.8004 397.702 83.267 400.412 83.7922C398.559 89.6432 394.261 94.4082 388.72 96.889C390.948 92.9106 392.22 88.3219 392.22 83.4375Z" fill="white"/>
<defs>
<filter id="filter0_b_1317_83" x="-100" y="202" width="930" height="625" filterUnits="userSpaceOnUse" color-interpolation-filters="sRGB">
<feFlood flood-opacity="0" result="BackgroundImageFix"/>
<feGaussianBlur in="BackgroundImageFix" stdDeviation="50"/>
<feComposite in2="SourceAlpha" operator="in" result="effect1_backgroundBlur_1317_83"/>
<feBlend mode="normal" in="SourceGraphic" in2="effect1_backgroundBlur_1317_83" result="shape"/>
</filter>
<filter id="filter1_d_1317_83" x="254" y="0" width="281.469" height="281.465" filterUnits="userSpaceOnUse" color-interpolation-filters="sRGB">
<feFlood flood-opacity="0" result="BackgroundImageFix"/>
<feColorMatrix in="SourceAlpha" type="matrix" values="0 0 0 0 0 0 0 0 0 0 0 0 0 0 0 0 0 0 127 0" result="hardAlpha"/>
<feMorphology radius="4" operator="dilate" in="SourceAlpha" result="effect1_dropShadow_1317_83"/>
<feOffset dx="30" dy="30"/>
<feGaussianBlur stdDeviation="25"/>
<feComposite in2="hardAlpha" operator="out"/>
<feColorMatrix type="matrix" values="0 0 0 0 0 0 0 0 0 0 0 0 0 0 0 0 0 0 0.25 0"/>
<feBlend mode="normal" in2="BackgroundImageFix" result="effect1_dropShadow_1317_83"/>
<feBlend mode="normal" in="SourceGraphic" in2="effect1_dropShadow_1317_83" result="shape"/>
</filter>
</defs>
</svg>
