<svg width="730" height="727" viewBox="0 0 730 727" fill="none" xmlns="http://www.w3.org/2000/svg">
<g filter="url(#filter0_b_1317_103)">
<rect y="302" width="730" height="425" rx="50" fill="#13202F" fill-opacity="0.5"/>
<rect x="2.5" y="304.5" width="725" height="420" rx="47.5" stroke="white" stroke-opacity="0.15" stroke-width="5"/>
</g>
<path d="M201.945 594.2L191.649 625H187.029L178.625 600.404L170.221 625H165.513L155.217 594.2H159.749L168.065 619.236L176.733 594.2H180.781L189.273 619.368L197.765 594.2H201.945ZM214.937 625.264C212.62 625.264 210.537 624.751 208.689 623.724C206.841 622.697 205.389 621.289 204.333 619.5C203.307 617.681 202.793 615.628 202.793 613.34C202.793 611.052 203.307 609.013 204.333 607.224C205.389 605.405 206.841 603.997 208.689 603C210.537 601.973 212.62 601.46 214.937 601.46C217.255 601.46 219.323 601.973 221.141 603C222.989 603.997 224.427 605.405 225.453 607.224C226.509 609.013 227.037 611.052 227.037 613.34C227.037 615.628 226.509 617.681 225.453 619.5C224.427 621.289 222.989 622.697 221.141 623.724C219.323 624.751 217.255 625.264 214.937 625.264ZM214.937 621.568C216.433 621.568 217.768 621.231 218.941 620.556C220.144 619.852 221.083 618.884 221.757 617.652C222.432 616.391 222.769 614.953 222.769 613.34C222.769 611.727 222.432 610.304 221.757 609.072C221.083 607.811 220.144 606.843 218.941 606.168C217.768 605.493 216.433 605.156 214.937 605.156C213.441 605.156 212.092 605.493 210.889 606.168C209.716 606.843 208.777 607.811 208.073 609.072C207.399 610.304 207.061 611.727 207.061 613.34C207.061 614.953 207.399 616.391 208.073 617.652C208.777 618.884 209.716 619.852 210.889 620.556C212.092 621.231 213.441 621.568 214.937 621.568ZM236.927 605.596C237.66 604.247 238.746 603.22 240.183 602.516C241.62 601.812 243.366 601.46 245.419 601.46V605.552C245.184 605.523 244.862 605.508 244.451 605.508C242.163 605.508 240.359 606.197 239.039 607.576C237.748 608.925 237.103 610.861 237.103 613.384V625H232.879V601.68H236.927V605.596ZM272.41 592.352V625H268.362V621.304C267.424 622.595 266.236 623.577 264.798 624.252C263.361 624.927 261.777 625.264 260.046 625.264C257.788 625.264 255.764 624.765 253.974 623.768C252.185 622.771 250.777 621.377 249.75 619.588C248.753 617.769 248.254 615.687 248.254 613.34C248.254 610.993 248.753 608.925 249.75 607.136C250.777 605.347 252.185 603.953 253.974 602.956C255.764 601.959 257.788 601.46 260.046 601.46C261.718 601.46 263.258 601.783 264.666 602.428C266.074 603.044 267.248 603.968 268.186 605.2V592.352H272.41ZM260.398 621.568C261.865 621.568 263.2 621.231 264.402 620.556C265.605 619.852 266.544 618.884 267.218 617.652C267.893 616.391 268.23 614.953 268.23 613.34C268.23 611.727 267.893 610.304 267.218 609.072C266.544 607.811 265.605 606.843 264.402 606.168C263.2 605.493 261.865 605.156 260.398 605.156C258.902 605.156 257.553 605.493 256.35 606.168C255.177 606.843 254.238 607.811 253.534 609.072C252.86 610.304 252.522 611.727 252.522 613.34C252.522 614.953 252.86 616.391 253.534 617.652C254.238 618.884 255.177 619.852 256.35 620.556C257.553 621.231 258.902 621.568 260.398 621.568ZM293.03 594.2C297.02 594.2 300.158 595.153 302.446 597.06C304.734 598.967 305.878 601.592 305.878 604.936C305.878 608.28 304.734 610.905 302.446 612.812C300.158 614.719 297.02 615.672 293.03 615.672H285.418V625H281.018V594.2H293.03ZM292.898 611.844C295.685 611.844 297.812 611.257 299.278 610.084C300.745 608.881 301.478 607.165 301.478 604.936C301.478 602.707 300.745 601.005 299.278 599.832C297.812 598.629 295.685 598.028 292.898 598.028H285.418V611.844H292.898ZM315.388 605.596C316.121 604.247 317.207 603.22 318.644 602.516C320.081 601.812 321.827 601.46 323.88 601.46V605.552C323.645 605.523 323.323 605.508 322.912 605.508C320.624 605.508 318.82 606.197 317.5 607.576C316.209 608.925 315.564 610.861 315.564 613.384V625H311.34V601.68H315.388V605.596ZM349.947 613.472C349.947 613.795 349.918 614.22 349.859 614.748H330.939C331.203 616.801 332.098 618.459 333.623 619.72C335.178 620.952 337.099 621.568 339.387 621.568C342.174 621.568 344.418 620.629 346.119 618.752L348.451 621.48C347.395 622.712 346.075 623.651 344.491 624.296C342.937 624.941 341.191 625.264 339.255 625.264C336.791 625.264 334.606 624.765 332.699 623.768C330.793 622.741 329.311 621.319 328.255 619.5C327.229 617.681 326.715 615.628 326.715 613.34C326.715 611.081 327.214 609.043 328.211 607.224C329.238 605.405 330.631 603.997 332.391 603C334.181 601.973 336.19 601.46 338.419 601.46C340.649 601.46 342.629 601.973 344.359 603C346.119 603.997 347.483 605.405 348.451 607.224C349.449 609.043 349.947 611.125 349.947 613.472ZM338.419 605.024C336.395 605.024 334.694 605.64 333.315 606.872C331.966 608.104 331.174 609.717 330.939 611.712H345.899C345.665 609.747 344.858 608.148 343.479 606.916C342.13 605.655 340.443 605.024 338.419 605.024ZM362.501 625.264C360.594 625.264 358.761 625.015 357.001 624.516C355.241 623.988 353.862 623.328 352.865 622.536L354.625 619.192C355.651 619.925 356.898 620.512 358.365 620.952C359.831 621.392 361.313 621.612 362.809 621.612C366.505 621.612 368.353 620.556 368.353 618.444C368.353 617.74 368.103 617.183 367.605 616.772C367.106 616.361 366.475 616.068 365.713 615.892C364.979 615.687 363.923 615.467 362.545 615.232C360.667 614.939 359.127 614.601 357.925 614.22C356.751 613.839 355.739 613.193 354.889 612.284C354.038 611.375 353.613 610.099 353.613 608.456C353.613 606.344 354.493 604.657 356.253 603.396C358.013 602.105 360.374 601.46 363.337 601.46C364.891 601.46 366.446 601.651 368.001 602.032C369.555 602.413 370.831 602.927 371.829 603.572L370.025 606.916C368.118 605.684 365.874 605.068 363.293 605.068C361.503 605.068 360.139 605.361 359.201 605.948C358.262 606.535 357.793 607.312 357.793 608.28C357.793 609.043 358.057 609.644 358.585 610.084C359.113 610.524 359.758 610.847 360.521 611.052C361.313 611.257 362.413 611.492 363.821 611.756C365.698 612.079 367.209 612.431 368.353 612.812C369.526 613.164 370.523 613.78 371.345 614.66C372.166 615.54 372.577 616.772 372.577 618.356C372.577 620.468 371.667 622.155 369.849 623.416C368.059 624.648 365.61 625.264 362.501 625.264ZM384.544 625.264C382.637 625.264 380.804 625.015 379.044 624.516C377.284 623.988 375.905 623.328 374.908 622.536L376.668 619.192C377.694 619.925 378.941 620.512 380.408 620.952C381.874 621.392 383.356 621.612 384.852 621.612C388.548 621.612 390.396 620.556 390.396 618.444C390.396 617.74 390.146 617.183 389.648 616.772C389.149 616.361 388.518 616.068 387.756 615.892C387.022 615.687 385.966 615.467 384.588 615.232C382.71 614.939 381.17 614.601 379.968 614.22C378.794 613.839 377.782 613.193 376.932 612.284C376.081 611.375 375.656 610.099 375.656 608.456C375.656 606.344 376.536 604.657 378.296 603.396C380.056 602.105 382.417 601.46 385.38 601.46C386.934 601.46 388.489 601.651 390.044 602.032C391.598 602.413 392.874 602.927 393.872 603.572L392.068 606.916C390.161 605.684 387.917 605.068 385.336 605.068C383.546 605.068 382.182 605.361 381.244 605.948C380.305 606.535 379.836 607.312 379.836 608.28C379.836 609.043 380.1 609.644 380.628 610.084C381.156 610.524 381.801 610.847 382.564 611.052C383.356 611.257 384.456 611.492 385.864 611.756C387.741 612.079 389.252 612.431 390.396 612.812C391.569 613.164 392.566 613.78 393.388 614.66C394.209 615.54 394.62 616.772 394.62 618.356C394.62 620.468 393.71 622.155 391.892 623.416C390.102 624.648 387.653 625.264 384.544 625.264ZM424.343 594.2C428.332 594.2 431.471 595.153 433.759 597.06C436.047 598.967 437.191 601.592 437.191 604.936C437.191 608.28 436.047 610.905 433.759 612.812C431.471 614.719 428.332 615.672 424.343 615.672H416.731V625H412.331V594.2H424.343ZM424.211 611.844C426.998 611.844 429.124 611.257 430.591 610.084C432.058 608.881 432.791 607.165 432.791 604.936C432.791 602.707 432.058 601.005 430.591 599.832C429.124 598.629 426.998 598.028 424.211 598.028H416.731V611.844H424.211ZM443.469 592.352H447.693V625H443.469V592.352ZM477.494 601.68V625H473.49V621.48C472.639 622.683 471.51 623.621 470.102 624.296C468.723 624.941 467.213 625.264 465.57 625.264C462.461 625.264 460.011 624.413 458.222 622.712C456.433 620.981 455.538 618.444 455.538 615.1V601.68H459.762V614.616C459.762 616.875 460.305 618.591 461.39 619.764C462.475 620.908 464.03 621.48 466.054 621.48C468.283 621.48 470.043 620.805 471.334 619.456C472.625 618.107 473.27 616.2 473.27 613.736V601.68H477.494ZM507.843 601.68V621.832C507.843 625.909 506.831 628.916 504.807 630.852C502.783 632.817 499.762 633.8 495.743 633.8C493.543 633.8 491.446 633.492 489.451 632.876C487.457 632.289 485.843 631.439 484.611 630.324L486.635 627.068C487.721 628.007 489.055 628.74 490.639 629.268C492.253 629.825 493.91 630.104 495.611 630.104C498.339 630.104 500.349 629.459 501.639 628.168C502.959 626.877 503.619 624.912 503.619 622.272V620.424C502.622 621.627 501.39 622.536 499.923 623.152C498.486 623.739 496.917 624.032 495.215 624.032C492.986 624.032 490.962 623.563 489.143 622.624C487.354 621.656 485.946 620.321 484.919 618.62C483.893 616.889 483.379 614.924 483.379 612.724C483.379 610.524 483.893 608.573 484.919 606.872C485.946 605.141 487.354 603.807 489.143 602.868C490.962 601.929 492.986 601.46 495.215 601.46C496.975 601.46 498.603 601.783 500.099 602.428C501.625 603.073 502.871 604.027 503.839 605.288V601.68H507.843ZM495.699 620.336C497.225 620.336 498.589 620.013 499.791 619.368C501.023 618.723 501.977 617.828 502.651 616.684C503.355 615.511 503.707 614.191 503.707 612.724C503.707 610.465 502.959 608.647 501.463 607.268C499.967 605.86 498.046 605.156 495.699 605.156C493.323 605.156 491.387 605.86 489.891 607.268C488.395 608.647 487.647 610.465 487.647 612.724C487.647 614.191 487.985 615.511 488.659 616.684C489.363 617.828 490.317 618.723 491.519 619.368C492.751 620.013 494.145 620.336 495.699 620.336ZM515.914 601.68H520.138V625H515.914V601.68ZM518.026 597.192C517.205 597.192 516.515 596.928 515.958 596.4C515.43 595.872 515.166 595.227 515.166 594.464C515.166 593.701 515.43 593.056 515.958 592.528C516.515 591.971 517.205 591.692 518.026 591.692C518.847 591.692 519.522 591.956 520.05 592.484C520.607 592.983 520.886 593.613 520.886 594.376C520.886 595.168 520.607 595.843 520.05 596.4C519.522 596.928 518.847 597.192 518.026 597.192ZM540.655 601.46C543.618 601.46 545.965 602.325 547.695 604.056C549.455 605.757 550.335 608.265 550.335 611.58V625H546.111V612.064C546.111 609.805 545.569 608.104 544.483 606.96C543.398 605.816 541.843 605.244 539.819 605.244C537.531 605.244 535.727 605.919 534.407 607.268C533.087 608.588 532.427 610.495 532.427 612.988V625H528.203V601.68H532.251V605.2C533.102 603.997 534.246 603.073 535.683 602.428C537.15 601.783 538.807 601.46 540.655 601.46ZM564.84 625.264C562.934 625.264 561.1 625.015 559.34 624.516C557.58 623.988 556.202 623.328 555.204 622.536L556.964 619.192C557.991 619.925 559.238 620.512 560.704 620.952C562.171 621.392 563.652 621.612 565.148 621.612C568.844 621.612 570.692 620.556 570.692 618.444C570.692 617.74 570.443 617.183 569.944 616.772C569.446 616.361 568.815 616.068 568.052 615.892C567.319 615.687 566.263 615.467 564.884 615.232C563.007 614.939 561.467 614.601 560.264 614.22C559.091 613.839 558.079 613.193 557.228 612.284C556.378 611.375 555.952 610.099 555.952 608.456C555.952 606.344 556.832 604.657 558.592 603.396C560.352 602.105 562.714 601.46 565.676 601.46C567.231 601.46 568.786 601.651 570.34 602.032C571.895 602.413 573.171 602.927 574.168 603.572L572.364 606.916C570.458 605.684 568.214 605.068 565.632 605.068C563.843 605.068 562.479 605.361 561.54 605.948C560.602 606.535 560.132 607.312 560.132 608.28C560.132 609.043 560.396 609.644 560.924 610.084C561.452 610.524 562.098 610.847 562.86 611.052C563.652 611.257 564.752 611.492 566.16 611.756C568.038 612.079 569.548 612.431 570.692 612.812C571.866 613.164 572.863 613.78 573.684 614.66C574.506 615.54 574.916 616.772 574.916 618.356C574.916 620.468 574.007 622.155 572.188 623.416C570.399 624.648 567.95 625.264 564.84 625.264Z" fill="white"/>
<path d="M101.43 457.45C116.23 457.45 127.13 460.4 134.13 466.3C141.23 472.2 144.78 480.1 144.78 490C144.78 496.4 143.18 502.25 139.98 507.55C136.78 512.75 131.88 516.95 125.28 520.15C118.78 523.25 110.73 524.8 101.13 524.8C93.7301 524.8 86.4301 523.85 79.2301 521.95C72.1301 519.95 66.0801 517.15 61.0801 513.55L70.6801 494.95C74.6801 497.95 79.2801 500.3 84.4801 502C89.6801 503.6 95.0301 504.4 100.53 504.4C106.63 504.4 111.43 503.2 114.93 500.8C118.43 498.4 120.18 495.05 120.18 490.75C120.18 486.25 118.33 482.85 114.63 480.55C111.03 478.25 104.73 477.1 95.7301 477.1H68.8801L74.2801 418H138.33V437.5H94.5301L92.8801 457.45H101.43ZM189.907 457.45C204.707 457.45 215.607 460.4 222.607 466.3C229.707 472.2 233.257 480.1 233.257 490C233.257 496.4 231.657 502.25 228.457 507.55C225.257 512.75 220.357 516.95 213.757 520.15C207.257 523.25 199.207 524.8 189.607 524.8C182.207 524.8 174.907 523.85 167.707 521.95C160.607 519.95 154.557 517.15 149.557 513.55L159.157 494.95C163.157 497.95 167.757 500.3 172.957 502C178.157 503.6 183.507 504.4 189.007 504.4C195.107 504.4 199.907 503.2 203.407 500.8C206.907 498.4 208.657 495.05 208.657 490.75C208.657 486.25 206.807 482.85 203.107 480.55C199.507 478.25 193.207 477.1 184.207 477.1H157.357L162.757 418H226.807V437.5H183.007L181.357 457.45H189.907ZM257.066 495.1C261.266 495.1 264.716 496.45 267.416 499.15C270.116 501.75 271.466 505.2 271.466 509.5C271.466 511.5 271.216 513.5 270.716 515.5C270.216 517.5 269.116 520.5 267.416 524.5L258.866 546.1H244.016L250.616 522.25C248.116 521.25 246.116 519.65 244.616 517.45C243.216 515.15 242.516 512.5 242.516 509.5C242.516 505.2 243.866 501.75 246.566 499.15C249.366 496.45 252.866 495.1 257.066 495.1ZM325.469 524.8C316.769 524.8 309.019 522.65 302.219 518.35C295.419 514.05 290.069 507.85 286.169 499.75C282.369 491.55 280.469 481.8 280.469 470.5C280.469 459.2 282.369 449.5 286.169 441.4C290.069 433.2 295.419 426.95 302.219 422.65C309.019 418.35 316.769 416.2 325.469 416.2C334.169 416.2 341.919 418.35 348.719 422.65C355.519 426.95 360.819 433.2 364.619 441.4C368.519 449.5 370.469 459.2 370.469 470.5C370.469 481.8 368.519 491.55 364.619 499.75C360.819 507.85 355.519 514.05 348.719 518.35C341.919 522.65 334.169 524.8 325.469 524.8ZM325.469 504.25C331.869 504.25 336.869 501.5 340.469 496C344.169 490.5 346.019 482 346.019 470.5C346.019 459 344.169 450.5 340.469 445C336.869 439.5 331.869 436.75 325.469 436.75C319.169 436.75 314.169 439.5 310.469 445C306.869 450.5 305.069 459 305.069 470.5C305.069 482 306.869 490.5 310.469 496C314.169 501.5 319.169 504.25 325.469 504.25ZM427.276 524.8C418.576 524.8 410.826 522.65 404.026 518.35C397.226 514.05 391.876 507.85 387.976 499.75C384.176 491.55 382.276 481.8 382.276 470.5C382.276 459.2 384.176 449.5 387.976 441.4C391.876 433.2 397.226 426.95 404.026 422.65C410.826 418.35 418.576 416.2 427.276 416.2C435.976 416.2 443.726 418.35 450.526 422.65C457.326 426.95 462.626 433.2 466.426 441.4C470.326 449.5 472.276 459.2 472.276 470.5C472.276 481.8 470.326 491.55 466.426 499.75C462.626 507.85 457.326 514.05 450.526 518.35C443.726 522.65 435.976 524.8 427.276 524.8ZM427.276 504.25C433.676 504.25 438.676 501.5 442.276 496C445.976 490.5 447.826 482 447.826 470.5C447.826 459 445.976 450.5 442.276 445C438.676 439.5 433.676 436.75 427.276 436.75C420.976 436.75 415.976 439.5 412.276 445C408.676 450.5 406.876 459 406.876 470.5C406.876 482 408.676 490.5 412.276 496C415.976 501.5 420.976 504.25 427.276 504.25ZM529.082 524.8C520.382 524.8 512.632 522.65 505.832 518.35C499.032 514.05 493.682 507.85 489.782 499.75C485.982 491.55 484.082 481.8 484.082 470.5C484.082 459.2 485.982 449.5 489.782 441.4C493.682 433.2 499.032 426.95 505.832 422.65C512.632 418.35 520.382 416.2 529.082 416.2C537.782 416.2 545.532 418.35 552.332 422.65C559.132 426.95 564.432 433.2 568.232 441.4C572.132 449.5 574.082 459.2 574.082 470.5C574.082 481.8 572.132 491.55 568.232 499.75C564.432 507.85 559.132 514.05 552.332 518.35C545.532 522.65 537.782 524.8 529.082 524.8ZM529.082 504.25C535.482 504.25 540.482 501.5 544.082 496C547.782 490.5 549.632 482 549.632 470.5C549.632 459 547.782 450.5 544.082 445C540.482 439.5 535.482 436.75 529.082 436.75C522.782 436.75 517.782 439.5 514.082 445C510.482 450.5 508.682 459 508.682 470.5C508.682 482 510.482 490.5 514.082 496C517.782 501.5 522.782 504.25 529.082 504.25ZM661.325 479.65H635.225V505.15H615.875V479.65H589.925V461.35H615.875V435.85H635.225V461.35H661.325V479.65Z" fill="white"/>
<line x1="367" y1="197" x2="367" y2="302" stroke="#0095FF" stroke-width="4" stroke-dasharray="15 15"/>
<g filter="url(#filter1_d_1317_103)">
<circle cx="364.733" cy="110.733" r="86.7326" fill="#13202F"/>
<circle cx="364.733" cy="110.733" r="84.7326" stroke="white" stroke-width="4"/>
</g>
<path fill-rule="evenodd" clip-rule="evenodd" d="M337.095 72.7039V76.2043C332.869 76.8088 328.688 77.5503 324.554 78.4241C322.948 78.7638 321.895 80.3107 322.168 81.9302C324.252 94.277 334.539 103.833 347.234 104.795C350.442 107.415 354.255 109.329 358.432 110.293C358.029 115.064 356.411 119.484 353.888 123.25H350.875C346.647 123.25 343.219 126.678 343.219 130.906V141.625H340.156C335.082 141.625 330.969 145.738 330.969 150.812C330.969 152.504 332.34 153.875 334.031 153.875H395.281C396.972 153.875 398.344 152.504 398.344 150.812C398.344 145.738 394.23 141.625 389.156 141.625H386.094V130.906C386.094 126.678 382.666 123.25 378.438 123.25H375.422C372.901 119.484 371.284 115.064 370.881 110.294C375.059 109.329 378.872 107.416 382.081 104.795C394.776 103.833 405.063 94.277 407.147 81.9302C407.42 80.3107 406.368 78.7638 404.761 78.4241C400.628 77.5503 396.446 76.8088 392.22 76.2043V72.7039C392.22 71.1591 391.069 69.8561 389.536 69.6649C381.385 68.6485 373.082 68.125 364.658 68.125C356.233 68.125 347.93 68.6485 339.779 69.6649C338.246 69.8561 337.095 71.1591 337.095 72.7039ZM337.095 83.4375C337.095 88.3219 338.367 92.9106 340.595 96.889C335.054 94.4082 330.756 89.6432 328.903 83.7922C331.613 83.267 334.344 82.8004 337.095 82.3937V83.4375ZM392.22 83.4375V82.3937C394.971 82.8004 397.702 83.267 400.412 83.7922C398.559 89.6432 394.261 94.4082 388.72 96.889C390.948 92.9106 392.22 88.3219 392.22 83.4375Z" fill="white"/>
<defs>
<filter id="filter0_b_1317_103" x="-100" y="202" width="930" height="625" filterUnits="userSpaceOnUse" color-interpolation-filters="sRGB">
<feFlood flood-opacity="0" result="BackgroundImageFix"/>
<feGaussianBlur in="BackgroundImageFix" stdDeviation="50"/>
<feComposite in2="SourceAlpha" operator="in" result="effect1_backgroundBlur_1317_103"/>
<feBlend mode="normal" in="SourceGraphic" in2="effect1_backgroundBlur_1317_103" result="shape"/>
</filter>
<filter id="filter1_d_1317_103" x="254" y="0" width="281.469" height="281.465" filterUnits="userSpaceOnUse" color-interpolation-filters="sRGB">
<feFlood flood-opacity="0" result="BackgroundImageFix"/>
<feColorMatrix in="SourceAlpha" type="matrix" values="0 0 0 0 0 0 0 0 0 0 0 0 0 0 0 0 0 0 127 0" result="hardAlpha"/>
<feMorphology radius="4" operator="dilate" in="SourceAlpha" result="effect1_dropShadow_1317_103"/>
<feOffset dx="30" dy="30"/>
<feGaussianBlur stdDeviation="25"/>
<feComposite in2="hardAlpha" operator="out"/>
<feColorMatrix type="matrix" values="0 0 0 0 0 0 0 0 0 0 0 0 0 0 0 0 0 0 0.25 0"/>
<feBlend mode="normal" in2="BackgroundImageFix" result="effect1_dropShadow_1317_103"/>
<feBlend mode="normal" in="SourceGraphic" in2="effect1_dropShadow_1317_103" result="shape"/>
</filter>
</defs>
</svg>
