<svg width="730" height="727" fill="none" xmlns="http://www.w3.org/2000/svg"><g filter="url(#a)"><rect y="302" width="730" height="425" rx="50" fill="#13202F" fill-opacity=".5"/><rect x="2.5" y="304.5" width="725" height="420" rx="47.5" stroke="#fff" stroke-opacity=".15" stroke-width="5"/></g><path d="M178.302 625.352c-3.08 0-5.867-.675-8.36-2.024-2.464-1.379-4.4-3.256-5.808-5.632-1.408-2.405-2.112-5.104-2.112-8.096s.704-5.676 2.112-8.052c1.408-2.405 3.359-4.283 5.852-5.632 2.493-1.379 5.28-2.068 8.36-2.068 2.405 0 4.605.411 6.6 1.232a13.293 13.293 0 0 1 5.104 3.564l-2.86 2.772c-2.317-2.435-5.207-3.652-8.668-3.652-2.288 0-4.356.513-6.204 1.54a11.279 11.279 0 0 0-4.356 4.268c-1.027 1.789-1.54 3.799-1.54 6.028 0 2.229.513 4.253 1.54 6.072 1.056 1.789 2.508 3.197 4.356 4.224 1.848 1.027 3.916 1.54 6.204 1.54 3.432 0 6.321-1.232 8.668-3.696l2.86 2.772c-1.408 1.584-3.124 2.787-5.148 3.608-1.995.821-4.195 1.232-6.6 1.232Zm46.581-.352-.044-22.44-11.132 18.7h-2.024l-11.132-18.568V625h-4.224v-30.8h3.608l12.848 21.648 12.672-21.648h3.608l.044 30.8h-4.224Zm22.443.352c-2.317 0-4.561-.352-6.732-1.056-2.141-.733-3.828-1.672-5.06-2.816l1.628-3.432c1.174 1.056 2.67 1.921 4.488 2.596 1.848.645 3.74.968 5.676.968 2.552 0 4.459-.425 5.72-1.276 1.262-.88 1.892-2.039 1.892-3.476 0-1.056-.352-1.907-1.056-2.552-.674-.675-1.525-1.188-2.552-1.54-.997-.352-2.42-.748-4.268-1.188-2.317-.557-4.194-1.115-5.632-1.672a9.591 9.591 0 0 1-3.652-2.552c-.997-1.173-1.496-2.743-1.496-4.708 0-1.643.426-3.124 1.276-4.444.88-1.32 2.2-2.376 3.96-3.168 1.76-.792 3.946-1.188 6.556-1.188 1.819 0 3.608.235 5.368.704 1.76.469 3.271 1.144 4.532 2.024l-1.452 3.52a15.403 15.403 0 0 0-4.136-1.848c-1.466-.44-2.904-.66-4.312-.66-2.493 0-4.37.455-5.632 1.364-1.232.909-1.848 2.083-1.848 3.52 0 1.056.352 1.921 1.056 2.596.704.645 1.57 1.159 2.596 1.54 1.056.352 2.479.733 4.268 1.144 2.318.557 4.18 1.115 5.588 1.672a9.22 9.22 0 0 1 3.608 2.552c1.027 1.144 1.54 2.684 1.54 4.62a7.97 7.97 0 0 1-1.32 4.444c-.88 1.32-2.214 2.376-4.004 3.168-1.789.763-3.989 1.144-6.6 1.144Zm58.725-.352-.044-22.44-11.132 18.7h-2.024l-11.132-18.568V625h-4.224v-30.8h3.608l12.848 21.648 12.672-21.648h3.608l.044 30.8h-4.224Zm21.343-23.54c3.227 0 5.691.792 7.392 2.376 1.731 1.584 2.596 3.945 2.596 7.084V625h-4.004v-3.08c-.704 1.085-1.716 1.921-3.036 2.508-1.29.557-2.83.836-4.62.836-2.61 0-4.708-.631-6.292-1.892-1.554-1.261-2.332-2.919-2.332-4.972 0-2.053.748-3.696 2.244-4.928 1.496-1.261 3.872-1.892 7.128-1.892h6.688v-.836c0-1.819-.528-3.212-1.584-4.18-1.056-.968-2.61-1.452-4.664-1.452a12.01 12.01 0 0 0-4.048.704c-1.32.44-2.434 1.041-3.344 1.804l-1.76-3.168c1.203-.968 2.64-1.701 4.312-2.2 1.672-.528 3.447-.792 5.324-.792Zm-.968 20.548c1.614 0 3.007-.352 4.18-1.056 1.174-.733 2.024-1.76 2.552-3.08v-3.256h-6.512c-3.578 0-5.368 1.203-5.368 3.608 0 1.173.455 2.097 1.364 2.772.91.675 2.171 1.012 3.784 1.012Zm22.821-16.412c.734-1.349 1.819-2.376 3.256-3.08 1.438-.704 3.183-1.056 5.236-1.056v4.092a8.309 8.309 0 0 0-.968-.044c-2.288 0-4.092.689-5.412 2.068-1.29 1.349-1.936 3.285-1.936 5.808V625h-4.224v-23.32h4.048v3.916Zm22.762 8.536-4.84 4.488V625h-4.224v-32.648h4.224v20.944l12.716-11.616h5.104l-9.812 9.636L385.957 625h-5.192l-8.756-10.868Zm38.137-.66c0 .323-.029.748-.088 1.276h-18.92c.264 2.053 1.159 3.711 2.684 4.972 1.555 1.232 3.476 1.848 5.764 1.848 2.787 0 5.031-.939 6.732-2.816l2.332 2.728c-1.056 1.232-2.376 2.171-3.96 2.816-1.554.645-3.3.968-5.236.968-2.464 0-4.649-.499-6.556-1.496-1.906-1.027-3.388-2.449-4.444-4.268-1.026-1.819-1.54-3.872-1.54-6.16 0-2.259.499-4.297 1.496-6.116 1.027-1.819 2.42-3.227 4.18-4.224 1.79-1.027 3.799-1.54 6.028-1.54 2.23 0 4.21.513 5.94 1.54 1.76.997 3.124 2.405 4.092 4.224.998 1.819 1.496 3.901 1.496 6.248Zm-11.528-8.448c-2.024 0-3.725.616-5.104 1.848-1.349 1.232-2.141 2.845-2.376 4.84h14.96c-.234-1.965-1.041-3.564-2.42-4.796-1.349-1.261-3.036-1.892-5.06-1.892Zm30.506 18.612c-.616.528-1.379.939-2.288 1.232-.91.264-1.848.396-2.816.396-2.347 0-4.166-.631-5.456-1.892-1.291-1.261-1.936-3.065-1.936-5.412v-12.804h-3.96v-3.476h3.96v-5.104h4.224v5.104h6.688v3.476h-6.688v12.628c0 1.261.308 2.229.924 2.904.645.675 1.554 1.012 2.728 1.012 1.29 0 2.39-.367 3.3-1.1l1.32 3.036Zm26.515 1.716c-2.317 0-4.561-.352-6.732-1.056-2.141-.733-3.828-1.672-5.06-2.816l1.628-3.432c1.173 1.056 2.669 1.921 4.488 2.596 1.848.645 3.74.968 5.676.968 2.552 0 4.459-.425 5.72-1.276 1.261-.88 1.892-2.039 1.892-3.476 0-1.056-.352-1.907-1.056-2.552-.675-.675-1.525-1.188-2.552-1.54-.997-.352-2.42-.748-4.268-1.188-2.317-.557-4.195-1.115-5.632-1.672a9.591 9.591 0 0 1-3.652-2.552c-.997-1.173-1.496-2.743-1.496-4.708 0-1.643.425-3.124 1.276-4.444.88-1.32 2.2-2.376 3.96-3.168 1.76-.792 3.945-1.188 6.556-1.188 1.819 0 3.608.235 5.368.704 1.76.469 3.271 1.144 4.532 2.024l-1.452 3.52a15.417 15.417 0 0 0-4.136-1.848c-1.467-.44-2.904-.66-4.312-.66-2.493 0-4.371.455-5.632 1.364-1.232.909-1.848 2.083-1.848 3.52 0 1.056.352 1.921 1.056 2.596.704.645 1.569 1.159 2.596 1.54 1.056.352 2.479.733 4.268 1.144 2.317.557 4.18 1.115 5.588 1.672a9.22 9.22 0 0 1 3.608 2.552c1.027 1.144 1.54 2.684 1.54 4.62a7.97 7.97 0 0 1-1.32 4.444c-.88 1.32-2.215 2.376-4.004 3.168-1.789.763-3.989 1.144-6.6 1.144Zm30.188-23.892c2.963 0 5.309.865 7.04 2.596 1.76 1.701 2.64 4.209 2.64 7.524V625h-4.224v-12.936c0-2.259-.543-3.96-1.628-5.104-1.085-1.144-2.64-1.716-4.664-1.716-2.288 0-4.092.675-5.412 2.024-1.32 1.32-1.98 3.227-1.98 5.72V625h-4.224v-32.648h4.224v12.628c.88-1.115 2.024-1.98 3.432-2.596 1.437-.616 3.036-.924 4.796-.924Zm25.989 0c3.227 0 5.691.792 7.392 2.376 1.731 1.584 2.596 3.945 2.596 7.084V625H517.8v-3.08c-.704 1.085-1.716 1.921-3.036 2.508-1.29.557-2.83.836-4.62.836-2.61 0-4.708-.631-6.292-1.892-1.554-1.261-2.332-2.919-2.332-4.972 0-2.053.748-3.696 2.244-4.928 1.496-1.261 3.872-1.892 7.128-1.892h6.688v-.836c0-1.819-.528-3.212-1.584-4.18-1.056-.968-2.61-1.452-4.664-1.452a12.01 12.01 0 0 0-4.048.704c-1.32.44-2.434 1.041-3.344 1.804l-1.76-3.168c1.203-.968 2.64-1.701 4.312-2.2 1.672-.528 3.447-.792 5.324-.792Zm-.968 20.548c1.614 0 3.007-.352 4.18-1.056 1.174-.733 2.024-1.76 2.552-3.08v-3.256h-6.512c-3.578 0-5.368 1.203-5.368 3.608 0 1.173.455 2.097 1.364 2.772.91.675 2.171 1.012 3.784 1.012Zm22.821-16.412c.734-1.349 1.819-2.376 3.256-3.08 1.438-.704 3.183-1.056 5.236-1.056v4.092a8.309 8.309 0 0 0-.968-.044c-2.288 0-4.092.689-5.412 2.068-1.29 1.349-1.936 3.285-1.936 5.808V625h-4.224v-23.32h4.048v3.916Zm34.559 7.876c0 .323-.029.748-.088 1.276h-18.92c.264 2.053 1.159 3.711 2.684 4.972 1.555 1.232 3.476 1.848 5.764 1.848 2.787 0 5.031-.939 6.732-2.816l2.332 2.728c-1.056 1.232-2.376 2.171-3.96 2.816-1.554.645-3.3.968-5.236.968-2.464 0-4.649-.499-6.556-1.496-1.906-1.027-3.388-2.449-4.444-4.268-1.026-1.819-1.54-3.872-1.54-6.16 0-2.259.499-4.297 1.496-6.116 1.027-1.819 2.42-3.227 4.18-4.224 1.79-1.027 3.799-1.54 6.028-1.54 2.23 0 4.21.513 5.94 1.54 1.76.997 3.124 2.405 4.092 4.224.998 1.819 1.496 3.901 1.496 6.248Zm-11.528-8.448c-2.024 0-3.725.616-5.104 1.848-1.349 1.232-2.141 2.845-2.376 4.84h14.96c-.234-1.965-1.041-3.564-2.42-4.796-1.349-1.261-3.036-1.892-5.06-1.892ZM215.443 457.15c6.7 0 12.8 1.35 18.3 4.05 5.5 2.7 9.85 6.55 13.05 11.55 3.2 4.9 4.8 10.6 4.8 17.1 0 7-1.75 13.15-5.25 18.45-3.5 5.3-8.3 9.4-14.4 12.3-6 2.8-12.7 4.2-20.1 4.2-14.7 0-26.2-4.5-34.5-13.5s-12.45-21.85-12.45-38.55c0-11.9 2.25-22.1 6.75-30.6s10.75-14.95 18.75-19.35c8.1-4.4 17.45-6.6 28.05-6.6 5.6 0 10.95.65 16.05 1.95 5.2 1.2 9.6 2.95 13.2 5.25l-9 17.85c-5.2-3.5-11.75-5.25-19.65-5.25-8.9 0-15.95 2.6-21.15 7.8-5.2 5.2-8 12.75-8.4 22.65 6.2-6.2 14.85-9.3 25.95-9.3Zm-4.95 49.5c5.2 0 9.4-1.4 12.6-4.2 3.3-2.8 4.95-6.6 4.95-11.4 0-4.8-1.65-8.6-4.95-11.4-3.2-2.9-7.5-4.35-12.9-4.35-5.3 0-9.65 1.5-13.05 4.5-3.4 2.9-5.1 6.65-5.1 11.25s1.65 8.35 4.95 11.25c3.3 2.9 7.8 4.35 13.5 4.35Zm85.908-49.2c14.8 0 25.7 2.95 32.7 8.85 7.1 5.9 10.65 13.8 10.65 23.7 0 6.4-1.6 12.25-4.8 17.55-3.2 5.2-8.1 9.4-14.7 12.6-6.5 3.1-14.55 4.65-24.15 4.65-7.4 0-14.7-.95-21.9-2.85-7.1-2-13.15-4.8-18.15-8.4l9.6-18.6c4 3 8.6 5.35 13.8 7.05 5.2 1.6 10.55 2.4 16.05 2.4 6.1 0 10.9-1.2 14.4-3.6 3.5-2.4 5.25-5.75 5.25-10.05 0-4.5-1.85-7.9-5.55-10.2-3.6-2.3-9.9-3.45-18.9-3.45h-26.85l5.4-59.1h64.05v19.5h-43.8l-1.65 19.95h8.55Zm67.009 66.75c-4.1 0-7.55-1.4-10.35-4.2-2.8-2.8-4.2-6.3-4.2-10.5 0-4.3 1.4-7.75 4.2-10.35 2.8-2.7 6.25-4.05 10.35-4.05s7.55 1.35 10.35 4.05c2.8 2.6 4.2 6.05 4.2 10.35 0 4.2-1.4 7.7-4.2 10.5-2.8 2.8-6.25 4.2-10.35 4.2ZM427.024 418v105h-24.3v-85.5h-21V418h45.3Zm42.54 56.7c-7.7 0-14-2.6-18.9-7.8-4.8-5.3-7.2-12.35-7.2-21.15 0-8.8 2.4-15.8 7.2-21 4.9-5.3 11.2-7.95 18.9-7.95 7.7 0 13.95 2.65 18.75 7.95 4.8 5.2 7.2 12.2 7.2 21s-2.4 15.85-7.2 21.15c-4.8 5.2-11.05 7.8-18.75 7.8Zm62.55-56.7h17.85l-71.7 105h-17.85l71.7-105Zm-62.55 44.4c3.4 0 6.05-1.4 7.95-4.2 2-2.8 3-6.95 3-12.45 0-5.5-1-9.65-3-12.45-1.9-2.8-4.55-4.2-7.95-4.2-3.3 0-5.95 1.45-7.95 4.35-2 2.8-3 6.9-3 12.3s1 9.55 3 12.45c2 2.8 4.65 4.2 7.95 4.2Zm71.25 61.8c-5 0-9.5-1.15-13.5-3.45-3.9-2.4-6.95-5.8-9.15-10.2-2.2-4.4-3.3-9.5-3.3-15.3 0-5.8 1.1-10.9 3.3-15.3 2.2-4.4 5.25-7.75 9.15-10.05 4-2.4 8.5-3.6 13.5-3.6 7.7 0 13.95 2.65 18.75 7.95 4.9 5.2 7.35 12.2 7.35 21s-2.45 15.85-7.35 21.15c-4.8 5.2-11.05 7.8-18.75 7.8Zm0-12.3c3.4 0 6.05-1.4 7.95-4.2 2-2.9 3-7.05 3-12.45 0-5.4-1-9.5-3-12.3-1.9-2.9-4.55-4.35-7.95-4.35-3.3 0-5.95 1.4-7.95 4.2-2 2.8-3 6.95-3 12.45 0 5.5 1 9.65 3 12.45 2 2.8 4.65 4.2 7.95 4.2Z" fill="#fff"/><path stroke="#0095FF" stroke-width="4" stroke-dasharray="15 15" d="M367 197v105"/><g filter="url(#b)"><circle cx="364.733" cy="110.733" r="86.733" fill="#13202F"/><circle cx="364.733" cy="110.733" r="84.733" stroke="#fff" stroke-width="4"/></g><path fill-rule="evenodd" clip-rule="evenodd" d="M337.095 72.704v3.5a192.319 192.319 0 0 0-12.541 2.22 3.063 3.063 0 0 0-2.386 3.506c2.084 12.347 12.371 21.903 25.066 22.865a27.466 27.466 0 0 0 11.198 5.498 27.368 27.368 0 0 1-4.544 12.957h-3.013a7.656 7.656 0 0 0-7.656 7.656v10.719h-3.063a9.187 9.187 0 0 0-9.187 9.187 3.062 3.062 0 0 0 3.062 3.063h61.25a3.063 3.063 0 0 0 3.063-3.063 9.188 9.188 0 0 0-9.188-9.187h-3.062v-10.719a7.656 7.656 0 0 0-7.656-7.656h-3.016a27.386 27.386 0 0 1-4.541-12.956 27.476 27.476 0 0 0 11.2-5.499c12.695-.962 22.982-10.518 25.066-22.865a3.063 3.063 0 0 0-2.386-3.506 192.2 192.2 0 0 0-12.541-2.22v-3.5a3.063 3.063 0 0 0-2.684-3.04 200.99 200.99 0 0 0-24.878-1.539c-8.425 0-16.728.523-24.879 1.54a3.063 3.063 0 0 0-2.684 3.039Zm0 10.734c0 4.884 1.272 9.473 3.5 13.451a21.503 21.503 0 0 1-11.692-13.097c2.71-.525 5.441-.992 8.192-1.398v1.043Zm55.125 0v-1.044c2.751.406 5.482.873 8.192 1.398A21.503 21.503 0 0 1 388.72 96.89a27.448 27.448 0 0 0 3.5-13.451Z" fill="#fff"/><defs><filter id="a" x="-100" y="202" width="930" height="625" filterUnits="userSpaceOnUse" color-interpolation-filters="sRGB"><feFlood flood-opacity="0" result="BackgroundImageFix"/><feGaussianBlur in="BackgroundImageFix" stdDeviation="50"/><feComposite in2="SourceAlpha" operator="in" result="effect1_backgroundBlur_1317_83"/><feBlend in="SourceGraphic" in2="effect1_backgroundBlur_1317_83" result="shape"/></filter><filter id="b" x="254" y="0" width="281.469" height="281.465" filterUnits="userSpaceOnUse" color-interpolation-filters="sRGB"><feFlood flood-opacity="0" result="BackgroundImageFix"/><feColorMatrix in="SourceAlpha" values="0 0 0 0 0 0 0 0 0 0 0 0 0 0 0 0 0 0 127 0" result="hardAlpha"/><feMorphology radius="4" operator="dilate" in="SourceAlpha" result="effect1_dropShadow_1317_83"/><feOffset dx="30" dy="30"/><feGaussianBlur stdDeviation="25"/><feComposite in2="hardAlpha" operator="out"/><feColorMatrix values="0 0 0 0 0 0 0 0 0 0 0 0 0 0 0 0 0 0 0.25 0"/><feBlend in2="BackgroundImageFix" result="effect1_dropShadow_1317_83"/><feBlend in="SourceGraphic" in2="effect1_dropShadow_1317_83" result="shape"/></filter></defs></svg>