<svg width="730" height="727" fill="none" xmlns="http://www.w3.org/2000/svg"><g filter="url(#a)"><rect y="302" width="730" height="425" rx="50" fill="#13202F" fill-opacity=".5"/><rect x="2.5" y="304.5" width="725" height="420" rx="47.5" stroke="#fff" stroke-opacity=".15" stroke-width="5"/></g><path d="M201.945 594.2 191.649 625h-4.62l-8.404-24.596L170.221 625h-4.708l-10.296-30.8h4.532l8.316 25.036 8.668-25.036h4.048l8.492 25.168 8.492-25.168h4.18Zm12.992 31.064c-2.317 0-4.4-.513-6.248-1.54-1.848-1.027-3.3-2.435-4.356-4.224-1.026-1.819-1.54-3.872-1.54-6.16 0-2.288.514-4.327 1.54-6.116a10.965 10.965 0 0 1 4.356-4.224c1.848-1.027 3.931-1.54 6.248-1.54 2.318 0 4.386.513 6.204 1.54a10.666 10.666 0 0 1 4.312 4.224c1.056 1.789 1.584 3.828 1.584 6.116s-.528 4.341-1.584 6.16c-1.026 1.789-2.464 3.197-4.312 4.224-1.818 1.027-3.886 1.54-6.204 1.54Zm0-3.696c1.496 0 2.831-.337 4.004-1.012a7.439 7.439 0 0 0 2.816-2.904c.675-1.261 1.012-2.699 1.012-4.312 0-1.613-.337-3.036-1.012-4.268-.674-1.261-1.613-2.229-2.816-2.904-1.173-.675-2.508-1.012-4.004-1.012-1.496 0-2.845.337-4.048 1.012-1.173.675-2.112 1.643-2.816 2.904-.674 1.232-1.012 2.655-1.012 4.268s.338 3.051 1.012 4.312c.704 1.232 1.643 2.2 2.816 2.904 1.203.675 2.552 1.012 4.048 1.012Zm21.99-15.972c.733-1.349 1.819-2.376 3.256-3.08 1.437-.704 3.183-1.056 5.236-1.056v4.092a8.32 8.32 0 0 0-.968-.044c-2.288 0-4.092.689-5.412 2.068-1.291 1.349-1.936 3.285-1.936 5.808V625h-4.224v-23.32h4.048v3.916Zm35.483-13.244V625h-4.048v-3.696a9.137 9.137 0 0 1-3.564 2.948c-1.437.675-3.021 1.012-4.752 1.012-2.258 0-4.282-.499-6.072-1.496a10.918 10.918 0 0 1-4.224-4.18c-.997-1.819-1.496-3.901-1.496-6.248 0-2.347.499-4.415 1.496-6.204a10.918 10.918 0 0 1 4.224-4.18c1.79-.997 3.814-1.496 6.072-1.496 1.672 0 3.212.323 4.62.968a8.782 8.782 0 0 1 3.52 2.772v-12.848h4.224Zm-12.012 29.216c1.467 0 2.802-.337 4.004-1.012a7.439 7.439 0 0 0 2.816-2.904c.675-1.261 1.012-2.699 1.012-4.312 0-1.613-.337-3.036-1.012-4.268-.674-1.261-1.613-2.229-2.816-2.904-1.202-.675-2.537-1.012-4.004-1.012-1.496 0-2.845.337-4.048 1.012-1.173.675-2.112 1.643-2.816 2.904-.674 1.232-1.012 2.655-1.012 4.268s.338 3.051 1.012 4.312c.704 1.232 1.643 2.2 2.816 2.904 1.203.675 2.552 1.012 4.048 1.012ZM293.03 594.2c3.99 0 7.128.953 9.416 2.86 2.288 1.907 3.432 4.532 3.432 7.876 0 3.344-1.144 5.969-3.432 7.876-2.288 1.907-5.426 2.86-9.416 2.86h-7.612V625h-4.4v-30.8h12.012Zm-.132 17.644c2.787 0 4.914-.587 6.38-1.76 1.467-1.203 2.2-2.919 2.2-5.148 0-2.229-.733-3.931-2.2-5.104-1.466-1.203-3.593-1.804-6.38-1.804h-7.48v13.816h7.48Zm22.49-6.248c.733-1.349 1.819-2.376 3.256-3.08 1.437-.704 3.183-1.056 5.236-1.056v4.092a8.32 8.32 0 0 0-.968-.044c-2.288 0-4.092.689-5.412 2.068-1.291 1.349-1.936 3.285-1.936 5.808V625h-4.224v-23.32h4.048v3.916Zm34.559 7.876c0 .323-.029.748-.088 1.276h-18.92c.264 2.053 1.159 3.711 2.684 4.972 1.555 1.232 3.476 1.848 5.764 1.848 2.787 0 5.031-.939 6.732-2.816l2.332 2.728c-1.056 1.232-2.376 2.171-3.96 2.816-1.554.645-3.3.968-5.236.968-2.464 0-4.649-.499-6.556-1.496-1.906-1.027-3.388-2.449-4.444-4.268-1.026-1.819-1.54-3.872-1.54-6.16 0-2.259.499-4.297 1.496-6.116 1.027-1.819 2.42-3.227 4.18-4.224 1.79-1.027 3.799-1.54 6.028-1.54 2.23 0 4.21.513 5.94 1.54 1.76.997 3.124 2.405 4.092 4.224.998 1.819 1.496 3.901 1.496 6.248Zm-11.528-8.448c-2.024 0-3.725.616-5.104 1.848-1.349 1.232-2.141 2.845-2.376 4.84h14.96c-.234-1.965-1.041-3.564-2.42-4.796-1.349-1.261-3.036-1.892-5.06-1.892Zm24.082 20.24c-1.907 0-3.74-.249-5.5-.748-1.76-.528-3.139-1.188-4.136-1.98l1.76-3.344c1.026.733 2.273 1.32 3.74 1.76 1.466.44 2.948.66 4.444.66 3.696 0 5.544-1.056 5.544-3.168 0-.704-.25-1.261-.748-1.672-.499-.411-1.13-.704-1.892-.88-.734-.205-1.79-.425-3.168-.66-1.878-.293-3.418-.631-4.62-1.012a7.094 7.094 0 0 1-3.036-1.936c-.851-.909-1.276-2.185-1.276-3.828 0-2.112.88-3.799 2.64-5.06 1.76-1.291 4.121-1.936 7.084-1.936 1.554 0 3.109.191 4.664.572 1.554.381 2.83.895 3.828 1.54l-1.804 3.344c-1.907-1.232-4.151-1.848-6.732-1.848-1.79 0-3.154.293-4.092.88-.939.587-1.408 1.364-1.408 2.332 0 .763.264 1.364.792 1.804.528.44 1.173.763 1.936.968.792.205 1.892.44 3.3.704 1.877.323 3.388.675 4.532 1.056a6.624 6.624 0 0 1 2.992 1.848c.821.88 1.232 2.112 1.232 3.696 0 2.112-.91 3.799-2.728 5.06-1.79 1.232-4.239 1.848-7.348 1.848Zm22.043 0c-1.907 0-3.74-.249-5.5-.748-1.76-.528-3.139-1.188-4.136-1.98l1.76-3.344c1.026.733 2.273 1.32 3.74 1.76 1.466.44 2.948.66 4.444.66 3.696 0 5.544-1.056 5.544-3.168 0-.704-.25-1.261-.748-1.672-.499-.411-1.13-.704-1.892-.88-.734-.205-1.79-.425-3.168-.66-1.878-.293-3.418-.631-4.62-1.012a7.094 7.094 0 0 1-3.036-1.936c-.851-.909-1.276-2.185-1.276-3.828 0-2.112.88-3.799 2.64-5.06 1.76-1.291 4.121-1.936 7.084-1.936 1.554 0 3.109.191 4.664.572 1.554.381 2.83.895 3.828 1.54l-1.804 3.344c-1.907-1.232-4.151-1.848-6.732-1.848-1.79 0-3.154.293-4.092.88-.939.587-1.408 1.364-1.408 2.332 0 .763.264 1.364.792 1.804.528.44 1.173.763 1.936.968.792.205 1.892.44 3.3.704 1.877.323 3.388.675 4.532 1.056a6.624 6.624 0 0 1 2.992 1.848c.821.88 1.232 2.112 1.232 3.696 0 2.112-.91 3.799-2.728 5.06-1.79 1.232-4.239 1.848-7.348 1.848Zm39.799-31.064c3.989 0 7.128.953 9.416 2.86 2.288 1.907 3.432 4.532 3.432 7.876 0 3.344-1.144 5.969-3.432 7.876-2.288 1.907-5.427 2.86-9.416 2.86h-7.612V625h-4.4v-30.8h12.012Zm-.132 17.644c2.787 0 4.913-.587 6.38-1.76 1.467-1.203 2.2-2.919 2.2-5.148 0-2.229-.733-3.931-2.2-5.104-1.467-1.203-3.593-1.804-6.38-1.804h-7.48v13.816h7.48Zm19.258-19.492h4.224V625h-4.224v-32.648Zm34.025 9.328V625h-4.004v-3.52c-.851 1.203-1.98 2.141-3.388 2.816-1.379.645-2.889.968-4.532.968-3.109 0-5.559-.851-7.348-2.552-1.789-1.731-2.684-4.268-2.684-7.612v-13.42h4.224v12.936c0 2.259.543 3.975 1.628 5.148 1.085 1.144 2.64 1.716 4.664 1.716 2.229 0 3.989-.675 5.28-2.024 1.291-1.349 1.936-3.256 1.936-5.72V601.68h4.224Zm30.349 0v20.152c0 4.077-1.012 7.084-3.036 9.02-2.024 1.965-5.045 2.948-9.064 2.948-2.2 0-4.297-.308-6.292-.924-1.994-.587-3.608-1.437-4.84-2.552l2.024-3.256c1.086.939 2.42 1.672 4.004 2.2 1.614.557 3.271.836 4.972.836 2.728 0 4.738-.645 6.028-1.936 1.32-1.291 1.98-3.256 1.98-5.896v-1.848a9.502 9.502 0 0 1-3.696 2.728c-1.437.587-3.006.88-4.708.88-2.229 0-4.253-.469-6.072-1.408-1.789-.968-3.197-2.303-4.224-4.004-1.026-1.731-1.54-3.696-1.54-5.896 0-2.2.514-4.151 1.54-5.852a10.48 10.48 0 0 1 4.224-4.004c1.819-.939 3.843-1.408 6.072-1.408 1.76 0 3.388.323 4.884.968 1.526.645 2.772 1.599 3.74 2.86v-3.608h4.004Zm-12.144 18.656c1.526 0 2.89-.323 4.092-.968 1.232-.645 2.186-1.54 2.86-2.684.704-1.173 1.056-2.493 1.056-3.96 0-2.259-.748-4.077-2.244-5.456-1.496-1.408-3.417-2.112-5.764-2.112-2.376 0-4.312.704-5.808 2.112-1.496 1.379-2.244 3.197-2.244 5.456 0 1.467.338 2.787 1.012 3.96a7.41 7.41 0 0 0 2.86 2.684c1.232.645 2.626.968 4.18.968Zm20.215-18.656h4.224V625h-4.224v-23.32Zm2.112-4.488c-.821 0-1.511-.264-2.068-.792-.528-.528-.792-1.173-.792-1.936 0-.763.264-1.408.792-1.936.557-.557 1.247-.836 2.068-.836s1.496.264 2.024.792c.557.499.836 1.129.836 1.892 0 .792-.279 1.467-.836 2.024-.528.528-1.203.792-2.024.792Zm22.629 4.268c2.963 0 5.31.865 7.04 2.596 1.76 1.701 2.64 4.209 2.64 7.524V625h-4.224v-12.936c0-2.259-.542-3.96-1.628-5.104-1.085-1.144-2.64-1.716-4.664-1.716-2.288 0-4.092.675-5.412 2.024-1.32 1.32-1.98 3.227-1.98 5.72V625h-4.224v-23.32h4.048v3.52c.851-1.203 1.995-2.127 3.432-2.772 1.467-.645 3.124-.968 4.972-.968Zm24.185 23.804a20.07 20.07 0 0 1-5.5-.748c-1.76-.528-3.138-1.188-4.136-1.98l1.76-3.344c1.027.733 2.274 1.32 3.74 1.76 1.467.44 2.948.66 4.444.66 3.696 0 5.544-1.056 5.544-3.168 0-.704-.249-1.261-.748-1.672-.498-.411-1.129-.704-1.892-.88-.733-.205-1.789-.425-3.168-.66-1.877-.293-3.417-.631-4.62-1.012a7.106 7.106 0 0 1-3.036-1.936c-.85-.909-1.276-2.185-1.276-3.828 0-2.112.88-3.799 2.64-5.06 1.76-1.291 4.122-1.936 7.084-1.936 1.555 0 3.11.191 4.664.572 1.555.381 2.831.895 3.828 1.54l-1.804 3.344c-1.906-1.232-4.15-1.848-6.732-1.848-1.789 0-3.153.293-4.092.88-.938.587-1.408 1.364-1.408 2.332 0 .763.264 1.364.792 1.804.528.44 1.174.763 1.936.968.792.205 1.892.44 3.3.704 1.878.323 3.388.675 4.532 1.056a6.614 6.614 0 0 1 2.992 1.848c.822.88 1.232 2.112 1.232 3.696 0 2.112-.909 3.799-2.728 5.06-1.789 1.232-4.238 1.848-7.348 1.848ZM101.43 457.45c14.8 0 25.7 2.95 32.7 8.85 7.1 5.9 10.65 13.8 10.65 23.7 0 6.4-1.6 12.25-4.8 17.55-3.2 5.2-8.1 9.4-14.7 12.6-6.5 3.1-14.55 4.65-24.15 4.65-7.4 0-14.7-.95-21.9-2.85-7.1-2-13.15-4.8-18.15-8.4l9.6-18.6c4 3 8.6 5.35 13.8 7.05 5.2 1.6 10.55 2.4 16.05 2.4 6.1 0 10.9-1.2 14.4-3.6 3.5-2.4 5.25-5.75 5.25-10.05 0-4.5-1.85-7.9-5.55-10.2-3.6-2.3-9.9-3.45-18.9-3.45H68.88l5.4-59.1h64.05v19.5h-43.8l-1.65 19.95h8.55Zm88.477 0c14.8 0 25.7 2.95 32.7 8.85 7.1 5.9 10.65 13.8 10.65 23.7 0 6.4-1.6 12.25-4.8 17.55-3.2 5.2-8.1 9.4-14.7 12.6-6.5 3.1-14.55 4.65-24.15 4.65-7.4 0-14.7-.95-21.9-2.85-7.1-2-13.15-4.8-18.15-8.4l9.6-18.6c4 3 8.6 5.35 13.8 7.05 5.2 1.6 10.55 2.4 16.05 2.4 6.1 0 10.9-1.2 14.4-3.6 3.5-2.4 5.25-5.75 5.25-10.05 0-4.5-1.85-7.9-5.55-10.2-3.6-2.3-9.9-3.45-18.9-3.45h-26.85l5.4-59.1h64.05v19.5h-43.8l-1.65 19.95h8.55Zm67.159 37.65c4.2 0 7.65 1.35 10.35 4.05 2.7 2.6 4.05 6.05 4.05 10.35 0 2-.25 4-.75 6s-1.6 5-3.3 9l-8.55 21.6h-14.85l6.6-23.85c-2.5-1-4.5-2.6-6-4.8-1.4-2.3-2.1-4.95-2.1-7.95 0-4.3 1.35-7.75 4.05-10.35 2.8-2.7 6.3-4.05 10.5-4.05Zm68.403 29.7c-8.7 0-16.45-2.15-23.25-6.45-6.8-4.3-12.15-10.5-16.05-18.6-3.8-8.2-5.7-17.95-5.7-29.25s1.9-21 5.7-29.1c3.9-8.2 9.25-14.45 16.05-18.75 6.8-4.3 14.55-6.45 23.25-6.45s16.45 2.15 23.25 6.45c6.8 4.3 12.1 10.55 15.9 18.75 3.9 8.1 5.85 17.8 5.85 29.1s-1.95 21.05-5.85 29.25c-3.8 8.1-9.1 14.3-15.9 18.6-6.8 4.3-14.55 6.45-23.25 6.45Zm0-20.55c6.4 0 11.4-2.75 15-8.25 3.7-5.5 5.55-14 5.55-25.5s-1.85-20-5.55-25.5c-3.6-5.5-8.6-8.25-15-8.25-6.3 0-11.3 2.75-15 8.25-3.6 5.5-5.4 14-5.4 25.5s1.8 20 5.4 25.5c3.7 5.5 8.7 8.25 15 8.25Zm101.807 20.55c-8.7 0-16.45-2.15-23.25-6.45-6.8-4.3-12.15-10.5-16.05-18.6-3.8-8.2-5.7-17.95-5.7-29.25s1.9-21 5.7-29.1c3.9-8.2 9.25-14.45 16.05-18.75 6.8-4.3 14.55-6.45 23.25-6.45s16.45 2.15 23.25 6.45c6.8 4.3 12.1 10.55 15.9 18.75 3.9 8.1 5.85 17.8 5.85 29.1s-1.95 21.05-5.85 29.25c-3.8 8.1-9.1 14.3-15.9 18.6-6.8 4.3-14.55 6.45-23.25 6.45Zm0-20.55c6.4 0 11.4-2.75 15-8.25 3.7-5.5 5.55-14 5.55-25.5s-1.85-20-5.55-25.5c-3.6-5.5-8.6-8.25-15-8.25-6.3 0-11.3 2.75-15 8.25-3.6 5.5-5.4 14-5.4 25.5s1.8 20 5.4 25.5c3.7 5.5 8.7 8.25 15 8.25Zm101.806 20.55c-8.7 0-16.45-2.15-23.25-6.45-6.8-4.3-12.15-10.5-16.05-18.6-3.8-8.2-5.7-17.95-5.7-29.25s1.9-21 5.7-29.1c3.9-8.2 9.25-14.45 16.05-18.75 6.8-4.3 14.55-6.45 23.25-6.45s16.45 2.15 23.25 6.45c6.8 4.3 12.1 10.55 15.9 18.75 3.9 8.1 5.85 17.8 5.85 29.1s-1.95 21.05-5.85 29.25c-3.8 8.1-9.1 14.3-15.9 18.6-6.8 4.3-14.55 6.45-23.25 6.45Zm0-20.55c6.4 0 11.4-2.75 15-8.25 3.7-5.5 5.55-14 5.55-25.5s-1.85-20-5.55-25.5c-3.6-5.5-8.6-8.25-15-8.25-6.3 0-11.3 2.75-15 8.25-3.6 5.5-5.4 14-5.4 25.5s1.8 20 5.4 25.5c3.7 5.5 8.7 8.25 15 8.25Zm132.243-24.6h-26.1v25.5h-19.35v-25.5h-25.95v-18.3h25.95v-25.5h19.35v25.5h26.1v18.3Z" fill="#fff"/><path stroke="#0095FF" stroke-width="4" stroke-dasharray="15 15" d="M367 197v105"/><g filter="url(#b)"><circle cx="364.733" cy="110.733" r="86.733" fill="#13202F"/><circle cx="364.733" cy="110.733" r="84.733" stroke="#fff" stroke-width="4"/></g><path fill-rule="evenodd" clip-rule="evenodd" d="M337.095 72.704v3.5a192.319 192.319 0 0 0-12.541 2.22 3.063 3.063 0 0 0-2.386 3.506c2.084 12.347 12.371 21.903 25.066 22.865a27.466 27.466 0 0 0 11.198 5.498 27.368 27.368 0 0 1-4.544 12.957h-3.013a7.656 7.656 0 0 0-7.656 7.656v10.719h-3.063a9.187 9.187 0 0 0-9.187 9.187 3.062 3.062 0 0 0 3.062 3.063h61.25a3.063 3.063 0 0 0 3.063-3.063 9.188 9.188 0 0 0-9.188-9.187h-3.062v-10.719a7.656 7.656 0 0 0-7.656-7.656h-3.016a27.386 27.386 0 0 1-4.541-12.956 27.476 27.476 0 0 0 11.2-5.499c12.695-.962 22.982-10.518 25.066-22.865a3.063 3.063 0 0 0-2.386-3.506 192.2 192.2 0 0 0-12.541-2.22v-3.5a3.063 3.063 0 0 0-2.684-3.04 200.99 200.99 0 0 0-24.878-1.539c-8.425 0-16.728.523-24.879 1.54a3.063 3.063 0 0 0-2.684 3.039Zm0 10.734c0 4.884 1.272 9.473 3.5 13.451a21.503 21.503 0 0 1-11.692-13.097c2.71-.525 5.441-.992 8.192-1.398v1.043Zm55.125 0v-1.044c2.751.406 5.482.873 8.192 1.398A21.503 21.503 0 0 1 388.72 96.89a27.448 27.448 0 0 0 3.5-13.451Z" fill="#fff"/><defs><filter id="a" x="-100" y="202" width="930" height="625" filterUnits="userSpaceOnUse" color-interpolation-filters="sRGB"><feFlood flood-opacity="0" result="BackgroundImageFix"/><feGaussianBlur in="BackgroundImageFix" stdDeviation="50"/><feComposite in2="SourceAlpha" operator="in" result="effect1_backgroundBlur_1317_103"/><feBlend in="SourceGraphic" in2="effect1_backgroundBlur_1317_103" result="shape"/></filter><filter id="b" x="254" y="0" width="281.469" height="281.465" filterUnits="userSpaceOnUse" color-interpolation-filters="sRGB"><feFlood flood-opacity="0" result="BackgroundImageFix"/><feColorMatrix in="SourceAlpha" values="0 0 0 0 0 0 0 0 0 0 0 0 0 0 0 0 0 0 127 0" result="hardAlpha"/><feMorphology radius="4" operator="dilate" in="SourceAlpha" result="effect1_dropShadow_1317_103"/><feOffset dx="30" dy="30"/><feGaussianBlur stdDeviation="25"/><feComposite in2="hardAlpha" operator="out"/><feColorMatrix values="0 0 0 0 0 0 0 0 0 0 0 0 0 0 0 0 0 0 0.25 0"/><feBlend in2="BackgroundImageFix" result="effect1_dropShadow_1317_103"/><feBlend in="SourceGraphic" in2="effect1_dropShadow_1317_103" result="shape"/></filter></defs></svg>