<svg width="730" height="802" fill="none" xmlns="http://www.w3.org/2000/svg"><g filter="url(#a)"><rect y="302" width="730" height="500" rx="50" fill="#13202F" fill-opacity=".5"/><rect x="2.5" y="304.5" width="725" height="495" rx="47.5" stroke="#fff" stroke-opacity=".15" stroke-width="5"/></g><path d="M211.154 603.028h-10.56V599.2h25.476v3.828h-10.56V630h-4.356v-26.972Zm26.674 27.236c-2.317 0-4.4-.513-6.248-1.54-1.848-1.027-3.3-2.435-4.356-4.224-1.027-1.819-1.54-3.872-1.54-6.16 0-2.288.513-4.327 1.54-6.116A10.965 10.965 0 0 1 231.58 608c1.848-1.027 3.931-1.54 6.248-1.54s4.385.513 6.204 1.54a10.672 10.672 0 0 1 4.312 4.224c1.056 1.789 1.584 3.828 1.584 6.116s-.528 4.341-1.584 6.16c-1.027 1.789-2.464 3.197-4.312 4.224-1.819 1.027-3.887 1.54-6.204 1.54Zm0-3.696c1.496 0 2.831-.337 4.004-1.012a7.445 7.445 0 0 0 2.816-2.904c.675-1.261 1.012-2.699 1.012-4.312 0-1.613-.337-3.036-1.012-4.268-.675-1.261-1.613-2.229-2.816-2.904-1.173-.675-2.508-1.012-4.004-1.012-1.496 0-2.845.337-4.048 1.012-1.173.675-2.112 1.643-2.816 2.904-.675 1.232-1.012 2.655-1.012 4.268s.337 3.051 1.012 4.312c.704 1.232 1.643 2.2 2.816 2.904 1.203.675 2.552 1.012 4.048 1.012Zm30.306-20.108c2.258 0 4.282.499 6.072 1.496a10.616 10.616 0 0 1 4.18 4.18c1.026 1.789 1.54 3.857 1.54 6.204 0 2.347-.514 4.429-1.54 6.248a10.616 10.616 0 0 1-4.18 4.18c-1.79.997-3.814 1.496-6.072 1.496-1.672 0-3.212-.323-4.62-.968a9.605 9.605 0 0 1-3.52-2.816v12.056h-4.224V606.68h4.048v3.696a8.78 8.78 0 0 1 3.564-2.904c1.437-.675 3.021-1.012 4.752-1.012Zm-.352 20.108c1.496 0 2.83-.337 4.004-1.012a7.452 7.452 0 0 0 2.816-2.904c.704-1.261 1.056-2.699 1.056-4.312 0-1.613-.352-3.036-1.056-4.268-.675-1.261-1.614-2.229-2.816-2.904-1.174-.675-2.508-1.012-4.004-1.012-1.467 0-2.802.352-4.004 1.056-1.174.675-2.112 1.628-2.816 2.86-.675 1.232-1.012 2.655-1.012 4.268s.337 3.051 1.012 4.312a7.439 7.439 0 0 0 2.816 2.904c1.202.675 2.537 1.012 4.004 1.012Zm37.452-27.368V630h-4.356v-26.972h-6.952V599.2h11.308Zm19.321 31.152c-2.434 0-4.605-.616-6.512-1.848-1.877-1.261-3.358-3.08-4.444-5.456-1.085-2.376-1.628-5.192-1.628-8.448 0-3.256.543-6.072 1.628-8.448 1.086-2.376 2.567-4.18 4.444-5.412 1.907-1.261 4.078-1.892 6.512-1.892 2.406 0 4.547.631 6.424 1.892 1.907 1.232 3.403 3.036 4.488 5.412 1.086 2.376 1.628 5.192 1.628 8.448 0 3.256-.542 6.072-1.628 8.448-1.085 2.376-2.581 4.195-4.488 5.456-1.877 1.232-4.018 1.848-6.424 1.848Zm0-3.916c2.464 0 4.43-1.012 5.896-3.036 1.496-2.024 2.244-4.957 2.244-8.8 0-3.843-.748-6.776-2.244-8.8-1.466-2.024-3.432-3.036-5.896-3.036-2.493 0-4.488 1.012-5.984 3.036-1.466 2.024-2.2 4.957-2.2 8.8 0 3.843.734 6.776 2.2 8.8 1.496 2.024 3.491 3.036 5.984 3.036Zm29.348 3.916c-2.435 0-4.605-.616-6.512-1.848-1.877-1.261-3.359-3.08-4.444-5.456-1.085-2.376-1.628-5.192-1.628-8.448 0-3.256.543-6.072 1.628-8.448 1.085-2.376 2.567-4.18 4.444-5.412 1.907-1.261 4.077-1.892 6.512-1.892 2.405 0 4.547.631 6.424 1.892 1.907 1.232 3.403 3.036 4.488 5.412 1.085 2.376 1.628 5.192 1.628 8.448 0 3.256-.543 6.072-1.628 8.448-1.085 2.376-2.581 4.195-4.488 5.456-1.877 1.232-4.019 1.848-6.424 1.848Zm0-3.916c2.464 0 4.429-1.012 5.896-3.036 1.496-2.024 2.244-4.957 2.244-8.8 0-3.843-.748-6.776-2.244-8.8-1.467-2.024-3.432-3.036-5.896-3.036-2.493 0-4.488 1.012-5.984 3.036-1.467 2.024-2.2 4.957-2.2 8.8 0 3.843.733 6.776 2.2 8.8 1.496 2.024 3.491 3.036 5.984 3.036Zm29.348 3.916c-2.435 0-4.606-.616-6.512-1.848-1.878-1.261-3.359-3.08-4.444-5.456-1.086-2.376-1.628-5.192-1.628-8.448 0-3.256.542-6.072 1.628-8.448 1.085-2.376 2.566-4.18 4.444-5.412 1.906-1.261 4.077-1.892 6.512-1.892 2.405 0 4.546.631 6.424 1.892 1.906 1.232 3.402 3.036 4.488 5.412 1.085 2.376 1.628 5.192 1.628 8.448 0 3.256-.543 6.072-1.628 8.448-1.086 2.376-2.582 4.195-4.488 5.456-1.878 1.232-4.019 1.848-6.424 1.848Zm0-3.916c2.464 0 4.429-1.012 5.896-3.036 1.496-2.024 2.244-4.957 2.244-8.8 0-3.843-.748-6.776-2.244-8.8-1.467-2.024-3.432-3.036-5.896-3.036-2.494 0-4.488 1.012-5.984 3.036-1.467 2.024-2.2 4.957-2.2 8.8 0 3.843.733 6.776 2.2 8.8 1.496 2.024 3.49 3.036 5.984 3.036Zm40.064 3.916c-2.318 0-4.562-.352-6.732-1.056-2.142-.733-3.828-1.672-5.06-2.816l1.628-3.432c1.173 1.056 2.669 1.921 4.488 2.596 1.848.645 3.74.968 5.676.968 2.552 0 4.458-.425 5.72-1.276 1.261-.88 1.892-2.039 1.892-3.476 0-1.056-.352-1.907-1.056-2.552-.675-.675-1.526-1.188-2.552-1.54-.998-.352-2.42-.748-4.268-1.188-2.318-.557-4.195-1.115-5.632-1.672a9.584 9.584 0 0 1-3.652-2.552c-.998-1.173-1.496-2.743-1.496-4.708 0-1.643.425-3.124 1.276-4.444.88-1.32 2.2-2.376 3.96-3.168 1.76-.792 3.945-1.188 6.556-1.188 1.818 0 3.608.235 5.368.704 1.76.469 3.27 1.144 4.532 2.024l-1.452 3.52a15.43 15.43 0 0 0-4.136-1.848c-1.467-.44-2.904-.66-4.312-.66-2.494 0-4.371.455-5.632 1.364-1.232.909-1.848 2.083-1.848 3.52 0 1.056.352 1.921 1.056 2.596.704.645 1.569 1.159 2.596 1.54 1.056.352 2.478.733 4.268 1.144 2.317.557 4.18 1.115 5.588 1.672a9.227 9.227 0 0 1 3.608 2.552c1.026 1.144 1.54 2.684 1.54 4.62a7.97 7.97 0 0 1-1.32 4.444c-.88 1.32-2.215 2.376-4.004 3.168-1.79.763-3.99 1.144-6.6 1.144Zm17.736-23.672h4.224V630h-4.224v-23.32Zm2.112-4.488c-.821 0-1.511-.264-2.068-.792-.528-.528-.792-1.173-.792-1.936 0-.763.264-1.408.792-1.936.557-.557 1.247-.836 2.068-.836s1.496.264 2.024.792c.557.499.836 1.129.836 1.892 0 .792-.279 1.467-.836 2.024-.528.528-1.203.792-2.024.792Zm23.289 26.444c-.616.528-1.379.939-2.288 1.232-.909.264-1.848.396-2.816.396-2.347 0-4.165-.631-5.456-1.892-1.291-1.261-1.936-3.065-1.936-5.412v-12.804h-3.96v-3.476h3.96v-5.104h4.224v5.104h6.688v3.476h-6.688v12.628c0 1.261.308 2.229.924 2.904.645.675 1.555 1.012 2.728 1.012 1.291 0 2.391-.367 3.3-1.1l1.32 3.036Zm25.409-10.164c0 .323-.029.748-.088 1.276h-18.92c.264 2.053 1.159 3.711 2.684 4.972 1.555 1.232 3.476 1.848 5.764 1.848 2.787 0 5.031-.939 6.732-2.816l2.332 2.728c-1.056 1.232-2.376 2.171-3.96 2.816-1.554.645-3.3.968-5.236.968-2.464 0-4.649-.499-6.556-1.496-1.906-1.027-3.388-2.449-4.444-4.268-1.026-1.819-1.54-3.872-1.54-6.16 0-2.259.499-4.297 1.496-6.116 1.027-1.819 2.42-3.227 4.18-4.224 1.79-1.027 3.799-1.54 6.028-1.54 2.23 0 4.21.513 5.94 1.54 1.76.997 3.124 2.405 4.092 4.224.998 1.819 1.496 3.901 1.496 6.248Zm-11.528-8.448c-2.024 0-3.725.616-5.104 1.848-1.349 1.232-2.141 2.845-2.376 4.84h14.96c-.234-1.965-1.041-3.564-2.42-4.796-1.349-1.261-3.036-1.892-5.06-1.892Zm24.082 20.24c-1.907 0-3.74-.249-5.5-.748-1.76-.528-3.139-1.188-4.136-1.98l1.76-3.344c1.026.733 2.273 1.32 3.74 1.76 1.466.44 2.948.66 4.444.66 3.696 0 5.544-1.056 5.544-3.168 0-.704-.25-1.261-.748-1.672-.499-.411-1.13-.704-1.892-.88-.734-.205-1.79-.425-3.168-.66-1.878-.293-3.418-.631-4.62-1.012a7.094 7.094 0 0 1-3.036-1.936c-.851-.909-1.276-2.185-1.276-3.828 0-2.112.88-3.799 2.64-5.06 1.76-1.291 4.121-1.936 7.084-1.936 1.554 0 3.109.191 4.664.572 1.554.381 2.83.895 3.828 1.54l-1.804 3.344c-1.907-1.232-4.151-1.848-6.732-1.848-1.79 0-3.154.293-4.092.88-.939.587-1.408 1.364-1.408 2.332 0 .763.264 1.364.792 1.804.528.44 1.173.763 1.936.968.792.205 1.892.44 3.3.704 1.877.323 3.388.675 4.532 1.056a6.624 6.624 0 0 1 2.992 1.848c.821.88 1.232 2.112 1.232 3.696 0 2.112-.91 3.799-2.728 5.06-1.79 1.232-4.239 1.848-7.348 1.848ZM121.853 665.2c3.989 0 7.128.953 9.416 2.86 2.288 1.907 3.432 4.532 3.432 7.876 0 3.344-1.144 5.969-3.432 7.876-2.288 1.907-5.427 2.86-9.416 2.86h-7.612V696h-4.4v-30.8h12.012Zm-.132 17.644c2.786 0 4.913-.587 6.38-1.76 1.466-1.203 2.2-2.919 2.2-5.148 0-2.229-.734-3.931-2.2-5.104-1.467-1.203-3.594-1.804-6.38-1.804h-7.48v13.816h7.48Zm28.73 13.42c-2.317 0-4.4-.513-6.248-1.54-1.848-1.027-3.3-2.435-4.356-4.224-1.027-1.819-1.54-3.872-1.54-6.16 0-2.288.513-4.327 1.54-6.116a10.965 10.965 0 0 1 4.356-4.224c1.848-1.027 3.931-1.54 6.248-1.54s4.385.513 6.204 1.54a10.672 10.672 0 0 1 4.312 4.224c1.056 1.789 1.584 3.828 1.584 6.116s-.528 4.341-1.584 6.16c-1.027 1.789-2.464 3.197-4.312 4.224-1.819 1.027-3.887 1.54-6.204 1.54Zm0-3.696c1.496 0 2.831-.337 4.004-1.012a7.445 7.445 0 0 0 2.816-2.904c.675-1.261 1.012-2.699 1.012-4.312 0-1.613-.337-3.036-1.012-4.268-.675-1.261-1.613-2.229-2.816-2.904-1.173-.675-2.508-1.012-4.004-1.012-1.496 0-2.845.337-4.048 1.012-1.173.675-2.112 1.643-2.816 2.904-.675 1.232-1.012 2.655-1.012 4.268s.337 3.051 1.012 4.312c.704 1.232 1.643 2.2 2.816 2.904 1.203.675 2.552 1.012 4.048 1.012Zm52.585-19.888L194.324 696h-4.048l-6.732-17.688-6.82 17.688h-4.048l-8.668-23.32h4.004l6.776 18.568 7.04-18.568h3.564l6.908 18.656 6.952-18.656h3.784Zm24.718 11.792c0 .323-.03.748-.088 1.276h-18.92c.264 2.053 1.158 3.711 2.684 4.972 1.554 1.232 3.476 1.848 5.764 1.848 2.786 0 5.03-.939 6.732-2.816l2.332 2.728c-1.056 1.232-2.376 2.171-3.96 2.816-1.555.645-3.3.968-5.236.968-2.464 0-4.65-.499-6.556-1.496-1.907-1.027-3.388-2.449-4.444-4.268-1.027-1.819-1.54-3.872-1.54-6.16 0-2.259.498-4.297 1.496-6.116 1.026-1.819 2.42-3.227 4.18-4.224 1.789-1.027 3.798-1.54 6.028-1.54 2.229 0 4.209.513 5.94 1.54 1.76.997 3.124 2.405 4.092 4.224.997 1.819 1.496 3.901 1.496 6.248Zm-11.528-8.448c-2.024 0-3.726.616-5.104 1.848-1.35 1.232-2.142 2.845-2.376 4.84h14.96c-.235-1.965-1.042-3.564-2.42-4.796-1.35-1.261-3.036-1.892-5.06-1.892Zm21.441.572c.734-1.349 1.819-2.376 3.256-3.08 1.438-.704 3.183-1.056 5.236-1.056v4.092a8.309 8.309 0 0 0-.968-.044c-2.288 0-4.092.689-5.412 2.068-1.29 1.349-1.936 3.285-1.936 5.808V696h-4.224v-23.32h4.048v3.916Zm34.559 7.876c0 .323-.029.748-.088 1.276h-18.92c.264 2.053 1.159 3.711 2.684 4.972 1.555 1.232 3.476 1.848 5.764 1.848 2.787 0 5.031-.939 6.732-2.816l2.332 2.728c-1.056 1.232-2.376 2.171-3.96 2.816-1.554.645-3.3.968-5.236.968-2.464 0-4.649-.499-6.556-1.496-1.906-1.027-3.388-2.449-4.444-4.268-1.026-1.819-1.54-3.872-1.54-6.16 0-2.259.499-4.297 1.496-6.116 1.027-1.819 2.42-3.227 4.18-4.224 1.79-1.027 3.799-1.54 6.028-1.54 2.23 0 4.21.513 5.94 1.54 1.76.997 3.124 2.405 4.092 4.224.998 1.819 1.496 3.901 1.496 6.248Zm-11.528-8.448c-2.024 0-3.725.616-5.104 1.848-1.349 1.232-2.141 2.845-2.376 4.84h14.96c-.234-1.965-1.041-3.564-2.42-4.796-1.349-1.261-3.036-1.892-5.06-1.892Zm39.394-12.672V696h-4.048v-3.696a9.151 9.151 0 0 1-3.564 2.948c-1.437.675-3.021 1.012-4.752 1.012-2.259 0-4.283-.499-6.072-1.496a10.918 10.918 0 0 1-4.224-4.18c-.997-1.819-1.496-3.901-1.496-6.248 0-2.347.499-4.415 1.496-6.204a10.918 10.918 0 0 1 4.224-4.18c1.789-.997 3.813-1.496 6.072-1.496 1.672 0 3.212.323 4.62.968a8.79 8.79 0 0 1 3.52 2.772v-12.848h4.224Zm-12.012 29.216c1.467 0 2.801-.337 4.004-1.012a7.445 7.445 0 0 0 2.816-2.904c.675-1.261 1.012-2.699 1.012-4.312 0-1.613-.337-3.036-1.012-4.268-.675-1.261-1.613-2.229-2.816-2.904-1.203-.675-2.537-1.012-4.004-1.012-1.496 0-2.845.337-4.048 1.012-1.173.675-2.112 1.643-2.816 2.904-.675 1.232-1.012 2.655-1.012 4.268s.337 3.051 1.012 4.312c.704 1.232 1.643 2.2 2.816 2.904 1.203.675 2.552 1.012 4.048 1.012Zm44.184-20.108c2.259 0 4.283.499 6.072 1.496a10.603 10.603 0 0 1 4.18 4.18c1.027 1.789 1.54 3.857 1.54 6.204 0 2.347-.513 4.429-1.54 6.248a10.603 10.603 0 0 1-4.18 4.18c-1.789.997-3.813 1.496-6.072 1.496-1.73 0-3.314-.337-4.752-1.012a9.151 9.151 0 0 1-3.564-2.948V696H319.9v-32.648h4.224V676.2a8.79 8.79 0 0 1 3.52-2.772c1.408-.645 2.948-.968 4.62-.968Zm-.352 20.108c1.496 0 2.831-.337 4.004-1.012a7.439 7.439 0 0 0 2.816-2.904c.704-1.261 1.056-2.699 1.056-4.312 0-1.613-.352-3.036-1.056-4.268-.674-1.261-1.613-2.229-2.816-2.904-1.173-.675-2.508-1.012-4.004-1.012-1.466 0-2.801.337-4.004 1.012-1.202.675-2.141 1.643-2.816 2.904-.674 1.232-1.012 2.655-1.012 4.268s.338 3.051 1.012 4.312a7.452 7.452 0 0 0 2.816 2.904c1.203.675 2.538 1.012 4.004 1.012Zm37.972-19.888-11.308 25.652c-.997 2.376-2.171 4.048-3.52 5.016-1.32.968-2.919 1.452-4.796 1.452-1.144 0-2.259-.191-3.344-.572-1.056-.352-1.936-.88-2.64-1.584l1.804-3.168c1.203 1.144 2.596 1.716 4.18 1.716 1.027 0 1.877-.279 2.552-.836.704-.528 1.335-1.452 1.892-2.772l.748-1.628-10.296-23.276h4.4l8.14 18.656 8.052-18.656h4.136Zm59.891-7.48L419.479 696h-4.62l-8.404-24.596L398.051 696h-4.708l-10.296-30.8h4.532l8.316 25.036 8.668-25.036h4.048l8.492 25.168 8.492-25.168h4.18Zm12.992 31.064c-2.317 0-4.4-.513-6.248-1.54-1.848-1.027-3.3-2.435-4.356-4.224-1.026-1.819-1.54-3.872-1.54-6.16 0-2.288.514-4.327 1.54-6.116a10.965 10.965 0 0 1 4.356-4.224c1.848-1.027 3.931-1.54 6.248-1.54 2.318 0 4.386.513 6.204 1.54a10.666 10.666 0 0 1 4.312 4.224c1.056 1.789 1.584 3.828 1.584 6.116s-.528 4.341-1.584 6.16c-1.026 1.789-2.464 3.197-4.312 4.224-1.818 1.027-3.886 1.54-6.204 1.54Zm0-3.696c1.496 0 2.831-.337 4.004-1.012a7.439 7.439 0 0 0 2.816-2.904c.675-1.261 1.012-2.699 1.012-4.312 0-1.613-.337-3.036-1.012-4.268-.674-1.261-1.613-2.229-2.816-2.904-1.173-.675-2.508-1.012-4.004-1.012-1.496 0-2.845.337-4.048 1.012-1.173.675-2.112 1.643-2.816 2.904-.674 1.232-1.012 2.655-1.012 4.268s.338 3.051 1.012 4.312c.704 1.232 1.643 2.2 2.816 2.904 1.203.675 2.552 1.012 4.048 1.012Zm21.99-15.972c.733-1.349 1.819-2.376 3.256-3.08 1.437-.704 3.183-1.056 5.236-1.056v4.092a8.32 8.32 0 0 0-.968-.044c-2.288 0-4.092.689-5.412 2.068-1.291 1.349-1.936 3.285-1.936 5.808V696h-4.224v-23.32h4.048v3.916Zm35.483-13.244V696h-4.048v-3.696a9.137 9.137 0 0 1-3.564 2.948c-1.437.675-3.021 1.012-4.752 1.012-2.258 0-4.282-.499-6.072-1.496a10.918 10.918 0 0 1-4.224-4.18c-.997-1.819-1.496-3.901-1.496-6.248 0-2.347.499-4.415 1.496-6.204a10.918 10.918 0 0 1 4.224-4.18c1.79-.997 3.814-1.496 6.072-1.496 1.672 0 3.212.323 4.62.968a8.782 8.782 0 0 1 3.52 2.772v-12.848h4.224Zm-12.012 29.216c1.467 0 2.802-.337 4.004-1.012a7.439 7.439 0 0 0 2.816-2.904c.675-1.261 1.012-2.699 1.012-4.312 0-1.613-.337-3.036-1.012-4.268-.674-1.261-1.613-2.229-2.816-2.904-1.202-.675-2.537-1.012-4.004-1.012-1.496 0-2.845.337-4.048 1.012-1.173.675-2.112 1.643-2.816 2.904-.674 1.232-1.012 2.655-1.012 4.268s.338 3.051 1.012 4.312c.704 1.232 1.643 2.2 2.816 2.904 1.203.675 2.552 1.012 4.048 1.012Zm32.369-20.108c2.258 0 4.282.499 6.072 1.496a10.616 10.616 0 0 1 4.18 4.18c1.026 1.789 1.54 3.857 1.54 6.204 0 2.347-.514 4.429-1.54 6.248a10.616 10.616 0 0 1-4.18 4.18c-1.79.997-3.814 1.496-6.072 1.496-1.672 0-3.212-.323-4.62-.968a9.605 9.605 0 0 1-3.52-2.816v12.056h-4.224V672.68h4.048v3.696a8.78 8.78 0 0 1 3.564-2.904c1.437-.675 3.021-1.012 4.752-1.012Zm-.352 20.108c1.496 0 2.83-.337 4.004-1.012a7.452 7.452 0 0 0 2.816-2.904c.704-1.261 1.056-2.699 1.056-4.312 0-1.613-.352-3.036-1.056-4.268-.675-1.261-1.614-2.229-2.816-2.904-1.174-.675-2.508-1.012-4.004-1.012-1.467 0-2.802.352-4.004 1.056-1.174.675-2.112 1.628-2.816 2.86-.675 1.232-1.012 2.655-1.012 4.268s.337 3.051 1.012 4.312a7.439 7.439 0 0 0 2.816 2.904c1.202.675 2.537 1.012 4.004 1.012Zm22.028-15.972c.733-1.349 1.818-2.376 3.256-3.08 1.437-.704 3.182-1.056 5.236-1.056v4.092a8.333 8.333 0 0 0-.968-.044c-2.288 0-4.092.689-5.412 2.068-1.291 1.349-1.936 3.285-1.936 5.808V696h-4.224v-23.32h4.048v3.916Zm34.559 7.876c0 .323-.029.748-.088 1.276h-18.92c.264 2.053 1.159 3.711 2.684 4.972 1.555 1.232 3.476 1.848 5.764 1.848 2.787 0 5.031-.939 6.732-2.816l2.332 2.728c-1.056 1.232-2.376 2.171-3.96 2.816-1.555.645-3.3.968-5.236.968-2.464 0-4.649-.499-6.556-1.496-1.907-1.027-3.388-2.449-4.444-4.268-1.027-1.819-1.54-3.872-1.54-6.16 0-2.259.499-4.297 1.496-6.116 1.027-1.819 2.42-3.227 4.18-4.224 1.789-1.027 3.799-1.54 6.028-1.54 2.229 0 4.209.513 5.94 1.54 1.76.997 3.124 2.405 4.092 4.224.997 1.819 1.496 3.901 1.496 6.248Zm-11.528-8.448c-2.024 0-3.725.616-5.104 1.848-1.349 1.232-2.141 2.845-2.376 4.84h14.96c-.235-1.965-1.041-3.564-2.42-4.796-1.349-1.261-3.036-1.892-5.06-1.892Zm24.081 20.24a20.07 20.07 0 0 1-5.5-.748c-1.76-.528-3.138-1.188-4.136-1.98l1.76-3.344c1.027.733 2.274 1.32 3.74 1.76 1.467.44 2.948.66 4.444.66 3.696 0 5.544-1.056 5.544-3.168 0-.704-.249-1.261-.748-1.672-.498-.411-1.129-.704-1.892-.88-.733-.205-1.789-.425-3.168-.66-1.877-.293-3.417-.631-4.62-1.012a7.106 7.106 0 0 1-3.036-1.936c-.85-.909-1.276-2.185-1.276-3.828 0-2.112.88-3.799 2.64-5.06 1.76-1.291 4.122-1.936 7.084-1.936 1.555 0 3.11.191 4.664.572 1.555.381 2.831.895 3.828 1.54l-1.804 3.344c-1.906-1.232-4.15-1.848-6.732-1.848-1.789 0-3.153.293-4.092.88-.938.587-1.408 1.364-1.408 2.332 0 .763.264 1.364.792 1.804.528.44 1.174.763 1.936.968.792.205 1.892.44 3.3.704 1.878.323 3.388.675 4.532 1.056a6.614 6.614 0 0 1 2.992 1.848c.822.88 1.232 2.112 1.232 3.696 0 2.112-.909 3.799-2.728 5.06-1.789 1.232-4.238 1.848-7.348 1.848Zm22.043 0a20.07 20.07 0 0 1-5.5-.748c-1.76-.528-3.138-1.188-4.136-1.98l1.76-3.344c1.027.733 2.274 1.32 3.74 1.76 1.467.44 2.948.66 4.444.66 3.696 0 5.544-1.056 5.544-3.168 0-.704-.249-1.261-.748-1.672-.498-.411-1.129-.704-1.892-.88-.733-.205-1.789-.425-3.168-.66-1.877-.293-3.417-.631-4.62-1.012a7.106 7.106 0 0 1-3.036-1.936c-.85-.909-1.276-2.185-1.276-3.828 0-2.112.88-3.799 2.64-5.06 1.76-1.291 4.122-1.936 7.084-1.936 1.555 0 3.11.191 4.664.572 1.555.381 2.831.895 3.828 1.54l-1.804 3.344c-1.906-1.232-4.15-1.848-6.732-1.848-1.789 0-3.153.293-4.092.88-.938.587-1.408 1.364-1.408 2.332 0 .763.264 1.364.792 1.804.528.44 1.174.763 1.936.968.792.205 1.892.44 3.3.704 1.878.323 3.388.675 4.532 1.056a6.614 6.614 0 0 1 2.992 1.848c.822.88 1.232 2.112 1.232 3.696 0 2.112-.909 3.799-2.728 5.06-1.789 1.232-4.238 1.848-7.348 1.848ZM195.779 460.75c9.2 1.5 16.25 4.95 21.15 10.35 4.9 5.3 7.35 11.9 7.35 19.8 0 6.1-1.6 11.75-4.8 16.95-3.2 5.1-8.1 9.2-14.7 12.3-6.5 3.1-14.5 4.65-24 4.65-7.4 0-14.7-.95-21.9-2.85-7.1-2-13.15-4.8-18.15-8.4l9.45-18.6c4 3 8.6 5.35 13.8 7.05 5.3 1.6 10.7 2.4 16.2 2.4 6.1 0 10.9-1.15 14.4-3.45 3.5-2.4 5.25-5.75 5.25-10.05 0-8.6-6.55-12.9-19.65-12.9h-11.1v-16.05l21.6-24.45h-44.7V418h73.5v15.75l-23.7 27Zm84.719 64.05c-8.7 0-16.45-2.15-23.25-6.45-6.8-4.3-12.15-10.5-16.05-18.6-3.8-8.2-5.7-17.95-5.7-29.25s1.9-21 5.7-29.1c3.9-8.2 9.25-14.45 16.05-18.75 6.8-4.3 14.55-6.45 23.25-6.45s16.45 2.15 23.25 6.45c6.8 4.3 12.1 10.55 15.9 18.75 3.9 8.1 5.85 17.8 5.85 29.1s-1.95 21.05-5.85 29.25c-3.8 8.1-9.1 14.3-15.9 18.6-6.8 4.3-14.55 6.45-23.25 6.45Zm0-20.55c6.4 0 11.4-2.75 15-8.25 3.7-5.5 5.55-14 5.55-25.5s-1.85-20-5.55-25.5c-3.6-5.5-8.6-8.25-15-8.25-6.3 0-11.3 2.75-15 8.25-3.6 5.5-5.4 14-5.4 25.5s1.8 20 5.4 25.5c3.7 5.5 8.7 8.25 15 8.25Zm68.703 19.95c-4.1 0-7.55-1.4-10.35-4.2-2.8-2.8-4.2-6.3-4.2-10.5 0-4.3 1.4-7.75 4.2-10.35 2.8-2.7 6.25-4.05 10.35-4.05s7.55 1.35 10.35 4.05c2.8 2.6 4.2 6.05 4.2 10.35 0 4.2-1.4 7.7-4.2 10.5-2.8 2.8-6.25 4.2-10.35 4.2Zm75.972-63.45c9.2 1.5 16.25 4.95 21.15 10.35 4.9 5.3 7.35 11.9 7.35 19.8 0 6.1-1.6 11.75-4.8 16.95-3.2 5.1-8.1 9.2-14.7 12.3-6.5 3.1-14.5 4.65-24 4.65-7.4 0-14.7-.95-21.9-2.85-7.1-2-13.15-4.8-18.15-8.4l9.45-18.6c4 3 8.6 5.35 13.8 7.05 5.3 1.6 10.7 2.4 16.2 2.4 6.1 0 10.9-1.15 14.4-3.45 3.5-2.4 5.25-5.75 5.25-10.05 0-8.6-6.55-12.9-19.65-12.9h-11.1v-16.05l21.6-24.45h-44.7V418h73.5v15.75l-23.7 27Zm62.555 13.95c-7.7 0-14-2.6-18.9-7.8-4.8-5.3-7.2-12.35-7.2-21.15 0-8.8 2.4-15.8 7.2-21 4.9-5.3 11.2-7.95 18.9-7.95 7.7 0 13.95 2.65 18.75 7.95 4.8 5.2 7.2 12.2 7.2 21s-2.4 15.85-7.2 21.15c-4.8 5.2-11.05 7.8-18.75 7.8Zm62.55-56.7h17.85l-71.7 105h-17.85l71.7-105Zm-62.55 44.4c3.4 0 6.05-1.4 7.95-4.2 2-2.8 3-6.95 3-12.45 0-5.5-1-9.65-3-12.45-1.9-2.8-4.55-4.2-7.95-4.2-3.3 0-5.95 1.45-7.95 4.35-2 2.8-3 6.9-3 12.3s1 9.55 3 12.45c2 2.8 4.65 4.2 7.95 4.2Zm71.25 61.8c-5 0-9.5-1.15-13.5-3.45-3.9-2.4-6.95-5.8-9.15-10.2-2.2-4.4-3.3-9.5-3.3-15.3 0-5.8 1.1-10.9 3.3-15.3 2.2-4.4 5.25-7.75 9.15-10.05 4-2.4 8.5-3.6 13.5-3.6 7.7 0 13.95 2.65 18.75 7.95 4.9 5.2 7.35 12.2 7.35 21s-2.45 15.85-7.35 21.15c-4.8 5.2-11.05 7.8-18.75 7.8Zm0-12.3c3.4 0 6.05-1.4 7.95-4.2 2-2.9 3-7.05 3-12.45 0-5.4-1-9.5-3-12.3-1.9-2.9-4.55-4.35-7.95-4.35-3.3 0-5.95 1.4-7.95 4.2-2 2.8-3 6.95-3 12.45 0 5.5 1 9.65 3 12.45 2 2.8 4.65 4.2 7.95 4.2Z" fill="#fff"/><path stroke="#0095FF" stroke-width="4" stroke-dasharray="15 15" d="M367 197v105"/><g filter="url(#b)"><circle cx="364.733" cy="110.733" r="86.733" fill="#13202F"/><circle cx="364.733" cy="110.733" r="84.733" stroke="#fff" stroke-width="4"/></g><path fill-rule="evenodd" clip-rule="evenodd" d="M337.095 72.704v3.5a192.319 192.319 0 0 0-12.541 2.22 3.063 3.063 0 0 0-2.386 3.506c2.084 12.347 12.371 21.903 25.066 22.865a27.466 27.466 0 0 0 11.198 5.498 27.368 27.368 0 0 1-4.544 12.957h-3.013a7.656 7.656 0 0 0-7.656 7.656v10.719h-3.063a9.187 9.187 0 0 0-9.187 9.187 3.062 3.062 0 0 0 3.062 3.063h61.25a3.063 3.063 0 0 0 3.063-3.063 9.188 9.188 0 0 0-9.188-9.187h-3.062v-10.719a7.656 7.656 0 0 0-7.656-7.656h-3.016a27.386 27.386 0 0 1-4.541-12.956 27.476 27.476 0 0 0 11.2-5.499c12.695-.962 22.982-10.518 25.066-22.865a3.063 3.063 0 0 0-2.386-3.506 192.2 192.2 0 0 0-12.541-2.22v-3.5a3.063 3.063 0 0 0-2.684-3.04 200.99 200.99 0 0 0-24.878-1.539c-8.425 0-16.728.523-24.879 1.54a3.063 3.063 0 0 0-2.684 3.039Zm0 10.734c0 4.884 1.272 9.473 3.5 13.451a21.503 21.503 0 0 1-11.692-13.097c2.71-.525 5.441-.992 8.192-1.398v1.043Zm55.125 0v-1.044c2.751.406 5.482.873 8.192 1.398A21.503 21.503 0 0 1 388.72 96.89a27.448 27.448 0 0 0 3.5-13.451Z" fill="#fff"/><defs><filter id="a" x="-100" y="202" width="930" height="700" filterUnits="userSpaceOnUse" color-interpolation-filters="sRGB"><feFlood flood-opacity="0" result="BackgroundImageFix"/><feGaussianBlur in="BackgroundImageFix" stdDeviation="50"/><feComposite in2="SourceAlpha" operator="in" result="effect1_backgroundBlur_1317_93"/><feBlend in="SourceGraphic" in2="effect1_backgroundBlur_1317_93" result="shape"/></filter><filter id="b" x="254" y="0" width="281.469" height="281.465" filterUnits="userSpaceOnUse" color-interpolation-filters="sRGB"><feFlood flood-opacity="0" result="BackgroundImageFix"/><feColorMatrix in="SourceAlpha" values="0 0 0 0 0 0 0 0 0 0 0 0 0 0 0 0 0 0 127 0" result="hardAlpha"/><feMorphology radius="4" operator="dilate" in="SourceAlpha" result="effect1_dropShadow_1317_93"/><feOffset dx="30" dy="30"/><feGaussianBlur stdDeviation="25"/><feComposite in2="hardAlpha" operator="out"/><feColorMatrix values="0 0 0 0 0 0 0 0 0 0 0 0 0 0 0 0 0 0 0.25 0"/><feBlend in2="BackgroundImageFix" result="effect1_dropShadow_1317_93"/><feBlend in="SourceGraphic" in2="effect1_dropShadow_1317_93" result="shape"/></filter></defs></svg>