<svg width="730" height="802" viewBox="0 0 730 802" fill="none" xmlns="http://www.w3.org/2000/svg">
<g filter="url(#filter0_b_1317_93)">
<rect y="302" width="730" height="500" rx="50" fill="#13202F" fill-opacity="0.5"/>
<rect x="2.5" y="304.5" width="725" height="495" rx="47.5" stroke="white" stroke-opacity="0.15" stroke-width="5"/>
</g>
<path d="M211.154 603.028H200.594V599.2H226.07V603.028H215.51V630H211.154V603.028ZM237.828 630.264C235.511 630.264 233.428 629.751 231.58 628.724C229.732 627.697 228.28 626.289 227.224 624.5C226.197 622.681 225.684 620.628 225.684 618.34C225.684 616.052 226.197 614.013 227.224 612.224C228.28 610.405 229.732 608.997 231.58 608C233.428 606.973 235.511 606.46 237.828 606.46C240.145 606.46 242.213 606.973 244.032 608C245.88 608.997 247.317 610.405 248.344 612.224C249.4 614.013 249.928 616.052 249.928 618.34C249.928 620.628 249.4 622.681 248.344 624.5C247.317 626.289 245.88 627.697 244.032 628.724C242.213 629.751 240.145 630.264 237.828 630.264ZM237.828 626.568C239.324 626.568 240.659 626.231 241.832 625.556C243.035 624.852 243.973 623.884 244.648 622.652C245.323 621.391 245.66 619.953 245.66 618.34C245.66 616.727 245.323 615.304 244.648 614.072C243.973 612.811 243.035 611.843 241.832 611.168C240.659 610.493 239.324 610.156 237.828 610.156C236.332 610.156 234.983 610.493 233.78 611.168C232.607 611.843 231.668 612.811 230.964 614.072C230.289 615.304 229.952 616.727 229.952 618.34C229.952 619.953 230.289 621.391 230.964 622.652C231.668 623.884 232.607 624.852 233.78 625.556C234.983 626.231 236.332 626.568 237.828 626.568ZM268.134 606.46C270.392 606.46 272.416 606.959 274.206 607.956C275.995 608.953 277.388 610.347 278.386 612.136C279.412 613.925 279.926 615.993 279.926 618.34C279.926 620.687 279.412 622.769 278.386 624.588C277.388 626.377 275.995 627.771 274.206 628.768C272.416 629.765 270.392 630.264 268.134 630.264C266.462 630.264 264.922 629.941 263.514 629.296C262.135 628.651 260.962 627.712 259.994 626.48V638.536H255.77V606.68H259.818V610.376C260.756 609.085 261.944 608.117 263.382 607.472C264.819 606.797 266.403 606.46 268.134 606.46ZM267.782 626.568C269.278 626.568 270.612 626.231 271.786 625.556C272.988 624.852 273.927 623.884 274.602 622.652C275.306 621.391 275.658 619.953 275.658 618.34C275.658 616.727 275.306 615.304 274.602 614.072C273.927 612.811 272.988 611.843 271.786 611.168C270.612 610.493 269.278 610.156 267.782 610.156C266.315 610.156 264.98 610.508 263.778 611.212C262.604 611.887 261.666 612.84 260.962 614.072C260.287 615.304 259.95 616.727 259.95 618.34C259.95 619.953 260.287 621.391 260.962 622.652C261.636 623.884 262.575 624.852 263.778 625.556C264.98 626.231 266.315 626.568 267.782 626.568ZM305.234 599.2V630H300.878V603.028H293.926V599.2H305.234ZM324.555 630.352C322.121 630.352 319.95 629.736 318.043 628.504C316.166 627.243 314.685 625.424 313.599 623.048C312.514 620.672 311.971 617.856 311.971 614.6C311.971 611.344 312.514 608.528 313.599 606.152C314.685 603.776 316.166 601.972 318.043 600.74C319.95 599.479 322.121 598.848 324.555 598.848C326.961 598.848 329.102 599.479 330.979 600.74C332.886 601.972 334.382 603.776 335.467 606.152C336.553 608.528 337.095 611.344 337.095 614.6C337.095 617.856 336.553 620.672 335.467 623.048C334.382 625.424 332.886 627.243 330.979 628.504C329.102 629.736 326.961 630.352 324.555 630.352ZM324.555 626.436C327.019 626.436 328.985 625.424 330.451 623.4C331.947 621.376 332.695 618.443 332.695 614.6C332.695 610.757 331.947 607.824 330.451 605.8C328.985 603.776 327.019 602.764 324.555 602.764C322.062 602.764 320.067 603.776 318.571 605.8C317.105 607.824 316.371 610.757 316.371 614.6C316.371 618.443 317.105 621.376 318.571 623.4C320.067 625.424 322.062 626.436 324.555 626.436ZM353.903 630.352C351.468 630.352 349.298 629.736 347.391 628.504C345.514 627.243 344.032 625.424 342.947 623.048C341.862 620.672 341.319 617.856 341.319 614.6C341.319 611.344 341.862 608.528 342.947 606.152C344.032 603.776 345.514 601.972 347.391 600.74C349.298 599.479 351.468 598.848 353.903 598.848C356.308 598.848 358.45 599.479 360.327 600.74C362.234 601.972 363.73 603.776 364.815 606.152C365.9 608.528 366.443 611.344 366.443 614.6C366.443 617.856 365.9 620.672 364.815 623.048C363.73 625.424 362.234 627.243 360.327 628.504C358.45 629.736 356.308 630.352 353.903 630.352ZM353.903 626.436C356.367 626.436 358.332 625.424 359.799 623.4C361.295 621.376 362.043 618.443 362.043 614.6C362.043 610.757 361.295 607.824 359.799 605.8C358.332 603.776 356.367 602.764 353.903 602.764C351.41 602.764 349.415 603.776 347.919 605.8C346.452 607.824 345.719 610.757 345.719 614.6C345.719 618.443 346.452 621.376 347.919 623.4C349.415 625.424 351.41 626.436 353.903 626.436ZM383.251 630.352C380.816 630.352 378.645 629.736 376.739 628.504C374.861 627.243 373.38 625.424 372.295 623.048C371.209 620.672 370.667 617.856 370.667 614.6C370.667 611.344 371.209 608.528 372.295 606.152C373.38 603.776 374.861 601.972 376.739 600.74C378.645 599.479 380.816 598.848 383.251 598.848C385.656 598.848 387.797 599.479 389.675 600.74C391.581 601.972 393.077 603.776 394.163 606.152C395.248 608.528 395.791 611.344 395.791 614.6C395.791 617.856 395.248 620.672 394.163 623.048C393.077 625.424 391.581 627.243 389.675 628.504C387.797 629.736 385.656 630.352 383.251 630.352ZM383.251 626.436C385.715 626.436 387.68 625.424 389.147 623.4C390.643 621.376 391.391 618.443 391.391 614.6C391.391 610.757 390.643 607.824 389.147 605.8C387.68 603.776 385.715 602.764 383.251 602.764C380.757 602.764 378.763 603.776 377.267 605.8C375.8 607.824 375.067 610.757 375.067 614.6C375.067 618.443 375.8 621.376 377.267 623.4C378.763 625.424 380.757 626.436 383.251 626.436ZM423.315 630.352C420.997 630.352 418.753 630 416.583 629.296C414.441 628.563 412.755 627.624 411.523 626.48L413.151 623.048C414.324 624.104 415.82 624.969 417.639 625.644C419.487 626.289 421.379 626.612 423.315 626.612C425.867 626.612 427.773 626.187 429.035 625.336C430.296 624.456 430.927 623.297 430.927 621.86C430.927 620.804 430.575 619.953 429.871 619.308C429.196 618.633 428.345 618.12 427.319 617.768C426.321 617.416 424.899 617.02 423.051 616.58C420.733 616.023 418.856 615.465 417.419 614.908C416.011 614.351 414.793 613.5 413.767 612.356C412.769 611.183 412.271 609.613 412.271 607.648C412.271 606.005 412.696 604.524 413.547 603.204C414.427 601.884 415.747 600.828 417.507 600.036C419.267 599.244 421.452 598.848 424.063 598.848C425.881 598.848 427.671 599.083 429.431 599.552C431.191 600.021 432.701 600.696 433.963 601.576L432.511 605.096C431.22 604.275 429.841 603.659 428.375 603.248C426.908 602.808 425.471 602.588 424.063 602.588C421.569 602.588 419.692 603.043 418.431 603.952C417.199 604.861 416.583 606.035 416.583 607.472C416.583 608.528 416.935 609.393 417.639 610.068C418.343 610.713 419.208 611.227 420.235 611.608C421.291 611.96 422.713 612.341 424.503 612.752C426.82 613.309 428.683 613.867 430.091 614.424C431.499 614.981 432.701 615.832 433.699 616.976C434.725 618.12 435.239 619.66 435.239 621.596C435.239 623.209 434.799 624.691 433.919 626.04C433.039 627.36 431.704 628.416 429.915 629.208C428.125 629.971 425.925 630.352 423.315 630.352ZM441.051 606.68H445.275V630H441.051V606.68ZM443.163 602.192C442.342 602.192 441.652 601.928 441.095 601.4C440.567 600.872 440.303 600.227 440.303 599.464C440.303 598.701 440.567 598.056 441.095 597.528C441.652 596.971 442.342 596.692 443.163 596.692C443.984 596.692 444.659 596.956 445.187 597.484C445.744 597.983 446.023 598.613 446.023 599.376C446.023 600.168 445.744 600.843 445.187 601.4C444.659 601.928 443.984 602.192 443.163 602.192ZM466.452 628.636C465.836 629.164 465.073 629.575 464.164 629.868C463.255 630.132 462.316 630.264 461.348 630.264C459.001 630.264 457.183 629.633 455.892 628.372C454.601 627.111 453.956 625.307 453.956 622.96V610.156H449.996V606.68H453.956V601.576H458.18V606.68H464.868V610.156H458.18V622.784C458.18 624.045 458.488 625.013 459.104 625.688C459.749 626.363 460.659 626.7 461.832 626.7C463.123 626.7 464.223 626.333 465.132 625.6L466.452 628.636ZM491.861 618.472C491.861 618.795 491.832 619.22 491.773 619.748H472.853C473.117 621.801 474.012 623.459 475.537 624.72C477.092 625.952 479.013 626.568 481.301 626.568C484.088 626.568 486.332 625.629 488.033 623.752L490.365 626.48C489.309 627.712 487.989 628.651 486.405 629.296C484.851 629.941 483.105 630.264 481.169 630.264C478.705 630.264 476.52 629.765 474.613 628.768C472.707 627.741 471.225 626.319 470.169 624.5C469.143 622.681 468.629 620.628 468.629 618.34C468.629 616.081 469.128 614.043 470.125 612.224C471.152 610.405 472.545 608.997 474.305 608C476.095 606.973 478.104 606.46 480.333 606.46C482.563 606.46 484.543 606.973 486.273 608C488.033 608.997 489.397 610.405 490.365 612.224C491.363 614.043 491.861 616.125 491.861 618.472ZM480.333 610.024C478.309 610.024 476.608 610.64 475.229 611.872C473.88 613.104 473.088 614.717 472.853 616.712H487.813C487.579 614.747 486.772 613.148 485.393 611.916C484.044 610.655 482.357 610.024 480.333 610.024ZM504.415 630.264C502.508 630.264 500.675 630.015 498.915 629.516C497.155 628.988 495.776 628.328 494.779 627.536L496.539 624.192C497.565 624.925 498.812 625.512 500.279 625.952C501.745 626.392 503.227 626.612 504.723 626.612C508.419 626.612 510.267 625.556 510.267 623.444C510.267 622.74 510.017 622.183 509.519 621.772C509.02 621.361 508.389 621.068 507.627 620.892C506.893 620.687 505.837 620.467 504.459 620.232C502.581 619.939 501.041 619.601 499.839 619.22C498.665 618.839 497.653 618.193 496.803 617.284C495.952 616.375 495.527 615.099 495.527 613.456C495.527 611.344 496.407 609.657 498.167 608.396C499.927 607.105 502.288 606.46 505.251 606.46C506.805 606.46 508.36 606.651 509.915 607.032C511.469 607.413 512.745 607.927 513.743 608.572L511.939 611.916C510.032 610.684 507.788 610.068 505.207 610.068C503.417 610.068 502.053 610.361 501.115 610.948C500.176 611.535 499.707 612.312 499.707 613.28C499.707 614.043 499.971 614.644 500.499 615.084C501.027 615.524 501.672 615.847 502.435 616.052C503.227 616.257 504.327 616.492 505.735 616.756C507.612 617.079 509.123 617.431 510.267 617.812C511.44 618.164 512.437 618.78 513.259 619.66C514.08 620.54 514.491 621.772 514.491 623.356C514.491 625.468 513.581 627.155 511.763 628.416C509.973 629.648 507.524 630.264 504.415 630.264ZM121.853 665.2C125.842 665.2 128.981 666.153 131.269 668.06C133.557 669.967 134.701 672.592 134.701 675.936C134.701 679.28 133.557 681.905 131.269 683.812C128.981 685.719 125.842 686.672 121.853 686.672H114.241V696H109.841V665.2H121.853ZM121.721 682.844C124.507 682.844 126.634 682.257 128.101 681.084C129.567 679.881 130.301 678.165 130.301 675.936C130.301 673.707 129.567 672.005 128.101 670.832C126.634 669.629 124.507 669.028 121.721 669.028H114.241V682.844H121.721ZM150.451 696.264C148.134 696.264 146.051 695.751 144.203 694.724C142.355 693.697 140.903 692.289 139.847 690.5C138.82 688.681 138.307 686.628 138.307 684.34C138.307 682.052 138.82 680.013 139.847 678.224C140.903 676.405 142.355 674.997 144.203 674C146.051 672.973 148.134 672.46 150.451 672.46C152.768 672.46 154.836 672.973 156.655 674C158.503 674.997 159.94 676.405 160.967 678.224C162.023 680.013 162.551 682.052 162.551 684.34C162.551 686.628 162.023 688.681 160.967 690.5C159.94 692.289 158.503 693.697 156.655 694.724C154.836 695.751 152.768 696.264 150.451 696.264ZM150.451 692.568C151.947 692.568 153.282 692.231 154.455 691.556C155.658 690.852 156.596 689.884 157.271 688.652C157.946 687.391 158.283 685.953 158.283 684.34C158.283 682.727 157.946 681.304 157.271 680.072C156.596 678.811 155.658 677.843 154.455 677.168C153.282 676.493 151.947 676.156 150.451 676.156C148.955 676.156 147.606 676.493 146.403 677.168C145.23 677.843 144.291 678.811 143.587 680.072C142.912 681.304 142.575 682.727 142.575 684.34C142.575 685.953 142.912 687.391 143.587 688.652C144.291 689.884 145.23 690.852 146.403 691.556C147.606 692.231 148.955 692.568 150.451 692.568ZM203.036 672.68L194.324 696H190.276L183.544 678.312L176.724 696H172.676L164.008 672.68H168.012L174.788 691.248L181.828 672.68H185.392L192.3 691.336L199.252 672.68H203.036ZM227.754 684.472C227.754 684.795 227.724 685.22 227.666 685.748H208.746C209.01 687.801 209.904 689.459 211.43 690.72C212.984 691.952 214.906 692.568 217.194 692.568C219.98 692.568 222.224 691.629 223.926 689.752L226.258 692.48C225.202 693.712 223.882 694.651 222.298 695.296C220.743 695.941 218.998 696.264 217.062 696.264C214.598 696.264 212.412 695.765 210.506 694.768C208.599 693.741 207.118 692.319 206.062 690.5C205.035 688.681 204.522 686.628 204.522 684.34C204.522 682.081 205.02 680.043 206.018 678.224C207.044 676.405 208.438 674.997 210.198 674C211.987 672.973 213.996 672.46 216.226 672.46C218.455 672.46 220.435 672.973 222.166 674C223.926 674.997 225.29 676.405 226.258 678.224C227.255 680.043 227.754 682.125 227.754 684.472ZM216.226 676.024C214.202 676.024 212.5 676.64 211.122 677.872C209.772 679.104 208.98 680.717 208.746 682.712H223.706C223.471 680.747 222.664 679.148 221.286 677.916C219.936 676.655 218.25 676.024 216.226 676.024ZM237.667 676.596C238.401 675.247 239.486 674.22 240.923 673.516C242.361 672.812 244.106 672.46 246.159 672.46V676.552C245.925 676.523 245.602 676.508 245.191 676.508C242.903 676.508 241.099 677.197 239.779 678.576C238.489 679.925 237.843 681.861 237.843 684.384V696H233.619V672.68H237.667V676.596ZM272.226 684.472C272.226 684.795 272.197 685.22 272.138 685.748H253.218C253.482 687.801 254.377 689.459 255.902 690.72C257.457 691.952 259.378 692.568 261.666 692.568C264.453 692.568 266.697 691.629 268.398 689.752L270.73 692.48C269.674 693.712 268.354 694.651 266.77 695.296C265.216 695.941 263.47 696.264 261.534 696.264C259.07 696.264 256.885 695.765 254.978 694.768C253.072 693.741 251.59 692.319 250.534 690.5C249.508 688.681 248.994 686.628 248.994 684.34C248.994 682.081 249.493 680.043 250.49 678.224C251.517 676.405 252.91 674.997 254.67 674C256.46 672.973 258.469 672.46 260.698 672.46C262.928 672.46 264.908 672.973 266.638 674C268.398 674.997 269.762 676.405 270.73 678.224C271.728 680.043 272.226 682.125 272.226 684.472ZM260.698 676.024C258.674 676.024 256.973 676.64 255.594 677.872C254.245 679.104 253.453 680.717 253.218 682.712H268.178C267.944 680.747 267.137 679.148 265.758 677.916C264.409 676.655 262.722 676.024 260.698 676.024ZM300.092 663.352V696H296.044V692.304C295.105 693.595 293.917 694.577 292.48 695.252C291.043 695.927 289.459 696.264 287.728 696.264C285.469 696.264 283.445 695.765 281.656 694.768C279.867 693.771 278.459 692.377 277.432 690.588C276.435 688.769 275.936 686.687 275.936 684.34C275.936 681.993 276.435 679.925 277.432 678.136C278.459 676.347 279.867 674.953 281.656 673.956C283.445 672.959 285.469 672.46 287.728 672.46C289.4 672.46 290.94 672.783 292.348 673.428C293.756 674.044 294.929 674.968 295.868 676.2V663.352H300.092ZM288.08 692.568C289.547 692.568 290.881 692.231 292.084 691.556C293.287 690.852 294.225 689.884 294.9 688.652C295.575 687.391 295.912 685.953 295.912 684.34C295.912 682.727 295.575 681.304 294.9 680.072C294.225 678.811 293.287 677.843 292.084 677.168C290.881 676.493 289.547 676.156 288.08 676.156C286.584 676.156 285.235 676.493 284.032 677.168C282.859 677.843 281.92 678.811 281.216 680.072C280.541 681.304 280.204 682.727 280.204 684.34C280.204 685.953 280.541 687.391 281.216 688.652C281.92 689.884 282.859 690.852 284.032 691.556C285.235 692.231 286.584 692.568 288.08 692.568ZM332.264 672.46C334.523 672.46 336.547 672.959 338.336 673.956C340.126 674.953 341.519 676.347 342.516 678.136C343.543 679.925 344.056 681.993 344.056 684.34C344.056 686.687 343.543 688.769 342.516 690.588C341.519 692.377 340.126 693.771 338.336 694.768C336.547 695.765 334.523 696.264 332.264 696.264C330.534 696.264 328.95 695.927 327.512 695.252C326.075 694.577 324.887 693.595 323.948 692.304V696H319.9V663.352H324.124V676.2C325.063 674.968 326.236 674.044 327.644 673.428C329.052 672.783 330.592 672.46 332.264 672.46ZM331.912 692.568C333.408 692.568 334.743 692.231 335.916 691.556C337.119 690.852 338.058 689.884 338.732 688.652C339.436 687.391 339.788 685.953 339.788 684.34C339.788 682.727 339.436 681.304 338.732 680.072C338.058 678.811 337.119 677.843 335.916 677.168C334.743 676.493 333.408 676.156 331.912 676.156C330.446 676.156 329.111 676.493 327.908 677.168C326.706 677.843 325.767 678.811 325.092 680.072C324.418 681.304 324.08 682.727 324.08 684.34C324.08 685.953 324.418 687.391 325.092 688.652C325.767 689.884 326.706 690.852 327.908 691.556C329.111 692.231 330.446 692.568 331.912 692.568ZM369.884 672.68L358.576 698.332C357.579 700.708 356.405 702.38 355.056 703.348C353.736 704.316 352.137 704.8 350.26 704.8C349.116 704.8 348.001 704.609 346.916 704.228C345.86 703.876 344.98 703.348 344.276 702.644L346.08 699.476C347.283 700.62 348.676 701.192 350.26 701.192C351.287 701.192 352.137 700.913 352.812 700.356C353.516 699.828 354.147 698.904 354.704 697.584L355.452 695.956L345.156 672.68H349.556L357.696 691.336L365.748 672.68H369.884ZM429.775 665.2L419.479 696H414.859L406.455 671.404L398.051 696H393.343L383.047 665.2H387.579L395.895 690.236L404.563 665.2H408.611L417.103 690.368L425.595 665.2H429.775ZM442.767 696.264C440.45 696.264 438.367 695.751 436.519 694.724C434.671 693.697 433.219 692.289 432.163 690.5C431.137 688.681 430.623 686.628 430.623 684.34C430.623 682.052 431.137 680.013 432.163 678.224C433.219 676.405 434.671 674.997 436.519 674C438.367 672.973 440.45 672.46 442.767 672.46C445.085 672.46 447.153 672.973 448.971 674C450.819 674.997 452.257 676.405 453.283 678.224C454.339 680.013 454.867 682.052 454.867 684.34C454.867 686.628 454.339 688.681 453.283 690.5C452.257 692.289 450.819 693.697 448.971 694.724C447.153 695.751 445.085 696.264 442.767 696.264ZM442.767 692.568C444.263 692.568 445.598 692.231 446.771 691.556C447.974 690.852 448.913 689.884 449.587 688.652C450.262 687.391 450.599 685.953 450.599 684.34C450.599 682.727 450.262 681.304 449.587 680.072C448.913 678.811 447.974 677.843 446.771 677.168C445.598 676.493 444.263 676.156 442.767 676.156C441.271 676.156 439.922 676.493 438.719 677.168C437.546 677.843 436.607 678.811 435.903 680.072C435.229 681.304 434.891 682.727 434.891 684.34C434.891 685.953 435.229 687.391 435.903 688.652C436.607 689.884 437.546 690.852 438.719 691.556C439.922 692.231 441.271 692.568 442.767 692.568ZM464.757 676.596C465.49 675.247 466.576 674.22 468.013 673.516C469.45 672.812 471.196 672.46 473.249 672.46V676.552C473.014 676.523 472.692 676.508 472.281 676.508C469.993 676.508 468.189 677.197 466.869 678.576C465.578 679.925 464.933 681.861 464.933 684.384V696H460.709V672.68H464.757V676.596ZM500.24 663.352V696H496.192V692.304C495.254 693.595 494.066 694.577 492.628 695.252C491.191 695.927 489.607 696.264 487.876 696.264C485.618 696.264 483.594 695.765 481.804 694.768C480.015 693.771 478.607 692.377 477.58 690.588C476.583 688.769 476.084 686.687 476.084 684.34C476.084 681.993 476.583 679.925 477.58 678.136C478.607 676.347 480.015 674.953 481.804 673.956C483.594 672.959 485.618 672.46 487.876 672.46C489.548 672.46 491.088 672.783 492.496 673.428C493.904 674.044 495.078 674.968 496.016 676.2V663.352H500.24ZM488.228 692.568C489.695 692.568 491.03 692.231 492.232 691.556C493.435 690.852 494.374 689.884 495.048 688.652C495.723 687.391 496.06 685.953 496.06 684.34C496.06 682.727 495.723 681.304 495.048 680.072C494.374 678.811 493.435 677.843 492.232 677.168C491.03 676.493 489.695 676.156 488.228 676.156C486.732 676.156 485.383 676.493 484.18 677.168C483.007 677.843 482.068 678.811 481.364 680.072C480.69 681.304 480.352 682.727 480.352 684.34C480.352 685.953 480.69 687.391 481.364 688.652C482.068 689.884 483.007 690.852 484.18 691.556C485.383 692.231 486.732 692.568 488.228 692.568ZM520.597 672.46C522.855 672.46 524.879 672.959 526.669 673.956C528.458 674.953 529.851 676.347 530.849 678.136C531.875 679.925 532.389 681.993 532.389 684.34C532.389 686.687 531.875 688.769 530.849 690.588C529.851 692.377 528.458 693.771 526.669 694.768C524.879 695.765 522.855 696.264 520.597 696.264C518.925 696.264 517.385 695.941 515.977 695.296C514.598 694.651 513.425 693.712 512.457 692.48V704.536H508.233V672.68H512.281V676.376C513.219 675.085 514.407 674.117 515.845 673.472C517.282 672.797 518.866 672.46 520.597 672.46ZM520.245 692.568C521.741 692.568 523.075 692.231 524.249 691.556C525.451 690.852 526.39 689.884 527.065 688.652C527.769 687.391 528.121 685.953 528.121 684.34C528.121 682.727 527.769 681.304 527.065 680.072C526.39 678.811 525.451 677.843 524.249 677.168C523.075 676.493 521.741 676.156 520.245 676.156C518.778 676.156 517.443 676.508 516.241 677.212C515.067 677.887 514.129 678.84 513.425 680.072C512.75 681.304 512.413 682.727 512.413 684.34C512.413 685.953 512.75 687.391 513.425 688.652C514.099 689.884 515.038 690.852 516.241 691.556C517.443 692.231 518.778 692.568 520.245 692.568ZM542.273 676.596C543.006 675.247 544.091 674.22 545.529 673.516C546.966 672.812 548.711 672.46 550.765 672.46V676.552C550.53 676.523 550.207 676.508 549.797 676.508C547.509 676.508 545.705 677.197 544.385 678.576C543.094 679.925 542.449 681.861 542.449 684.384V696H538.225V672.68H542.273V676.596ZM576.832 684.472C576.832 684.795 576.803 685.22 576.744 685.748H557.824C558.088 687.801 558.983 689.459 560.508 690.72C562.063 691.952 563.984 692.568 566.272 692.568C569.059 692.568 571.303 691.629 573.004 689.752L575.336 692.48C574.28 693.712 572.96 694.651 571.376 695.296C569.821 695.941 568.076 696.264 566.14 696.264C563.676 696.264 561.491 695.765 559.584 694.768C557.677 693.741 556.196 692.319 555.14 690.5C554.113 688.681 553.6 686.628 553.6 684.34C553.6 682.081 554.099 680.043 555.096 678.224C556.123 676.405 557.516 674.997 559.276 674C561.065 672.973 563.075 672.46 565.304 672.46C567.533 672.46 569.513 672.973 571.244 674C573.004 674.997 574.368 676.405 575.336 678.224C576.333 680.043 576.832 682.125 576.832 684.472ZM565.304 676.024C563.28 676.024 561.579 676.64 560.2 677.872C558.851 679.104 558.059 680.717 557.824 682.712H572.784C572.549 680.747 571.743 679.148 570.364 677.916C569.015 676.655 567.328 676.024 565.304 676.024ZM589.385 696.264C587.479 696.264 585.645 696.015 583.885 695.516C582.125 694.988 580.747 694.328 579.749 693.536L581.509 690.192C582.536 690.925 583.783 691.512 585.249 691.952C586.716 692.392 588.197 692.612 589.693 692.612C593.389 692.612 595.237 691.556 595.237 689.444C595.237 688.74 594.988 688.183 594.489 687.772C593.991 687.361 593.36 687.068 592.597 686.892C591.864 686.687 590.808 686.467 589.429 686.232C587.552 685.939 586.012 685.601 584.809 685.22C583.636 684.839 582.624 684.193 581.773 683.284C580.923 682.375 580.497 681.099 580.497 679.456C580.497 677.344 581.377 675.657 583.137 674.396C584.897 673.105 587.259 672.46 590.221 672.46C591.776 672.46 593.331 672.651 594.885 673.032C596.44 673.413 597.716 673.927 598.713 674.572L596.909 677.916C595.003 676.684 592.759 676.068 590.177 676.068C588.388 676.068 587.024 676.361 586.085 676.948C585.147 677.535 584.677 678.312 584.677 679.28C584.677 680.043 584.941 680.644 585.469 681.084C585.997 681.524 586.643 681.847 587.405 682.052C588.197 682.257 589.297 682.492 590.705 682.756C592.583 683.079 594.093 683.431 595.237 683.812C596.411 684.164 597.408 684.78 598.229 685.66C599.051 686.54 599.461 687.772 599.461 689.356C599.461 691.468 598.552 693.155 596.733 694.416C594.944 695.648 592.495 696.264 589.385 696.264ZM611.428 696.264C609.522 696.264 607.688 696.015 605.928 695.516C604.168 694.988 602.79 694.328 601.792 693.536L603.552 690.192C604.579 690.925 605.826 691.512 607.292 691.952C608.759 692.392 610.24 692.612 611.736 692.612C615.432 692.612 617.28 691.556 617.28 689.444C617.28 688.74 617.031 688.183 616.532 687.772C616.034 687.361 615.403 687.068 614.64 686.892C613.907 686.687 612.851 686.467 611.472 686.232C609.595 685.939 608.055 685.601 606.852 685.22C605.679 684.839 604.667 684.193 603.816 683.284C602.966 682.375 602.54 681.099 602.54 679.456C602.54 677.344 603.42 675.657 605.18 674.396C606.94 673.105 609.302 672.46 612.264 672.46C613.819 672.46 615.374 672.651 616.928 673.032C618.483 673.413 619.759 673.927 620.756 674.572L618.952 677.916C617.046 676.684 614.802 676.068 612.22 676.068C610.431 676.068 609.067 676.361 608.128 676.948C607.19 677.535 606.72 678.312 606.72 679.28C606.72 680.043 606.984 680.644 607.512 681.084C608.04 681.524 608.686 681.847 609.448 682.052C610.24 682.257 611.34 682.492 612.748 682.756C614.626 683.079 616.136 683.431 617.28 683.812C618.454 684.164 619.451 684.78 620.272 685.66C621.094 686.54 621.504 687.772 621.504 689.356C621.504 691.468 620.595 693.155 618.776 694.416C616.987 695.648 614.538 696.264 611.428 696.264Z" fill="white"/>
<path d="M195.779 460.75C204.979 462.25 212.029 465.7 216.929 471.1C221.829 476.4 224.279 483 224.279 490.9C224.279 497 222.679 502.65 219.479 507.85C216.279 512.95 211.379 517.05 204.779 520.15C198.279 523.25 190.279 524.8 180.779 524.8C173.379 524.8 166.079 523.85 158.879 521.95C151.779 519.95 145.729 517.15 140.729 513.55L150.179 494.95C154.179 497.95 158.779 500.3 163.979 502C169.279 503.6 174.679 504.4 180.179 504.4C186.279 504.4 191.079 503.25 194.579 500.95C198.079 498.55 199.829 495.2 199.829 490.9C199.829 482.3 193.279 478 180.179 478H169.079V461.95L190.679 437.5H145.979V418H219.479V433.75L195.779 460.75ZM280.498 524.8C271.798 524.8 264.048 522.65 257.248 518.35C250.448 514.05 245.098 507.85 241.198 499.75C237.398 491.55 235.498 481.8 235.498 470.5C235.498 459.2 237.398 449.5 241.198 441.4C245.098 433.2 250.448 426.95 257.248 422.65C264.048 418.35 271.798 416.2 280.498 416.2C289.198 416.2 296.948 418.35 303.748 422.65C310.548 426.95 315.848 433.2 319.648 441.4C323.548 449.5 325.498 459.2 325.498 470.5C325.498 481.8 323.548 491.55 319.648 499.75C315.848 507.85 310.548 514.05 303.748 518.35C296.948 522.65 289.198 524.8 280.498 524.8ZM280.498 504.25C286.898 504.25 291.898 501.5 295.498 496C299.198 490.5 301.048 482 301.048 470.5C301.048 459 299.198 450.5 295.498 445C291.898 439.5 286.898 436.75 280.498 436.75C274.198 436.75 269.198 439.5 265.498 445C261.898 450.5 260.098 459 260.098 470.5C260.098 482 261.898 490.5 265.498 496C269.198 501.5 274.198 504.25 280.498 504.25ZM349.201 524.2C345.101 524.2 341.651 522.8 338.851 520C336.051 517.2 334.651 513.7 334.651 509.5C334.651 505.2 336.051 501.75 338.851 499.15C341.651 496.45 345.101 495.1 349.201 495.1C353.301 495.1 356.751 496.45 359.551 499.15C362.351 501.75 363.751 505.2 363.751 509.5C363.751 513.7 362.351 517.2 359.551 520C356.751 522.8 353.301 524.2 349.201 524.2ZM425.173 460.75C434.373 462.25 441.423 465.7 446.323 471.1C451.223 476.4 453.673 483 453.673 490.9C453.673 497 452.073 502.65 448.873 507.85C445.673 512.95 440.773 517.05 434.173 520.15C427.673 523.25 419.673 524.8 410.173 524.8C402.773 524.8 395.473 523.85 388.273 521.95C381.173 519.95 375.123 517.15 370.123 513.55L379.573 494.95C383.573 497.95 388.173 500.3 393.373 502C398.673 503.6 404.073 504.4 409.573 504.4C415.673 504.4 420.473 503.25 423.973 500.95C427.473 498.55 429.223 495.2 429.223 490.9C429.223 482.3 422.673 478 409.573 478H398.473V461.95L420.073 437.5H375.373V418H448.873V433.75L425.173 460.75ZM487.728 474.7C480.028 474.7 473.728 472.1 468.828 466.9C464.028 461.6 461.628 454.55 461.628 445.75C461.628 436.95 464.028 429.95 468.828 424.75C473.728 419.45 480.028 416.8 487.728 416.8C495.428 416.8 501.678 419.45 506.478 424.75C511.278 429.95 513.678 436.95 513.678 445.75C513.678 454.55 511.278 461.6 506.478 466.9C501.678 472.1 495.428 474.7 487.728 474.7ZM550.278 418H568.128L496.428 523H478.578L550.278 418ZM487.728 462.4C491.128 462.4 493.778 461 495.678 458.2C497.678 455.4 498.678 451.25 498.678 445.75C498.678 440.25 497.678 436.1 495.678 433.3C493.778 430.5 491.128 429.1 487.728 429.1C484.428 429.1 481.778 430.55 479.778 433.45C477.778 436.25 476.778 440.35 476.778 445.75C476.778 451.15 477.778 455.3 479.778 458.2C481.778 461 484.428 462.4 487.728 462.4ZM558.978 524.2C553.978 524.2 549.478 523.05 545.478 520.75C541.578 518.35 538.528 514.95 536.328 510.55C534.128 506.15 533.028 501.05 533.028 495.25C533.028 489.45 534.128 484.35 536.328 479.95C538.528 475.55 541.578 472.2 545.478 469.9C549.478 467.5 553.978 466.3 558.978 466.3C566.678 466.3 572.928 468.95 577.728 474.25C582.628 479.45 585.078 486.45 585.078 495.25C585.078 504.05 582.628 511.1 577.728 516.4C572.928 521.6 566.678 524.2 558.978 524.2ZM558.978 511.9C562.378 511.9 565.028 510.5 566.928 507.7C568.928 504.8 569.928 500.65 569.928 495.25C569.928 489.85 568.928 485.75 566.928 482.95C565.028 480.05 562.378 478.6 558.978 478.6C555.678 478.6 553.028 480 551.028 482.8C549.028 485.6 548.028 489.75 548.028 495.25C548.028 500.75 549.028 504.9 551.028 507.7C553.028 510.5 555.678 511.9 558.978 511.9Z" fill="white"/>
<line x1="367" y1="197" x2="367" y2="302" stroke="#0095FF" stroke-width="4" stroke-dasharray="15 15"/>
<g filter="url(#filter1_d_1317_93)">
<circle cx="364.733" cy="110.733" r="86.7326" fill="#13202F"/>
<circle cx="364.733" cy="110.733" r="84.7326" stroke="white" stroke-width="4"/>
</g>
<path fill-rule="evenodd" clip-rule="evenodd" d="M337.095 72.7039V76.2043C332.869 76.8088 328.688 77.5503 324.554 78.4241C322.948 78.7638 321.895 80.3107 322.168 81.9302C324.252 94.277 334.539 103.833 347.234 104.795C350.442 107.415 354.255 109.329 358.432 110.293C358.029 115.064 356.411 119.484 353.888 123.25H350.875C346.647 123.25 343.219 126.678 343.219 130.906V141.625H340.156C335.082 141.625 330.969 145.738 330.969 150.812C330.969 152.504 332.34 153.875 334.031 153.875H395.281C396.972 153.875 398.344 152.504 398.344 150.812C398.344 145.738 394.23 141.625 389.156 141.625H386.094V130.906C386.094 126.678 382.666 123.25 378.438 123.25H375.422C372.901 119.484 371.284 115.064 370.881 110.294C375.059 109.329 378.872 107.416 382.081 104.795C394.776 103.833 405.063 94.277 407.147 81.9302C407.42 80.3107 406.368 78.7638 404.761 78.4241C400.628 77.5503 396.446 76.8088 392.22 76.2043V72.7039C392.22 71.1591 391.069 69.8561 389.536 69.6649C381.385 68.6485 373.082 68.125 364.658 68.125C356.233 68.125 347.93 68.6485 339.779 69.6649C338.246 69.8561 337.095 71.1591 337.095 72.7039ZM337.095 83.4375C337.095 88.3219 338.367 92.9106 340.595 96.889C335.054 94.4082 330.756 89.6432 328.903 83.7922C331.613 83.267 334.344 82.8004 337.095 82.3937V83.4375ZM392.22 83.4375V82.3937C394.971 82.8004 397.702 83.267 400.412 83.7922C398.559 89.6432 394.261 94.4082 388.72 96.889C390.948 92.9106 392.22 88.3219 392.22 83.4375Z" fill="white"/>
<defs>
<filter id="filter0_b_1317_93" x="-100" y="202" width="930" height="700" filterUnits="userSpaceOnUse" color-interpolation-filters="sRGB">
<feFlood flood-opacity="0" result="BackgroundImageFix"/>
<feGaussianBlur in="BackgroundImageFix" stdDeviation="50"/>
<feComposite in2="SourceAlpha" operator="in" result="effect1_backgroundBlur_1317_93"/>
<feBlend mode="normal" in="SourceGraphic" in2="effect1_backgroundBlur_1317_93" result="shape"/>
</filter>
<filter id="filter1_d_1317_93" x="254" y="0" width="281.469" height="281.465" filterUnits="userSpaceOnUse" color-interpolation-filters="sRGB">
<feFlood flood-opacity="0" result="BackgroundImageFix"/>
<feColorMatrix in="SourceAlpha" type="matrix" values="0 0 0 0 0 0 0 0 0 0 0 0 0 0 0 0 0 0 127 0" result="hardAlpha"/>
<feMorphology radius="4" operator="dilate" in="SourceAlpha" result="effect1_dropShadow_1317_93"/>
<feOffset dx="30" dy="30"/>
<feGaussianBlur stdDeviation="25"/>
<feComposite in2="hardAlpha" operator="out"/>
<feColorMatrix type="matrix" values="0 0 0 0 0 0 0 0 0 0 0 0 0 0 0 0 0 0 0.25 0"/>
<feBlend mode="normal" in2="BackgroundImageFix" result="effect1_dropShadow_1317_93"/>
<feBlend mode="normal" in="SourceGraphic" in2="effect1_dropShadow_1317_93" result="shape"/>
</filter>
</defs>
</svg>
