<svg version="1.2" xmlns="http://www.w3.org/2000/svg" width="2826" height="2300"><defs><linearGradient id="P" gradientUnits="userSpaceOnUse"/><linearGradient id="g1" x1="50" y1="3" x2="2776.3" y2="2256.7" href="#P"><stop stop-color="#162637" stop-opacity="0"/><stop offset=".2" stop-color="#1b3350"/><stop offset=".8" stop-color="#1b3350"/><stop offset="1" stop-color="#1b3350" stop-opacity="0"/></linearGradient></defs><style>.b{opacity:.5;fill:#13202f}.c{fill:none;stroke:#fff;stroke-opacity:.1;stroke-width:5}.d{fill:#fff}.e{fill:none;stroke:#0095ff;stroke-width:4;stroke-dasharray:16}.f{fill:#13202f}.g{fill:none;stroke:#fff;stroke-width:4}</style><path d="M50.1 3s-13 239.1 358.5 271.4c371.4 32.4 865.6-242.3 975.5-38.7C1493.9 439.3 159.5 990 306.6 1199.4 453.8 1408.7 2462.9 132.3 2698.7 478c235.8 345.8-2012.3 995.3-1673.2 1334.7C1364.7 2152 2576 1105 2740.7 1308.5c164.7 203.6-297.2 349-358.5 507.4C2320.8 1974.2 2776 2257 2776 2257" style="fill:none;stroke:url(#g1);stroke-width:100"/><path class="b" d="M301 490c0-27.6 22.4-50 50-50h630c27.6 0 50 22.4 50 50v400c0 27.6-22.4 50-50 50H351c-27.6 0-50-22.4-50-50z"/><path class="c" d="M303.5 490c0-26.2 21.3-47.5 47.5-47.5h630c26.2 0 47.5 21.3 47.5 47.5v400c0 26.2-21.3 47.5-47.5 47.5H351c-26.2 0-47.5-21.3-47.5-47.5z"/><path fill-rule="evenodd" class="d" d="M487.8 737.2 477.5 768h-4.7l-8.4-24.6L456 768h-4.7L441 737.2h4.6l8.3 25 8.6-25h4.1l8.5 25.2 8.5-25.2zm13 31.1q-3.5 0-6.3-1.6-2.8-1.5-4.3-4.2-1.6-2.7-1.6-6.2 0-3.4 1.6-6.1 1.5-2.7 4.3-4.2t6.3-1.5q3.4 0 6.2 1.5 2.7 1.5 4.3 4.2 1.6 2.7 1.6 6.1 0 3.5-1.6 6.2t-4.3 4.2q-2.8 1.6-6.2 1.6zm0-3.7q2.2 0 4-1 1.8-1.1 2.8-2.9 1-1.9 1-4.4 0-2.4-1-4.2-1-1.9-2.8-2.9-1.8-1-4-1-2.3 0-4.1 1-1.7 1-2.8 2.9-1 1.8-1 4.2 0 2.5 1 4.4 1.1 1.8 2.8 2.9 1.8 1 4.1 1zm22-16q1.1-2 3.2-3.1 2.2-1 5.3-1v4.1q-.4-.1-1-.1-3.5 0-5.4 2.1-2 2-2 5.8V768h-4.2v-23.3h4.1zm35.4-13.3V768h-4v-3.7q-1.4 1.9-3.6 2.9-2.1 1-4.7 1-3.4 0-6.1-1.4-2.7-1.5-4.2-4.2-1.5-2.8-1.5-6.3t1.5-6.2q1.5-2.7 4.2-4.2t6.1-1.5q2.5 0 4.6 1 2.1.9 3.5 2.8v-12.9zm-12 29.3q2.2 0 4-1.1 1.8-1 2.8-2.9 1-1.9 1-4.3t-1-4.2q-1-1.9-2.8-2.9-1.8-1.1-4-1.1t-4 1.1q-1.8 1-2.9 2.9-1 1.8-1 4.2 0 2.4 1 4.3 1.1 1.9 2.9 2.9 1.8 1.1 4 1.1zm32.6-27.4q6 0 9.5 2.8 3.4 2.9 3.4 7.9t-3.4 7.9q-3.5 2.9-9.5 2.9h-7.6v9.3h-4.4v-30.8zm-.1 17.6q4.2 0 6.4-1.7 2.2-1.8 2.2-5.2 0-3.3-2.2-5.1-2.2-1.8-6.4-1.8h-7.5v13.8zm22.5-6.2q1.1-2 3.3-3.1 2.1-1.1 5.2-1.1v4.1h-1q-3.4 0-5.4 2.1-1.9 2-1.9 5.8V768h-4.2v-23.3h4zm34.6 7.8q0 .5-.1 1.3h-18.9q.3 3.1 2.6 5 2.4 1.8 5.8 1.8 4.2 0 6.7-2.8l2.4 2.7q-1.6 1.9-4 2.9-2.3.9-5.2.9-3.7 0-6.6-1.5-2.8-1.5-4.4-4.2-1.6-2.8-1.6-6.2 0-3.4 1.5-6.1 1.6-2.7 4.2-4.2 2.7-1.6 6-1.6 3.4 0 6 1.6 2.6 1.5 4.1 4.2 1.5 2.7 1.5 6.2zm-11.6-8.4q-3 0-5.1 1.8-2 1.9-2.3 4.9h14.9q-.3-3-2.4-4.8-2-1.9-5.1-1.9zm24.1 20.2q-2.8 0-5.5-.7-2.6-.8-4.1-2l1.7-3.3q1.6 1.1 3.8 1.7 2.2.7 4.4.7 5.6 0 5.6-3.2 0-1-.8-1.7-.7-.6-1.9-.8-1.1-.3-3.1-.7-2.9-.4-4.7-1-1.7-.6-3-1.9-1.3-1.4-1.3-3.9 0-3.1 2.7-5 2.6-2 7.1-2 2.3 0 4.6.6t3.8 1.5l-1.8 3.4q-2.8-1.9-6.7-1.9-2.7 0-4.1.9-1.4.9-1.4 2.3 0 1.2.8 1.9.8.6 1.9.9 1.2.3 3.3.7 2.9.5 4.6 1.1 1.7.5 3 1.8 1.2 1.3 1.2 3.7 0 3.2-2.7 5.1-2.7 1.8-7.4 1.8zm22.1 0q-2.9 0-5.5-.7-2.7-.8-4.2-2l1.8-3.3q1.5 1.1 3.7 1.7 2.2.7 4.5.7 5.5 0 5.5-3.2 0-1-.7-1.7-.8-.6-1.9-.8-1.1-.3-3.2-.7-2.8-.4-4.6-1-1.8-.6-3.1-1.9-1.2-1.4-1.2-3.9 0-3.1 2.6-5 2.6-2 7.1-2 2.3 0 4.7.6 2.3.6 3.8 1.5l-1.8 3.4q-2.9-1.9-6.8-1.9-2.6 0-4 .9-1.5.9-1.5 2.3.1 1.2.8 1.9.8.6 2 .9 1.2.3 3.3.7 2.8.5 4.5 1.1 1.8.5 3 1.8t1.2 3.7q0 3.2-2.7 5.1-2.7 1.8-7.3 1.8zm39.8-31q5.9 0 9.4 2.8 3.4 2.9 3.4 7.9t-3.4 7.9q-3.5 2.8-9.4 2.8h-7.7v9.4h-4.4v-30.8zm-.1 17.6q4.2 0 6.4-1.7 2.2-1.9 2.2-5.2 0-3.3-2.2-5.1-2.2-1.8-6.4-1.8h-7.5v13.8zm28.8 13.4q-3.5 0-6.3-1.5t-4.3-4.2q-1.6-2.8-1.6-6.2 0-3.4 1.6-6.1 1.5-2.7 4.3-4.2 2.8-1.6 6.3-1.6 3.4 0 6.2 1.6 2.7 1.5 4.3 4.2 1.6 2.7 1.6 6.1 0 3.4-1.6 6.2-1.6 2.7-4.3 4.2-2.8 1.5-6.2 1.5zm0-3.7q2.2 0 4-1 1.8-1 2.8-2.9 1-1.9 1-4.3t-1-4.3q-1-1.9-2.8-2.9-1.8-1-4-1-2.3 0-4.1 1-1.7 1-2.8 2.9-1 1.9-1 4.3t1 4.3q1.1 1.9 2.8 2.9 1.8 1 4.1 1zm52.5-19.9-8.7 23.4h-4l-6.7-17.7-6.9 17.7h-4l-8.7-23.4h4l6.8 18.6 7-18.6h3.6l6.9 18.7 7-18.7zm24.7 11.8q0 .5-.1 1.3h-18.9q.4 3.1 2.7 5 2.3 1.8 5.7 1.8 4.2 0 6.8-2.8l2.3 2.7q-1.6 1.9-4 2.9-2.3.9-5.2.9-3.7 0-6.6-1.5-2.8-1.5-4.4-4.2-1.5-2.8-1.5-6.2 0-3.4 1.4-6.1 1.6-2.7 4.2-4.2 2.7-1.6 6.1-1.6 3.3 0 5.9 1.6 2.6 1.5 4.1 4.2 1.5 2.7 1.5 6.2zm-11.5-8.4q-3.1 0-5.1 1.8-2.1 1.9-2.4 4.9H812q-.3-3-2.4-4.8-2-1.9-5-1.9zm21.4.6q1.1-2.1 3.3-3.1 2.1-1.1 5.2-1.1v4.1h-1q-3.4 0-5.4 2-1.9 2.1-1.9 5.9V768h-4.3v-23.4h4.1zm34.6 7.9q0 .5-.1 1.3h-19q.4 3.1 2.7 5 2.4 1.8 5.8 1.8 4.2 0 6.7-2.8l2.4 2.7q-1.6 1.9-4 2.8-2.3 1-5.2 1-3.7 0-6.6-1.5-2.9-1.5-4.4-4.2-1.6-2.8-1.6-6.2 0-3.4 1.5-6.1 1.6-2.8 4.2-4.2 2.7-1.6 6-1.6 3.4 0 6 1.6 2.6 1.4 4.1 4.2 1.5 2.7 1.5 6.2zm-11.6-8.4q-3 0-5.1 1.8-2 1.9-2.4 4.9h15q-.3-3-2.4-4.8-2-1.9-5.1-1.9zm39.4-12.7v32.7h-4v-3.7q-1.4 1.9-3.6 2.9-2.1 1-4.7 1-3.4 0-6.1-1.5-2.7-1.5-4.2-4.2t-1.5-6.2q0-3.5 1.5-6.2t4.2-4.2q2.7-1.5 6.1-1.5 2.5 0 4.6 1 2.1.9 3.5 2.8v-12.9zm-12 29.2q2.2 0 4-1 1.8-1 2.8-2.9 1-1.9 1-4.3t-1-4.3q-1-1.9-2.8-2.9-1.8-1-4-1-2.3 0-4.1 1-1.7 1-2.8 2.9-1 1.9-1 4.3t1 4.3q1.1 1.9 2.8 2.9 1.8 1 4.1 1zm-264.7 38.7-10.3 30.8h-4.6l-8.4-24.6-8.4 24.6h-4.7L565 803.3h4.5l8.3 25 8.7-25h4.1l8.5 25.1 8.4-25.1zm24.1 19.2q0 .5-.1 1.3h-18.9q.4 3.1 2.7 5 2.3 1.8 5.8 1.8 4.1 0 6.7-2.8l2.3 2.7q-1.6 1.9-3.9 2.8-2.4 1-5.3 1-3.7 0-6.5-1.5-2.9-1.5-4.5-4.2-1.5-2.8-1.5-6.2 0-3.4 1.5-6.1 1.5-2.8 4.2-4.2 2.7-1.6 6-1.6t5.9 1.6q2.7 1.4 4.1 4.2 1.5 2.7 1.5 6.2zm-11.5-8.4q-3 0-5.1 1.8-2 1.9-2.4 4.9h15q-.4-3-2.4-4.8-2.1-1.9-5.1-1.9zm29.8-3.6q3.3 0 6 1.5t4.2 4.2q1.5 2.7 1.5 6.2t-1.5 6.2q-1.5 2.7-4.2 4.2t-6 1.5q-2.6 0-4.8-1-2.2-1-3.6-2.9v3.7h-4v-32.7h4.2v12.9q1.4-1.9 3.5-2.8 2.1-1 4.7-1zm-.4 20.1q2.2 0 4-1 1.8-1 2.8-2.9 1.1-1.9 1.1-4.3t-1.1-4.3q-1-1.9-2.8-2.9-1.8-1-4-1t-4 1q-1.8 1-2.8 2.9-1 1.9-1 4.3t1 4.3q1 1.9 2.8 2.9 1.8 1 4 1zm24.7 3.7q-2.9 0-5.5-.7-2.7-.8-4.2-2l1.8-3.4q1.5 1.1 3.7 1.8t4.5.7q5.5 0 5.5-3.2 0-1.1-.7-1.7-.8-.6-1.9-.9-1.1-.3-3.2-.6-2.8-.5-4.6-1-1.8-.6-3-2-1.3-1.3-1.3-3.8 0-3.2 2.6-5.1 2.7-1.9 7.1-1.9 2.3 0 4.7.6 2.3.6 3.8 1.5l-1.8 3.4q-2.9-1.9-6.7-1.9-2.7 0-4.1.9-1.4.9-1.4 2.3 0 1.2.8 1.8.7.7 1.9 1 1.2.3 3.3.7 2.8.5 4.5 1.1 1.8.5 3 1.8t1.2 3.7q0 3.2-2.7 5.1-2.7 1.8-7.3 1.8zm15.3-23.6h4.2v23.4h-4.2zm2.1-4.5q-1.2 0-2-.8t-.8-2q0-1.1.8-1.9.8-.8 2-.8 1.3 0 2.1.8.8.7.8 1.8 0 1.2-.8 2.1-.8.8-2.1.8zm23.3 26.4q-.9.8-2.3 1.2-1.3.4-2.8.4-3.5 0-5.4-1.9-2-1.8-2-5.4v-12.8h-3.9v-3.4h3.9v-5.2h4.3v5.2h6.6v3.4h-6.6v12.7q0 1.8.9 2.9.9 1 2.7 1 1.9 0 3.3-1.1zm25.4-10.2q0 .5-.1 1.3h-18.9q.4 3.1 2.7 5 2.3 1.8 5.8 1.8 4.1 0 6.7-2.8l2.3 2.7q-1.6 1.9-3.9 2.8-2.4 1-5.3 1-3.7 0-6.5-1.5-2.9-1.5-4.5-4.3-1.5-2.7-1.5-6.1 0-3.4 1.5-6.1 1.5-2.8 4.2-4.3 2.6-1.5 6-1.5 3.3 0 5.9 1.5 2.7 1.5 4.1 4.3 1.5 2.7 1.5 6.2zM733 814q-3 0-5.1 1.8-2 1.9-2.4 4.8h15q-.4-2.9-2.5-4.7-2-1.9-5-1.9zm24.1 20.2q-2.9 0-5.5-.7-2.7-.8-4.2-2l1.8-3.4q1.5 1.1 3.7 1.8 2.2.6 4.5.6 5.5 0 5.5-3.1 0-1.1-.7-1.7-.8-.6-1.9-.9-1.1-.3-3.2-.6-2.8-.5-4.6-1-1.8-.6-3-2-1.3-1.3-1.3-3.8 0-3.2 2.6-5.1 2.7-1.9 7.1-1.9 2.3 0 4.7.6 2.3.5 3.8 1.5l-1.8 3.4q-2.9-1.9-6.7-1.9-2.7 0-4.1.9-1.4.9-1.4 2.3 0 1.2.8 1.8.7.7 1.9 1 1.2.3 3.3.7 2.8.5 4.5 1 1.8.6 3 1.9 1.2 1.3 1.2 3.7 0 3.2-2.7 5.1-2.7 1.8-7.3 1.8zM542.6 639h-17.1v22h-23.7v-22h-56.5v-16.4l49.5-66.6h25.5l-45.9 63.1h28.2v-19.6h22.9v19.6h17.1zm55.3-40.2q13.8 2.3 21.2 10.4 7.3 7.9 7.3 19.8 0 9.1-4.8 16.9-4.8 7.7-14.7 12.3-9.7 4.7-24 4.7-11.1 0-21.9-2.9-10.6-3-18.1-8.4l9.4-18.6q6 4.5 13.8 7.1 8 2.4 16.2 2.4 9.2 0 14.4-3.5 5.3-3.6 5.3-10 0-12.9-19.7-12.9h-11.1V600l21.6-24.4h-44.7v-19.5h73.5v15.7zm53.5 63.5q-6.1 0-10.3-4.2-4.2-4.2-4.2-10.5 0-6.5 4.2-10.4 4.2-4 10.3-4 6.2 0 10.4 4 4.2 3.9 4.2 10.4 0 6.3-4.2 10.5t-10.4 4.2zm76-63.5q13.8 2.3 21.2 10.4 7.3 7.9 7.3 19.8 0 9.1-4.8 16.9-4.8 7.7-14.7 12.3-9.7 4.7-24 4.7-11.1 0-21.9-2.9-10.6-3-18.1-8.4l9.4-18.6q6 4.5 13.8 7.1 8 2.4 16.2 2.4 9.2 0 14.4-3.5 5.3-3.6 5.3-10 0-12.9-19.7-12.9h-11.1V600l21.6-24.4h-44.7v-19.5h73.5v15.7zm62.6 14q-11.6 0-18.9-7.8-7.2-8-7.2-21.2t7.2-21q7.3-7.9 18.9-7.9 11.5 0 18.7 7.9 7.2 7.8 7.2 21t-7.2 21.2q-7.2 7.8-18.7 7.8zm62.5-56.7h17.9l-71.7 105h-17.9zM790 600.5q5.1 0 7.9-4.2 3-4.2 3-12.5 0-8.2-3-12.4-2.8-4.2-7.9-4.2-5 0-8 4.3t-3 12.3q0 8.1 3 12.5 3 4.2 8 4.2zm71.2 61.8q-7.5 0-13.5-3.5-5.8-3.5-9.1-10.2-3.3-6.6-3.3-15.3 0-8.6 3.3-15.3 3.3-6.6 9.1-10 6-3.6 13.5-3.6 11.6 0 18.8 7.9 7.3 7.9 7.3 21 0 13.2-7.3 21.2-7.2 7.8-18.8 7.8zm0-12.3q5.1 0 8-4.2 3-4.4 3-12.5 0-8-3-12.3-2.9-4.3-8-4.3-4.9 0-7.9 4.2t-3 12.4q0 8.3 3 12.5 3 4.2 7.9 4.2z"/><path class="e" d="M668 335v105"/><path class="f" d="M665.7 335.5c-47.9 0-86.7-38.8-86.7-86.8 0-47.9 38.8-86.7 86.7-86.7 48 0 86.8 38.8 86.8 86.7 0 48-38.8 86.8-86.8 86.8z"/><path class="g" d="M665.7 333.5c-46.8 0-84.7-37.9-84.7-84.8 0-46.8 37.9-84.7 84.7-84.7 46.9 0 84.8 37.9 84.8 84.7 0 46.9-37.9 84.8-84.8 84.8z"/><path fill-rule="evenodd" class="d" d="M640.8 207.7q12.2-1.6 24.9-1.6 12.6 0 24.8 1.6c1.6.2 2.7 1.5 2.7 3v3.5q6.4.9 12.6 2.2c1.6.4 2.6 1.9 2.3 3.5-2 12.4-12.3 21.9-25 22.9-3.2 2.6-7 4.5-11.2 5.5.4 4.8 2 9.2 4.5 13h3c4.3 0 7.7 3.4 7.7 7.6v10.7h3.1c5 0 9.1 4.1 9.1 9.2 0 1.7-1.3 3.1-3 3.1H635c-1.7 0-3-1.4-3-3.1 0-5.1 4.1-9.2 9.2-9.2h3v-10.7c0-4.2 3.4-7.6 7.7-7.6h3c2.5-3.8 4.1-8.2 4.5-13-4.1-1-8-2.9-11.2-5.5-12.7-1-22.9-10.5-25-22.9-.3-1.6.7-3.1 2.4-3.5q6.2-1.3 12.5-2.2v-3.5c0-1.5 1.1-2.8 2.7-3zm-2.7 12.7q-4.1.6-8.2 1.4c1.9 5.8 6.2 10.6 11.7 13.1-2.2-4-3.5-8.6-3.5-13.5zm51.6 14.5c5.6-2.4 9.9-7.2 11.7-13.1q-4.1-.8-8.2-1.4v1.1c0 4.9-1.3 9.5-3.5 13.4z"/><path class="b" d="M1586 802c0-27.6 22.4-50 50-50h630c27.6 0 50 22.4 50 50v325c0 27.6-22.4 50-50 50h-630c-27.6 0-50-22.4-50-50z"/><path class="c" d="M1588.5 802c0-26.2 21.3-47.5 47.5-47.5h630c26.2 0 47.5 21.3 47.5 47.5v325c0 26.2-21.3 47.5-47.5 47.5h-630c-26.2 0-47.5-21.3-47.5-47.5z"/><path fill-rule="evenodd" class="d" d="M1764.3 1075.4q-4.6 0-8.4-2.1-3.7-2-5.8-5.6-2.1-3.6-2.1-8.1t2.1-8.1q2.1-3.6 5.9-5.6 3.7-2.1 8.3-2.1 3.7 0 6.6 1.3 3 1.2 5.1 3.5l-2.8 2.8q-3.5-3.6-8.7-3.6-3.4 0-6.2 1.5-2.8 1.5-4.3 4.3-1.6 2.7-1.6 6t1.6 6.1q1.5 2.7 4.3 4.2t6.2 1.5q5.2 0 8.7-3.7l2.8 2.8q-2.1 2.4-5.1 3.6-3 1.3-6.6 1.3zm46.6-.4-.1-22.4-11.1 18.7h-2l-11.1-18.6v22.3h-4.3v-30.8h3.6l12.9 21.6 12.7-21.6h3.6v30.8zm22.4.4q-3.4 0-6.7-1.1-3.2-1.1-5-2.8l1.6-3.5q1.7 1.6 4.5 2.6 2.7 1 5.6 1 3.9 0 5.8-1.3t1.9-3.4q0-1.6-1.1-2.6-1-1-2.5-1.5-1.5-.6-4.3-1.2-3.5-.9-5.6-1.7-2.2-.8-3.7-2.5-1.5-1.8-1.5-4.8 0-2.4 1.3-4.4 1.3-2 3.9-3.2 2.7-1.2 6.6-1.2 2.7 0 5.4.8 2.6.7 4.5 2l-1.5 3.5q-1.9-1.2-4.1-1.9-2.2-.6-4.3-.6-3.7 0-5.6 1.4-1.9 1.3-1.9 3.5 0 1.6 1.1 2.6 1 .9 2.6 1.5 1.6.5 4.2 1.2 3.5.8 5.6 1.6 2.1.9 3.6 2.6 1.6 1.7 1.6 4.6 0 2.4-1.3 4.4-1.4 2-4.1 3.2-2.6 1.2-6.6 1.2zm58.8-.4-.1-22.4-11.1 18.7h-2l-11.2-18.6v22.3h-4.2v-30.8h3.6l12.9 21.6 12.6-21.6h3.7v30.8zm21.3-23.5q4.9 0 7.4 2.3 2.6 2.4 2.6 7.1v14.1h-4v-3.1q-1 1.6-3 2.5-1.9.9-4.6.9-3.9 0-6.3-1.9t-2.4-5q0-3.1 2.3-4.9 2.2-1.9 7.1-1.9h6.7v-.9q0-2.7-1.6-4.1-1.6-1.5-4.6-1.5-2.1 0-4.1.7-2 .7-3.3 1.8l-1.8-3.1q1.8-1.5 4.3-2.2 2.5-.8 5.3-.8zm-.9 20.5q2.4 0 4.2-1 1.7-1.1 2.5-3.1v-3.3h-6.5q-5.4 0-5.4 3.6 0 1.8 1.4 2.8 1.4 1 3.8 1zm22.8-16.4q1.1-2 3.3-3.1 2.1-1 5.2-1v4.1q-.4-.1-1-.1-3.4 0-5.4 2.1-1.9 2-1.9 5.8v11.6h-4.3v-23.3h4.1zm22.8 8.5-4.9 4.5v6.4h-4.2v-32.7h4.2v21l12.7-11.6h5.1l-9.8 9.6 10.8 13.7h-5.2zm38.1-.7q.1.5 0 1.3h-19q.4 3.1 2.7 5 2.4 1.8 5.8 1.8 4.2 0 6.7-2.8l2.4 2.7q-1.6 1.9-4 2.8-2.3 1-5.2 1-3.7 0-6.6-1.5-2.9-1.5-4.4-4.2-1.6-2.8-1.6-6.2 0-3.4 1.5-6.1 1.6-2.8 4.2-4.2 2.7-1.6 6-1.6 3.4 0 6 1.6 2.6 1.4 4.1 4.2 1.5 2.7 1.4 6.2zm-11.5-8.4q-3 0-5.1 1.8-2 1.9-2.4 4.9h15q-.3-3-2.4-4.8-2-1.9-5.1-1.9zm30.5 18.6q-.9.8-2.3 1.2-1.3.4-2.8.4-3.5 0-5.4-1.9-2-1.9-2-5.4v-12.8h-3.9v-3.5h3.9v-5.1h4.3v5.1h6.6v3.5h-6.6v12.6q0 1.9.9 2.9.9 1.1 2.7 1.1 1.9 0 3.3-1.1zm26.5 1.7q-3.5 0-6.7-1.1t-5.1-2.8l1.7-3.4q1.7 1.5 4.4 2.6 2.8.9 5.7.9 3.9 0 5.7-1.2 1.9-1.4 1.9-3.5 0-1.6-1-2.6t-2.6-1.5q-1.5-.5-4.2-1.2-3.5-.8-5.7-1.7-2.1-.8-3.6-2.5-1.5-1.8-1.5-4.7 0-2.5 1.3-4.5t3.9-3.1q2.7-1.2 6.6-1.2 2.7 0 5.3.7 2.7.7 4.6 2l-1.5 3.5q-1.9-1.2-4.1-1.8-2.2-.7-4.3-.7-3.8 0-5.7 1.4-1.8 1.3-1.8 3.5 0 1.6 1 2.6 1.1 1 2.6 1.5 1.6.6 4.3 1.2 3.5.8 5.6 1.6 2.1.9 3.6 2.6 1.5 1.7 1.5 4.6 0 2.4-1.3 4.5-1.3 1.9-4 3.1-2.7 1.2-6.6 1.2zm30.2-23.9q4.5 0 7.1 2.6 2.6 2.5 2.6 7.5v13.4h-4.2V1062q0-3.4-1.7-5.1-1.6-1.7-4.6-1.7-3.5 0-5.4 2-2 2-2 5.7v12h-4.2v-32.6h4.2v12.6q1.3-1.7 3.4-2.6 2.2-.9 4.8-.9zm26 0q4.8 0 7.4 2.4 2.6 2.3 2.6 7v14.1h-4v-3.1q-1.1 1.7-3.1 2.5-1.9.9-4.6.9-3.9 0-6.3-1.9-2.3-1.9-2.3-5t2.2-4.9q2.3-1.9 7.2-1.9h6.7v-.8q0-2.8-1.6-4.2-1.6-1.5-4.7-1.5-2.1 0-4 .7-2 .7-3.4 1.8l-1.7-3.1q1.8-1.5 4.3-2.2 2.5-.8 5.3-.8zm-1 20.5q2.5 0 4.2-1 1.8-1.1 2.6-3.1v-3.3h-6.5q-5.4 0-5.4 3.6 0 1.8 1.3 2.8 1.4 1 3.8 1zm22.9-16.4q1.1-2 3.2-3.1 2.2-1 5.2-1v4.1q-.3-.1-.9-.1-3.5 0-5.4 2.1-2 2-2 5.8v11.6h-4.2v-23.3h4.1zm34.5 7.9q0 .5-.1 1.2h-18.9q.4 3.1 2.7 5 2.3 1.9 5.8 1.9 4.1 0 6.7-2.8l2.3 2.7q-1.6 1.8-3.9 2.8-2.4 1-5.3 1-3.7 0-6.5-1.5-2.9-1.6-4.5-4.3-1.5-2.7-1.5-6.2 0-3.3 1.5-6.1 1.5-2.7 4.2-4.2 2.6-1.5 6-1.5 3.3 0 5.9 1.5 2.7 1.5 4.1 4.2 1.5 2.8 1.5 6.3zm-11.5-8.5q-3.1 0-5.1 1.9-2 1.8-2.4 4.8h15q-.4-2.9-2.5-4.8-2-1.9-5-1.9zM1801.4 907.1q10.1 0 18.3 4.1 8.3 4 13.1 11.5 4.8 7.4 4.8 17.1 0 10.6-5.3 18.5-5.2 8-14.4 12.3-9 4.2-20.1 4.2-22 0-34.5-13.5-12.4-13.5-12.4-38.6 0-17.8 6.7-30.6 6.8-12.7 18.8-19.3 12.1-6.6 28-6.6 8.4 0 16.1 1.9 7.8 1.9 13.2 5.3l-9 17.8q-7.8-5.2-19.7-5.2-13.3 0-21.1 7.8-7.8 7.8-8.4 22.7 9.3-9.4 25.9-9.4zm-4.9 49.5q7.8 0 12.6-4.1 4.9-4.3 4.9-11.5 0-7.1-4.9-11.4-4.8-4.3-12.9-4.3-8 0-13.1 4.5-5.1 4.4-5.1 11.2 0 6.9 5 11.3 4.9 4.4 13.5 4.3zm85.9-49.1q22.2 0 32.7 8.8 10.7 8.9 10.7 23.7 0 9.6-4.8 17.5t-14.7 12.6q-9.8 4.7-24.2 4.7-11.1 0-21.9-2.8-10.6-3-18.1-8.5l9.6-18.5q6 4.5 13.8 7 7.8 2.4 16 2.4 9.2 0 14.4-3.6 5.3-3.6 5.3-10.1 0-6.7-5.6-10.2-5.4-3.4-18.9-3.4h-26.8l5.4-59.1h64v19.5h-43.8l-1.6 20zm67 66.7q-6.2 0-10.4-4.2t-4.2-10.5q0-6.4 4.2-10.4t10.4-4q6.1 0 10.3 4 4.2 4 4.2 10.4 0 6.3-4.2 10.5t-10.3 4.2zM2013 868v105h-24.3v-85.5h-21V868zm42.5 56.7q-11.5 0-18.9-7.8-7.2-8-7.2-21.2 0-13.1 7.2-21 7.4-7.9 18.9-7.9 11.6 0 18.8 7.9 7.2 7.9 7.2 21 0 13.2-7.2 21.2-7.2 7.8-18.8 7.8zm62.6-56.7h17.8l-71.7 105h-17.8zm-62.6 44.4q5.1 0 8-4.2 3-4.2 3-12.5 0-8.2-3-12.4-2.9-4.2-8-4.2-4.9 0-7.9 4.4-3 4.2-3 12.2 0 8.1 3 12.5 3 4.2 7.9 4.2zm71.3 61.8q-7.5 0-13.5-3.5-5.9-3.5-9.2-10.2-3.3-6.6-3.3-15.3 0-8.6 3.3-15.2 3.3-6.7 9.2-10.1 6-3.6 13.5-3.6 11.5 0 18.7 7.9 7.4 7.9 7.4 21 0 13.2-7.4 21.2-7.2 7.8-18.7 7.8zm0-12.3q5.1 0 7.9-4.2 3-4.4 3-12.5 0-8-3-12.2-2.8-4.4-7.9-4.4-5 0-8 4.2t-3 12.4q0 8.3 3 12.5 3 4.2 8 4.2z"/><path class="e" d="M1953 647v105"/><path class="f" d="M1950.7 647.5c-47.9 0-86.7-38.8-86.7-86.8 0-47.9 38.8-86.7 86.7-86.7 48 0 86.8 38.8 86.8 86.7 0 48-38.8 86.8-86.8 86.8z"/><path class="g" d="M1950.7 645.5c-46.8 0-84.7-37.9-84.7-84.8 0-46.8 37.9-84.7 84.7-84.7 46.9 0 84.8 37.9 84.8 84.7 0 46.9-37.9 84.8-84.8 84.8z"/><path fill-rule="evenodd" class="d" d="M1925.8 519.7q12.2-1.6 24.9-1.6 12.6 0 24.8 1.6c1.6.2 2.7 1.5 2.7 3v3.5q6.4.9 12.6 2.2c1.6.4 2.6 1.9 2.3 3.5-2 12.4-12.3 21.9-25 22.9-3.2 2.6-7 4.5-11.2 5.5.4 4.8 2 9.2 4.5 12.9h3c4.3 0 7.7 3.5 7.7 7.7v10.7h3.1c5 0 9.1 4.1 9.1 9.2 0 1.7-1.3 3.1-3 3.1H1920c-1.7 0-3-1.4-3-3.1 0-5.1 4.1-9.2 9.2-9.2h3v-10.7c0-4.2 3.4-7.7 7.7-7.7h3c2.5-3.7 4.1-8.1 4.5-12.9-4.1-1-8-2.9-11.2-5.5-12.7-1-22.9-10.5-25-22.9-.3-1.6.7-3.1 2.4-3.5q6.2-1.3 12.5-2.2v-3.5c0-1.5 1.1-2.8 2.7-3zm-2.7 12.7q-4.1.6-8.2 1.4c1.9 5.8 6.2 10.6 11.7 13.1-2.2-4-3.5-8.6-3.5-13.5zm51.6 14.5c5.6-2.4 9.9-7.2 11.7-13.1q-4.1-.8-8.2-1.4v1.1c0 4.9-1.3 9.5-3.5 13.4z"/><path class="b" d="M683 1850c0-27.6 22.4-50 50-50h630c27.6 0 50 22.4 50 50v400c0 27.6-22.4 50-50 50H733c-27.6 0-50-22.4-50-50z"/><path class="c" d="M685.5 1850c0-26.2 21.3-47.5 47.5-47.5h630c26.2 0 47.5 21.3 47.5 47.5v400c0 26.2-21.3 47.5-47.5 47.5H733c-26.2 0-47.5-21.3-47.5-47.5z"/><path fill-rule="evenodd" class="d" d="M894.2 2101h-10.6v-3.8h25.5v3.8h-10.6v27h-4.3zm26.6 27.2q-3.4 0-6.2-1.5-2.8-1.5-4.4-4.2-1.5-2.8-1.5-6.2 0-3.4 1.5-6.1 1.6-2.7 4.4-4.2 2.8-1.6 6.2-1.6 3.5 0 6.2 1.6 2.8 1.5 4.3 4.2 1.6 2.7 1.6 6.1 0 3.4-1.6 6.2-1.5 2.7-4.3 4.2-2.7 1.5-6.2 1.5zm0-3.7q2.3 0 4-1 1.8-1 2.8-2.9 1.1-1.9 1.1-4.3t-1.1-4.3q-1-1.8-2.8-2.9-1.7-1-4-1-2.2 0-4 1-1.8 1.1-2.8 2.9-1 1.9-1 4.3t1 4.3q1 1.9 2.8 2.9 1.8 1 4 1zm30.3-20.1q3.4 0 6.1 1.5 2.7 1.5 4.2 4.2t1.5 6.2q0 3.5-1.5 6.3-1.5 2.6-4.2 4.1-2.7 1.5-6.1 1.5-2.5 0-4.6-.9-2.1-1-3.5-2.8v12h-4.2v-31.8h4v3.6q1.4-1.9 3.6-2.9 2.1-1 4.7-1zm-.3 20.1q2.2 0 4-1 1.8-1 2.8-2.9 1.1-1.9 1.1-4.3t-1.1-4.3q-1-1.8-2.8-2.9-1.8-1-4-1t-4 1.1q-1.8 1-2.8 2.8-1.1 1.9-1.1 4.3t1.1 4.3q1 1.9 2.8 2.9 1.8 1 4 1zm37.4-27.3v30.8h-4.3v-27h-7v-3.8zm19.3 31.1q-3.6 0-6.5-1.8-2.8-1.9-4.4-5.5-1.6-3.5-1.6-8.4t1.6-8.5q1.6-3.5 4.4-5.4 2.9-1.9 6.5-1.9 3.7 0 6.5 1.9t4.5 5.4q1.6 3.6 1.6 8.5t-1.6 8.4q-1.7 3.6-4.5 5.5-2.8 1.8-6.5 1.8zm0-3.9q3.7 0 5.9-3 2.3-3.1 2.3-8.8 0-5.8-2.3-8.8-2.2-3.1-5.9-3.1t-5.9 3.1q-2.2 3-2.2 8.8 0 5.7 2.2 8.8 2.2 3 5.9 3zm29.4 3.9q-3.7 0-6.5-1.8-2.8-1.9-4.5-5.5-1.6-3.5-1.6-8.4t1.6-8.5q1.7-3.5 4.5-5.4 2.8-1.9 6.5-1.9 3.6 0 6.4 1.9 2.9 1.9 4.5 5.4 1.6 3.6 1.6 8.5t-1.6 8.4q-1.6 3.6-4.5 5.5-2.8 1.8-6.4 1.8zm0-3.9q3.7 0 5.9-3 2.2-3.1 2.2-8.8 0-5.8-2.2-8.8-2.2-3.1-5.9-3.1t-6 3.1q-2.2 3-2.2 8.8 0 5.7 2.2 8.8 2.3 3 6 3zm29.3 3.9q-3.6 0-6.5-1.8-2.8-1.9-4.4-5.5-1.6-3.5-1.6-8.4t1.6-8.5q1.6-3.5 4.4-5.4 2.9-1.9 6.5-1.9 3.7 0 6.5 1.9t4.5 5.4q1.6 3.6 1.6 8.5t-1.6 8.4q-1.7 3.6-4.5 5.5-2.8 1.8-6.5 1.8zm0-3.9q3.7 0 5.9-3 2.3-3.1 2.3-8.8 0-5.8-2.3-8.8-2.2-3.1-5.9-3.1t-5.9 3.1q-2.2 3-2.2 8.8 0 5.7 2.2 8.8 2.2 3 5.9 3zm40.1 3.9q-3.5 0-6.7-1-3.2-1.1-5.1-2.8l1.6-3.5q1.8 1.6 4.5 2.6 2.8 1 5.7 1 3.8 0 5.7-1.3 1.9-1.3 1.9-3.5 0-1.6-1-2.5-1-1-2.6-1.6-1.5-.5-4.3-1.1-3.4-.9-5.6-1.7-2.1-.9-3.6-2.6-1.5-1.7-1.5-4.7 0-2.4 1.2-4.4 1.4-2 4-3.2 2.6-1.2 6.6-1.2 2.7 0 5.3.7 2.7.7 4.6 2l-1.5 3.6q-1.9-1.3-4.1-1.9-2.2-.6-4.3-.6-3.8 0-5.7 1.3-1.8 1.4-1.8 3.5 0 1.6 1 2.6 1.1 1 2.6 1.6 1.6.5 4.3 1.1 3.5.9 5.6 1.7 2.1.8 3.6 2.5 1.5 1.8 1.5 4.7 0 2.4-1.3 4.4-1.3 2-4 3.2-2.7 1.1-6.6 1.1zm17.7-23.6h4.3v23.3h-4.3zm2.2-4.5q-1.3 0-2.1-.8t-.8-1.9q0-1.2.8-2t2.1-.8q1.2 0 2 .8.8.7.8 1.9t-.8 2q-.8.8-2 .8zm23.2 26.4q-.9.8-2.2 1.3-1.4.4-2.9.4-3.5 0-5.4-1.9-2-1.9-2-5.4v-12.9h-3.9v-3.4h3.9v-5.1h4.3v5.1h6.7v3.4h-6.7v12.7q0 1.9.9 2.9 1 1 2.7 1 2 0 3.3-1.1zm25.4-10.2q0 .5-.1 1.3h-18.9q.4 3.1 2.7 5 2.3 1.8 5.8 1.8 4.2 0 6.7-2.8l2.3 2.7q-1.5 1.9-3.9 2.9-2.4.9-5.3.9-3.7 0-6.5-1.5-2.9-1.5-4.5-4.2-1.5-2.8-1.5-6.2 0-3.4 1.5-6.1 1.5-2.7 4.2-4.2 2.7-1.6 6-1.6 3.4 0 5.9 1.6 2.7 1.5 4.1 4.2 1.5 2.7 1.5 6.2zm-11.5-8.4q-3 0-5.1 1.8-2 1.9-2.4 4.9h15q-.4-3-2.4-4.8-2.1-1.9-5.1-1.9zm24.1 20.2q-2.9 0-5.5-.7-2.7-.8-4.1-2l1.7-3.4q1.6 1.1 3.8 1.8 2.2.7 4.4.7 5.5 0 5.5-3.2 0-1.1-.7-1.7-.8-.6-1.9-.9-1.1-.3-3.2-.6-2.8-.5-4.6-1-1.8-.6-3-2-1.3-1.3-1.3-3.8 0-3.2 2.6-5 2.7-2 7.1-2 2.4 0 4.7.6 2.3.6 3.8 1.5l-1.8 3.4q-2.8-1.9-6.7-1.9-2.7 0-4.1.9-1.4.9-1.4 2.3 0 1.2.8 1.8.8.7 1.9 1 1.2.3 3.3.7 2.8.5 4.5 1.1 1.8.5 3 1.8 1.3 1.3 1.3 3.7 0 3.2-2.8 5.1-2.6 1.8-7.3 1.8zm-382.6 35q6 0 9.4 2.8 3.5 2.9 3.5 7.9t-3.5 7.9q-3.4 2.8-9.4 2.8h-7.6v9.4h-4.4v-30.8zm-.1 17.6q4.2 0 6.4-1.8t2.2-5.1q0-3.4-2.2-5.1-2.2-1.8-6.4-1.8h-7.5v13.8zm28.7 13.4q-3.4 0-6.2-1.5-2.8-1.6-4.4-4.2-1.5-2.8-1.5-6.2 0-3.4 1.5-6.1 1.6-2.7 4.4-4.2 2.8-1.6 6.2-1.6 3.5 0 6.2 1.6 2.8 1.5 4.3 4.2 1.6 2.7 1.6 6.1 0 3.4-1.6 6.2-1.5 2.6-4.3 4.2-2.7 1.5-6.2 1.5zm0-3.7q2.3 0 4-1 1.8-1 2.9-2.9 1-1.9 1-4.3t-1-4.3q-1.1-1.9-2.9-2.9-1.7-1-4-1-2.2 0-4 1-1.8 1-2.8 2.9-1 1.9-1 4.3t1 4.3q1 1.9 2.8 2.9 1.8 1 4 1zm52.6-19.9-8.7 23.4h-4l-6.8-17.7-6.8 17.7h-4l-8.7-23.4h4l6.8 18.6 7-18.6h3.6l6.9 18.7 6.9-18.7zm24.7 11.8v1.3h-19q.4 3.1 2.7 5 2.4 1.8 5.8 1.8 4.2 0 6.7-2.8l2.4 2.7q-1.6 1.9-4 2.9-2.3.9-5.2.9-3.7 0-6.6-1.5-2.9-1.5-4.4-4.2-1.6-2.8-1.6-6.2 0-3.4 1.5-6.1 1.6-2.7 4.2-4.2 2.7-1.6 6-1.6 3.4 0 6 1.6 2.6 1.5 4.1 4.2 1.4 2.7 1.4 6.2zm-11.5-8.4q-3 0-5.1 1.8-2 1.9-2.4 4.9h15q-.4-3-2.4-4.8-2-1.9-5.1-1.9zm21.5.6q1.1-2.1 3.2-3.1 2.2-1.1 5.3-1.1v4.1h-1q-3.4 0-5.4 2-2 2.1-2 5.8v11.7h-4.2v-23.4h4.1zm34.5 7.9q0 .5-.1 1.3h-18.9q.4 3.1 2.7 5 2.3 1.8 5.8 1.8 4.1 0 6.7-2.8l2.3 2.7q-1.6 1.9-3.9 2.8-2.4 1-5.3 1-3.7 0-6.5-1.5-2.9-1.5-4.5-4.3-1.5-2.7-1.5-6.1 0-3.4 1.5-6.1 1.5-2.8 4.2-4.3t6-1.5q3.3 0 5.9 1.5 2.7 1.5 4.1 4.3 1.5 2.7 1.5 6.2zm-11.5-8.4q-3 0-5.1 1.8-2 1.9-2.4 4.9h15q-.4-3-2.4-4.8-2.1-1.9-5.1-1.9zm39.4-12.7v32.6H979v-3.7q-1.4 2-3.5 3-2.2 1-4.8 1-3.4 0-6-1.5-2.7-1.5-4.3-4.2-1.5-2.7-1.5-6.2t1.5-6.2q1.6-2.7 4.3-4.2 2.6-1.5 6-1.5 2.5 0 4.6 1 2.2.9 3.6 2.7v-12.8zm-12 29.2q2.2 0 4-1 1.8-1.1 2.8-2.9 1-1.9 1-4.3t-1-4.3q-1-1.9-2.8-2.9-1.8-1-4-1-2.3 0-4.1 1-1.8 1-2.8 2.9-1 1.9-1 4.3t1 4.3q1 1.8 2.8 2.9 1.8 1 4.1 1zm44.1-20.1q3.4 0 6.1 1.5 2.7 1.5 4.2 4.2t1.5 6.2q0 3.5-1.5 6.2t-4.2 4.2q-2.7 1.5-6.1 1.5-2.6 0-4.7-1-2.2-1-3.6-3v3.7h-4v-32.6h4.2v12.8q1.4-1.8 3.5-2.7 2.1-1 4.6-1zm-.3 20.1q2.2 0 4-1 1.8-1.1 2.8-2.9 1.1-1.9 1.1-4.3t-1.1-4.3q-1-1.9-2.8-2.9-1.8-1-4-1t-4 1q-1.8 1-2.8 2.9-1 1.9-1 4.3t1 4.3q1 1.8 2.8 2.9 1.8 1 4 1zm38-19.9-11.4 25.7q-1.4 3.5-3.5 5-2 1.4-4.8 1.4-1.7 0-3.3-.5-1.6-.6-2.7-1.6l1.9-3.2q1.8 1.7 4.1 1.7 1.6 0 2.6-.8t1.9-2.8l.7-1.6-10.3-23.3h4.4l8.2 18.7 8-18.7zm59.9-7.5-10.3 30.8h-4.6l-8.4-24.6-8.4 24.6h-4.7l-10.3-30.8h4.5l8.3 25.1 8.7-25.1h4l8.5 25.2 8.5-25.2zm13 31.1q-3.5 0-6.2-1.5-2.8-1.6-4.4-4.3-1.5-2.7-1.5-6.1 0-3.5 1.5-6.1 1.6-2.8 4.4-4.3 2.7-1.5 6.2-1.5t6.2 1.5q2.8 1.5 4.3 4.3 1.6 2.6 1.6 6.1 0 3.4-1.6 6.1-1.5 2.7-4.3 4.3-2.7 1.5-6.2 1.5zm0-3.7q2.3 0 4-1 1.8-1.1 2.8-2.9 1.1-1.9 1.1-4.3t-1.1-4.3q-1-1.9-2.8-2.9-1.7-1-4-1-2.2 0-4 1-1.8 1-2.8 2.9-1.1 1.9-1.1 4.3t1.1 4.3q1 1.8 2.8 2.9 1.8 1 4 1zm22-16q1.1-2 3.3-3 2.1-1.1 5.2-1.1v4.1q-.3-.1-1-.1-3.4 0-5.4 2.1-1.9 2-1.9 5.8v11.6h-4.2v-23.3h4zm35.5-13.2v32.6h-4.1v-3.7q-1.4 2-3.5 3-2.2 1-4.8 1-3.4 0-6-1.5-2.7-1.5-4.3-4.2-1.5-2.7-1.5-6.2 0-3.6 1.5-6.2 1.6-2.7 4.3-4.2 2.6-1.5 6-1.5 2.5 0 4.7 1 2.1.9 3.5 2.7v-12.8zm-12 29.2q2.2 0 4-1 1.8-1.1 2.8-2.9 1-1.9 1-4.3 0-2.5-1-4.3-1-1.9-2.8-2.9-1.8-1-4-1-2.3 0-4.1 1-1.7 1-2.8 2.9-1 1.8-1 4.3 0 2.4 1 4.3 1.1 1.8 2.8 2.9 1.8 1 4.1 1zm32.3-20.1q3.4 0 6.1 1.5 2.7 1.5 4.2 4.2 1.5 2.6 1.5 6.2 0 3.5-1.5 6.2t-4.2 4.2q-2.7 1.5-6.1 1.5-2.5 0-4.6-1-2.1-.9-3.5-2.8v12.1h-4.2v-31.9h4v3.7q1.4-1.9 3.6-2.9 2.1-1 4.7-1zm-.3 20.1q2.2 0 4-1 1.8-1.1 2.8-2.9 1.1-1.9 1.1-4.3 0-2.5-1.1-4.3-1-1.9-2.8-2.9-1.8-1-4-1t-4 1q-1.8 1-2.8 2.9-1.1 1.8-1.1 4.3 0 2.4 1.1 4.3 1 1.8 2.8 2.9 1.8 1 4 1zm22-16q1.1-2 3.3-3.1 2.1-1 5.2-1v4.1q-.4-.1-1-.1-3.4 0-5.4 2.1-1.9 2-1.9 5.8v11.6h-4.2v-23.3h4zm34.6 7.9q0 .5-.1 1.3h-18.9q.4 3 2.6 4.9 2.4 1.9 5.8 1.9 4.2 0 6.7-2.8l2.4 2.7q-1.6 1.8-4 2.8-2.3 1-5.2 1-3.7 0-6.6-1.5-2.8-1.6-4.4-4.3-1.6-2.7-1.6-6.2 0-3.3 1.5-6.1 1.6-2.7 4.2-4.2 2.7-1.5 6-1.5 3.4 0 6 1.5t4.1 4.2q1.5 2.8 1.5 6.3zm-11.6-8.5q-3 0-5.1 1.9-2 1.8-2.3 4.8h14.9q-.3-2.9-2.4-4.8-2-1.9-5.1-1.9zm24.1 20.3q-2.8 0-5.5-.8-2.6-.8-4.1-2l1.7-3.3q1.6 1.1 3.8 1.8 2.2.6 4.4.6 5.6 0 5.6-3.1 0-1.1-.8-1.7-.7-.6-1.9-.9-1.1-.3-3.1-.7-2.9-.4-4.7-1-1.7-.5-3-1.9t-1.3-3.8q0-3.2 2.7-5.1 2.6-1.9 7.1-1.9 2.3 0 4.6.5 2.3.6 3.8 1.6l-1.8 3.3q-2.8-1.8-6.7-1.8-2.7 0-4.1.9-1.4.8-1.4 2.3 0 1.1.8 1.8t1.9 1q1.2.3 3.3.7 2.9.4 4.6 1 1.7.5 3 1.9 1.2 1.3 1.2 3.7 0 3.1-2.7 5t-7.4 1.9zm22.1 0q-2.9 0-5.5-.8-2.7-.8-4.2-2l1.8-3.3q1.5 1.1 3.7 1.8 2.2.6 4.5.6 5.5 0 5.5-3.1 0-1.1-.7-1.7-.8-.6-1.9-.9-1.1-.3-3.2-.7-2.8-.4-4.6-1-1.8-.5-3.1-1.9-1.2-1.4-1.2-3.8 0-3.2 2.6-5.1 2.7-1.9 7.1-1.9 2.3 0 4.7.5 2.3.6 3.8 1.6l-1.8 3.3q-2.9-1.8-6.7-1.8-2.7 0-4.1.9-1.4.8-1.4 2.3 0 1.1.7 1.8.8.7 2 1 1.2.3 3.3.7 2.8.4 4.5 1 1.8.5 3 1.9 1.2 1.3 1.2 3.7 0 3.1-2.7 5t-7.3 1.9zM878.8 1958.8q13.8 2.2 21.1 10.3 7.4 8 7.4 19.8 0 9.2-4.8 16.9-4.8 7.7-14.7 12.4-9.8 4.6-24 4.6-11.1 0-21.9-2.9-10.7-2.9-18.2-8.3l9.5-18.6q6 4.5 13.8 7 7.9 2.4 16.2 2.4 9.1 0 14.4-3.4 5.2-3.7 5.2-10.1 0-12.9-19.6-12.9h-11.1v-16l21.6-24.5H829V1916h73.5v15.8zm84.7 64q-13.1 0-23.3-6.5-10.2-6.4-16-18.5-5.7-12.4-5.7-29.3t5.7-29.1q5.8-12.3 16-18.7 10.2-6.5 23.3-6.5 13 0 23.2 6.5 10.2 6.4 15.9 18.7 5.9 12.2 5.9 29.1 0 16.9-5.9 29.3-5.7 12.1-15.9 18.5-10.2 6.5-23.2 6.5zm0-20.5q9.6 0 15-8.3 5.5-8.2 5.5-25.5 0-17.2-5.5-25.5-5.4-8.2-15-8.2-9.5 0-15 8.2-5.4 8.3-5.4 25.5 0 17.3 5.4 25.5 5.5 8.3 15 8.3zm68.7 19.9q-6.1 0-10.3-4.2-4.2-4.2-4.2-10.5 0-6.5 4.2-10.3 4.2-4.1 10.3-4.1 6.2 0 10.4 4.1 4.2 3.8 4.2 10.3 0 6.3-4.2 10.5t-10.4 4.2zm76-63.4q13.8 2.2 21.1 10.3 7.4 8 7.4 19.8 0 9.2-4.8 16.9-4.8 7.7-14.7 12.4-9.8 4.6-24 4.6-11.1 0-21.9-2.9-10.7-2.9-18.2-8.3l9.5-18.6q6 4.5 13.8 7 7.9 2.4 16.2 2.4 9.1 0 14.4-3.4 5.2-3.7 5.2-10.1 0-12.9-19.6-12.9h-11.1v-16l21.6-24.5h-44.7V1916h73.5v15.8zm62.5 13.9q-11.5 0-18.9-7.8-7.2-8-7.2-21.1 0-13.2 7.2-21 7.4-8 18.9-8 11.6 0 18.8 8 7.2 7.8 7.2 21 0 13.1-7.2 21.1-7.2 7.8-18.8 7.8zm62.6-56.7h17.8l-71.7 105h-17.8zm-62.6 44.4q5.1 0 8-4.2 3-4.2 3-12.4 0-8.3-3-12.5-2.9-4.2-8-4.2-4.9 0-7.9 4.4-3 4.1-3 12.3 0 8.1 3 12.4 3 4.2 7.9 4.2zm71.3 61.8q-7.5 0-13.5-3.4-5.9-3.7-9.2-10.2-3.3-6.6-3.3-15.3 0-8.7 3.3-15.3 3.3-6.7 9.2-10.1 6-3.6 13.5-3.6 11.5 0 18.7 8 7.4 7.8 7.4 21 0 13.1-7.4 21.1-7.2 7.8-18.7 7.8zm0-12.3q5.1 0 7.9-4.2 3-4.3 3-12.4 0-8.2-3-12.3-2.8-4.4-7.9-4.4-5 0-8 4.2t-3 12.5q0 8.2 3 12.4 3 4.2 8 4.2z"/><path class="e" d="M1050 1695v105"/><path class="f" d="M1047.7 1695.5c-47.9 0-86.7-38.8-86.7-86.8 0-47.9 38.8-86.7 86.7-86.7 48 0 86.8 38.8 86.8 86.7 0 48-38.8 86.8-86.8 86.8z"/><path class="g" d="M1047.7 1693.5c-46.8 0-84.7-37.9-84.7-84.8 0-46.8 37.9-84.7 84.7-84.7 46.9 0 84.8 37.9 84.8 84.7 0 46.9-37.9 84.8-84.8 84.8z"/><path fill-rule="evenodd" class="d" d="M1022.8 1567.7q12.2-1.6 24.9-1.6 12.6 0 24.8 1.6c1.6.2 2.7 1.5 2.7 3v3.5q6.4.9 12.6 2.2c1.6.4 2.6 1.9 2.3 3.5-2 12.4-12.3 21.9-25 22.9-3.2 2.6-7 4.5-11.2 5.5.4 4.8 2 9.2 4.5 12.9h3c4.3 0 7.7 3.5 7.7 7.7v10.7h3.1c5 0 9.1 4.1 9.1 9.2 0 1.7-1.3 3.1-3 3.1H1017c-1.7 0-3-1.4-3-3.1 0-5.1 4.1-9.2 9.2-9.2h3v-10.7c0-4.2 3.4-7.7 7.7-7.7h3c2.5-3.7 4.1-8.1 4.5-12.9-4.1-1-8-2.9-11.2-5.5-12.7-1-22.9-10.5-25-22.9-.3-1.6.7-3.1 2.4-3.5q6.2-1.3 12.5-2.2v-3.5c0-1.5 1.1-2.8 2.7-3zm-2.7 12.7q-4.1.6-8.2 1.4c1.9 5.8 6.2 10.6 11.7 13.1-2.2-4-3.5-8.6-3.5-13.5zm51.6 14.5c5.6-2.4 9.9-7.2 11.7-13.1q-4.1-.8-8.2-1.4v1.1c0 4.9-1.3 9.5-3.5 13.4z"/><path class="b" d="M2036 1608c0-27.6 22.4-50 50-50h630c27.6 0 50 22.4 50 50v325c0 27.6-22.4 50-50 50h-630c-27.6 0-50-22.4-50-50z"/><path class="c" d="M2038.5 1608c0-26.2 21.3-47.5 47.5-47.5h630c26.2 0 47.5 21.3 47.5 47.5v325c0 26.2-21.3 47.5-47.5 47.5h-630c-26.2 0-47.5-21.3-47.5-47.5z"/><path fill-rule="evenodd" class="d" d="m2237.9 1850.2-10.3 30.8h-4.6l-8.4-24.6-8.4 24.6h-4.7l-10.3-30.8h4.5l8.4 25 8.6-25h4.1l8.5 25.2 8.5-25.2zm13 31.1q-3.5 0-6.3-1.6-2.8-1.5-4.3-4.2-1.6-2.7-1.6-6.2 0-3.4 1.6-6.1 1.5-2.7 4.3-4.2t6.3-1.5q3.4 0 6.2 1.5 2.7 1.5 4.3 4.2 1.6 2.7 1.6 6.1 0 3.5-1.6 6.2t-4.3 4.2q-2.8 1.6-6.2 1.6zm0-3.7q2.2 0 4-1 1.8-1.1 2.8-2.9 1-1.9 1-4.4 0-2.4-1-4.2-1-1.9-2.8-2.9-1.8-1-4-1-2.3 0-4.1 1-1.8 1-2.8 2.9-1 1.8-1 4.2 0 2.5 1 4.4 1 1.8 2.8 2.9 1.8 1 4.1 1zm21.9-16q1.1-2 3.3-3.1 2.2-1 5.2-1v4.1q-.3-.1-.9-.1-3.5 0-5.4 2.1-2 2-2 5.8v11.6h-4.2v-23.3h4zm35.5-13.3v32.7h-4v-3.7q-1.4 1.9-3.6 2.9-2.1 1-4.7 1-3.4 0-6.1-1.4-2.7-1.5-4.2-4.2-1.5-2.8-1.5-6.3t1.5-6.2q1.5-2.7 4.2-4.2t6.1-1.5q2.5 0 4.6 1 2.1.9 3.5 2.8v-12.9zm-12 29.3q2.2 0 4-1.1 1.8-1 2.8-2.9 1-1.9 1-4.3t-1-4.2q-1-1.9-2.8-2.9-1.8-1.1-4-1.1t-4.1 1.1q-1.7 1-2.8 2.9-1 1.8-1 4.2 0 2.4 1 4.3 1.1 1.9 2.8 2.9 1.9 1.1 4.1 1.1zm32.6-27.4q6 0 9.4 2.8 3.5 2.9 3.5 7.9t-3.5 7.9q-3.4 2.9-9.4 2.9h-7.6v9.3h-4.4v-30.8zm-.1 17.6q4.2 0 6.4-1.7 2.2-1.8 2.2-5.2 0-3.3-2.2-5.1-2.2-1.8-6.4-1.8h-7.5v13.8zm22.5-6.2q1.1-2 3.2-3.1 2.2-1.1 5.3-1.1v4.1h-1q-3.4 0-5.4 2.1-1.9 2-1.9 5.8v11.6h-4.3v-23.3h4.1zm34.6 7.8q0 .5-.1 1.3h-19q.4 3.1 2.7 5 2.4 1.8 5.8 1.8 4.2 0 6.7-2.8l2.4 2.7q-1.6 1.9-4 2.9-2.3.9-5.2.9-3.7 0-6.6-1.5-2.9-1.5-4.4-4.2-1.6-2.8-1.6-6.2 0-3.4 1.5-6.1 1.6-2.7 4.2-4.2 2.7-1.6 6-1.6 3.4 0 6 1.6 2.6 1.5 4.1 4.2 1.5 2.7 1.5 6.2zm-11.6-8.4q-3 0-5.1 1.8-2 1.9-2.4 4.9h15q-.3-3-2.4-4.8-2-1.9-5.1-1.9zm24.1 20.2q-2.9 0-5.5-.7-2.6-.8-4.1-2l1.7-3.3q1.6 1.1 3.8 1.7 2.2.7 4.4.7 5.6 0 5.6-3.2 0-1-.8-1.7-.7-.6-1.9-.8-1.1-.3-3.2-.7-2.8-.4-4.6-1-1.7-.6-3-1.9-1.3-1.4-1.3-3.9 0-3.1 2.7-5 2.6-2 7-2 2.4 0 4.7.6 2.3.6 3.8 1.5l-1.8 3.4q-2.8-1.9-6.7-1.9-2.7 0-4.1.9-1.4.9-1.4 2.3 0 1.2.8 1.9.8.6 1.9.9 1.2.3 3.3.7 2.8.5 4.6 1.1 1.7.5 2.9 1.8 1.3 1.3 1.3 3.7 0 3.2-2.7 5.1-2.7 1.8-7.4 1.8zm22 0q-2.8 0-5.5-.7-2.6-.8-4.1-2l1.8-3.3q1.5 1.1 3.7 1.7 2.2.7 4.5.7 5.5 0 5.5-3.2 0-1-.7-1.7-.8-.6-1.9-.8-1.1-.3-3.2-.7-2.8-.4-4.6-1-1.8-.6-3.1-1.9-1.2-1.4-1.2-3.9 0-3.1 2.6-5 2.6-2 7.1-2 2.3 0 4.6.6 2.4.6 3.9 1.5l-1.8 3.4q-2.9-1.9-6.8-1.9-2.6 0-4.1.9-1.4.9-1.4 2.3 0 1.2.8 1.9.8.6 2 .9 1.2.3 3.3.7 2.8.5 4.5 1.1 1.8.5 3 1.8t1.2 3.7q0 3.2-2.7 5.1-2.7 1.8-7.4 1.8zm39.8-31q6 0 9.5 2.8 3.4 2.9 3.4 7.9t-3.4 7.9q-3.5 2.8-9.5 2.8h-7.6v9.4h-4.4v-30.8zm-.1 17.6q4.2 0 6.4-1.7 2.2-1.9 2.2-5.2 0-3.3-2.2-5.1-2.2-1.8-6.4-1.8h-7.5v13.8zm19.3-19.5h4.2v32.7h-4.2zm34 9.3v23.3h-4v-3.5q-1.3 1.8-3.4 2.8-2.1 1-4.5 1-4.7 0-7.4-2.6-2.6-2.6-2.6-7.6v-13.4h4.2v12.9q0 3.4 1.6 5.2 1.6 1.7 4.7 1.7 3.3 0 5.2-2 2-2.1 2-5.7v-12.1zm30.3 0v20.1q0 6.2-3 9.1-3 2.9-9.1 2.9-3.3 0-6.3-.9t-4.8-2.6l2-3.2q1.7 1.4 4 2.2 2.4.8 5 .8 4.1 0 6-1.9 2-2 2-5.9v-1.9q-1.5 1.8-3.7 2.8-2.1.8-4.7.8-3.3 0-6.1-1.4-2.7-1.4-4.2-4t-1.5-5.9q0-3.3 1.5-5.8 1.5-2.6 4.2-4 2.8-1.4 6.1-1.4 2.6 0 4.9.9 2.3 1 3.7 2.9v-3.6zm-12.1 18.7q2.3 0 4.1-1 1.8-1 2.8-2.7 1.1-1.8 1.1-4 0-3.3-2.3-5.4-2.2-2.1-5.7-2.1-3.6 0-5.8 2.1-2.3 2.1-2.3 5.4 0 2.2 1 4 1.1 1.7 2.9 2.7 1.9 1 4.2 1zm20.2-18.7h4.2v23.3h-4.2zm2.1-4.5q-1.2 0-2.1-.8-.8-.8-.7-1.9-.1-1.1.7-1.9.9-.9 2.1-.9 1.2 0 2 .8.9.8.9 1.9 0 1.2-.9 2-.8.8-2 .8zm22.6 4.3q4.5 0 7.1 2.6 2.6 2.5 2.6 7.5v13.4h-4.2V1868q0-3.4-1.6-5.1-1.7-1.7-4.7-1.7-3.4 0-5.4 2-2 2-2 5.7v12h-4.2v-23.3h4v3.5q1.3-1.8 3.5-2.7 2.2-1 4.9-1zm24.2 23.8q-2.8 0-5.5-.7-2.6-.8-4.1-2l1.7-3.4q1.6 1.1 3.8 1.8 2.2.6 4.4.6 5.6 0 5.6-3.1 0-1.1-.8-1.7-.7-.6-1.9-.9-1.1-.3-3.1-.6-2.8-.5-4.7-1-1.7-.6-3-2-1.3-1.3-1.3-3.8 0-3.2 2.7-5.1 2.6-1.9 7.1-1.9 2.3 0 4.6.6 2.4.5 3.9 1.5l-1.9 3.4q-2.8-1.9-6.7-1.9-2.7 0-4.1.9-1.4.9-1.4 2.3 0 1.2.8 1.8.8.7 1.9 1 1.2.3 3.3.7 2.9.5 4.6 1 1.7.6 3 1.9 1.2 1.3 1.2 3.7 0 3.2-2.7 5.1-2.7 1.8-7.4 1.8zM2137.4 1713.5q22.2 0 32.7 8.8 10.7 8.8 10.7 23.7 0 9.6-4.8 17.5-4.8 7.8-14.7 12.7-9.8 4.6-24.2 4.6-11.1 0-21.9-2.8-10.6-3-18.1-8.5l9.6-18.5q6 4.5 13.8 7 7.8 2.4 16 2.4 9.2 0 14.4-3.6 5.3-3.6 5.3-10 0-6.8-5.6-10.3-5.4-3.4-18.9-3.4h-26.8l5.4-59.1h64v19.5h-43.8l-1.6 20zm88.5 0q22.2 0 32.7 8.8 10.6 8.8 10.6 23.7 0 9.6-4.8 17.5-4.8 7.8-14.7 12.7-9.7 4.6-24.1 4.6-11.1 0-21.9-2.8-10.7-3-18.2-8.5l9.6-18.5q6 4.5 13.8 7 7.8 2.4 16.1 2.4 9.1 0 14.4-3.6 5.2-3.6 5.2-10 0-6.8-5.5-10.3-5.4-3.4-18.9-3.4h-26.9l5.4-59.1h64.1v19.5H2219l-1.7 20zm67.2 37.6q6.3 0 10.3 4.1 4.1 3.9 4.1 10.3 0 3-.8 6-.7 3-3.3 9l-8.5 21.6H2280l6.6-23.8q-3.7-1.5-6-4.8-2.1-3.5-2.1-8 0-6.4 4.1-10.3 4.2-4.1 10.5-4.1zm68.4 29.7q-13.1 0-23.3-6.5-10.2-6.4-16-18.5-5.7-12.4-5.7-29.3t5.7-29.1q5.8-12.3 16-18.7 10.2-6.5 23.3-6.5 13 0 23.2 6.5 10.2 6.4 15.9 18.7 5.9 12.2 5.9 29.1 0 16.9-5.9 29.3-5.7 12.1-15.9 18.5-10.2 6.5-23.2 6.5zm0-20.5q9.6 0 15-8.3 5.5-8.2 5.5-25.5 0-17.2-5.5-25.5-5.4-8.2-15-8.2-9.5 0-15 8.2-5.4 8.3-5.4 25.5 0 17.3 5.4 25.5 5.5 8.3 15 8.3zm101.8 20.5q-13.1 0-23.3-6.5-10.2-6.4-16-18.5-5.7-12.4-5.7-29.3t5.7-29.1q5.8-12.3 16-18.7 10.2-6.5 23.3-6.5 13 0 23.2 6.5 10.2 6.4 15.9 18.7 5.9 12.2 5.9 29.1 0 16.9-5.9 29.3-5.7 12.1-15.9 18.5-10.2 6.5-23.2 6.5zm0-20.5q9.6 0 15-8.3 5.5-8.2 5.5-25.5 0-17.2-5.5-25.5-5.4-8.2-15-8.2-9.5 0-15 8.2-5.4 8.3-5.4 25.5 0 17.3 5.4 25.5 5.5 8.3 15 8.3zm101.8 20.5q-13.1 0-23.3-6.5-10.2-6.4-16-18.5-5.7-12.4-5.7-29.3t5.7-29.1q5.8-12.3 16-18.7 10.2-6.5 23.3-6.5 13 0 23.2 6.5 10.2 6.4 15.9 18.7 5.9 12.2 5.9 29.1 0 16.9-5.9 29.3-5.7 12.1-15.9 18.5-10.2 6.5-23.2 6.5zm0-20.5q9.6 0 15-8.3 5.5-8.2 5.5-25.5 0-17.2-5.5-25.5-5.4-8.2-15-8.2-9.5 0-15 8.2-5.4 8.3-5.4 25.5 0 17.3 5.4 25.5 5.5 8.3 15 8.3zm132.2-24.6h-26.1v25.5h-19.3v-25.5h-26v-18.4h26v-25.5h19.3v25.5h26.1z"/><path class="e" d="M2403 1453v105"/><path class="f" d="M2400.7 1453.5c-47.9 0-86.7-38.8-86.7-86.8 0-47.9 38.8-86.7 86.7-86.7 48 0 86.8 38.8 86.8 86.7 0 48-38.8 86.8-86.8 86.8z"/><path class="g" d="M2400.7 1451.5c-46.8 0-84.7-37.9-84.7-84.8 0-46.8 37.9-84.7 84.7-84.7 46.9 0 84.8 37.9 84.8 84.7 0 46.9-37.9 84.8-84.8 84.8z"/><path fill-rule="evenodd" class="d" d="M2375.8 1325.7q12.2-1.6 24.9-1.6 12.6 0 24.8 1.6c1.6.2 2.7 1.5 2.7 3v3.5q6.4.9 12.6 2.2c1.6.4 2.6 1.9 2.3 3.5-2 12.4-12.3 21.9-25 22.9-3.2 2.6-7 4.5-11.2 5.5.4 4.8 2 9.2 4.5 12.9h3c4.3 0 7.7 3.5 7.7 7.7v10.7h3.1c5 0 9.1 4.1 9.1 9.2 0 1.7-1.3 3.1-3 3.1H2370c-1.7 0-3-1.4-3-3.1 0-5.1 4.1-9.2 9.2-9.2h3v-10.7c0-4.2 3.4-7.7 7.7-7.7h3c2.5-3.7 4.1-8.1 4.5-12.9-4.1-1-8-2.9-11.2-5.5-12.7-1-22.9-10.5-25-22.9-.3-1.6.7-3.1 2.4-3.5q6.2-1.3 12.5-2.2v-3.5c0-1.5 1.1-2.8 2.7-3zm-2.7 12.7q-4.1.6-8.2 1.4c1.9 5.8 6.2 10.6 11.7 13.1-2.2-4-3.5-8.6-3.5-13.5zm51.6 14.5c5.6-2.4 9.9-7.2 11.7-13.1q-4.1-.8-8.2-1.4v1.1c0 4.9-1.3 9.5-3.5 13.4z"/></svg>